<?xml version="1.0"?>
<VTKFile type="UnstructuredGrid" version="0.1" byte_order="LittleEndian">
 <UnstructuredGrid>
  <Piece NumberOfPoints="408" NumberOfCells="700">
   <Points>
    <DataArray type="Float32" NumberOfComponents="3" format="ascii">
0.0 2e-08 0.0
0.0 2.09760307571216e-08 0.0
0.0 2.20740653588834e-08 0.0
0.0 2.3309354285865302e-08 0.0
0.0 2.46990543287201e-08 0.0
0.0 2.6262466876931702e-08 0.0
0.0 2.80213059936697e-08 0.0
0.0 3.0000000000000004e-08 0.0
1e-09 2e-08 0.0
1e-09 2.09760307571216e-08 0.0
1e-09 2.20740653588834e-08 0.0
1e-09 2.3309354285865302e-08 0.0
1e-09 2.46990543287201e-08 0.0
1e-09 2.6262466876931702e-08 0.0
1e-09 2.80213059936697e-08 0.0
1e-09 3.0000000000000004e-08 0.0
2e-09 2e-08 0.0
2e-09 2.09760307571216e-08 0.0
2e-09 2.20740653588834e-08 0.0
2e-09 2.3309354285865302e-08 0.0
2e-09 2.46990543287201e-08 0.0
2e-09 2.6262466876931702e-08 0.0
2e-09 2.80213059936697e-08 0.0
2e-09 3.0000000000000004e-08 0.0
3.0000000000000004e-09 2e-08 0.0
3.0000000000000004e-09 2.09760307571216e-08 0.0
3.0000000000000004e-09 2.20740653588834e-08 0.0
3.0000000000000004e-09 2.3309354285865302e-08 0.0
3.0000000000000004e-09 2.46990543287201e-08 0.0
3.0000000000000004e-09 2.6262466876931702e-08 0.0
3.0000000000000004e-09 2.80213059936697e-08 0.0
3.0000000000000004e-09 3.0000000000000004e-08 0.0
4e-09 2e-08 0.0
4e-09 2.09760307571216e-08 0.0
4e-09 2.20740653588834e-08 0.0
4e-09 2.3309354285865302e-08 0.0
4e-09 2.46990543287201e-08 0.0
4e-09 2.6262466876931702e-08 0.0
4e-09 2.80213059936697e-08 0.0
4e-09 3.0000000000000004e-08 0.0
5e-09 2e-08 0.0
5e-09 2.09760307571216e-08 0.0
5e-09 2.20740653588834e-08 0.0
5e-09 2.3309354285865302e-08 0.0
5e-09 2.46990543287201e-08 0.0
5e-09 2.6262466876931702e-08 0.0
5e-09 2.80213059936697e-08 0.0
5e-09 3.0000000000000004e-08 0.0
6.000000000000001e-09 2e-08 0.0
6.000000000000001e-09 2.09760307571216e-08 0.0
6.000000000000001e-09 2.20740653588834e-08 0.0
6.000000000000001e-09 2.3309354285865302e-08 0.0
6.000000000000001e-09 2.46990543287201e-08 0.0
6.000000000000001e-09 2.6262466876931702e-08 0.0
6.000000000000001e-09 2.80213059936697e-08 0.0
6.000000000000001e-09 3.0000000000000004e-08 0.0
7.000000000000001e-09 2e-08 0.0
7.000000000000001e-09 2.09760307571216e-08 0.0
7.000000000000001e-09 2.20740653588834e-08 0.0
7.000000000000001e-09 2.3309354285865302e-08 0.0
7.000000000000001e-09 2.46990543287201e-08 0.0
7.000000000000001e-09 2.6262466876931702e-08 0.0
7.000000000000001e-09 2.80213059936697e-08 0.0
7.000000000000001e-09 3.0000000000000004e-08 0.0
8e-09 2e-08 0.0
8e-09 2.09760307571216e-08 0.0
8e-09 2.20740653588834e-08 0.0
8e-09 2.3309354285865302e-08 0.0
8e-09 2.46990543287201e-08 0.0
8e-09 2.6262466876931702e-08 0.0
8e-09 2.80213059936697e-08 0.0
8e-09 3.0000000000000004e-08 0.0
9.000000000000001e-09 2e-08 0.0
9.000000000000001e-09 2.09760307571216e-08 0.0
9.000000000000001e-09 2.20740653588834e-08 0.0
9.000000000000001e-09 2.3309354285865302e-08 0.0
9.000000000000001e-09 2.46990543287201e-08 0.0
9.000000000000001e-09 2.6262466876931702e-08 0.0
9.000000000000001e-09 2.80213059936697e-08 0.0
9.000000000000001e-09 3.0000000000000004e-08 0.0
1e-08 2e-08 0.0
1e-08 2.09760307571216e-08 0.0
1e-08 2.20740653588834e-08 0.0
1e-08 2.3309354285865302e-08 0.0
1e-08 2.46990543287201e-08 0.0
1e-08 2.6262466876931702e-08 0.0
1e-08 2.80213059936697e-08 0.0
1e-08 3.0000000000000004e-08 0.0
1.1000000000000001e-08 2e-08 0.0
1.1000000000000001e-08 2.09760307571216e-08 0.0
1.1000000000000001e-08 2.20740653588834e-08 0.0
1.1000000000000001e-08 2.3309354285865302e-08 0.0
1.1000000000000001e-08 2.46990543287201e-08 0.0
1.1000000000000001e-08 2.6262466876931702e-08 0.0
1.1000000000000001e-08 2.80213059936697e-08 0.0
1.1000000000000001e-08 3.0000000000000004e-08 0.0
1.2000000000000002e-08 2e-08 0.0
1.2000000000000002e-08 2.09760307571216e-08 0.0
1.2000000000000002e-08 2.20740653588834e-08 0.0
1.2000000000000002e-08 2.3309354285865302e-08 0.0
1.2000000000000002e-08 2.46990543287201e-08 0.0
1.2000000000000002e-08 2.6262466876931702e-08 0.0
1.2000000000000002e-08 2.80213059936697e-08 0.0
1.2000000000000002e-08 3.0000000000000004e-08 0.0
1.3e-08 2e-08 0.0
1.3e-08 2.09760307571216e-08 0.0
1.3e-08 2.20740653588834e-08 0.0
1.3e-08 2.3309354285865302e-08 0.0
1.3e-08 2.46990543287201e-08 0.0
1.3e-08 2.6262466876931702e-08 0.0
1.3e-08 2.80213059936697e-08 0.0
1.3e-08 3.0000000000000004e-08 0.0
1.4000000000000001e-08 2e-08 0.0
1.4000000000000001e-08 2.09760307571216e-08 0.0
1.4000000000000001e-08 2.20740653588834e-08 0.0
1.4000000000000001e-08 2.3309354285865302e-08 0.0
1.4000000000000001e-08 2.46990543287201e-08 0.0
1.4000000000000001e-08 2.6262466876931702e-08 0.0
1.4000000000000001e-08 2.80213059936697e-08 0.0
1.4000000000000001e-08 3.0000000000000004e-08 0.0
1.5000000000000002e-08 2e-08 0.0
1.5000000000000002e-08 2.09760307571216e-08 0.0
1.5000000000000002e-08 2.20740653588834e-08 0.0
1.5000000000000002e-08 2.3309354285865302e-08 0.0
1.5000000000000002e-08 2.46990543287201e-08 0.0
1.5000000000000002e-08 2.6262466876931702e-08 0.0
1.5000000000000002e-08 2.80213059936697e-08 0.0
1.5000000000000002e-08 3.0000000000000004e-08 0.0
1.6e-08 2e-08 0.0
1.6e-08 2.09760307571216e-08 0.0
1.6e-08 2.20740653588834e-08 0.0
1.6e-08 2.3309354285865302e-08 0.0
1.6e-08 2.46990543287201e-08 0.0
1.6e-08 2.6262466876931702e-08 0.0
1.6e-08 2.80213059936697e-08 0.0
1.6e-08 3.0000000000000004e-08 0.0
1.7e-08 2e-08 0.0
1.7e-08 2.09760307571216e-08 0.0
1.7e-08 2.20740653588834e-08 0.0
1.7e-08 2.3309354285865302e-08 0.0
1.7e-08 2.46990543287201e-08 0.0
1.7e-08 2.6262466876931702e-08 0.0
1.7e-08 2.80213059936697e-08 0.0
1.7e-08 3.0000000000000004e-08 0.0
1.8000000000000002e-08 2e-08 0.0
1.8000000000000002e-08 2.09760307571216e-08 0.0
1.8000000000000002e-08 2.20740653588834e-08 0.0
1.8000000000000002e-08 2.3309354285865302e-08 0.0
1.8000000000000002e-08 2.46990543287201e-08 0.0
1.8000000000000002e-08 2.6262466876931702e-08 0.0
1.8000000000000002e-08 2.80213059936697e-08 0.0
1.8000000000000002e-08 3.0000000000000004e-08 0.0
1.9e-08 2e-08 0.0
1.9e-08 2.09760307571216e-08 0.0
1.9e-08 2.20740653588834e-08 0.0
1.9e-08 2.3309354285865302e-08 0.0
1.9e-08 2.46990543287201e-08 0.0
1.9e-08 2.6262466876931702e-08 0.0
1.9e-08 2.80213059936697e-08 0.0
1.9e-08 3.0000000000000004e-08 0.0
2e-08 2e-08 0.0
2e-08 2.09760307571216e-08 0.0
2e-08 2.20740653588834e-08 0.0
2e-08 2.3309354285865302e-08 0.0
2e-08 2.46990543287201e-08 0.0
2e-08 2.6262466876931702e-08 0.0
2e-08 2.80213059936697e-08 0.0
2e-08 3.0000000000000004e-08 0.0
2.1000000000000003e-08 2e-08 0.0
2.1000000000000003e-08 2.09760307571216e-08 0.0
2.1000000000000003e-08 2.20740653588834e-08 0.0
2.1000000000000003e-08 2.3309354285865302e-08 0.0
2.1000000000000003e-08 2.46990543287201e-08 0.0
2.1000000000000003e-08 2.6262466876931702e-08 0.0
2.1000000000000003e-08 2.80213059936697e-08 0.0
2.1000000000000003e-08 3.0000000000000004e-08 0.0
2.2000000000000002e-08 2e-08 0.0
2.2000000000000002e-08 2.09760307571216e-08 0.0
2.2000000000000002e-08 2.20740653588834e-08 0.0
2.2000000000000002e-08 2.3309354285865302e-08 0.0
2.2000000000000002e-08 2.46990543287201e-08 0.0
2.2000000000000002e-08 2.6262466876931702e-08 0.0
2.2000000000000002e-08 2.80213059936697e-08 0.0
2.2000000000000002e-08 3.0000000000000004e-08 0.0
2.3e-08 2e-08 0.0
2.3e-08 2.09760307571216e-08 0.0
2.3e-08 2.20740653588834e-08 0.0
2.3e-08 2.3309354285865302e-08 0.0
2.3e-08 2.46990543287201e-08 0.0
2.3e-08 2.6262466876931702e-08 0.0
2.3e-08 2.80213059936697e-08 0.0
2.3e-08 3.0000000000000004e-08 0.0
2.4000000000000003e-08 2e-08 0.0
2.4000000000000003e-08 2.09760307571216e-08 0.0
2.4000000000000003e-08 2.20740653588834e-08 0.0
2.4000000000000003e-08 2.3309354285865302e-08 0.0
2.4000000000000003e-08 2.46990543287201e-08 0.0
2.4000000000000003e-08 2.6262466876931702e-08 0.0
2.4000000000000003e-08 2.80213059936697e-08 0.0
2.4000000000000003e-08 3.0000000000000004e-08 0.0
2.5000000000000002e-08 2e-08 0.0
2.5000000000000002e-08 2.09760307571216e-08 0.0
2.5000000000000002e-08 2.20740653588834e-08 0.0
2.5000000000000002e-08 2.3309354285865302e-08 0.0
2.5000000000000002e-08 2.46990543287201e-08 0.0
2.5000000000000002e-08 2.6262466876931702e-08 0.0
2.5000000000000002e-08 2.80213059936697e-08 0.0
2.5000000000000002e-08 3.0000000000000004e-08 0.0
2.6e-08 2e-08 0.0
2.6e-08 2.09760307571216e-08 0.0
2.6e-08 2.20740653588834e-08 0.0
2.6e-08 2.3309354285865302e-08 0.0
2.6e-08 2.46990543287201e-08 0.0
2.6e-08 2.6262466876931702e-08 0.0
2.6e-08 2.80213059936697e-08 0.0
2.6e-08 3.0000000000000004e-08 0.0
2.7e-08 2e-08 0.0
2.7e-08 2.09760307571216e-08 0.0
2.7e-08 2.20740653588834e-08 0.0
2.7e-08 2.3309354285865302e-08 0.0
2.7e-08 2.46990543287201e-08 0.0
2.7e-08 2.6262466876931702e-08 0.0
2.7e-08 2.80213059936697e-08 0.0
2.7e-08 3.0000000000000004e-08 0.0
2.8000000000000003e-08 2e-08 0.0
2.8000000000000003e-08 2.09760307571216e-08 0.0
2.8000000000000003e-08 2.20740653588834e-08 0.0
2.8000000000000003e-08 2.3309354285865302e-08 0.0
2.8000000000000003e-08 2.46990543287201e-08 0.0
2.8000000000000003e-08 2.6262466876931702e-08 0.0
2.8000000000000003e-08 2.80213059936697e-08 0.0
2.8000000000000003e-08 3.0000000000000004e-08 0.0
2.9e-08 2e-08 0.0
2.9e-08 2.09760307571216e-08 0.0
2.9e-08 2.20740653588834e-08 0.0
2.9e-08 2.3309354285865302e-08 0.0
2.9e-08 2.46990543287201e-08 0.0
2.9e-08 2.6262466876931702e-08 0.0
2.9e-08 2.80213059936697e-08 0.0
2.9e-08 3.0000000000000004e-08 0.0
3.0000000000000004e-08 2e-08 0.0
3.0000000000000004e-08 2.09760307571216e-08 0.0
3.0000000000000004e-08 2.20740653588834e-08 0.0
3.0000000000000004e-08 2.3309354285865302e-08 0.0
3.0000000000000004e-08 2.46990543287201e-08 0.0
3.0000000000000004e-08 2.6262466876931702e-08 0.0
3.0000000000000004e-08 2.80213059936697e-08 0.0
3.0000000000000004e-08 3.0000000000000004e-08 0.0
3.1e-08 2e-08 0.0
3.1e-08 2.09760307571216e-08 0.0
3.1e-08 2.20740653588834e-08 0.0
3.1e-08 2.3309354285865302e-08 0.0
3.1e-08 2.46990543287201e-08 0.0
3.1e-08 2.6262466876931702e-08 0.0
3.1e-08 2.80213059936697e-08 0.0
3.1e-08 3.0000000000000004e-08 0.0
3.2e-08 2e-08 0.0
3.2e-08 2.09760307571216e-08 0.0
3.2e-08 2.20740653588834e-08 0.0
3.2e-08 2.3309354285865302e-08 0.0
3.2e-08 2.46990543287201e-08 0.0
3.2e-08 2.6262466876931702e-08 0.0
3.2e-08 2.80213059936697e-08 0.0
3.2e-08 3.0000000000000004e-08 0.0
3.3000000000000004e-08 2e-08 0.0
3.3000000000000004e-08 2.09760307571216e-08 0.0
3.3000000000000004e-08 2.20740653588834e-08 0.0
3.3000000000000004e-08 2.3309354285865302e-08 0.0
3.3000000000000004e-08 2.46990543287201e-08 0.0
3.3000000000000004e-08 2.6262466876931702e-08 0.0
3.3000000000000004e-08 2.80213059936697e-08 0.0
3.3000000000000004e-08 3.0000000000000004e-08 0.0
3.4e-08 2e-08 0.0
3.4e-08 2.09760307571216e-08 0.0
3.4e-08 2.20740653588834e-08 0.0
3.4e-08 2.3309354285865302e-08 0.0
3.4e-08 2.46990543287201e-08 0.0
3.4e-08 2.6262466876931702e-08 0.0
3.4e-08 2.80213059936697e-08 0.0
3.4e-08 3.0000000000000004e-08 0.0
3.5e-08 2e-08 0.0
3.5e-08 2.09760307571216e-08 0.0
3.5e-08 2.20740653588834e-08 0.0
3.5e-08 2.3309354285865302e-08 0.0
3.5e-08 2.46990543287201e-08 0.0
3.5e-08 2.6262466876931702e-08 0.0
3.5e-08 2.80213059936697e-08 0.0
3.5e-08 3.0000000000000004e-08 0.0
3.6000000000000005e-08 2e-08 0.0
3.6000000000000005e-08 2.09760307571216e-08 0.0
3.6000000000000005e-08 2.20740653588834e-08 0.0
3.6000000000000005e-08 2.3309354285865302e-08 0.0
3.6000000000000005e-08 2.46990543287201e-08 0.0
3.6000000000000005e-08 2.6262466876931702e-08 0.0
3.6000000000000005e-08 2.80213059936697e-08 0.0
3.6000000000000005e-08 3.0000000000000004e-08 0.0
3.7e-08 2e-08 0.0
3.7e-08 2.09760307571216e-08 0.0
3.7e-08 2.20740653588834e-08 0.0
3.7e-08 2.3309354285865302e-08 0.0
3.7e-08 2.46990543287201e-08 0.0
3.7e-08 2.6262466876931702e-08 0.0
3.7e-08 2.80213059936697e-08 0.0
3.7e-08 3.0000000000000004e-08 0.0
3.8e-08 2e-08 0.0
3.8e-08 2.09760307571216e-08 0.0
3.8e-08 2.20740653588834e-08 0.0
3.8e-08 2.3309354285865302e-08 0.0
3.8e-08 2.46990543287201e-08 0.0
3.8e-08 2.6262466876931702e-08 0.0
3.8e-08 2.80213059936697e-08 0.0
3.8e-08 3.0000000000000004e-08 0.0
3.9000000000000005e-08 2e-08 0.0
3.9000000000000005e-08 2.09760307571216e-08 0.0
3.9000000000000005e-08 2.20740653588834e-08 0.0
3.9000000000000005e-08 2.3309354285865302e-08 0.0
3.9000000000000005e-08 2.46990543287201e-08 0.0
3.9000000000000005e-08 2.6262466876931702e-08 0.0
3.9000000000000005e-08 2.80213059936697e-08 0.0
3.9000000000000005e-08 3.0000000000000004e-08 0.0
4e-08 2e-08 0.0
4e-08 2.09760307571216e-08 0.0
4e-08 2.20740653588834e-08 0.0
4e-08 2.3309354285865302e-08 0.0
4e-08 2.46990543287201e-08 0.0
4e-08 2.6262466876931702e-08 0.0
4e-08 2.80213059936697e-08 0.0
4e-08 3.0000000000000004e-08 0.0
4.1e-08 2e-08 0.0
4.1e-08 2.09760307571216e-08 0.0
4.1e-08 2.20740653588834e-08 0.0
4.1e-08 2.3309354285865302e-08 0.0
4.1e-08 2.46990543287201e-08 0.0
4.1e-08 2.6262466876931702e-08 0.0
4.1e-08 2.80213059936697e-08 0.0
4.1e-08 3.0000000000000004e-08 0.0
4.2000000000000006e-08 2e-08 0.0
4.2000000000000006e-08 2.09760307571216e-08 0.0
4.2000000000000006e-08 2.20740653588834e-08 0.0
4.2000000000000006e-08 2.3309354285865302e-08 0.0
4.2000000000000006e-08 2.46990543287201e-08 0.0
4.2000000000000006e-08 2.6262466876931702e-08 0.0
4.2000000000000006e-08 2.80213059936697e-08 0.0
4.2000000000000006e-08 3.0000000000000004e-08 0.0
4.3e-08 2e-08 0.0
4.3e-08 2.09760307571216e-08 0.0
4.3e-08 2.20740653588834e-08 0.0
4.3e-08 2.3309354285865302e-08 0.0
4.3e-08 2.46990543287201e-08 0.0
4.3e-08 2.6262466876931702e-08 0.0
4.3e-08 2.80213059936697e-08 0.0
4.3e-08 3.0000000000000004e-08 0.0
4.4000000000000004e-08 2e-08 0.0
4.4000000000000004e-08 2.09760307571216e-08 0.0
4.4000000000000004e-08 2.20740653588834e-08 0.0
4.4000000000000004e-08 2.3309354285865302e-08 0.0
4.4000000000000004e-08 2.46990543287201e-08 0.0
4.4000000000000004e-08 2.6262466876931702e-08 0.0
4.4000000000000004e-08 2.80213059936697e-08 0.0
4.4000000000000004e-08 3.0000000000000004e-08 0.0
4.5000000000000006e-08 2e-08 0.0
4.5000000000000006e-08 2.09760307571216e-08 0.0
4.5000000000000006e-08 2.20740653588834e-08 0.0
4.5000000000000006e-08 2.3309354285865302e-08 0.0
4.5000000000000006e-08 2.46990543287201e-08 0.0
4.5000000000000006e-08 2.6262466876931702e-08 0.0
4.5000000000000006e-08 2.80213059936697e-08 0.0
4.5000000000000006e-08 3.0000000000000004e-08 0.0
4.6e-08 2e-08 0.0
4.6e-08 2.09760307571216e-08 0.0
4.6e-08 2.20740653588834e-08 0.0
4.6e-08 2.3309354285865302e-08 0.0
4.6e-08 2.46990543287201e-08 0.0
4.6e-08 2.6262466876931702e-08 0.0
4.6e-08 2.80213059936697e-08 0.0
4.6e-08 3.0000000000000004e-08 0.0
4.7000000000000004e-08 2e-08 0.0
4.7000000000000004e-08 2.09760307571216e-08 0.0
4.7000000000000004e-08 2.20740653588834e-08 0.0
4.7000000000000004e-08 2.3309354285865302e-08 0.0
4.7000000000000004e-08 2.46990543287201e-08 0.0
4.7000000000000004e-08 2.6262466876931702e-08 0.0
4.7000000000000004e-08 2.80213059936697e-08 0.0
4.7000000000000004e-08 3.0000000000000004e-08 0.0
4.8000000000000006e-08 2e-08 0.0
4.8000000000000006e-08 2.09760307571216e-08 0.0
4.8000000000000006e-08 2.20740653588834e-08 0.0
4.8000000000000006e-08 2.3309354285865302e-08 0.0
4.8000000000000006e-08 2.46990543287201e-08 0.0
4.8000000000000006e-08 2.6262466876931702e-08 0.0
4.8000000000000006e-08 2.80213059936697e-08 0.0
4.8000000000000006e-08 3.0000000000000004e-08 0.0
4.9e-08 2e-08 0.0
4.9e-08 2.09760307571216e-08 0.0
4.9e-08 2.20740653588834e-08 0.0
4.9e-08 2.3309354285865302e-08 0.0
4.9e-08 2.46990543287201e-08 0.0
4.9e-08 2.6262466876931702e-08 0.0
4.9e-08 2.80213059936697e-08 0.0
4.9e-08 3.0000000000000004e-08 0.0
5.0000000000000004e-08 2e-08 0.0
5.0000000000000004e-08 2.09760307571216e-08 0.0
5.0000000000000004e-08 2.20740653588834e-08 0.0
5.0000000000000004e-08 2.3309354285865302e-08 0.0
5.0000000000000004e-08 2.46990543287201e-08 0.0
5.0000000000000004e-08 2.6262466876931702e-08 0.0
5.0000000000000004e-08 2.80213059936697e-08 0.0
5.0000000000000004e-08 3.0000000000000004e-08 0.0
    </DataArray>
   </Points>
   <Cells>
    <DataArray type="Int32" Name="connectivity" format="ascii">
0 8 1
8 9 1
1 9 2
9 10 2
2 10 3
10 11 3
3 11 4
11 12 4
4 12 5
12 13 5
5 13 6
13 14 6
6 14 7
14 15 7
8 16 9
16 17 9
9 17 10
17 18 10
10 18 11
18 19 11
11 19 12
19 20 12
12 20 13
20 21 13
13 21 14
21 22 14
14 22 15
22 23 15
16 24 17
24 25 17
17 25 18
25 26 18
18 26 19
26 27 19
19 27 20
27 28 20
20 28 21
28 29 21
21 29 22
29 30 22
22 30 23
30 31 23
24 32 25
32 33 25
25 33 26
33 34 26
26 34 27
34 35 27
27 35 28
35 36 28
28 36 29
36 37 29
29 37 30
37 38 30
30 38 31
38 39 31
32 40 33
40 41 33
33 41 34
41 42 34
34 42 35
42 43 35
35 43 36
43 44 36
36 44 37
44 45 37
37 45 38
45 46 38
38 46 39
46 47 39
40 48 41
48 49 41
41 49 42
49 50 42
42 50 43
50 51 43
43 51 44
51 52 44
44 52 45
52 53 45
45 53 46
53 54 46
46 54 47
54 55 47
48 56 49
56 57 49
49 57 50
57 58 50
50 58 51
58 59 51
51 59 52
59 60 52
52 60 53
60 61 53
53 61 54
61 62 54
54 62 55
62 63 55
56 64 57
64 65 57
57 65 58
65 66 58
58 66 59
66 67 59
59 67 60
67 68 60
60 68 61
68 69 61
61 69 62
69 70 62
62 70 63
70 71 63
64 72 65
72 73 65
65 73 66
73 74 66
66 74 67
74 75 67
67 75 68
75 76 68
68 76 69
76 77 69
69 77 70
77 78 70
70 78 71
78 79 71
72 80 73
80 81 73
73 81 74
81 82 74
74 82 75
82 83 75
75 83 76
83 84 76
76 84 77
84 85 77
77 85 78
85 86 78
78 86 79
86 87 79
80 88 81
88 89 81
81 89 82
89 90 82
82 90 83
90 91 83
83 91 84
91 92 84
84 92 85
92 93 85
85 93 86
93 94 86
86 94 87
94 95 87
88 96 89
96 97 89
89 97 90
97 98 90
90 98 91
98 99 91
91 99 92
99 100 92
92 100 93
100 101 93
93 101 94
101 102 94
94 102 95
102 103 95
96 104 97
104 105 97
97 105 98
105 106 98
98 106 99
106 107 99
99 107 100
107 108 100
100 108 101
108 109 101
101 109 102
109 110 102
102 110 103
110 111 103
104 112 105
112 113 105
105 113 106
113 114 106
106 114 107
114 115 107
107 115 108
115 116 108
108 116 109
116 117 109
109 117 110
117 118 110
110 118 111
118 119 111
112 120 113
120 121 113
113 121 114
121 122 114
114 122 115
122 123 115
115 123 116
123 124 116
116 124 117
124 125 117
117 125 118
125 126 118
118 126 119
126 127 119
120 128 121
128 129 121
121 129 122
129 130 122
122 130 123
130 131 123
123 131 124
131 132 124
124 132 125
132 133 125
125 133 126
133 134 126
126 134 127
134 135 127
128 136 129
136 137 129
129 137 130
137 138 130
130 138 131
138 139 131
131 139 132
139 140 132
132 140 133
140 141 133
133 141 134
141 142 134
134 142 135
142 143 135
136 144 137
144 145 137
137 145 138
145 146 138
138 146 139
146 147 139
139 147 140
147 148 140
140 148 141
148 149 141
141 149 142
149 150 142
142 150 143
150 151 143
144 152 145
152 153 145
145 153 146
153 154 146
146 154 147
154 155 147
147 155 148
155 156 148
148 156 149
156 157 149
149 157 150
157 158 150
150 158 151
158 159 151
152 160 153
160 161 153
153 161 154
161 162 154
154 162 155
162 163 155
155 163 156
163 164 156
156 164 157
164 165 157
157 165 158
165 166 158
158 166 159
166 167 159
160 168 161
168 169 161
161 169 162
169 170 162
162 170 163
170 171 163
163 171 164
171 172 164
164 172 165
172 173 165
165 173 166
173 174 166
166 174 167
174 175 167
168 176 169
176 177 169
169 177 170
177 178 170
170 178 171
178 179 171
171 179 172
179 180 172
172 180 173
180 181 173
173 181 174
181 182 174
174 182 175
182 183 175
176 184 177
184 185 177
177 185 178
185 186 178
178 186 179
186 187 179
179 187 180
187 188 180
180 188 181
188 189 181
181 189 182
189 190 182
182 190 183
190 191 183
184 192 185
192 193 185
185 193 186
193 194 186
186 194 187
194 195 187
187 195 188
195 196 188
188 196 189
196 197 189
189 197 190
197 198 190
190 198 191
198 199 191
192 200 193
200 201 193
193 201 194
201 202 194
194 202 195
202 203 195
195 203 196
203 204 196
196 204 197
204 205 197
197 205 198
205 206 198
198 206 199
206 207 199
200 208 209
200 209 201
201 209 210
201 210 202
202 210 211
202 211 203
203 211 212
203 212 204
204 212 213
204 213 205
205 213 214
205 214 206
206 214 215
206 215 207
208 216 217
208 217 209
209 217 218
209 218 210
210 218 219
210 219 211
211 219 220
211 220 212
212 220 221
212 221 213
213 221 222
213 222 214
214 222 223
214 223 215
216 224 225
216 225 217
217 225 226
217 226 218
218 226 227
218 227 219
219 227 228
219 228 220
220 228 229
220 229 221
221 229 230
221 230 222
222 230 231
222 231 223
224 232 233
224 233 225
225 233 234
225 234 226
226 234 235
226 235 227
227 235 236
227 236 228
228 236 237
228 237 229
229 237 238
229 238 230
230 238 239
230 239 231
232 240 241
232 241 233
233 241 242
233 242 234
234 242 243
234 243 235
235 243 244
235 244 236
236 244 245
236 245 237
237 245 246
237 246 238
238 246 247
238 247 239
240 248 249
240 249 241
241 249 250
241 250 242
242 250 251
242 251 243
243 251 252
243 252 244
244 252 253
244 253 245
245 253 254
245 254 246
246 254 255
246 255 247
248 256 257
248 257 249
249 257 258
249 258 250
250 258 259
250 259 251
251 259 260
251 260 252
252 260 261
252 261 253
253 261 262
253 262 254
254 262 263
254 263 255
256 264 265
256 265 257
257 265 266
257 266 258
258 266 267
258 267 259
259 267 268
259 268 260
260 268 269
260 269 261
261 269 270
261 270 262
262 270 271
262 271 263
264 272 273
264 273 265
265 273 274
265 274 266
266 274 275
266 275 267
267 275 276
267 276 268
268 276 277
268 277 269
269 277 278
269 278 270
270 278 279
270 279 271
272 280 281
272 281 273
273 281 282
273 282 274
274 282 283
274 283 275
275 283 284
275 284 276
276 284 285
276 285 277
277 285 286
277 286 278
278 286 287
278 287 279
280 288 289
280 289 281
281 289 290
281 290 282
282 290 291
282 291 283
283 291 292
283 292 284
284 292 293
284 293 285
285 293 294
285 294 286
286 294 295
286 295 287
288 296 297
288 297 289
289 297 298
289 298 290
290 298 299
290 299 291
291 299 300
291 300 292
292 300 301
292 301 293
293 301 302
293 302 294
294 302 303
294 303 295
296 304 305
296 305 297
297 305 306
297 306 298
298 306 307
298 307 299
299 307 308
299 308 300
300 308 309
300 309 301
301 309 310
301 310 302
302 310 311
302 311 303
304 312 313
304 313 305
305 313 314
305 314 306
306 314 315
306 315 307
307 315 316
307 316 308
308 316 317
308 317 309
309 317 318
309 318 310
310 318 319
310 319 311
312 320 321
312 321 313
313 321 322
313 322 314
314 322 323
314 323 315
315 323 324
315 324 316
316 324 325
316 325 317
317 325 326
317 326 318
318 326 327
318 327 319
320 328 329
320 329 321
321 329 330
321 330 322
322 330 331
322 331 323
323 331 332
323 332 324
324 332 333
324 333 325
325 333 334
325 334 326
326 334 335
326 335 327
328 336 337
328 337 329
329 337 338
329 338 330
330 338 339
330 339 331
331 339 340
331 340 332
332 340 341
332 341 333
333 341 342
333 342 334
334 342 343
334 343 335
336 344 345
336 345 337
337 345 346
337 346 338
338 346 347
338 347 339
339 347 348
339 348 340
340 348 349
340 349 341
341 349 350
341 350 342
342 350 351
342 351 343
344 352 353
344 353 345
345 353 354
345 354 346
346 354 355
346 355 347
347 355 356
347 356 348
348 356 357
348 357 349
349 357 358
349 358 350
350 358 359
350 359 351
352 360 361
352 361 353
353 361 362
353 362 354
354 362 363
354 363 355
355 363 364
355 364 356
356 364 365
356 365 357
357 365 366
357 366 358
358 366 367
358 367 359
360 368 369
360 369 361
361 369 370
361 370 362
362 370 371
362 371 363
363 371 372
363 372 364
364 372 373
364 373 365
365 373 374
365 374 366
366 374 375
366 375 367
368 376 377
368 377 369
369 377 378
369 378 370
370 378 379
370 379 371
371 379 380
371 380 372
372 380 381
372 381 373
373 381 382
373 382 374
374 382 383
374 383 375
376 384 385
376 385 377
377 385 386
377 386 378
378 386 387
378 387 379
379 387 388
379 388 380
380 388 389
380 389 381
381 389 390
381 390 382
382 390 391
382 391 383
384 392 393
384 393 385
385 393 394
385 394 386
386 394 395
386 395 387
387 395 396
387 396 388
388 396 397
388 397 389
389 397 398
389 398 390
390 398 399
390 399 391
392 400 401
392 401 393
393 401 402
393 402 394
394 402 403
394 403 395
395 403 404
395 404 396
396 404 405
396 405 397
397 405 406
397 406 398
398 406 407
398 407 399
    </DataArray>
    <DataArray type="Int32" Name="offsets" format="ascii">
3 6 9 12 15 18 21 24 27 30 33 36 39 42 45 48 51 54 57 60 63 66 69 72 75 78 81 84 87 90 93 96 99 102 105 108 111 114 117 120 123 126 129 132 135 138 141 144 147 150 153 156 159 162 165 168 171 174 177 180 183 186 189 192 195 198 201 204 207 210 213 216 219 222 225 228 231 234 237 240 243 246 249 252 255 258 261 264 267 270 273 276 279 282 285 288 291 294 297 300 303 306 309 312 315 318 321 324 327 330 333 336 339 342 345 348 351 354 357 360 363 366 369 372 375 378 381 384 387 390 393 396 399 402 405 408 411 414 417 420 423 426 429 432 435 438 441 444 447 450 453 456 459 462 465 468 471 474 477 480 483 486 489 492 495 498 501 504 507 510 513 516 519 522 525 528 531 534 537 540 543 546 549 552 555 558 561 564 567 570 573 576 579 582 585 588 591 594 597 600 603 606 609 612 615 618 621 624 627 630 633 636 639 642 645 648 651 654 657 660 663 666 669 672 675 678 681 684 687 690 693 696 699 702 705 708 711 714 717 720 723 726 729 732 735 738 741 744 747 750 753 756 759 762 765 768 771 774 777 780 783 786 789 792 795 798 801 804 807 810 813 816 819 822 825 828 831 834 837 840 843 846 849 852 855 858 861 864 867 870 873 876 879 882 885 888 891 894 897 900 903 906 909 912 915 918 921 924 927 930 933 936 939 942 945 948 951 954 957 960 963 966 969 972 975 978 981 984 987 990 993 996 999 1002 1005 1008 1011 1014 1017 1020 1023 1026 1029 1032 1035 1038 1041 1044 1047 1050 1053 1056 1059 1062 1065 1068 1071 1074 1077 1080 1083 1086 1089 1092 1095 1098 1101 1104 1107 1110 1113 1116 1119 1122 1125 1128 1131 1134 1137 1140 1143 1146 1149 1152 1155 1158 1161 1164 1167 1170 1173 1176 1179 1182 1185 1188 1191 1194 1197 1200 1203 1206 1209 1212 1215 1218 1221 1224 1227 1230 1233 1236 1239 1242 1245 1248 1251 1254 1257 1260 1263 1266 1269 1272 1275 1278 1281 1284 1287 1290 1293 1296 1299 1302 1305 1308 1311 1314 1317 1320 1323 1326 1329 1332 1335 1338 1341 1344 1347 1350 1353 1356 1359 1362 1365 1368 1371 1374 1377 1380 1383 1386 1389 1392 1395 1398 1401 1404 1407 1410 1413 1416 1419 1422 1425 1428 1431 1434 1437 1440 1443 1446 1449 1452 1455 1458 1461 1464 1467 1470 1473 1476 1479 1482 1485 1488 1491 1494 1497 1500 1503 1506 1509 1512 1515 1518 1521 1524 1527 1530 1533 1536 1539 1542 1545 1548 1551 1554 1557 1560 1563 1566 1569 1572 1575 1578 1581 1584 1587 1590 1593 1596 1599 1602 1605 1608 1611 1614 1617 1620 1623 1626 1629 1632 1635 1638 1641 1644 1647 1650 1653 1656 1659 1662 1665 1668 1671 1674 1677 1680 1683 1686 1689 1692 1695 1698 1701 1704 1707 1710 1713 1716 1719 1722 1725 1728 1731 1734 1737 1740 1743 1746 1749 1752 1755 1758 1761 1764 1767 1770 1773 1776 1779 1782 1785 1788 1791 1794 1797 1800 1803 1806 1809 1812 1815 1818 1821 1824 1827 1830 1833 1836 1839 1842 1845 1848 1851 1854 1857 1860 1863 1866 1869 1872 1875 1878 1881 1884 1887 1890 1893 1896 1899 1902 1905 1908 1911 1914 1917 1920 1923 1926 1929 1932 1935 1938 1941 1944 1947 1950 1953 1956 1959 1962 1965 1968 1971 1974 1977 1980 1983 1986 1989 1992 1995 1998 2001 2004 2007 2010 2013 2016 2019 2022 2025 2028 2031 2034 2037 2040 2043 2046 2049 2052 2055 2058 2061 2064 2067 2070 2073 2076 2079 2082 2085 2088 2091 2094 2097 2100
    </DataArray>
    <DataArray type="UInt8" Name="types" format="ascii">
5 5 5 5 5 5 5 5 5 5 5 5 5 5 5 5 5 5 5 5 5 5 5 5 5 5 5 5 5 5 5 5 5 5 5 5 5 5 5 5 5 5 5 5 5 5 5 5 5 5 5 5 5 5 5 5 5 5 5 5 5 5 5 5 5 5 5 5 5 5 5 5 5 5 5 5 5 5 5 5 5 5 5 5 5 5 5 5 5 5 5 5 5 5 5 5 5 5 5 5 5 5 5 5 5 5 5 5 5 5 5 5 5 5 5 5 5 5 5 5 5 5 5 5 5 5 5 5 5 5 5 5 5 5 5 5 5 5 5 5 5 5 5 5 5 5 5 5 5 5 5 5 5 5 5 5 5 5 5 5 5 5 5 5 5 5 5 5 5 5 5 5 5 5 5 5 5 5 5 5 5 5 5 5 5 5 5 5 5 5 5 5 5 5 5 5 5 5 5 5 5 5 5 5 5 5 5 5 5 5 5 5 5 5 5 5 5 5 5 5 5 5 5 5 5 5 5 5 5 5 5 5 5 5 5 5 5 5 5 5 5 5 5 5 5 5 5 5 5 5 5 5 5 5 5 5 5 5 5 5 5 5 5 5 5 5 5 5 5 5 5 5 5 5 5 5 5 5 5 5 5 5 5 5 5 5 5 5 5 5 5 5 5 5 5 5 5 5 5 5 5 5 5 5 5 5 5 5 5 5 5 5 5 5 5 5 5 5 5 5 5 5 5 5 5 5 5 5 5 5 5 5 5 5 5 5 5 5 5 5 5 5 5 5 5 5 5 5 5 5 5 5 5 5 5 5 5 5 5 5 5 5 5 5 5 5 5 5 5 5 5 5 5 5 5 5 5 5 5 5 5 5 5 5 5 5 5 5 5 5 5 5 5 5 5 5 5 5 5 5 5 5 5 5 5 5 5 5 5 5 5 5 5 5 5 5 5 5 5 5 5 5 5 5 5 5 5 5 5 5 5 5 5 5 5 5 5 5 5 5 5 5 5 5 5 5 5 5 5 5 5 5 5 5 5 5 5 5 5 5 5 5 5 5 5 5 5 5 5 5 5 5 5 5 5 5 5 5 5 5 5 5 5 5 5 5 5 5 5 5 5 5 5 5 5 5 5 5 5 5 5 5 5 5 5 5 5 5 5 5 5 5 5 5 5 5 5 5 5 5 5 5 5 5 5 5 5 5 5 5 5 5 5 5 5 5 5 5 5 5 5 5 5 5 5 5 5 5 5 5 5 5 5 5 5 5 5 5 5 5 5 5 5 5 5 5 5 5 5 5 5 5 5 5 5 5 5 5 5 5 5 5 5 5 5 5 5 5 5 5 5 5 5 5 5 5 5 5 5 5 5 5 5 5 5 5 5 5 5 5 5 5 5 5 5 5 5 5 5 5 5 5 5 5 5 5 5 5 5 5 5 5 5 5 5 5 5 5 5 5 5 5 5 5 5 5 5 5 5 5 5 5 5 5 5 5 5 5 5 5 5 5 5 5 5 5 5 5 5 5 5 5 5 5 5 5 5 5 5 5 5 5 5 5 5 5 5 5 5 5 5 5 5 5 5 5 5 5 5 5
    </DataArray>
   </Cells>
   <PointData>
    <DataArray type="Float32" Name="Acceptor Doping [log10(m^-3)]" NumberOfComponents="1" format="ascii">
0.0 0.0 0.0 0.0 0.0 0.0 0.0 0.0 0.0 0.0 0.0 0.0 0.0 0.0 0.0 0.0 0.0 0.0 0.0 0.0 0.0 0.0 0.0 0.0 0.0 0.0 0.0 0.0 0.0 0.0 0.0 0.0 0.0 0.0 0.0 0.0 0.0 0.0 0.0 0.0 0.0 0.0 0.0 0.0 0.0 0.0 0.0 0.0 0.0 0.0 0.0 0.0 0.0 0.0 0.0 0.0 0.0 0.0 0.0 0.0 0.0 0.0 0.0 0.0 0.0 0.0 0.0 0.0 0.0 0.0 0.0 0.0 0.0 0.0 0.0 0.0 0.0 0.0 0.0 0.0 0.0 0.0 0.0 0.0 0.0 0.0 0.0 0.0 0.0 0.0 0.0 0.0 0.0 0.0 0.0 0.0 0.0 0.0 0.0 0.0 0.0 0.0 0.0 0.0 0.0 0.0 0.0 0.0 0.0 0.0 0.0 0.0 0.0 0.0 0.0 0.0 0.0 0.0 0.0 0.0 0.0 0.0 0.0 0.0 0.0 0.0 0.0 0.0 0.0 0.0 0.0 0.0 0.0 0.0 0.0 0.0 0.0 0.0 0.0 0.0 0.0 0.0 0.0 0.0 0.0 0.0 0.0 0.0 0.0 0.0 0.0 0.0 0.0 0.0 0.0 0.0 0.0 0.0 0.0 0.0 0.0 0.0 0.0 0.0 0.0 0.0 0.0 0.0 0.0 0.0 0.0 0.0 0.0 0.0 0.0 0.0 0.0 0.0 0.0 0.0 0.0 0.0 0.0 0.0 0.0 0.0 0.0 0.0 0.0 0.0 0.0 0.0 0.0 0.0 0.0 0.0 0.0 0.0 0.0 0.0 0.0 0.0 0.0 0.0 0.0 0.0 0.0 0.0 0.0 0.0 0.0 0.0 0.0 0.0 0.0 0.0 0.0 0.0 0.0 0.0 0.0 0.0 0.0 0.0 0.0 0.0 0.0 0.0 0.0 0.0 0.0 0.0 0.0 0.0 0.0 0.0 0.0 0.0 0.0 0.0 0.0 0.0 0.0 0.0 0.0 0.0 0.0 0.0 0.0 0.0 0.0 0.0 0.0 0.0 0.0 0.0 0.0 0.0 0.0 0.0 0.0 0.0 0.0 0.0 0.0 0.0 0.0 0.0 0.0 0.0 0.0 0.0 0.0 0.0 0.0 0.0 0.0 0.0 0.0 0.0 0.0 0.0 0.0 0.0 0.0 0.0 0.0 0.0 0.0 0.0 0.0 0.0 0.0 0.0 0.0 0.0 0.0 0.0 0.0 0.0 0.0 0.0 0.0 0.0 0.0 0.0 0.0 0.0 0.0 0.0 0.0 0.0 0.0 0.0 0.0 0.0 0.0 0.0 0.0 0.0 0.0 0.0 0.0 0.0 0.0 0.0 0.0 0.0 0.0 0.0 0.0 0.0 0.0 0.0 0.0 0.0 0.0 0.0 0.0 0.0 0.0 0.0 0.0 0.0 0.0 0.0 0.0 0.0 0.0 0.0 0.0 0.0 0.0 0.0 0.0 0.0 0.0 0.0 0.0 0.0 0.0 0.0 0.0 0.0 0.0 0.0 0.0 0.0 0.0 0.0 0.0 0.0 0.0 0.0 0.0 0.0 0.0 0.0 0.0 0.0 0.0 0.0 0.0 0.0 0.0 0.0 0.0 0.0 0.0 0.0 0.0 0.0 0.0 0.0 0.0 0.0 0.0 0.0 0.0 0.0 0.0 0.0 0.0 0.0 0.0 0.0 0.0 0.0
    </DataArray>
    <DataArray type="Float32" Name="Donor Doping [log10(m^-3)]" NumberOfComponents="1" format="ascii">
0.0 0.0 0.0 0.0 0.0 0.0 0.0 0.0 0.0 0.0 0.0 0.0 0.0 0.0 0.0 0.0 0.0 0.0 0.0 0.0 0.0 0.0 0.0 0.0 0.0 0.0 0.0 0.0 0.0 0.0 0.0 0.0 0.0 0.0 0.0 0.0 0.0 0.0 0.0 0.0 0.0 0.0 0.0 0.0 0.0 0.0 0.0 0.0 0.0 0.0 0.0 0.0 0.0 0.0 0.0 0.0 0.0 0.0 0.0 0.0 0.0 0.0 0.0 0.0 0.0 0.0 0.0 0.0 0.0 0.0 0.0 0.0 0.0 0.0 0.0 0.0 0.0 0.0 0.0 0.0 0.0 0.0 0.0 0.0 0.0 0.0 0.0 0.0 0.0 0.0 0.0 0.0 0.0 0.0 0.0 0.0 0.0 0.0 0.0 0.0 0.0 0.0 0.0 0.0 0.0 0.0 0.0 0.0 0.0 0.0 0.0 0.0 0.0 0.0 0.0 0.0 0.0 0.0 0.0 0.0 0.0 0.0 0.0 0.0 0.0 0.0 0.0 0.0 0.0 0.0 0.0 0.0 0.0 0.0 0.0 0.0 0.0 0.0 0.0 0.0 0.0 0.0 0.0 0.0 0.0 0.0 0.0 0.0 0.0 0.0 0.0 0.0 0.0 0.0 0.0 0.0 0.0 0.0 0.0 0.0 0.0 0.0 0.0 0.0 0.0 0.0 0.0 0.0 0.0 0.0 0.0 0.0 0.0 0.0 0.0 0.0 0.0 0.0 0.0 0.0 0.0 0.0 0.0 0.0 0.0 0.0 0.0 0.0 0.0 0.0 0.0 0.0 0.0 0.0 0.0 0.0 0.0 0.0 0.0 0.0 0.0 0.0 0.0 0.0 0.0 0.0 0.0 0.0 0.0 0.0 0.0 0.0 0.0 0.0 0.0 0.0 0.0 0.0 0.0 0.0 0.0 0.0 0.0 0.0 0.0 0.0 0.0 0.0 0.0 0.0 0.0 0.0 0.0 0.0 0.0 0.0 0.0 0.0 0.0 0.0 0.0 0.0 0.0 0.0 0.0 0.0 0.0 0.0 0.0 0.0 0.0 0.0 0.0 0.0 0.0 0.0 0.0 0.0 0.0 0.0 0.0 0.0 0.0 0.0 0.0 0.0 0.0 0.0 0.0 0.0 0.0 0.0 0.0 0.0 0.0 0.0 0.0 0.0 0.0 0.0 0.0 0.0 0.0 0.0 0.0 0.0 0.0 0.0 0.0 0.0 0.0 0.0 0.0 0.0 0.0 0.0 0.0 0.0 0.0 0.0 0.0 0.0 0.0 0.0 0.0 0.0 0.0 0.0 0.0 0.0 0.0 0.0 0.0 0.0 0.0 0.0 0.0 0.0 0.0 0.0 0.0 0.0 0.0 0.0 0.0 0.0 0.0 0.0 0.0 0.0 0.0 0.0 0.0 0.0 0.0 0.0 0.0 0.0 0.0 0.0 0.0 0.0 0.0 0.0 0.0 0.0 0.0 0.0 0.0 0.0 0.0 0.0 0.0 0.0 0.0 0.0 0.0 0.0 0.0 0.0 0.0 0.0 0.0 0.0 0.0 0.0 0.0 0.0 0.0 0.0 0.0 0.0 0.0 0.0 0.0 0.0 0.0 0.0 0.0 0.0 0.0 0.0 0.0 0.0 0.0 0.0 0.0 0.0 0.0 0.0 0.0 0.0 0.0 0.0 0.0 0.0 0.0 0.0 0.0 0.0 0.0 0.0 0.0 0.0 0.0 0.0 0.0 0.0
    </DataArray>
    <DataArray type="Float32" Name="Potential [V]" NumberOfComponents="1" format="ascii">
2.8556647730862155 0.1186539381532367 0.1186539381532367 0.1186539381532367 0.1186539381532367 0.1186539381532367 0.1186539381532367 0.1186539381532367 2.8556647730862155 0.1186539381532367 0.1186539381532367 0.1186539381532367 0.1186539381532367 0.1186539381532367 0.1186539381532367 0.1186539381532367 2.8556647730862155 0.1186539381532367 0.1186539381532367 0.1186539381532367 0.1186539381532367 0.1186539381532367 0.1186539381532367 0.1186539381532367 2.8556647730862155 0.1186539381532367 0.1186539381532367 0.1186539381532367 0.1186539381532367 0.1186539381532367 0.1186539381532367 0.1186539381532367 2.8556647730862155 0.1186539381532367 0.1186539381532367 0.1186539381532367 0.1186539381532367 0.1186539381532367 0.1186539381532367 0.1186539381532367 2.8556647730862155 0.1186539381532367 0.1186539381532367 0.1186539381532367 0.1186539381532367 0.1186539381532367 0.1186539381532367 0.1186539381532367 2.8556647730862155 0.1186539381532367 0.1186539381532367 0.1186539381532367 0.1186539381532367 0.1186539381532367 0.1186539381532367 0.1186539381532367 2.8556647730862155 0.1186539381532367 0.1186539381532367 0.1186539381532367 0.1186539381532367 0.1186539381532367 0.1186539381532367 0.1186539381532367 2.8556647730862155 0.1186539381532367 0.1186539381532367 0.1186539381532367 0.1186539381532367 0.1186539381532367 0.1186539381532367 0.1186539381532367 2.8556647730862155 0.1186539381532367 0.1186539381532367 0.1186539381532367 0.1186539381532367 0.1186539381532367 0.1186539381532367 0.1186539381532367 2.8556647730862155 0.1186539381532367 0.1186539381532367 0.1186539381532367 0.1186539381532367 0.1186539381532367 0.1186539381532367 0.1186539381532367 2.8556647730862155 0.1186539381532367 0.1186539381532367 0.1186539381532367 0.1186539381532367 0.1186539381532367 0.1186539381532367 0.1186539381532367 2.8556647730862155 0.1186539381532367 0.1186539381532367 0.1186539381532367 0.1186539381532367 0.1186539381532367 0.1186539381532367 0.1186539381532367 2.8556647730862155 0.1186539381532367 0.1186539381532367 0.1186539381532367 0.1186539381532367 0.1186539381532367 0.1186539381532367 0.1186539381532367 2.8556647730862155 0.1186539381532367 0.1186539381532367 0.1186539381532367 0.1186539381532367 0.1186539381532367 0.1186539381532367 0.1186539381532367 2.8556647730862155 0.1186539381532367 0.1186539381532367 0.1186539381532367 0.1186539381532367 0.1186539381532367 0.1186539381532367 0.1186539381532367 2.8556647730862155 0.1186539381532367 0.1186539381532367 0.1186539381532367 0.1186539381532367 0.1186539381532367 0.1186539381532367 0.1186539381532367 2.8556647730862155 0.1186539381532367 0.1186539381532367 0.1186539381532367 0.1186539381532367 0.1186539381532367 0.1186539381532367 0.1186539381532367 2.8556647730862155 0.1186539381532367 0.1186539381532367 0.1186539381532367 0.1186539381532367 0.1186539381532367 0.1186539381532367 0.1186539381532367 2.8556647730862155 0.1186539381532367 0.1186539381532367 0.1186539381532367 0.1186539381532367 0.1186539381532367 0.1186539381532367 0.1186539381532367 2.8556647730862155 0.1186539381532367 0.1186539381532367 0.1186539381532367 0.1186539381532367 0.1186539381532367 0.1186539381532367 0.1186539381532367 2.8556647730862155 0.1186539381532367 0.1186539381532367 0.1186539381532367 0.1186539381532367 0.1186539381532367 0.1186539381532367 0.1186539381532367 2.8556647730862155 0.1186539381532367 0.1186539381532367 0.1186539381532367 0.1186539381532367 0.1186539381532367 0.1186539381532367 0.1186539381532367 2.8556647730862155 0.1186539381532367 0.1186539381532367 0.1186539381532367 0.1186539381532367 0.1186539381532367 0.1186539381532367 0.1186539381532367 2.8556647730862155 0.1186539381532367 0.1186539381532367 0.1186539381532367 0.1186539381532367 0.1186539381532367 0.1186539381532367 0.1186539381532367 2.8556647730862155 0.1186539381532367 0.1186539381532367 0.1186539381532367 0.1186539381532367 0.1186539381532367 0.1186539381532367 0.1186539381532367 2.8556647730862155 0.1186539381532367 0.1186539381532367 0.1186539381532367 0.1186539381532367 0.1186539381532367 0.1186539381532367 0.1186539381532367 2.8556647730862155 0.1186539381532367 0.1186539381532367 0.1186539381532367 0.1186539381532367 0.1186539381532367 0.1186539381532367 0.1186539381532367 2.8556647730862155 0.1186539381532367 0.1186539381532367 0.1186539381532367 0.1186539381532367 0.1186539381532367 0.1186539381532367 0.1186539381532367 2.8556647730862155 0.1186539381532367 0.1186539381532367 0.1186539381532367 0.1186539381532367 0.1186539381532367 0.1186539381532367 0.1186539381532367 2.8556647730862155 0.1186539381532367 0.1186539381532367 0.1186539381532367 0.1186539381532367 0.1186539381532367 0.1186539381532367 0.1186539381532367 2.8556647730862155 0.1186539381532367 0.1186539381532367 0.1186539381532367 0.1186539381532367 0.1186539381532367 0.1186539381532367 0.1186539381532367 2.8556647730862155 0.1186539381532367 0.1186539381532367 0.1186539381532367 0.1186539381532367 0.1186539381532367 0.1186539381532367 0.1186539381532367 2.8556647730862155 0.1186539381532367 0.1186539381532367 0.1186539381532367 0.1186539381532367 0.1186539381532367 0.1186539381532367 0.1186539381532367 2.8556647730862155 0.1186539381532367 0.1186539381532367 0.1186539381532367 0.1186539381532367 0.1186539381532367 0.1186539381532367 0.1186539381532367 2.8556647730862155 0.1186539381532367 0.1186539381532367 0.1186539381532367 0.1186539381532367 0.1186539381532367 0.1186539381532367 0.1186539381532367 2.8556647730862155 0.1186539381532367 0.1186539381532367 0.1186539381532367 0.1186539381532367 0.1186539381532367 0.1186539381532367 0.1186539381532367 2.8556647730862155 0.1186539381532367 0.1186539381532367 0.1186539381532367 0.1186539381532367 0.1186539381532367 0.1186539381532367 0.1186539381532367 2.8556647730862155 0.1186539381532367 0.1186539381532367 0.1186539381532367 0.1186539381532367 0.1186539381532367 0.1186539381532367 0.1186539381532367 2.8556647730862155 0.1186539381532367 0.1186539381532367 0.1186539381532367 0.1186539381532367 0.1186539381532367 0.1186539381532367 0.1186539381532367 2.8556647730862155 0.1186539381532367 0.1186539381532367 0.1186539381532367 0.1186539381532367 0.1186539381532367 0.1186539381532367 0.1186539381532367 2.8556647730862155 0.1186539381532367 0.1186539381532367 0.1186539381532367 0.1186539381532367 0.1186539381532367 0.1186539381532367 0.1186539381532367 2.8556647730862155 0.1186539381532367 0.1186539381532367 0.1186539381532367 0.1186539381532367 0.1186539381532367 0.1186539381532367 0.1186539381532367 2.8556647730862155 0.1186539381532367 0.1186539381532367 0.1186539381532367 0.1186539381532367 0.1186539381532367 0.1186539381532367 0.1186539381532367 2.8556647730862155 0.1186539381532367 0.1186539381532367 0.1186539381532367 0.1186539381532367 0.1186539381532367 0.1186539381532367 0.1186539381532367 2.8556647730862155 0.1186539381532367 0.1186539381532367 0.1186539381532367 0.1186539381532367 0.1186539381532367 0.1186539381532367 0.1186539381532367 2.8556647730862155 0.1186539381532367 0.1186539381532367 0.1186539381532367 0.1186539381532367 0.1186539381532367 0.1186539381532367 0.1186539381532367 2.8556647730862155 0.1186539381532367 0.1186539381532367 0.1186539381532367 0.1186539381532367 0.1186539381532367 0.1186539381532367 0.1186539381532367 2.8556647730862155 0.1186539381532367 0.1186539381532367 0.1186539381532367 0.1186539381532367 0.1186539381532367 0.1186539381532367 0.1186539381532367 2.8556647730862155 0.1186539381532367 0.1186539381532367 0.1186539381532367 0.1186539381532367 0.1186539381532367 0.1186539381532367 0.1186539381532367 2.8556647730862155 0.1186539381532367 0.1186539381532367 0.1186539381532367 0.1186539381532367 0.1186539381532367 0.1186539381532367 0.1186539381532367
    </DataArray>
    <DataArray type="Float32" Name="Electron density [log10(m^-3)]" NumberOfComponents="1" format="ascii">
0.0 0.0 0.0 0.0 0.0 0.0 0.0 0.0 0.0 0.0 0.0 0.0 0.0 0.0 0.0 0.0 0.0 0.0 0.0 0.0 0.0 0.0 0.0 0.0 0.0 0.0 0.0 0.0 0.0 0.0 0.0 0.0 0.0 0.0 0.0 0.0 0.0 0.0 0.0 0.0 0.0 0.0 0.0 0.0 0.0 0.0 0.0 0.0 0.0 0.0 0.0 0.0 0.0 0.0 0.0 0.0 0.0 0.0 0.0 0.0 0.0 0.0 0.0 0.0 0.0 0.0 0.0 0.0 0.0 0.0 0.0 0.0 0.0 0.0 0.0 0.0 0.0 0.0 0.0 0.0 0.0 0.0 0.0 0.0 0.0 0.0 0.0 0.0 0.0 0.0 0.0 0.0 0.0 0.0 0.0 0.0 0.0 0.0 0.0 0.0 0.0 0.0 0.0 0.0 0.0 0.0 0.0 0.0 0.0 0.0 0.0 0.0 0.0 0.0 0.0 0.0 0.0 0.0 0.0 0.0 0.0 0.0 0.0 0.0 0.0 0.0 0.0 0.0 0.0 0.0 0.0 0.0 0.0 0.0 0.0 0.0 0.0 0.0 0.0 0.0 0.0 0.0 0.0 0.0 0.0 0.0 0.0 0.0 0.0 0.0 0.0 0.0 0.0 0.0 0.0 0.0 0.0 0.0 0.0 0.0 0.0 0.0 0.0 0.0 0.0 0.0 0.0 0.0 0.0 0.0 0.0 0.0 0.0 0.0 0.0 0.0 0.0 0.0 0.0 0.0 0.0 0.0 0.0 0.0 0.0 0.0 0.0 0.0 0.0 0.0 0.0 0.0 0.0 0.0 0.0 0.0 0.0 0.0 0.0 0.0 0.0 0.0 0.0 0.0 0.0 0.0 0.0 0.0 0.0 0.0 0.0 0.0 0.0 0.0 0.0 0.0 0.0 0.0 0.0 0.0 0.0 0.0 0.0 0.0 0.0 0.0 0.0 0.0 0.0 0.0 0.0 0.0 0.0 0.0 0.0 0.0 0.0 0.0 0.0 0.0 0.0 0.0 0.0 0.0 0.0 0.0 0.0 0.0 0.0 0.0 0.0 0.0 0.0 0.0 0.0 0.0 0.0 0.0 0.0 0.0 0.0 0.0 0.0 0.0 0.0 0.0 0.0 0.0 0.0 0.0 0.0 0.0 0.0 0.0 0.0 0.0 0.0 0.0 0.0 0.0 0.0 0.0 0.0 0.0 0.0 0.0 0.0 0.0 0.0 0.0 0.0 0.0 0.0 0.0 0.0 0.0 0.0 0.0 0.0 0.0 0.0 0.0 0.0 0.0 0.0 0.0 0.0 0.0 0.0 0.0 0.0 0.0 0.0 0.0 0.0 0.0 0.0 0.0 0.0 0.0 0.0 0.0 0.0 0.0 0.0 0.0 0.0 0.0 0.0 0.0 0.0 0.0 0.0 0.0 0.0 0.0 0.0 0.0 0.0 0.0 0.0 0.0 0.0 0.0 0.0 0.0 0.0 0.0 0.0 0.0 0.0 0.0 0.0 0.0 0.0 0.0 0.0 0.0 0.0 0.0 0.0 0.0 0.0 0.0 0.0 0.0 0.0 0.0 0.0 0.0 0.0 0.0 0.0 0.0 0.0 0.0 0.0 0.0 0.0 0.0 0.0 0.0 0.0 0.0 0.0 0.0 0.0 0.0 0.0 0.0 0.0 0.0 0.0 0.0 0.0 0.0 0.0 0.0 0.0 0.0 0.0 0.0 0.0 0.0 0.0 0.0 0.0 0.0
    </DataArray>
    <DataArray type="Float32" Name="Hole density [log10(m^-3)]" NumberOfComponents="1" format="ascii">
0.0 0.0 0.0 0.0 0.0 0.0 0.0 0.0 0.0 0.0 0.0 0.0 0.0 0.0 0.0 0.0 0.0 0.0 0.0 0.0 0.0 0.0 0.0 0.0 0.0 0.0 0.0 0.0 0.0 0.0 0.0 0.0 0.0 0.0 0.0 0.0 0.0 0.0 0.0 0.0 0.0 0.0 0.0 0.0 0.0 0.0 0.0 0.0 0.0 0.0 0.0 0.0 0.0 0.0 0.0 0.0 0.0 0.0 0.0 0.0 0.0 0.0 0.0 0.0 0.0 0.0 0.0 0.0 0.0 0.0 0.0 0.0 0.0 0.0 0.0 0.0 0.0 0.0 0.0 0.0 0.0 0.0 0.0 0.0 0.0 0.0 0.0 0.0 0.0 0.0 0.0 0.0 0.0 0.0 0.0 0.0 0.0 0.0 0.0 0.0 0.0 0.0 0.0 0.0 0.0 0.0 0.0 0.0 0.0 0.0 0.0 0.0 0.0 0.0 0.0 0.0 0.0 0.0 0.0 0.0 0.0 0.0 0.0 0.0 0.0 0.0 0.0 0.0 0.0 0.0 0.0 0.0 0.0 0.0 0.0 0.0 0.0 0.0 0.0 0.0 0.0 0.0 0.0 0.0 0.0 0.0 0.0 0.0 0.0 0.0 0.0 0.0 0.0 0.0 0.0 0.0 0.0 0.0 0.0 0.0 0.0 0.0 0.0 0.0 0.0 0.0 0.0 0.0 0.0 0.0 0.0 0.0 0.0 0.0 0.0 0.0 0.0 0.0 0.0 0.0 0.0 0.0 0.0 0.0 0.0 0.0 0.0 0.0 0.0 0.0 0.0 0.0 0.0 0.0 0.0 0.0 0.0 0.0 0.0 0.0 0.0 0.0 0.0 0.0 0.0 0.0 0.0 0.0 0.0 0.0 0.0 0.0 0.0 0.0 0.0 0.0 0.0 0.0 0.0 0.0 0.0 0.0 0.0 0.0 0.0 0.0 0.0 0.0 0.0 0.0 0.0 0.0 0.0 0.0 0.0 0.0 0.0 0.0 0.0 0.0 0.0 0.0 0.0 0.0 0.0 0.0 0.0 0.0 0.0 0.0 0.0 0.0 0.0 0.0 0.0 0.0 0.0 0.0 0.0 0.0 0.0 0.0 0.0 0.0 0.0 0.0 0.0 0.0 0.0 0.0 0.0 0.0 0.0 0.0 0.0 0.0 0.0 0.0 0.0 0.0 0.0 0.0 0.0 0.0 0.0 0.0 0.0 0.0 0.0 0.0 0.0 0.0 0.0 0.0 0.0 0.0 0.0 0.0 0.0 0.0 0.0 0.0 0.0 0.0 0.0 0.0 0.0 0.0 0.0 0.0 0.0 0.0 0.0 0.0 0.0 0.0 0.0 0.0 0.0 0.0 0.0 0.0 0.0 0.0 0.0 0.0 0.0 0.0 0.0 0.0 0.0 0.0 0.0 0.0 0.0 0.0 0.0 0.0 0.0 0.0 0.0 0.0 0.0 0.0 0.0 0.0 0.0 0.0 0.0 0.0 0.0 0.0 0.0 0.0 0.0 0.0 0.0 0.0 0.0 0.0 0.0 0.0 0.0 0.0 0.0 0.0 0.0 0.0 0.0 0.0 0.0 0.0 0.0 0.0 0.0 0.0 0.0 0.0 0.0 0.0 0.0 0.0 0.0 0.0 0.0 0.0 0.0 0.0 0.0 0.0 0.0 0.0 0.0 0.0 0.0 0.0 0.0 0.0 0.0 0.0 0.0 0.0 0.0 0.0 0.0 0.0 0.0 0.0
    </DataArray>
    <DataArray type="Float32" Name="Ion density [log10(m^-3)]" NumberOfComponents="1" format="ascii">
0.0 0.0 0.0 0.0 0.0 0.0 0.0 0.0 0.0 0.0 0.0 0.0 0.0 0.0 0.0 0.0 0.0 0.0 0.0 0.0 0.0 0.0 0.0 0.0 0.0 0.0 0.0 0.0 0.0 0.0 0.0 0.0 0.0 0.0 0.0 0.0 0.0 0.0 0.0 0.0 0.0 0.0 0.0 0.0 0.0 0.0 0.0 0.0 0.0 0.0 0.0 0.0 0.0 0.0 0.0 0.0 0.0 0.0 0.0 0.0 0.0 0.0 0.0 0.0 0.0 0.0 0.0 0.0 0.0 0.0 0.0 0.0 0.0 0.0 0.0 0.0 0.0 0.0 0.0 0.0 0.0 0.0 0.0 0.0 0.0 0.0 0.0 0.0 0.0 0.0 0.0 0.0 0.0 0.0 0.0 0.0 0.0 0.0 0.0 0.0 0.0 0.0 0.0 0.0 0.0 0.0 0.0 0.0 0.0 0.0 0.0 0.0 0.0 0.0 0.0 0.0 0.0 0.0 0.0 0.0 0.0 0.0 0.0 0.0 0.0 0.0 0.0 0.0 0.0 0.0 0.0 0.0 0.0 0.0 0.0 0.0 0.0 0.0 0.0 0.0 0.0 0.0 0.0 0.0 0.0 0.0 0.0 0.0 0.0 0.0 0.0 0.0 0.0 0.0 0.0 0.0 0.0 0.0 0.0 0.0 0.0 0.0 0.0 0.0 0.0 0.0 0.0 0.0 0.0 0.0 0.0 0.0 0.0 0.0 0.0 0.0 0.0 0.0 0.0 0.0 0.0 0.0 0.0 0.0 0.0 0.0 0.0 0.0 0.0 0.0 0.0 0.0 0.0 0.0 0.0 0.0 0.0 0.0 0.0 0.0 0.0 0.0 0.0 0.0 0.0 0.0 0.0 0.0 0.0 0.0 0.0 0.0 0.0 0.0 0.0 0.0 0.0 0.0 0.0 0.0 0.0 0.0 0.0 0.0 0.0 0.0 0.0 0.0 0.0 0.0 0.0 0.0 0.0 0.0 0.0 0.0 0.0 0.0 0.0 0.0 0.0 0.0 0.0 0.0 0.0 0.0 0.0 0.0 0.0 0.0 0.0 0.0 0.0 0.0 0.0 0.0 0.0 0.0 0.0 0.0 0.0 0.0 0.0 0.0 0.0 0.0 0.0 0.0 0.0 0.0 0.0 0.0 0.0 0.0 0.0 0.0 0.0 0.0 0.0 0.0 0.0 0.0 0.0 0.0 0.0 0.0 0.0 0.0 0.0 0.0 0.0 0.0 0.0 0.0 0.0 0.0 0.0 0.0 0.0 0.0 0.0 0.0 0.0 0.0 0.0 0.0 0.0 0.0 0.0 0.0 0.0 0.0 0.0 0.0 0.0 0.0 0.0 0.0 0.0 0.0 0.0 0.0 0.0 0.0 0.0 0.0 0.0 0.0 0.0 0.0 0.0 0.0 0.0 0.0 0.0 0.0 0.0 0.0 0.0 0.0 0.0 0.0 0.0 0.0 0.0 0.0 0.0 0.0 0.0 0.0 0.0 0.0 0.0 0.0 0.0 0.0 0.0 0.0 0.0 0.0 0.0 0.0 0.0 0.0 0.0 0.0 0.0 0.0 0.0 0.0 0.0 0.0 0.0 0.0 0.0 0.0 0.0 0.0 0.0 0.0 0.0 0.0 0.0 0.0 0.0 0.0 0.0 0.0 0.0 0.0 0.0 0.0 0.0 0.0 0.0 0.0 0.0 0.0 0.0 0.0 0.0 0.0 0.0 0.0 0.0 0.0 0.0 0.0
    </DataArray>
    <DataArray type="Float32" Name="Ion density residual[log10(m^-3)]" NumberOfComponents="1" format="ascii">
0.0 0.0 0.0 0.0 0.0 0.0 0.0 0.0 0.0 0.0 0.0 0.0 0.0 0.0 0.0 0.0 0.0 0.0 0.0 0.0 0.0 0.0 0.0 0.0 0.0 0.0 0.0 0.0 0.0 0.0 0.0 0.0 0.0 0.0 0.0 0.0 0.0 0.0 0.0 0.0 0.0 0.0 0.0 0.0 0.0 0.0 0.0 0.0 0.0 0.0 0.0 0.0 0.0 0.0 0.0 0.0 0.0 0.0 0.0 0.0 0.0 0.0 0.0 0.0 0.0 0.0 0.0 0.0 0.0 0.0 0.0 0.0 0.0 0.0 0.0 0.0 0.0 0.0 0.0 0.0 0.0 0.0 0.0 0.0 0.0 0.0 0.0 0.0 0.0 0.0 0.0 0.0 0.0 0.0 0.0 0.0 0.0 0.0 0.0 0.0 0.0 0.0 0.0 0.0 0.0 0.0 0.0 0.0 0.0 0.0 0.0 0.0 0.0 0.0 0.0 0.0 0.0 0.0 0.0 0.0 0.0 0.0 0.0 0.0 0.0 0.0 0.0 0.0 0.0 0.0 0.0 0.0 0.0 0.0 0.0 0.0 0.0 0.0 0.0 0.0 0.0 0.0 0.0 0.0 0.0 0.0 0.0 0.0 0.0 0.0 0.0 0.0 0.0 0.0 0.0 0.0 0.0 0.0 0.0 0.0 0.0 0.0 0.0 0.0 0.0 0.0 0.0 0.0 0.0 0.0 0.0 0.0 0.0 0.0 0.0 0.0 0.0 0.0 0.0 0.0 0.0 0.0 0.0 0.0 0.0 0.0 0.0 0.0 0.0 0.0 0.0 0.0 0.0 0.0 0.0 0.0 0.0 0.0 0.0 0.0 0.0 0.0 0.0 0.0 0.0 0.0 0.0 0.0 0.0 0.0 0.0 0.0 0.0 0.0 0.0 0.0 0.0 0.0 0.0 0.0 0.0 0.0 0.0 0.0 0.0 0.0 0.0 0.0 0.0 0.0 0.0 0.0 0.0 0.0 0.0 0.0 0.0 0.0 0.0 0.0 0.0 0.0 0.0 0.0 0.0 0.0 0.0 0.0 0.0 0.0 0.0 0.0 0.0 0.0 0.0 0.0 0.0 0.0 0.0 0.0 0.0 0.0 0.0 0.0 0.0 0.0 0.0 0.0 0.0 0.0 0.0 0.0 0.0 0.0 0.0 0.0 0.0 0.0 0.0 0.0 0.0 0.0 0.0 0.0 0.0 0.0 0.0 0.0 0.0 0.0 0.0 0.0 0.0 0.0 0.0 0.0 0.0 0.0 0.0 0.0 0.0 0.0 0.0 0.0 0.0 0.0 0.0 0.0 0.0 0.0 0.0 0.0 0.0 0.0 0.0 0.0 0.0 0.0 0.0 0.0 0.0 0.0 0.0 0.0 0.0 0.0 0.0 0.0 0.0 0.0 0.0 0.0 0.0 0.0 0.0 0.0 0.0 0.0 0.0 0.0 0.0 0.0 0.0 0.0 0.0 0.0 0.0 0.0 0.0 0.0 0.0 0.0 0.0 0.0 0.0 0.0 0.0 0.0 0.0 0.0 0.0 0.0 0.0 0.0 0.0 0.0 0.0 0.0 0.0 0.0 0.0 0.0 0.0 0.0 0.0 0.0 0.0 0.0 0.0 0.0 0.0 0.0 0.0 0.0 0.0 0.0 0.0 0.0 0.0 0.0 0.0 0.0 0.0 0.0 0.0 0.0 0.0 0.0 0.0 0.0 0.0 0.0 0.0 0.0 0.0 0.0 0.0 0.0
    </DataArray>
    <DataArray type="Float32" Name="Ion density last step [log10(m^-3)]" NumberOfComponents="1" format="ascii">
0.0 0.0 0.0 0.0 0.0 0.0 0.0 0.0 0.0 0.0 0.0 0.0 0.0 0.0 0.0 0.0 0.0 0.0 0.0 0.0 0.0 0.0 0.0 0.0 0.0 0.0 0.0 0.0 0.0 0.0 0.0 0.0 0.0 0.0 0.0 0.0 0.0 0.0 0.0 0.0 0.0 0.0 0.0 0.0 0.0 0.0 0.0 0.0 0.0 0.0 0.0 0.0 0.0 0.0 0.0 0.0 0.0 0.0 0.0 0.0 0.0 0.0 0.0 0.0 0.0 0.0 0.0 0.0 0.0 0.0 0.0 0.0 0.0 0.0 0.0 0.0 0.0 0.0 0.0 0.0 0.0 0.0 0.0 0.0 0.0 0.0 0.0 0.0 0.0 0.0 0.0 0.0 0.0 0.0 0.0 0.0 0.0 0.0 0.0 0.0 0.0 0.0 0.0 0.0 0.0 0.0 0.0 0.0 0.0 0.0 0.0 0.0 0.0 0.0 0.0 0.0 0.0 0.0 0.0 0.0 0.0 0.0 0.0 0.0 0.0 0.0 0.0 0.0 0.0 0.0 0.0 0.0 0.0 0.0 0.0 0.0 0.0 0.0 0.0 0.0 0.0 0.0 0.0 0.0 0.0 0.0 0.0 0.0 0.0 0.0 0.0 0.0 0.0 0.0 0.0 0.0 0.0 0.0 0.0 0.0 0.0 0.0 0.0 0.0 0.0 0.0 0.0 0.0 0.0 0.0 0.0 0.0 0.0 0.0 0.0 0.0 0.0 0.0 0.0 0.0 0.0 0.0 0.0 0.0 0.0 0.0 0.0 0.0 0.0 0.0 0.0 0.0 0.0 0.0 0.0 0.0 0.0 0.0 0.0 0.0 0.0 0.0 0.0 0.0 0.0 0.0 0.0 0.0 0.0 0.0 0.0 0.0 0.0 0.0 0.0 0.0 0.0 0.0 0.0 0.0 0.0 0.0 0.0 0.0 0.0 0.0 0.0 0.0 0.0 0.0 0.0 0.0 0.0 0.0 0.0 0.0 0.0 0.0 0.0 0.0 0.0 0.0 0.0 0.0 0.0 0.0 0.0 0.0 0.0 0.0 0.0 0.0 0.0 0.0 0.0 0.0 0.0 0.0 0.0 0.0 0.0 0.0 0.0 0.0 0.0 0.0 0.0 0.0 0.0 0.0 0.0 0.0 0.0 0.0 0.0 0.0 0.0 0.0 0.0 0.0 0.0 0.0 0.0 0.0 0.0 0.0 0.0 0.0 0.0 0.0 0.0 0.0 0.0 0.0 0.0 0.0 0.0 0.0 0.0 0.0 0.0 0.0 0.0 0.0 0.0 0.0 0.0 0.0 0.0 0.0 0.0 0.0 0.0 0.0 0.0 0.0 0.0 0.0 0.0 0.0 0.0 0.0 0.0 0.0 0.0 0.0 0.0 0.0 0.0 0.0 0.0 0.0 0.0 0.0 0.0 0.0 0.0 0.0 0.0 0.0 0.0 0.0 0.0 0.0 0.0 0.0 0.0 0.0 0.0 0.0 0.0 0.0 0.0 0.0 0.0 0.0 0.0 0.0 0.0 0.0 0.0 0.0 0.0 0.0 0.0 0.0 0.0 0.0 0.0 0.0 0.0 0.0 0.0 0.0 0.0 0.0 0.0 0.0 0.0 0.0 0.0 0.0 0.0 0.0 0.0 0.0 0.0 0.0 0.0 0.0 0.0 0.0 0.0 0.0 0.0 0.0 0.0 0.0 0.0 0.0 0.0 0.0 0.0 0.0 0.0 0.0 0.0 0.0
    </DataArray>
    <DataArray type="Float32" Name="Ion density max [log10(m^-3)]" NumberOfComponents="1" format="ascii">
0.0 0.0 0.0 0.0 0.0 0.0 0.0 0.0 0.0 0.0 0.0 0.0 0.0 0.0 0.0 0.0 0.0 0.0 0.0 0.0 0.0 0.0 0.0 0.0 0.0 0.0 0.0 0.0 0.0 0.0 0.0 0.0 0.0 0.0 0.0 0.0 0.0 0.0 0.0 0.0 0.0 0.0 0.0 0.0 0.0 0.0 0.0 0.0 0.0 0.0 0.0 0.0 0.0 0.0 0.0 0.0 0.0 0.0 0.0 0.0 0.0 0.0 0.0 0.0 0.0 0.0 0.0 0.0 0.0 0.0 0.0 0.0 0.0 0.0 0.0 0.0 0.0 0.0 0.0 0.0 0.0 0.0 0.0 0.0 0.0 0.0 0.0 0.0 0.0 0.0 0.0 0.0 0.0 0.0 0.0 0.0 0.0 0.0 0.0 0.0 0.0 0.0 0.0 0.0 0.0 0.0 0.0 0.0 0.0 0.0 0.0 0.0 0.0 0.0 0.0 0.0 0.0 0.0 0.0 0.0 0.0 0.0 0.0 0.0 0.0 0.0 0.0 0.0 0.0 0.0 0.0 0.0 0.0 0.0 0.0 0.0 0.0 0.0 0.0 0.0 0.0 0.0 0.0 0.0 0.0 0.0 0.0 0.0 0.0 0.0 0.0 0.0 0.0 0.0 0.0 0.0 0.0 0.0 0.0 0.0 0.0 0.0 0.0 0.0 0.0 0.0 0.0 0.0 0.0 0.0 0.0 0.0 0.0 0.0 0.0 0.0 0.0 0.0 0.0 0.0 0.0 0.0 0.0 0.0 0.0 0.0 0.0 0.0 0.0 0.0 0.0 0.0 0.0 0.0 0.0 0.0 0.0 0.0 0.0 0.0 0.0 0.0 0.0 0.0 0.0 0.0 0.0 0.0 0.0 0.0 0.0 0.0 0.0 0.0 0.0 0.0 0.0 0.0 0.0 0.0 0.0 0.0 0.0 0.0 0.0 0.0 0.0 0.0 0.0 0.0 0.0 0.0 0.0 0.0 0.0 0.0 0.0 0.0 0.0 0.0 0.0 0.0 0.0 0.0 0.0 0.0 0.0 0.0 0.0 0.0 0.0 0.0 0.0 0.0 0.0 0.0 0.0 0.0 0.0 0.0 0.0 0.0 0.0 0.0 0.0 0.0 0.0 0.0 0.0 0.0 0.0 0.0 0.0 0.0 0.0 0.0 0.0 0.0 0.0 0.0 0.0 0.0 0.0 0.0 0.0 0.0 0.0 0.0 0.0 0.0 0.0 0.0 0.0 0.0 0.0 0.0 0.0 0.0 0.0 0.0 0.0 0.0 0.0 0.0 0.0 0.0 0.0 0.0 0.0 0.0 0.0 0.0 0.0 0.0 0.0 0.0 0.0 0.0 0.0 0.0 0.0 0.0 0.0 0.0 0.0 0.0 0.0 0.0 0.0 0.0 0.0 0.0 0.0 0.0 0.0 0.0 0.0 0.0 0.0 0.0 0.0 0.0 0.0 0.0 0.0 0.0 0.0 0.0 0.0 0.0 0.0 0.0 0.0 0.0 0.0 0.0 0.0 0.0 0.0 0.0 0.0 0.0 0.0 0.0 0.0 0.0 0.0 0.0 0.0 0.0 0.0 0.0 0.0 0.0 0.0 0.0 0.0 0.0 0.0 0.0 0.0 0.0 0.0 0.0 0.0 0.0 0.0 0.0 0.0 0.0 0.0 0.0 0.0 0.0 0.0 0.0 0.0 0.0 0.0 0.0 0.0 0.0 0.0 0.0 0.0 0.0 0.0 0.0
    </DataArray>
    <DataArray type="Float32" Name="Mobility [m^2/V/s]" NumberOfComponents="1" format="ascii">
0.0 0.0 0.0 0.0 0.0 0.0 0.0 0.0 0.0 0.0 0.0 0.0 0.0 0.0 0.0 0.0 0.0 0.0 0.0 0.0 0.0 0.0 0.0 0.0 0.0 0.0 0.0 0.0 0.0 0.0 0.0 0.0 0.0 0.0 0.0 0.0 0.0 0.0 0.0 0.0 0.0 0.0 0.0 0.0 0.0 0.0 0.0 0.0 0.0 0.0 0.0 0.0 0.0 0.0 0.0 0.0 0.0 0.0 0.0 0.0 0.0 0.0 0.0 0.0 0.0 0.0 0.0 0.0 0.0 0.0 0.0 0.0 0.0 0.0 0.0 0.0 0.0 0.0 0.0 0.0 0.0 0.0 0.0 0.0 0.0 0.0 0.0 0.0 0.0 0.0 0.0 0.0 0.0 0.0 0.0 0.0 0.0 0.0 0.0 0.0 0.0 0.0 0.0 0.0 0.0 0.0 0.0 0.0 0.0 0.0 0.0 0.0 0.0 0.0 0.0 0.0 0.0 0.0 0.0 0.0 0.0 0.0 0.0 0.0 0.0 0.0 0.0 0.0 0.0 0.0 0.0 0.0 0.0 0.0 0.0 0.0 0.0 0.0 0.0 0.0 0.0 0.0 0.0 0.0 0.0 0.0 0.0 0.0 0.0 0.0 0.0 0.0 0.0 0.0 0.0 0.0 0.0 0.0 0.0 0.0 0.0 0.0 0.0 0.0 0.0 0.0 0.0 0.0 0.0 0.0 0.0 0.0 0.0 0.0 0.0 0.0 0.0 0.0 0.0 0.0 0.0 0.0 0.0 0.0 0.0 0.0 0.0 0.0 0.0 0.0 0.0 0.0 0.0 0.0 0.0 0.0 0.0 0.0 0.0 0.0 0.0 0.0 0.0 0.0 0.0 0.0 0.0 0.0 0.0 0.0 0.0 0.0 0.0 0.0 0.0 0.0 0.0 0.0 0.0 0.0 0.0 0.0 0.0 0.0 0.0 0.0 0.0 0.0 0.0 0.0 0.0 0.0 0.0 0.0 0.0 0.0 0.0 0.0 0.0 0.0 0.0 0.0 0.0 0.0 0.0 0.0 0.0 0.0 0.0 0.0 0.0 0.0 0.0 0.0 0.0 0.0 0.0 0.0 0.0 0.0 0.0 0.0 0.0 0.0 0.0 0.0 0.0 0.0 0.0 0.0 0.0 0.0 0.0 0.0 0.0 0.0 0.0 0.0 0.0 0.0 0.0 0.0 0.0 0.0 0.0 0.0 0.0 0.0 0.0 0.0 0.0 0.0 0.0 0.0 0.0 0.0 0.0 0.0 0.0 0.0 0.0 0.0 0.0 0.0 0.0 0.0 0.0 0.0 0.0 0.0 0.0 0.0 0.0 0.0 0.0 0.0 0.0 0.0 0.0 0.0 0.0 0.0 0.0 0.0 0.0 0.0 0.0 0.0 0.0 0.0 0.0 0.0 0.0 0.0 0.0 0.0 0.0 0.0 0.0 0.0 0.0 0.0 0.0 0.0 0.0 0.0 0.0 0.0 0.0 0.0 0.0 0.0 0.0 0.0 0.0 0.0 0.0 0.0 0.0 0.0 0.0 0.0 0.0 0.0 0.0 0.0 0.0 0.0 0.0 0.0 0.0 0.0 0.0 0.0 0.0 0.0 0.0 0.0 0.0 0.0 0.0 0.0 0.0 0.0 0.0 0.0 0.0 0.0 0.0 0.0 0.0 0.0 0.0 0.0 0.0 0.0 0.0 0.0 0.0 0.0 0.0 0.0 0.0 0.0 0.0 0.0 0.0 0.0
    </DataArray>
    <DataArray type="Float32" Name="Electric Field [Vm^-1]" NumberOfComponents="3" format="ascii">
0.0 0.0 0.0 0.0 0.0 0.0 0.0 0.0 0.0 0.0 0.0 0.0 0.0 0.0 0.0 0.0 0.0 0.0 0.0 0.0 0.0 0.0 0.0 0.0 0.0 0.0 0.0 0.0 0.0 0.0 0.0 0.0 0.0 0.0 0.0 0.0 0.0 0.0 0.0 0.0 0.0 0.0 0.0 0.0 0.0 0.0 0.0 0.0 0.0 0.0 0.0 0.0 0.0 0.0 0.0 0.0 0.0 0.0 0.0 0.0 0.0 0.0 0.0 0.0 0.0 0.0 0.0 0.0 0.0 0.0 0.0 0.0 0.0 0.0 0.0 0.0 0.0 0.0 0.0 0.0 0.0 0.0 0.0 0.0 0.0 0.0 0.0 0.0 0.0 0.0 0.0 0.0 0.0 0.0 0.0 0.0 0.0 0.0 0.0 0.0 0.0 0.0 0.0 0.0 0.0 0.0 0.0 0.0 0.0 0.0 0.0 0.0 0.0 0.0 0.0 0.0 0.0 0.0 0.0 0.0 0.0 0.0 0.0 0.0 0.0 0.0 0.0 0.0 0.0 0.0 0.0 0.0 0.0 0.0 0.0 0.0 0.0 0.0 0.0 0.0 0.0 0.0 0.0 0.0 0.0 0.0 0.0 0.0 0.0 0.0 0.0 0.0 0.0 0.0 0.0 0.0 0.0 0.0 0.0 0.0 0.0 0.0 0.0 0.0 0.0 0.0 0.0 0.0 0.0 0.0 0.0 0.0 0.0 0.0 0.0 0.0 0.0 0.0 0.0 0.0 0.0 0.0 0.0 0.0 0.0 0.0 0.0 0.0 0.0 0.0 0.0 0.0 0.0 0.0 0.0 0.0 0.0 0.0 0.0 0.0 0.0 0.0 0.0 0.0 0.0 0.0 0.0 0.0 0.0 0.0 0.0 0.0 0.0 0.0 0.0 0.0 0.0 0.0 0.0 0.0 0.0 0.0 0.0 0.0 0.0 0.0 0.0 0.0 0.0 0.0 0.0 0.0 0.0 0.0 0.0 0.0 0.0 0.0 0.0 0.0 0.0 0.0 0.0 0.0 0.0 0.0 0.0 0.0 0.0 0.0 0.0 0.0 0.0 0.0 0.0 0.0 0.0 0.0 0.0 0.0 0.0 0.0 0.0 0.0 0.0 0.0 0.0 0.0 0.0 0.0 0.0 0.0 0.0 0.0 0.0 0.0 0.0 0.0 0.0 0.0 0.0 0.0 0.0 0.0 0.0 0.0 0.0 0.0 0.0 0.0 0.0 0.0 0.0 0.0 0.0 0.0 0.0 0.0 0.0 0.0 0.0 0.0 0.0 0.0 0.0 0.0 0.0 0.0 0.0 0.0 0.0 0.0 0.0 0.0 0.0 0.0 0.0 0.0 0.0 0.0 0.0 0.0 0.0 0.0 0.0 0.0 0.0 0.0 0.0 0.0 0.0 0.0 0.0 0.0 0.0 0.0 0.0 0.0 0.0 0.0 0.0 0.0 0.0 0.0 0.0 0.0 0.0 0.0 0.0 0.0 0.0 0.0 0.0 0.0 0.0 0.0 0.0 0.0 0.0 0.0 0.0 0.0 0.0 0.0 0.0 0.0 0.0 0.0 0.0 0.0 0.0 0.0 0.0 0.0 0.0 0.0 0.0 0.0 0.0 0.0 0.0 0.0 0.0 0.0 0.0 0.0 0.0 0.0 0.0 0.0 0.0 0.0 0.0 0.0 0.0 0.0 0.0 0.0 0.0 0.0 0.0 0.0 0.0 0.0 0.0 0.0 0.0 0.0 0.0 0.0 0.0 0.0 0.0 0.0 0.0 0.0 0.0 0.0 0.0 0.0 0.0 0.0 0.0 0.0 0.0 0.0 0.0 0.0 0.0 0.0 0.0 0.0 0.0 0.0 0.0 0.0 0.0 0.0 0.0 0.0 0.0 0.0 0.0 0.0 0.0 0.0 0.0 0.0 0.0 0.0 0.0 0.0 0.0 0.0 0.0 0.0 0.0 0.0 0.0 0.0 0.0 0.0 0.0 0.0 0.0 0.0 0.0 0.0 0.0 0.0 0.0 0.0 0.0 0.0 0.0 0.0 0.0 0.0 0.0 0.0 0.0 0.0 0.0 0.0 0.0 0.0 0.0 0.0 0.0 0.0 0.0 0.0 0.0 0.0 0.0 0.0 0.0 0.0 0.0 0.0 0.0 0.0 0.0 0.0 0.0 0.0 0.0 0.0 0.0 0.0 0.0 0.0 0.0 0.0 0.0 0.0 0.0 0.0 0.0 0.0 0.0 0.0 0.0 0.0 0.0 0.0 0.0 0.0 0.0 0.0 0.0 0.0 0.0 0.0 0.0 0.0 0.0 0.0 0.0 0.0 0.0 0.0 0.0 0.0 0.0 0.0 0.0 0.0 0.0 0.0 0.0 0.0 0.0 0.0 0.0 0.0 0.0 0.0 0.0 0.0 0.0 0.0 0.0 0.0 0.0 0.0 0.0 0.0 0.0 0.0 0.0 0.0 0.0 0.0 0.0 0.0 0.0 0.0 0.0 0.0 0.0 0.0 0.0 0.0 0.0 0.0 0.0 0.0 0.0 0.0 0.0 0.0 0.0 0.0 0.0 0.0 0.0 0.0 0.0 0.0 0.0 0.0 0.0 0.0 0.0 0.0 0.0 0.0 0.0 0.0 0.0 0.0 0.0 0.0 0.0 0.0 0.0 0.0 0.0 0.0 0.0 0.0 0.0 0.0 0.0 0.0 0.0 0.0 0.0 0.0 0.0 0.0 0.0 0.0 0.0 0.0 0.0 0.0 0.0 0.0 0.0 0.0 0.0 0.0 0.0 0.0 0.0 0.0 0.0 0.0 0.0 0.0 0.0 0.0 0.0 0.0 0.0 0.0 0.0 0.0 0.0 0.0 0.0 0.0 0.0 0.0 0.0 0.0 0.0 0.0 0.0 0.0 0.0 0.0 0.0 0.0 0.0 0.0 0.0 0.0 0.0 0.0 0.0 0.0 0.0 0.0 0.0 0.0 0.0 0.0 0.0 0.0 0.0 0.0 0.0 0.0 0.0 0.0 0.0 0.0 0.0 0.0 0.0 0.0 0.0 0.0 0.0 0.0 0.0 0.0 0.0 0.0 0.0 0.0 0.0 0.0 0.0 0.0 0.0 0.0 0.0 0.0 0.0 0.0 0.0 0.0 0.0 0.0 0.0 0.0 0.0 0.0 0.0 0.0 0.0 0.0 0.0 0.0 0.0 0.0 0.0 0.0 0.0 0.0 0.0 0.0 0.0 0.0 0.0 0.0 0.0 0.0 0.0 0.0 0.0 0.0 0.0 0.0 0.0 0.0 0.0 0.0 0.0 0.0 0.0 0.0 0.0 0.0 0.0 0.0 0.0 0.0 0.0 0.0 0.0 0.0 0.0 0.0 0.0 0.0 0.0 0.0 0.0 0.0 0.0 0.0 0.0 0.0 0.0 0.0 0.0 0.0 0.0 0.0 0.0 0.0 0.0 0.0 0.0 0.0 0.0 0.0 0.0 0.0 0.0 0.0 0.0 0.0 0.0 0.0 0.0 0.0 0.0 0.0 0.0 0.0 0.0 0.0 0.0 0.0 0.0 0.0 0.0 0.0 0.0 0.0 0.0 0.0 0.0 0.0 0.0 0.0 0.0 0.0 0.0 0.0 0.0 0.0 0.0 0.0 0.0 0.0 0.0 0.0 0.0 0.0 0.0 0.0 0.0 0.0 0.0 0.0 0.0 0.0 0.0 0.0 0.0 0.0 0.0 0.0 0.0 0.0 0.0 0.0 0.0 0.0 0.0 0.0 0.0 0.0 0.0 0.0 0.0 0.0 0.0 0.0 0.0 0.0 0.0 0.0 0.0 0.0 0.0 0.0 0.0 0.0 0.0 0.0 0.0 0.0 0.0 0.0 0.0 0.0 0.0 0.0 0.0 0.0 0.0 0.0 0.0 0.0 0.0 0.0 0.0 0.0 0.0 0.0 0.0 0.0 0.0 0.0 0.0 0.0 0.0 0.0 0.0 0.0 0.0 0.0 0.0 0.0 0.0 0.0 0.0 0.0 0.0 0.0 0.0 0.0 0.0 0.0 0.0 0.0 0.0 0.0 0.0 0.0 0.0 0.0 0.0 0.0 0.0 0.0 0.0 0.0 0.0 0.0 0.0 0.0 0.0 0.0 0.0 0.0 0.0 0.0 0.0 0.0 0.0 0.0 0.0 0.0 0.0 0.0 0.0 0.0 0.0 0.0 0.0 0.0 0.0 0.0 0.0 0.0 0.0 0.0 0.0 0.0 0.0 0.0 0.0 0.0 0.0 0.0 0.0 0.0 0.0 0.0 0.0 0.0 0.0 0.0 0.0 0.0 0.0 0.0 0.0 0.0 0.0 0.0 0.0 0.0 0.0 0.0 0.0 0.0 0.0 0.0 0.0 0.0 0.0 0.0 0.0 0.0 0.0 0.0 0.0 0.0 0.0 0.0 0.0 0.0 0.0 0.0 0.0 0.0 0.0 0.0 0.0 0.0 0.0 0.0 0.0 0.0 0.0 0.0 0.0 0.0 0.0 0.0 0.0 0.0 0.0 0.0 0.0 0.0 0.0 0.0 0.0 0.0 0.0 0.0 0.0 0.0 0.0 0.0 0.0 0.0 0.0 0.0 0.0 0.0 0.0 0.0 0.0 0.0 0.0 0.0 0.0 0.0 0.0 0.0 0.0 0.0 0.0 0.0 0.0 0.0 0.0 0.0 0.0 0.0 0.0 0.0 0.0 0.0 0.0 0.0 0.0 0.0 0.0 0.0 0.0 0.0 0.0 0.0 0.0 0.0 0.0 0.0 0.0 0.0 0.0 0.0 0.0 0.0 0.0 0.0 0.0 0.0 0.0 0.0 0.0 0.0 0.0 0.0 0.0 0.0 0.0 0.0 0.0 0.0 0.0 0.0 0.0 0.0 0.0 0.0 0.0 0.0 0.0 0.0 0.0 0.0 0.0 0.0 0.0 0.0 0.0 0.0 0.0 0.0 0.0 0.0 0.0 0.0 0.0 0.0 0.0 0.0 0.0 0.0 0.0 0.0 0.0 0.0 0.0 0.0 0.0 0.0 0.0 0.0 0.0 0.0 0.0 0.0 0.0 0.0 0.0 0.0 0.0 0.0 0.0 0.0 0.0 0.0 0.0 0.0 0.0 0.0 0.0 0.0 0.0 0.0 0.0 0.0 0.0 0.0 0.0 0.0 0.0 0.0 0.0 0.0 0.0 0.0 0.0 0.0 0.0 0.0 0.0 0.0 0.0 0.0 0.0 0.0 0.0 0.0 0.0 0.0 0.0 0.0 0.0 0.0 0.0 0.0 0.0 0.0 0.0 0.0 0.0 0.0 0.0 0.0
    </DataArray>
    <DataArray type="Float32" Name="Electron Current Density [Am^-2]" NumberOfComponents="3" format="ascii">
0.0 0.0 0.0 0.0 0.0 0.0 0.0 0.0 0.0 0.0 0.0 0.0 0.0 0.0 0.0 0.0 0.0 0.0 0.0 0.0 0.0 0.0 0.0 0.0 0.0 0.0 0.0 0.0 0.0 0.0 0.0 0.0 0.0 0.0 0.0 0.0 0.0 0.0 0.0 0.0 0.0 0.0 0.0 0.0 0.0 0.0 0.0 0.0 0.0 0.0 0.0 0.0 0.0 0.0 0.0 0.0 0.0 0.0 0.0 0.0 0.0 0.0 0.0 0.0 0.0 0.0 0.0 0.0 0.0 0.0 0.0 0.0 0.0 0.0 0.0 0.0 0.0 0.0 0.0 0.0 0.0 0.0 0.0 0.0 0.0 0.0 0.0 0.0 0.0 0.0 0.0 0.0 0.0 0.0 0.0 0.0 0.0 0.0 0.0 0.0 0.0 0.0 0.0 0.0 0.0 0.0 0.0 0.0 0.0 0.0 0.0 0.0 0.0 0.0 0.0 0.0 0.0 0.0 0.0 0.0 0.0 0.0 0.0 0.0 0.0 0.0 0.0 0.0 0.0 0.0 0.0 0.0 0.0 0.0 0.0 0.0 0.0 0.0 0.0 0.0 0.0 0.0 0.0 0.0 0.0 0.0 0.0 0.0 0.0 0.0 0.0 0.0 0.0 0.0 0.0 0.0 0.0 0.0 0.0 0.0 0.0 0.0 0.0 0.0 0.0 0.0 0.0 0.0 0.0 0.0 0.0 0.0 0.0 0.0 0.0 0.0 0.0 0.0 0.0 0.0 0.0 0.0 0.0 0.0 0.0 0.0 0.0 0.0 0.0 0.0 0.0 0.0 0.0 0.0 0.0 0.0 0.0 0.0 0.0 0.0 0.0 0.0 0.0 0.0 0.0 0.0 0.0 0.0 0.0 0.0 0.0 0.0 0.0 0.0 0.0 0.0 0.0 0.0 0.0 0.0 0.0 0.0 0.0 0.0 0.0 0.0 0.0 0.0 0.0 0.0 0.0 0.0 0.0 0.0 0.0 0.0 0.0 0.0 0.0 0.0 0.0 0.0 0.0 0.0 0.0 0.0 0.0 0.0 0.0 0.0 0.0 0.0 0.0 0.0 0.0 0.0 0.0 0.0 0.0 0.0 0.0 0.0 0.0 0.0 0.0 0.0 0.0 0.0 0.0 0.0 0.0 0.0 0.0 0.0 0.0 0.0 0.0 0.0 0.0 0.0 0.0 0.0 0.0 0.0 0.0 0.0 0.0 0.0 0.0 0.0 0.0 0.0 0.0 0.0 0.0 0.0 0.0 0.0 0.0 0.0 0.0 0.0 0.0 0.0 0.0 0.0 0.0 0.0 0.0 0.0 0.0 0.0 0.0 0.0 0.0 0.0 0.0 0.0 0.0 0.0 0.0 0.0 0.0 0.0 0.0 0.0 0.0 0.0 0.0 0.0 0.0 0.0 0.0 0.0 0.0 0.0 0.0 0.0 0.0 0.0 0.0 0.0 0.0 0.0 0.0 0.0 0.0 0.0 0.0 0.0 0.0 0.0 0.0 0.0 0.0 0.0 0.0 0.0 0.0 0.0 0.0 0.0 0.0 0.0 0.0 0.0 0.0 0.0 0.0 0.0 0.0 0.0 0.0 0.0 0.0 0.0 0.0 0.0 0.0 0.0 0.0 0.0 0.0 0.0 0.0 0.0 0.0 0.0 0.0 0.0 0.0 0.0 0.0 0.0 0.0 0.0 0.0 0.0 0.0 0.0 0.0 0.0 0.0 0.0 0.0 0.0 0.0 0.0 0.0 0.0 0.0 0.0 0.0 0.0 0.0 0.0 0.0 0.0 0.0 0.0 0.0 0.0 0.0 0.0 0.0 0.0 0.0 0.0 0.0 0.0 0.0 0.0 0.0 0.0 0.0 0.0 0.0 0.0 0.0 0.0 0.0 0.0 0.0 0.0 0.0 0.0 0.0 0.0 0.0 0.0 0.0 0.0 0.0 0.0 0.0 0.0 0.0 0.0 0.0 0.0 0.0 0.0 0.0 0.0 0.0 0.0 0.0 0.0 0.0 0.0 0.0 0.0 0.0 0.0 0.0 0.0 0.0 0.0 0.0 0.0 0.0 0.0 0.0 0.0 0.0 0.0 0.0 0.0 0.0 0.0 0.0 0.0 0.0 0.0 0.0 0.0 0.0 0.0 0.0 0.0 0.0 0.0 0.0 0.0 0.0 0.0 0.0 0.0 0.0 0.0 0.0 0.0 0.0 0.0 0.0 0.0 0.0 0.0 0.0 0.0 0.0 0.0 0.0 0.0 0.0 0.0 0.0 0.0 0.0 0.0 0.0 0.0 0.0 0.0 0.0 0.0 0.0 0.0 0.0 0.0 0.0 0.0 0.0 0.0 0.0 0.0 0.0 0.0 0.0 0.0 0.0 0.0 0.0 0.0 0.0 0.0 0.0 0.0 0.0 0.0 0.0 0.0 0.0 0.0 0.0 0.0 0.0 0.0 0.0 0.0 0.0 0.0 0.0 0.0 0.0 0.0 0.0 0.0 0.0 0.0 0.0 0.0 0.0 0.0 0.0 0.0 0.0 0.0 0.0 0.0 0.0 0.0 0.0 0.0 0.0 0.0 0.0 0.0 0.0 0.0 0.0 0.0 0.0 0.0 0.0 0.0 0.0 0.0 0.0 0.0 0.0 0.0 0.0 0.0 0.0 0.0 0.0 0.0 0.0 0.0 0.0 0.0 0.0 0.0 0.0 0.0 0.0 0.0 0.0 0.0 0.0 0.0 0.0 0.0 0.0 0.0 0.0 0.0 0.0 0.0 0.0 0.0 0.0 0.0 0.0 0.0 0.0 0.0 0.0 0.0 0.0 0.0 0.0 0.0 0.0 0.0 0.0 0.0 0.0 0.0 0.0 0.0 0.0 0.0 0.0 0.0 0.0 0.0 0.0 0.0 0.0 0.0 0.0 0.0 0.0 0.0 0.0 0.0 0.0 0.0 0.0 0.0 0.0 0.0 0.0 0.0 0.0 0.0 0.0 0.0 0.0 0.0 0.0 0.0 0.0 0.0 0.0 0.0 0.0 0.0 0.0 0.0 0.0 0.0 0.0 0.0 0.0 0.0 0.0 0.0 0.0 0.0 0.0 0.0 0.0 0.0 0.0 0.0 0.0 0.0 0.0 0.0 0.0 0.0 0.0 0.0 0.0 0.0 0.0 0.0 0.0 0.0 0.0 0.0 0.0 0.0 0.0 0.0 0.0 0.0 0.0 0.0 0.0 0.0 0.0 0.0 0.0 0.0 0.0 0.0 0.0 0.0 0.0 0.0 0.0 0.0 0.0 0.0 0.0 0.0 0.0 0.0 0.0 0.0 0.0 0.0 0.0 0.0 0.0 0.0 0.0 0.0 0.0 0.0 0.0 0.0 0.0 0.0 0.0 0.0 0.0 0.0 0.0 0.0 0.0 0.0 0.0 0.0 0.0 0.0 0.0 0.0 0.0 0.0 0.0 0.0 0.0 0.0 0.0 0.0 0.0 0.0 0.0 0.0 0.0 0.0 0.0 0.0 0.0 0.0 0.0 0.0 0.0 0.0 0.0 0.0 0.0 0.0 0.0 0.0 0.0 0.0 0.0 0.0 0.0 0.0 0.0 0.0 0.0 0.0 0.0 0.0 0.0 0.0 0.0 0.0 0.0 0.0 0.0 0.0 0.0 0.0 0.0 0.0 0.0 0.0 0.0 0.0 0.0 0.0 0.0 0.0 0.0 0.0 0.0 0.0 0.0 0.0 0.0 0.0 0.0 0.0 0.0 0.0 0.0 0.0 0.0 0.0 0.0 0.0 0.0 0.0 0.0 0.0 0.0 0.0 0.0 0.0 0.0 0.0 0.0 0.0 0.0 0.0 0.0 0.0 0.0 0.0 0.0 0.0 0.0 0.0 0.0 0.0 0.0 0.0 0.0 0.0 0.0 0.0 0.0 0.0 0.0 0.0 0.0 0.0 0.0 0.0 0.0 0.0 0.0 0.0 0.0 0.0 0.0 0.0 0.0 0.0 0.0 0.0 0.0 0.0 0.0 0.0 0.0 0.0 0.0 0.0 0.0 0.0 0.0 0.0 0.0 0.0 0.0 0.0 0.0 0.0 0.0 0.0 0.0 0.0 0.0 0.0 0.0 0.0 0.0 0.0 0.0 0.0 0.0 0.0 0.0 0.0 0.0 0.0 0.0 0.0 0.0 0.0 0.0 0.0 0.0 0.0 0.0 0.0 0.0 0.0 0.0 0.0 0.0 0.0 0.0 0.0 0.0 0.0 0.0 0.0 0.0 0.0 0.0 0.0 0.0 0.0 0.0 0.0 0.0 0.0 0.0 0.0 0.0 0.0 0.0 0.0 0.0 0.0 0.0 0.0 0.0 0.0 0.0 0.0 0.0 0.0 0.0 0.0 0.0 0.0 0.0 0.0 0.0 0.0 0.0 0.0 0.0 0.0 0.0 0.0 0.0 0.0 0.0 0.0 0.0 0.0 0.0 0.0 0.0 0.0 0.0 0.0 0.0 0.0 0.0 0.0 0.0 0.0 0.0 0.0 0.0 0.0 0.0 0.0 0.0 0.0 0.0 0.0 0.0 0.0 0.0 0.0 0.0 0.0 0.0 0.0 0.0 0.0 0.0 0.0 0.0 0.0 0.0 0.0 0.0 0.0 0.0 0.0 0.0 0.0 0.0 0.0 0.0 0.0 0.0 0.0 0.0 0.0 0.0 0.0 0.0 0.0 0.0 0.0 0.0 0.0 0.0 0.0 0.0 0.0 0.0 0.0 0.0 0.0 0.0 0.0 0.0 0.0 0.0 0.0 0.0 0.0 0.0 0.0 0.0 0.0 0.0 0.0 0.0 0.0 0.0 0.0 0.0 0.0 0.0 0.0 0.0 0.0 0.0 0.0 0.0 0.0 0.0 0.0 0.0 0.0 0.0 0.0 0.0 0.0 0.0 0.0 0.0 0.0 0.0 0.0 0.0 0.0 0.0 0.0 0.0 0.0 0.0 0.0 0.0 0.0 0.0 0.0 0.0 0.0 0.0 0.0 0.0 0.0 0.0 0.0 0.0 0.0 0.0 0.0 0.0 0.0 0.0 0.0 0.0 0.0 0.0 0.0 0.0 0.0 0.0 0.0 0.0 0.0 0.0 0.0 0.0 0.0 0.0 0.0 0.0 0.0 0.0 0.0 0.0 0.0 0.0 0.0 0.0 0.0 0.0 0.0 0.0 0.0 0.0 0.0 0.0 0.0 0.0 0.0 0.0 0.0 0.0 0.0 0.0 0.0 0.0 0.0 0.0 0.0 0.0 0.0 0.0 0.0 0.0 0.0 0.0 0.0 0.0 0.0 0.0 0.0 0.0 0.0 0.0 0.0
    </DataArray>
    <DataArray type="Float32" Name="Hole Current Density [Am^-2]" NumberOfComponents="3" format="ascii">
0.0 0.0 0.0 0.0 0.0 0.0 0.0 0.0 0.0 0.0 0.0 0.0 0.0 0.0 0.0 0.0 0.0 0.0 0.0 0.0 0.0 0.0 0.0 0.0 0.0 0.0 0.0 0.0 0.0 0.0 0.0 0.0 0.0 0.0 0.0 0.0 0.0 0.0 0.0 0.0 0.0 0.0 0.0 0.0 0.0 0.0 0.0 0.0 0.0 0.0 0.0 0.0 0.0 0.0 0.0 0.0 0.0 0.0 0.0 0.0 0.0 0.0 0.0 0.0 0.0 0.0 0.0 0.0 0.0 0.0 0.0 0.0 0.0 0.0 0.0 0.0 0.0 0.0 0.0 0.0 0.0 0.0 0.0 0.0 0.0 0.0 0.0 0.0 0.0 0.0 0.0 0.0 0.0 0.0 0.0 0.0 0.0 0.0 0.0 0.0 0.0 0.0 0.0 0.0 0.0 0.0 0.0 0.0 0.0 0.0 0.0 0.0 0.0 0.0 0.0 0.0 0.0 0.0 0.0 0.0 0.0 0.0 0.0 0.0 0.0 0.0 0.0 0.0 0.0 0.0 0.0 0.0 0.0 0.0 0.0 0.0 0.0 0.0 0.0 0.0 0.0 0.0 0.0 0.0 0.0 0.0 0.0 0.0 0.0 0.0 0.0 0.0 0.0 0.0 0.0 0.0 0.0 0.0 0.0 0.0 0.0 0.0 0.0 0.0 0.0 0.0 0.0 0.0 0.0 0.0 0.0 0.0 0.0 0.0 0.0 0.0 0.0 0.0 0.0 0.0 0.0 0.0 0.0 0.0 0.0 0.0 0.0 0.0 0.0 0.0 0.0 0.0 0.0 0.0 0.0 0.0 0.0 0.0 0.0 0.0 0.0 0.0 0.0 0.0 0.0 0.0 0.0 0.0 0.0 0.0 0.0 0.0 0.0 0.0 0.0 0.0 0.0 0.0 0.0 0.0 0.0 0.0 0.0 0.0 0.0 0.0 0.0 0.0 0.0 0.0 0.0 0.0 0.0 0.0 0.0 0.0 0.0 0.0 0.0 0.0 0.0 0.0 0.0 0.0 0.0 0.0 0.0 0.0 0.0 0.0 0.0 0.0 0.0 0.0 0.0 0.0 0.0 0.0 0.0 0.0 0.0 0.0 0.0 0.0 0.0 0.0 0.0 0.0 0.0 0.0 0.0 0.0 0.0 0.0 0.0 0.0 0.0 0.0 0.0 0.0 0.0 0.0 0.0 0.0 0.0 0.0 0.0 0.0 0.0 0.0 0.0 0.0 0.0 0.0 0.0 0.0 0.0 0.0 0.0 0.0 0.0 0.0 0.0 0.0 0.0 0.0 0.0 0.0 0.0 0.0 0.0 0.0 0.0 0.0 0.0 0.0 0.0 0.0 0.0 0.0 0.0 0.0 0.0 0.0 0.0 0.0 0.0 0.0 0.0 0.0 0.0 0.0 0.0 0.0 0.0 0.0 0.0 0.0 0.0 0.0 0.0 0.0 0.0 0.0 0.0 0.0 0.0 0.0 0.0 0.0 0.0 0.0 0.0 0.0 0.0 0.0 0.0 0.0 0.0 0.0 0.0 0.0 0.0 0.0 0.0 0.0 0.0 0.0 0.0 0.0 0.0 0.0 0.0 0.0 0.0 0.0 0.0 0.0 0.0 0.0 0.0 0.0 0.0 0.0 0.0 0.0 0.0 0.0 0.0 0.0 0.0 0.0 0.0 0.0 0.0 0.0 0.0 0.0 0.0 0.0 0.0 0.0 0.0 0.0 0.0 0.0 0.0 0.0 0.0 0.0 0.0 0.0 0.0 0.0 0.0 0.0 0.0 0.0 0.0 0.0 0.0 0.0 0.0 0.0 0.0 0.0 0.0 0.0 0.0 0.0 0.0 0.0 0.0 0.0 0.0 0.0 0.0 0.0 0.0 0.0 0.0 0.0 0.0 0.0 0.0 0.0 0.0 0.0 0.0 0.0 0.0 0.0 0.0 0.0 0.0 0.0 0.0 0.0 0.0 0.0 0.0 0.0 0.0 0.0 0.0 0.0 0.0 0.0 0.0 0.0 0.0 0.0 0.0 0.0 0.0 0.0 0.0 0.0 0.0 0.0 0.0 0.0 0.0 0.0 0.0 0.0 0.0 0.0 0.0 0.0 0.0 0.0 0.0 0.0 0.0 0.0 0.0 0.0 0.0 0.0 0.0 0.0 0.0 0.0 0.0 0.0 0.0 0.0 0.0 0.0 0.0 0.0 0.0 0.0 0.0 0.0 0.0 0.0 0.0 0.0 0.0 0.0 0.0 0.0 0.0 0.0 0.0 0.0 0.0 0.0 0.0 0.0 0.0 0.0 0.0 0.0 0.0 0.0 0.0 0.0 0.0 0.0 0.0 0.0 0.0 0.0 0.0 0.0 0.0 0.0 0.0 0.0 0.0 0.0 0.0 0.0 0.0 0.0 0.0 0.0 0.0 0.0 0.0 0.0 0.0 0.0 0.0 0.0 0.0 0.0 0.0 0.0 0.0 0.0 0.0 0.0 0.0 0.0 0.0 0.0 0.0 0.0 0.0 0.0 0.0 0.0 0.0 0.0 0.0 0.0 0.0 0.0 0.0 0.0 0.0 0.0 0.0 0.0 0.0 0.0 0.0 0.0 0.0 0.0 0.0 0.0 0.0 0.0 0.0 0.0 0.0 0.0 0.0 0.0 0.0 0.0 0.0 0.0 0.0 0.0 0.0 0.0 0.0 0.0 0.0 0.0 0.0 0.0 0.0 0.0 0.0 0.0 0.0 0.0 0.0 0.0 0.0 0.0 0.0 0.0 0.0 0.0 0.0 0.0 0.0 0.0 0.0 0.0 0.0 0.0 0.0 0.0 0.0 0.0 0.0 0.0 0.0 0.0 0.0 0.0 0.0 0.0 0.0 0.0 0.0 0.0 0.0 0.0 0.0 0.0 0.0 0.0 0.0 0.0 0.0 0.0 0.0 0.0 0.0 0.0 0.0 0.0 0.0 0.0 0.0 0.0 0.0 0.0 0.0 0.0 0.0 0.0 0.0 0.0 0.0 0.0 0.0 0.0 0.0 0.0 0.0 0.0 0.0 0.0 0.0 0.0 0.0 0.0 0.0 0.0 0.0 0.0 0.0 0.0 0.0 0.0 0.0 0.0 0.0 0.0 0.0 0.0 0.0 0.0 0.0 0.0 0.0 0.0 0.0 0.0 0.0 0.0 0.0 0.0 0.0 0.0 0.0 0.0 0.0 0.0 0.0 0.0 0.0 0.0 0.0 0.0 0.0 0.0 0.0 0.0 0.0 0.0 0.0 0.0 0.0 0.0 0.0 0.0 0.0 0.0 0.0 0.0 0.0 0.0 0.0 0.0 0.0 0.0 0.0 0.0 0.0 0.0 0.0 0.0 0.0 0.0 0.0 0.0 0.0 0.0 0.0 0.0 0.0 0.0 0.0 0.0 0.0 0.0 0.0 0.0 0.0 0.0 0.0 0.0 0.0 0.0 0.0 0.0 0.0 0.0 0.0 0.0 0.0 0.0 0.0 0.0 0.0 0.0 0.0 0.0 0.0 0.0 0.0 0.0 0.0 0.0 0.0 0.0 0.0 0.0 0.0 0.0 0.0 0.0 0.0 0.0 0.0 0.0 0.0 0.0 0.0 0.0 0.0 0.0 0.0 0.0 0.0 0.0 0.0 0.0 0.0 0.0 0.0 0.0 0.0 0.0 0.0 0.0 0.0 0.0 0.0 0.0 0.0 0.0 0.0 0.0 0.0 0.0 0.0 0.0 0.0 0.0 0.0 0.0 0.0 0.0 0.0 0.0 0.0 0.0 0.0 0.0 0.0 0.0 0.0 0.0 0.0 0.0 0.0 0.0 0.0 0.0 0.0 0.0 0.0 0.0 0.0 0.0 0.0 0.0 0.0 0.0 0.0 0.0 0.0 0.0 0.0 0.0 0.0 0.0 0.0 0.0 0.0 0.0 0.0 0.0 0.0 0.0 0.0 0.0 0.0 0.0 0.0 0.0 0.0 0.0 0.0 0.0 0.0 0.0 0.0 0.0 0.0 0.0 0.0 0.0 0.0 0.0 0.0 0.0 0.0 0.0 0.0 0.0 0.0 0.0 0.0 0.0 0.0 0.0 0.0 0.0 0.0 0.0 0.0 0.0 0.0 0.0 0.0 0.0 0.0 0.0 0.0 0.0 0.0 0.0 0.0 0.0 0.0 0.0 0.0 0.0 0.0 0.0 0.0 0.0 0.0 0.0 0.0 0.0 0.0 0.0 0.0 0.0 0.0 0.0 0.0 0.0 0.0 0.0 0.0 0.0 0.0 0.0 0.0 0.0 0.0 0.0 0.0 0.0 0.0 0.0 0.0 0.0 0.0 0.0 0.0 0.0 0.0 0.0 0.0 0.0 0.0 0.0 0.0 0.0 0.0 0.0 0.0 0.0 0.0 0.0 0.0 0.0 0.0 0.0 0.0 0.0 0.0 0.0 0.0 0.0 0.0 0.0 0.0 0.0 0.0 0.0 0.0 0.0 0.0 0.0 0.0 0.0 0.0 0.0 0.0 0.0 0.0 0.0 0.0 0.0 0.0 0.0 0.0 0.0 0.0 0.0 0.0 0.0 0.0 0.0 0.0 0.0 0.0 0.0 0.0 0.0 0.0 0.0 0.0 0.0 0.0 0.0 0.0 0.0 0.0 0.0 0.0 0.0 0.0 0.0 0.0 0.0 0.0 0.0 0.0 0.0 0.0 0.0 0.0 0.0 0.0 0.0 0.0 0.0 0.0 0.0 0.0 0.0 0.0 0.0 0.0 0.0 0.0 0.0 0.0 0.0 0.0 0.0 0.0 0.0 0.0 0.0 0.0 0.0 0.0 0.0 0.0 0.0 0.0 0.0 0.0 0.0 0.0 0.0 0.0 0.0 0.0 0.0 0.0 0.0 0.0 0.0 0.0 0.0 0.0 0.0 0.0 0.0 0.0 0.0 0.0 0.0 0.0 0.0 0.0 0.0 0.0 0.0 0.0 0.0 0.0 0.0 0.0 0.0 0.0 0.0 0.0 0.0 0.0 0.0 0.0 0.0 0.0 0.0 0.0 0.0 0.0 0.0 0.0 0.0 0.0 0.0 0.0 0.0 0.0 0.0 0.0 0.0 0.0 0.0 0.0 0.0 0.0 0.0 0.0 0.0 0.0 0.0 0.0 0.0 0.0 0.0 0.0 0.0 0.0 0.0 0.0 0.0 0.0 0.0 0.0 0.0 0.0 0.0 0.0 0.0 0.0 0.0 0.0 0.0 0.0 0.0 0.0 0.0 0.0 0.0 0.0 0.0 0.0 0.0 0.0 0.0 0.0 0.0 0.0 0.0 0.0 0.0 0.0 0.0 0.0 0.0
    </DataArray>
    <DataArray type="Float32" Name="Ion diffusion flux Density [Am^-2]" NumberOfComponents="3" format="ascii">
0.0 0.0 0.0 0.0 0.0 0.0 0.0 0.0 0.0 0.0 0.0 0.0 0.0 0.0 0.0 0.0 0.0 0.0 0.0 0.0 0.0 0.0 0.0 0.0 0.0 0.0 0.0 0.0 0.0 0.0 0.0 0.0 0.0 0.0 0.0 0.0 0.0 0.0 0.0 0.0 0.0 0.0 0.0 0.0 0.0 0.0 0.0 0.0 0.0 0.0 0.0 0.0 0.0 0.0 0.0 0.0 0.0 0.0 0.0 0.0 0.0 0.0 0.0 0.0 0.0 0.0 0.0 0.0 0.0 0.0 0.0 0.0 0.0 0.0 0.0 0.0 0.0 0.0 0.0 0.0 0.0 0.0 0.0 0.0 0.0 0.0 0.0 0.0 0.0 0.0 0.0 0.0 0.0 0.0 0.0 0.0 0.0 0.0 0.0 0.0 0.0 0.0 0.0 0.0 0.0 0.0 0.0 0.0 0.0 0.0 0.0 0.0 0.0 0.0 0.0 0.0 0.0 0.0 0.0 0.0 0.0 0.0 0.0 0.0 0.0 0.0 0.0 0.0 0.0 0.0 0.0 0.0 0.0 0.0 0.0 0.0 0.0 0.0 0.0 0.0 0.0 0.0 0.0 0.0 0.0 0.0 0.0 0.0 0.0 0.0 0.0 0.0 0.0 0.0 0.0 0.0 0.0 0.0 0.0 0.0 0.0 0.0 0.0 0.0 0.0 0.0 0.0 0.0 0.0 0.0 0.0 0.0 0.0 0.0 0.0 0.0 0.0 0.0 0.0 0.0 0.0 0.0 0.0 0.0 0.0 0.0 0.0 0.0 0.0 0.0 0.0 0.0 0.0 0.0 0.0 0.0 0.0 0.0 0.0 0.0 0.0 0.0 0.0 0.0 0.0 0.0 0.0 0.0 0.0 0.0 0.0 0.0 0.0 0.0 0.0 0.0 0.0 0.0 0.0 0.0 0.0 0.0 0.0 0.0 0.0 0.0 0.0 0.0 0.0 0.0 0.0 0.0 0.0 0.0 0.0 0.0 0.0 0.0 0.0 0.0 0.0 0.0 0.0 0.0 0.0 0.0 0.0 0.0 0.0 0.0 0.0 0.0 0.0 0.0 0.0 0.0 0.0 0.0 0.0 0.0 0.0 0.0 0.0 0.0 0.0 0.0 0.0 0.0 0.0 0.0 0.0 0.0 0.0 0.0 0.0 0.0 0.0 0.0 0.0 0.0 0.0 0.0 0.0 0.0 0.0 0.0 0.0 0.0 0.0 0.0 0.0 0.0 0.0 0.0 0.0 0.0 0.0 0.0 0.0 0.0 0.0 0.0 0.0 0.0 0.0 0.0 0.0 0.0 0.0 0.0 0.0 0.0 0.0 0.0 0.0 0.0 0.0 0.0 0.0 0.0 0.0 0.0 0.0 0.0 0.0 0.0 0.0 0.0 0.0 0.0 0.0 0.0 0.0 0.0 0.0 0.0 0.0 0.0 0.0 0.0 0.0 0.0 0.0 0.0 0.0 0.0 0.0 0.0 0.0 0.0 0.0 0.0 0.0 0.0 0.0 0.0 0.0 0.0 0.0 0.0 0.0 0.0 0.0 0.0 0.0 0.0 0.0 0.0 0.0 0.0 0.0 0.0 0.0 0.0 0.0 0.0 0.0 0.0 0.0 0.0 0.0 0.0 0.0 0.0 0.0 0.0 0.0 0.0 0.0 0.0 0.0 0.0 0.0 0.0 0.0 0.0 0.0 0.0 0.0 0.0 0.0 0.0 0.0 0.0 0.0 0.0 0.0 0.0 0.0 0.0 0.0 0.0 0.0 0.0 0.0 0.0 0.0 0.0 0.0 0.0 0.0 0.0 0.0 0.0 0.0 0.0 0.0 0.0 0.0 0.0 0.0 0.0 0.0 0.0 0.0 0.0 0.0 0.0 0.0 0.0 0.0 0.0 0.0 0.0 0.0 0.0 0.0 0.0 0.0 0.0 0.0 0.0 0.0 0.0 0.0 0.0 0.0 0.0 0.0 0.0 0.0 0.0 0.0 0.0 0.0 0.0 0.0 0.0 0.0 0.0 0.0 0.0 0.0 0.0 0.0 0.0 0.0 0.0 0.0 0.0 0.0 0.0 0.0 0.0 0.0 0.0 0.0 0.0 0.0 0.0 0.0 0.0 0.0 0.0 0.0 0.0 0.0 0.0 0.0 0.0 0.0 0.0 0.0 0.0 0.0 0.0 0.0 0.0 0.0 0.0 0.0 0.0 0.0 0.0 0.0 0.0 0.0 0.0 0.0 0.0 0.0 0.0 0.0 0.0 0.0 0.0 0.0 0.0 0.0 0.0 0.0 0.0 0.0 0.0 0.0 0.0 0.0 0.0 0.0 0.0 0.0 0.0 0.0 0.0 0.0 0.0 0.0 0.0 0.0 0.0 0.0 0.0 0.0 0.0 0.0 0.0 0.0 0.0 0.0 0.0 0.0 0.0 0.0 0.0 0.0 0.0 0.0 0.0 0.0 0.0 0.0 0.0 0.0 0.0 0.0 0.0 0.0 0.0 0.0 0.0 0.0 0.0 0.0 0.0 0.0 0.0 0.0 0.0 0.0 0.0 0.0 0.0 0.0 0.0 0.0 0.0 0.0 0.0 0.0 0.0 0.0 0.0 0.0 0.0 0.0 0.0 0.0 0.0 0.0 0.0 0.0 0.0 0.0 0.0 0.0 0.0 0.0 0.0 0.0 0.0 0.0 0.0 0.0 0.0 0.0 0.0 0.0 0.0 0.0 0.0 0.0 0.0 0.0 0.0 0.0 0.0 0.0 0.0 0.0 0.0 0.0 0.0 0.0 0.0 0.0 0.0 0.0 0.0 0.0 0.0 0.0 0.0 0.0 0.0 0.0 0.0 0.0 0.0 0.0 0.0 0.0 0.0 0.0 0.0 0.0 0.0 0.0 0.0 0.0 0.0 0.0 0.0 0.0 0.0 0.0 0.0 0.0 0.0 0.0 0.0 0.0 0.0 0.0 0.0 0.0 0.0 0.0 0.0 0.0 0.0 0.0 0.0 0.0 0.0 0.0 0.0 0.0 0.0 0.0 0.0 0.0 0.0 0.0 0.0 0.0 0.0 0.0 0.0 0.0 0.0 0.0 0.0 0.0 0.0 0.0 0.0 0.0 0.0 0.0 0.0 0.0 0.0 0.0 0.0 0.0 0.0 0.0 0.0 0.0 0.0 0.0 0.0 0.0 0.0 0.0 0.0 0.0 0.0 0.0 0.0 0.0 0.0 0.0 0.0 0.0 0.0 0.0 0.0 0.0 0.0 0.0 0.0 0.0 0.0 0.0 0.0 0.0 0.0 0.0 0.0 0.0 0.0 0.0 0.0 0.0 0.0 0.0 0.0 0.0 0.0 0.0 0.0 0.0 0.0 0.0 0.0 0.0 0.0 0.0 0.0 0.0 0.0 0.0 0.0 0.0 0.0 0.0 0.0 0.0 0.0 0.0 0.0 0.0 0.0 0.0 0.0 0.0 0.0 0.0 0.0 0.0 0.0 0.0 0.0 0.0 0.0 0.0 0.0 0.0 0.0 0.0 0.0 0.0 0.0 0.0 0.0 0.0 0.0 0.0 0.0 0.0 0.0 0.0 0.0 0.0 0.0 0.0 0.0 0.0 0.0 0.0 0.0 0.0 0.0 0.0 0.0 0.0 0.0 0.0 0.0 0.0 0.0 0.0 0.0 0.0 0.0 0.0 0.0 0.0 0.0 0.0 0.0 0.0 0.0 0.0 0.0 0.0 0.0 0.0 0.0 0.0 0.0 0.0 0.0 0.0 0.0 0.0 0.0 0.0 0.0 0.0 0.0 0.0 0.0 0.0 0.0 0.0 0.0 0.0 0.0 0.0 0.0 0.0 0.0 0.0 0.0 0.0 0.0 0.0 0.0 0.0 0.0 0.0 0.0 0.0 0.0 0.0 0.0 0.0 0.0 0.0 0.0 0.0 0.0 0.0 0.0 0.0 0.0 0.0 0.0 0.0 0.0 0.0 0.0 0.0 0.0 0.0 0.0 0.0 0.0 0.0 0.0 0.0 0.0 0.0 0.0 0.0 0.0 0.0 0.0 0.0 0.0 0.0 0.0 0.0 0.0 0.0 0.0 0.0 0.0 0.0 0.0 0.0 0.0 0.0 0.0 0.0 0.0 0.0 0.0 0.0 0.0 0.0 0.0 0.0 0.0 0.0 0.0 0.0 0.0 0.0 0.0 0.0 0.0 0.0 0.0 0.0 0.0 0.0 0.0 0.0 0.0 0.0 0.0 0.0 0.0 0.0 0.0 0.0 0.0 0.0 0.0 0.0 0.0 0.0 0.0 0.0 0.0 0.0 0.0 0.0 0.0 0.0 0.0 0.0 0.0 0.0 0.0 0.0 0.0 0.0 0.0 0.0 0.0 0.0 0.0 0.0 0.0 0.0 0.0 0.0 0.0 0.0 0.0 0.0 0.0 0.0 0.0 0.0 0.0 0.0 0.0 0.0 0.0 0.0 0.0 0.0 0.0 0.0 0.0 0.0 0.0 0.0 0.0 0.0 0.0 0.0 0.0 0.0 0.0 0.0 0.0 0.0 0.0 0.0 0.0 0.0 0.0 0.0 0.0 0.0 0.0 0.0 0.0 0.0 0.0 0.0 0.0 0.0 0.0 0.0 0.0 0.0 0.0 0.0 0.0 0.0 0.0 0.0 0.0 0.0 0.0 0.0 0.0 0.0 0.0 0.0 0.0 0.0 0.0 0.0 0.0 0.0 0.0 0.0 0.0 0.0 0.0 0.0 0.0 0.0 0.0 0.0 0.0 0.0 0.0 0.0 0.0 0.0 0.0 0.0 0.0 0.0 0.0 0.0 0.0 0.0 0.0 0.0 0.0 0.0 0.0 0.0 0.0 0.0 0.0 0.0 0.0 0.0 0.0 0.0 0.0 0.0 0.0 0.0 0.0 0.0 0.0 0.0 0.0 0.0 0.0 0.0 0.0 0.0 0.0 0.0 0.0 0.0 0.0 0.0 0.0 0.0 0.0 0.0 0.0 0.0 0.0 0.0 0.0 0.0 0.0 0.0 0.0 0.0 0.0 0.0 0.0 0.0 0.0 0.0 0.0 0.0 0.0 0.0 0.0 0.0 0.0 0.0 0.0 0.0 0.0 0.0 0.0 0.0 0.0 0.0 0.0 0.0 0.0 0.0 0.0 0.0 0.0 0.0 0.0 0.0 0.0 0.0 0.0 0.0 0.0 0.0 0.0 0.0 0.0 0.0 0.0 0.0 0.0 0.0 0.0 0.0 0.0 0.0 0.0 0.0 0.0 0.0 0.0 0.0 0.0 0.0 0.0 0.0 0.0 0.0 0.0 0.0 0.0 0.0 0.0 0.0 0.0
    </DataArray>
    <DataArray type="Float32" Name="Ion drift flux Density [Am^-2]" NumberOfComponents="3" format="ascii">
0.0 0.0 0.0 0.0 0.0 0.0 0.0 0.0 0.0 0.0 0.0 0.0 0.0 0.0 0.0 0.0 0.0 0.0 0.0 0.0 0.0 0.0 0.0 0.0 0.0 0.0 0.0 0.0 0.0 0.0 0.0 0.0 0.0 0.0 0.0 0.0 0.0 0.0 0.0 0.0 0.0 0.0 0.0 0.0 0.0 0.0 0.0 0.0 0.0 0.0 0.0 0.0 0.0 0.0 0.0 0.0 0.0 0.0 0.0 0.0 0.0 0.0 0.0 0.0 0.0 0.0 0.0 0.0 0.0 0.0 0.0 0.0 0.0 0.0 0.0 0.0 0.0 0.0 0.0 0.0 0.0 0.0 0.0 0.0 0.0 0.0 0.0 0.0 0.0 0.0 0.0 0.0 0.0 0.0 0.0 0.0 0.0 0.0 0.0 0.0 0.0 0.0 0.0 0.0 0.0 0.0 0.0 0.0 0.0 0.0 0.0 0.0 0.0 0.0 0.0 0.0 0.0 0.0 0.0 0.0 0.0 0.0 0.0 0.0 0.0 0.0 0.0 0.0 0.0 0.0 0.0 0.0 0.0 0.0 0.0 0.0 0.0 0.0 0.0 0.0 0.0 0.0 0.0 0.0 0.0 0.0 0.0 0.0 0.0 0.0 0.0 0.0 0.0 0.0 0.0 0.0 0.0 0.0 0.0 0.0 0.0 0.0 0.0 0.0 0.0 0.0 0.0 0.0 0.0 0.0 0.0 0.0 0.0 0.0 0.0 0.0 0.0 0.0 0.0 0.0 0.0 0.0 0.0 0.0 0.0 0.0 0.0 0.0 0.0 0.0 0.0 0.0 0.0 0.0 0.0 0.0 0.0 0.0 0.0 0.0 0.0 0.0 0.0 0.0 0.0 0.0 0.0 0.0 0.0 0.0 0.0 0.0 0.0 0.0 0.0 0.0 0.0 0.0 0.0 0.0 0.0 0.0 0.0 0.0 0.0 0.0 0.0 0.0 0.0 0.0 0.0 0.0 0.0 0.0 0.0 0.0 0.0 0.0 0.0 0.0 0.0 0.0 0.0 0.0 0.0 0.0 0.0 0.0 0.0 0.0 0.0 0.0 0.0 0.0 0.0 0.0 0.0 0.0 0.0 0.0 0.0 0.0 0.0 0.0 0.0 0.0 0.0 0.0 0.0 0.0 0.0 0.0 0.0 0.0 0.0 0.0 0.0 0.0 0.0 0.0 0.0 0.0 0.0 0.0 0.0 0.0 0.0 0.0 0.0 0.0 0.0 0.0 0.0 0.0 0.0 0.0 0.0 0.0 0.0 0.0 0.0 0.0 0.0 0.0 0.0 0.0 0.0 0.0 0.0 0.0 0.0 0.0 0.0 0.0 0.0 0.0 0.0 0.0 0.0 0.0 0.0 0.0 0.0 0.0 0.0 0.0 0.0 0.0 0.0 0.0 0.0 0.0 0.0 0.0 0.0 0.0 0.0 0.0 0.0 0.0 0.0 0.0 0.0 0.0 0.0 0.0 0.0 0.0 0.0 0.0 0.0 0.0 0.0 0.0 0.0 0.0 0.0 0.0 0.0 0.0 0.0 0.0 0.0 0.0 0.0 0.0 0.0 0.0 0.0 0.0 0.0 0.0 0.0 0.0 0.0 0.0 0.0 0.0 0.0 0.0 0.0 0.0 0.0 0.0 0.0 0.0 0.0 0.0 0.0 0.0 0.0 0.0 0.0 0.0 0.0 0.0 0.0 0.0 0.0 0.0 0.0 0.0 0.0 0.0 0.0 0.0 0.0 0.0 0.0 0.0 0.0 0.0 0.0 0.0 0.0 0.0 0.0 0.0 0.0 0.0 0.0 0.0 0.0 0.0 0.0 0.0 0.0 0.0 0.0 0.0 0.0 0.0 0.0 0.0 0.0 0.0 0.0 0.0 0.0 0.0 0.0 0.0 0.0 0.0 0.0 0.0 0.0 0.0 0.0 0.0 0.0 0.0 0.0 0.0 0.0 0.0 0.0 0.0 0.0 0.0 0.0 0.0 0.0 0.0 0.0 0.0 0.0 0.0 0.0 0.0 0.0 0.0 0.0 0.0 0.0 0.0 0.0 0.0 0.0 0.0 0.0 0.0 0.0 0.0 0.0 0.0 0.0 0.0 0.0 0.0 0.0 0.0 0.0 0.0 0.0 0.0 0.0 0.0 0.0 0.0 0.0 0.0 0.0 0.0 0.0 0.0 0.0 0.0 0.0 0.0 0.0 0.0 0.0 0.0 0.0 0.0 0.0 0.0 0.0 0.0 0.0 0.0 0.0 0.0 0.0 0.0 0.0 0.0 0.0 0.0 0.0 0.0 0.0 0.0 0.0 0.0 0.0 0.0 0.0 0.0 0.0 0.0 0.0 0.0 0.0 0.0 0.0 0.0 0.0 0.0 0.0 0.0 0.0 0.0 0.0 0.0 0.0 0.0 0.0 0.0 0.0 0.0 0.0 0.0 0.0 0.0 0.0 0.0 0.0 0.0 0.0 0.0 0.0 0.0 0.0 0.0 0.0 0.0 0.0 0.0 0.0 0.0 0.0 0.0 0.0 0.0 0.0 0.0 0.0 0.0 0.0 0.0 0.0 0.0 0.0 0.0 0.0 0.0 0.0 0.0 0.0 0.0 0.0 0.0 0.0 0.0 0.0 0.0 0.0 0.0 0.0 0.0 0.0 0.0 0.0 0.0 0.0 0.0 0.0 0.0 0.0 0.0 0.0 0.0 0.0 0.0 0.0 0.0 0.0 0.0 0.0 0.0 0.0 0.0 0.0 0.0 0.0 0.0 0.0 0.0 0.0 0.0 0.0 0.0 0.0 0.0 0.0 0.0 0.0 0.0 0.0 0.0 0.0 0.0 0.0 0.0 0.0 0.0 0.0 0.0 0.0 0.0 0.0 0.0 0.0 0.0 0.0 0.0 0.0 0.0 0.0 0.0 0.0 0.0 0.0 0.0 0.0 0.0 0.0 0.0 0.0 0.0 0.0 0.0 0.0 0.0 0.0 0.0 0.0 0.0 0.0 0.0 0.0 0.0 0.0 0.0 0.0 0.0 0.0 0.0 0.0 0.0 0.0 0.0 0.0 0.0 0.0 0.0 0.0 0.0 0.0 0.0 0.0 0.0 0.0 0.0 0.0 0.0 0.0 0.0 0.0 0.0 0.0 0.0 0.0 0.0 0.0 0.0 0.0 0.0 0.0 0.0 0.0 0.0 0.0 0.0 0.0 0.0 0.0 0.0 0.0 0.0 0.0 0.0 0.0 0.0 0.0 0.0 0.0 0.0 0.0 0.0 0.0 0.0 0.0 0.0 0.0 0.0 0.0 0.0 0.0 0.0 0.0 0.0 0.0 0.0 0.0 0.0 0.0 0.0 0.0 0.0 0.0 0.0 0.0 0.0 0.0 0.0 0.0 0.0 0.0 0.0 0.0 0.0 0.0 0.0 0.0 0.0 0.0 0.0 0.0 0.0 0.0 0.0 0.0 0.0 0.0 0.0 0.0 0.0 0.0 0.0 0.0 0.0 0.0 0.0 0.0 0.0 0.0 0.0 0.0 0.0 0.0 0.0 0.0 0.0 0.0 0.0 0.0 0.0 0.0 0.0 0.0 0.0 0.0 0.0 0.0 0.0 0.0 0.0 0.0 0.0 0.0 0.0 0.0 0.0 0.0 0.0 0.0 0.0 0.0 0.0 0.0 0.0 0.0 0.0 0.0 0.0 0.0 0.0 0.0 0.0 0.0 0.0 0.0 0.0 0.0 0.0 0.0 0.0 0.0 0.0 0.0 0.0 0.0 0.0 0.0 0.0 0.0 0.0 0.0 0.0 0.0 0.0 0.0 0.0 0.0 0.0 0.0 0.0 0.0 0.0 0.0 0.0 0.0 0.0 0.0 0.0 0.0 0.0 0.0 0.0 0.0 0.0 0.0 0.0 0.0 0.0 0.0 0.0 0.0 0.0 0.0 0.0 0.0 0.0 0.0 0.0 0.0 0.0 0.0 0.0 0.0 0.0 0.0 0.0 0.0 0.0 0.0 0.0 0.0 0.0 0.0 0.0 0.0 0.0 0.0 0.0 0.0 0.0 0.0 0.0 0.0 0.0 0.0 0.0 0.0 0.0 0.0 0.0 0.0 0.0 0.0 0.0 0.0 0.0 0.0 0.0 0.0 0.0 0.0 0.0 0.0 0.0 0.0 0.0 0.0 0.0 0.0 0.0 0.0 0.0 0.0 0.0 0.0 0.0 0.0 0.0 0.0 0.0 0.0 0.0 0.0 0.0 0.0 0.0 0.0 0.0 0.0 0.0 0.0 0.0 0.0 0.0 0.0 0.0 0.0 0.0 0.0 0.0 0.0 0.0 0.0 0.0 0.0 0.0 0.0 0.0 0.0 0.0 0.0 0.0 0.0 0.0 0.0 0.0 0.0 0.0 0.0 0.0 0.0 0.0 0.0 0.0 0.0 0.0 0.0 0.0 0.0 0.0 0.0 0.0 0.0 0.0 0.0 0.0 0.0 0.0 0.0 0.0 0.0 0.0 0.0 0.0 0.0 0.0 0.0 0.0 0.0 0.0 0.0 0.0 0.0 0.0 0.0 0.0 0.0 0.0 0.0 0.0 0.0 0.0 0.0 0.0 0.0 0.0 0.0 0.0 0.0 0.0 0.0 0.0 0.0 0.0 0.0 0.0 0.0 0.0 0.0 0.0 0.0 0.0 0.0 0.0 0.0 0.0 0.0 0.0 0.0 0.0 0.0 0.0 0.0 0.0 0.0 0.0 0.0 0.0 0.0 0.0 0.0 0.0 0.0 0.0 0.0 0.0 0.0 0.0 0.0 0.0 0.0 0.0 0.0 0.0 0.0 0.0 0.0 0.0 0.0 0.0 0.0 0.0 0.0 0.0 0.0 0.0 0.0 0.0 0.0 0.0 0.0 0.0 0.0 0.0 0.0 0.0 0.0 0.0 0.0 0.0 0.0 0.0 0.0 0.0 0.0 0.0 0.0 0.0 0.0 0.0 0.0 0.0 0.0 0.0 0.0 0.0 0.0 0.0 0.0 0.0 0.0 0.0 0.0 0.0 0.0 0.0 0.0 0.0 0.0 0.0 0.0 0.0 0.0 0.0 0.0 0.0 0.0 0.0 0.0 0.0 0.0 0.0 0.0 0.0 0.0 0.0 0.0 0.0 0.0 0.0 0.0 0.0 0.0 0.0 0.0 0.0 0.0 0.0 0.0 0.0 0.0 0.0 0.0 0.0 0.0 0.0 0.0 0.0 0.0 0.0 0.0 0.0 0.0 0.0 0.0 0.0 0.0 0.0 0.0 0.0 0.0 0.0 0.0 0.0 0.0 0.0 0.0 0.0 0.0 0.0 0.0 0.0 0.0 0.0
    </DataArray>
    <DataArray type="Float32" Name="Ion soret flux Density [Am^-2]" NumberOfComponents="3" format="ascii">
0.0 0.0 0.0 0.0 0.0 0.0 0.0 0.0 0.0 0.0 0.0 0.0 0.0 0.0 0.0 0.0 0.0 0.0 0.0 0.0 0.0 0.0 0.0 0.0 0.0 0.0 0.0 0.0 0.0 0.0 0.0 0.0 0.0 0.0 0.0 0.0 0.0 0.0 0.0 0.0 0.0 0.0 0.0 0.0 0.0 0.0 0.0 0.0 0.0 0.0 0.0 0.0 0.0 0.0 0.0 0.0 0.0 0.0 0.0 0.0 0.0 0.0 0.0 0.0 0.0 0.0 0.0 0.0 0.0 0.0 0.0 0.0 0.0 0.0 0.0 0.0 0.0 0.0 0.0 0.0 0.0 0.0 0.0 0.0 0.0 0.0 0.0 0.0 0.0 0.0 0.0 0.0 0.0 0.0 0.0 0.0 0.0 0.0 0.0 0.0 0.0 0.0 0.0 0.0 0.0 0.0 0.0 0.0 0.0 0.0 0.0 0.0 0.0 0.0 0.0 0.0 0.0 0.0 0.0 0.0 0.0 0.0 0.0 0.0 0.0 0.0 0.0 0.0 0.0 0.0 0.0 0.0 0.0 0.0 0.0 0.0 0.0 0.0 0.0 0.0 0.0 0.0 0.0 0.0 0.0 0.0 0.0 0.0 0.0 0.0 0.0 0.0 0.0 0.0 0.0 0.0 0.0 0.0 0.0 0.0 0.0 0.0 0.0 0.0 0.0 0.0 0.0 0.0 0.0 0.0 0.0 0.0 0.0 0.0 0.0 0.0 0.0 0.0 0.0 0.0 0.0 0.0 0.0 0.0 0.0 0.0 0.0 0.0 0.0 0.0 0.0 0.0 0.0 0.0 0.0 0.0 0.0 0.0 0.0 0.0 0.0 0.0 0.0 0.0 0.0 0.0 0.0 0.0 0.0 0.0 0.0 0.0 0.0 0.0 0.0 0.0 0.0 0.0 0.0 0.0 0.0 0.0 0.0 0.0 0.0 0.0 0.0 0.0 0.0 0.0 0.0 0.0 0.0 0.0 0.0 0.0 0.0 0.0 0.0 0.0 0.0 0.0 0.0 0.0 0.0 0.0 0.0 0.0 0.0 0.0 0.0 0.0 0.0 0.0 0.0 0.0 0.0 0.0 0.0 0.0 0.0 0.0 0.0 0.0 0.0 0.0 0.0 0.0 0.0 0.0 0.0 0.0 0.0 0.0 0.0 0.0 0.0 0.0 0.0 0.0 0.0 0.0 0.0 0.0 0.0 0.0 0.0 0.0 0.0 0.0 0.0 0.0 0.0 0.0 0.0 0.0 0.0 0.0 0.0 0.0 0.0 0.0 0.0 0.0 0.0 0.0 0.0 0.0 0.0 0.0 0.0 0.0 0.0 0.0 0.0 0.0 0.0 0.0 0.0 0.0 0.0 0.0 0.0 0.0 0.0 0.0 0.0 0.0 0.0 0.0 0.0 0.0 0.0 0.0 0.0 0.0 0.0 0.0 0.0 0.0 0.0 0.0 0.0 0.0 0.0 0.0 0.0 0.0 0.0 0.0 0.0 0.0 0.0 0.0 0.0 0.0 0.0 0.0 0.0 0.0 0.0 0.0 0.0 0.0 0.0 0.0 0.0 0.0 0.0 0.0 0.0 0.0 0.0 0.0 0.0 0.0 0.0 0.0 0.0 0.0 0.0 0.0 0.0 0.0 0.0 0.0 0.0 0.0 0.0 0.0 0.0 0.0 0.0 0.0 0.0 0.0 0.0 0.0 0.0 0.0 0.0 0.0 0.0 0.0 0.0 0.0 0.0 0.0 0.0 0.0 0.0 0.0 0.0 0.0 0.0 0.0 0.0 0.0 0.0 0.0 0.0 0.0 0.0 0.0 0.0 0.0 0.0 0.0 0.0 0.0 0.0 0.0 0.0 0.0 0.0 0.0 0.0 0.0 0.0 0.0 0.0 0.0 0.0 0.0 0.0 0.0 0.0 0.0 0.0 0.0 0.0 0.0 0.0 0.0 0.0 0.0 0.0 0.0 0.0 0.0 0.0 0.0 0.0 0.0 0.0 0.0 0.0 0.0 0.0 0.0 0.0 0.0 0.0 0.0 0.0 0.0 0.0 0.0 0.0 0.0 0.0 0.0 0.0 0.0 0.0 0.0 0.0 0.0 0.0 0.0 0.0 0.0 0.0 0.0 0.0 0.0 0.0 0.0 0.0 0.0 0.0 0.0 0.0 0.0 0.0 0.0 0.0 0.0 0.0 0.0 0.0 0.0 0.0 0.0 0.0 0.0 0.0 0.0 0.0 0.0 0.0 0.0 0.0 0.0 0.0 0.0 0.0 0.0 0.0 0.0 0.0 0.0 0.0 0.0 0.0 0.0 0.0 0.0 0.0 0.0 0.0 0.0 0.0 0.0 0.0 0.0 0.0 0.0 0.0 0.0 0.0 0.0 0.0 0.0 0.0 0.0 0.0 0.0 0.0 0.0 0.0 0.0 0.0 0.0 0.0 0.0 0.0 0.0 0.0 0.0 0.0 0.0 0.0 0.0 0.0 0.0 0.0 0.0 0.0 0.0 0.0 0.0 0.0 0.0 0.0 0.0 0.0 0.0 0.0 0.0 0.0 0.0 0.0 0.0 0.0 0.0 0.0 0.0 0.0 0.0 0.0 0.0 0.0 0.0 0.0 0.0 0.0 0.0 0.0 0.0 0.0 0.0 0.0 0.0 0.0 0.0 0.0 0.0 0.0 0.0 0.0 0.0 0.0 0.0 0.0 0.0 0.0 0.0 0.0 0.0 0.0 0.0 0.0 0.0 0.0 0.0 0.0 0.0 0.0 0.0 0.0 0.0 0.0 0.0 0.0 0.0 0.0 0.0 0.0 0.0 0.0 0.0 0.0 0.0 0.0 0.0 0.0 0.0 0.0 0.0 0.0 0.0 0.0 0.0 0.0 0.0 0.0 0.0 0.0 0.0 0.0 0.0 0.0 0.0 0.0 0.0 0.0 0.0 0.0 0.0 0.0 0.0 0.0 0.0 0.0 0.0 0.0 0.0 0.0 0.0 0.0 0.0 0.0 0.0 0.0 0.0 0.0 0.0 0.0 0.0 0.0 0.0 0.0 0.0 0.0 0.0 0.0 0.0 0.0 0.0 0.0 0.0 0.0 0.0 0.0 0.0 0.0 0.0 0.0 0.0 0.0 0.0 0.0 0.0 0.0 0.0 0.0 0.0 0.0 0.0 0.0 0.0 0.0 0.0 0.0 0.0 0.0 0.0 0.0 0.0 0.0 0.0 0.0 0.0 0.0 0.0 0.0 0.0 0.0 0.0 0.0 0.0 0.0 0.0 0.0 0.0 0.0 0.0 0.0 0.0 0.0 0.0 0.0 0.0 0.0 0.0 0.0 0.0 0.0 0.0 0.0 0.0 0.0 0.0 0.0 0.0 0.0 0.0 0.0 0.0 0.0 0.0 0.0 0.0 0.0 0.0 0.0 0.0 0.0 0.0 0.0 0.0 0.0 0.0 0.0 0.0 0.0 0.0 0.0 0.0 0.0 0.0 0.0 0.0 0.0 0.0 0.0 0.0 0.0 0.0 0.0 0.0 0.0 0.0 0.0 0.0 0.0 0.0 0.0 0.0 0.0 0.0 0.0 0.0 0.0 0.0 0.0 0.0 0.0 0.0 0.0 0.0 0.0 0.0 0.0 0.0 0.0 0.0 0.0 0.0 0.0 0.0 0.0 0.0 0.0 0.0 0.0 0.0 0.0 0.0 0.0 0.0 0.0 0.0 0.0 0.0 0.0 0.0 0.0 0.0 0.0 0.0 0.0 0.0 0.0 0.0 0.0 0.0 0.0 0.0 0.0 0.0 0.0 0.0 0.0 0.0 0.0 0.0 0.0 0.0 0.0 0.0 0.0 0.0 0.0 0.0 0.0 0.0 0.0 0.0 0.0 0.0 0.0 0.0 0.0 0.0 0.0 0.0 0.0 0.0 0.0 0.0 0.0 0.0 0.0 0.0 0.0 0.0 0.0 0.0 0.0 0.0 0.0 0.0 0.0 0.0 0.0 0.0 0.0 0.0 0.0 0.0 0.0 0.0 0.0 0.0 0.0 0.0 0.0 0.0 0.0 0.0 0.0 0.0 0.0 0.0 0.0 0.0 0.0 0.0 0.0 0.0 0.0 0.0 0.0 0.0 0.0 0.0 0.0 0.0 0.0 0.0 0.0 0.0 0.0 0.0 0.0 0.0 0.0 0.0 0.0 0.0 0.0 0.0 0.0 0.0 0.0 0.0 0.0 0.0 0.0 0.0 0.0 0.0 0.0 0.0 0.0 0.0 0.0 0.0 0.0 0.0 0.0 0.0 0.0 0.0 0.0 0.0 0.0 0.0 0.0 0.0 0.0 0.0 0.0 0.0 0.0 0.0 0.0 0.0 0.0 0.0 0.0 0.0 0.0 0.0 0.0 0.0 0.0 0.0 0.0 0.0 0.0 0.0 0.0 0.0 0.0 0.0 0.0 0.0 0.0 0.0 0.0 0.0 0.0 0.0 0.0 0.0 0.0 0.0 0.0 0.0 0.0 0.0 0.0 0.0 0.0 0.0 0.0 0.0 0.0 0.0 0.0 0.0 0.0 0.0 0.0 0.0 0.0 0.0 0.0 0.0 0.0 0.0 0.0 0.0 0.0 0.0 0.0 0.0 0.0 0.0 0.0 0.0 0.0 0.0 0.0 0.0 0.0 0.0 0.0 0.0 0.0 0.0 0.0 0.0 0.0 0.0 0.0 0.0 0.0 0.0 0.0 0.0 0.0 0.0 0.0 0.0 0.0 0.0 0.0 0.0 0.0 0.0 0.0 0.0 0.0 0.0 0.0 0.0 0.0 0.0 0.0 0.0 0.0 0.0 0.0 0.0 0.0 0.0 0.0 0.0 0.0 0.0 0.0 0.0 0.0 0.0 0.0 0.0 0.0 0.0 0.0 0.0 0.0 0.0 0.0 0.0 0.0 0.0 0.0 0.0 0.0 0.0 0.0 0.0 0.0 0.0 0.0 0.0 0.0 0.0 0.0 0.0 0.0 0.0 0.0 0.0 0.0 0.0 0.0 0.0 0.0 0.0 0.0 0.0 0.0 0.0 0.0 0.0 0.0 0.0 0.0 0.0 0.0 0.0 0.0 0.0 0.0 0.0 0.0 0.0 0.0 0.0 0.0 0.0 0.0 0.0 0.0 0.0 0.0 0.0 0.0 0.0 0.0 0.0 0.0 0.0 0.0 0.0 0.0 0.0 0.0 0.0 0.0 0.0 0.0 0.0 0.0 0.0 0.0 0.0 0.0 0.0 0.0 0.0 0.0 0.0 0.0 0.0 0.0 0.0 0.0 0.0 0.0 0.0 0.0 0.0 0.0 0.0 0.0 0.0 0.0 0.0
    </DataArray>
    <DataArray type="Float32" Name="Power density [Wm^-3]" NumberOfComponents="1" format="ascii">
6.378030694310834e+17 0.0 0.0 0.0 0.0 0.0 0.0 0.0 4.679539312122422e+17 0.0 0.0 0.0 0.0 0.0 0.0 0.0 4.4523718015559277e+17 0.0 0.0 0.0 0.0 0.0 0.0 0.0 4.112092372885467e+17 0.0 0.0 0.0 0.0 0.0 0.0 0.0 3.6786883390620486e+17 0.0 0.0 0.0 0.0 0.0 0.0 0.0 3.1794986902839475e+17 0.0 0.0 0.0 0.0 0.0 0.0 0.0 2.646337690907824e+17 0.0 0.0 0.0 0.0 0.0 0.0 0.0 2.1127524177124333e+17 0.0 0.0 0.0 0.0 0.0 0.0 0.0 1.610853625606282e+17 0.0 0.0 0.0 0.0 0.0 0.0 0.0 1.1629083669610336e+17 0.0 0.0 0.0 0.0 0.0 0.0 0.0 7.922754345572598e+16 0.0 0.0 0.0 0.0 0.0 0.0 0.0 5.272520528703198e+16 0.0 0.0 0.0 0.0 0.0 0.0 0.0 3.4441473946036024e+16 0.0 0.0 0.0 0.0 0.0 0.0 0.0 2.200342186617481e+16 0.0 0.0 0.0 0.0 0.0 0.0 0.0 1.4120865398707702e+16 0.0 0.0 0.0 0.0 0.0 0.0 0.0 9240424791469026.0 0.0 0.0 0.0 0.0 0.0 0.0 0.0 6232164494742607.0 0.0 0.0 0.0 0.0 0.0 0.0 0.0 4364400005869859.0 0.0 0.0 0.0 0.0 0.0 0.0 0.0 3187764008435370.5 0.0 0.0 0.0 0.0 0.0 0.0 0.0 2432205410527861.0 0.0 0.0 0.0 0.0 0.0 0.0 0.0 1936348875355160.2 0.0 0.0 0.0 0.0 0.0 0.0 0.0 1603316171721278.5 0.0 0.0 0.0 0.0 0.0 0.0 0.0 1374268254611799.5 0.0 0.0 0.0 0.0 0.0 0.0 0.0 1212919179779245.0 0.0 0.0 0.0 0.0 0.0 0.0 0.0 1096511667508148.5 0.0 0.0 0.0 0.0 0.0 0.0 0.0 919586679526822.4 0.0 0.0 0.0 0.0 0.0 0.0 0.0 988056108326026.8 0.0 0.0 0.0 0.0 0.0 0.0 0.0 928410159516779.9 0.0 0.0 0.0 0.0 0.0 0.0 0.0 882024199211165.0 0.0 0.0 0.0 0.0 0.0 0.0 0.0 845238695455926.9 0.0 0.0 0.0 0.0 0.0 0.0 0.0 815551074786659.0 0.0 0.0 0.0 0.0 0.0 0.0 0.0 791221894480281.8 0.0 0.0 0.0 0.0 0.0 0.0 0.0 771021574293171.4 0.0 0.0 0.0 0.0 0.0 0.0 0.0 754065633671714.0 0.0 0.0 0.0 0.0 0.0 0.0 0.0 739706356839738.5 0.0 0.0 0.0 0.0 0.0 0.0 0.0 727460823550098.2 0.0 0.0 0.0 0.0 0.0 0.0 0.0 716962600653710.6 0.0 0.0 0.0 0.0 0.0 0.0 0.0 707928964894695.0 0.0 0.0 0.0 0.0 0.0 0.0 0.0 700138409089916.5 0.0 0.0 0.0 0.0 0.0 0.0 0.0 693415017824880.6 0.0 0.0 0.0 0.0 0.0 0.0 0.0 687617475943068.9 0.0 0.0 0.0 0.0 0.0 0.0 0.0 682631234052596.4 0.0 0.0 0.0 0.0 0.0 0.0 0.0 678362850403492.6 0.0 0.0 0.0 0.0 0.0 0.0 0.0 674735852686350.5 0.0 0.0 0.0 0.0 0.0 0.0 0.0 671687676908505.8 0.0 0.0 0.0 0.0 0.0 0.0 0.0 669167382242810.2 0.0 0.0 0.0 0.0 0.0 0.0 0.0 667133935563806.8 0.0 0.0 0.0 0.0 0.0 0.0 0.0 665554923424192.5 0.0 0.0 0.0 0.0 0.0 0.0 0.0 664405593016178.6 0.0 0.0 0.0 0.0 0.0 0.0 0.0 663668154101835.4 0.0 0.0 0.0 0.0 0.0 0.0 0.0 884441727390108.6 0.0 0.0 0.0 0.0 0.0 0.0 0.0
    </DataArray>
    <DataArray type="Float32" Name="Temperature [K]" NumberOfComponents="1" format="ascii">
318.65170596092236 316.3092013188232 313.89317776801704 311.395474980443 308.79880455457595 306.07268974356685 303.16691461526085 300.0 318.5338338764984 316.2129096695988 313.8167382884749 311.3370187601197 308.7565385294444 306.0451190448892 303.1531111794228 300.0 318.18489410353834 315.92792145996333 313.59043854209284 311.1638655760275 308.63126468796156 305.9633533238481 303.1121564867566 300.0 317.6193610387433 315.46587897630036 313.2232143305299 310.88254542382697 308.42746918548755 305.8301771708332 303.0453912872423 300.0 316.8613738052288 314.84575883587763 312.72947518079076 310.5035394950314 308.1523411583919 305.6500523799833 302.95496477800793 300.0 315.94330128494346 314.09278238357064 312.12826499539966 310.0406621185774 307.8153498373675 305.4288593069123 302.8437122374241 300.0 314.90352208183725 313.23677914095964 311.44206853894246 309.5102174525631 307.4276816801048 305.1735571955207 302.7149953499601 300.0 313.7837526656944 312.3101907010053 310.69536660277265 308.9299931748093 307.00157750740584 304.89178780784334 302.5725168026345 300.0 312.6261650475734 311.3458985670988 309.91306589382884 308.3181733532765 306.549621574401 304.5914527639806 302.42012319791087 300.0 311.47038955219676 310.3750488395163 309.1189384860294 307.69226213883366 306.0840410387003 304.28029838439994 302.2616116120851 300.0 310.3508871166728 309.42514589206326 308.3342147242735 307.0681109331234 305.6160753338781 303.9655420324284 302.1005549406635 300.0 309.2974343986559 308.51868931959814 307.57641795883325 306.4591292636199 305.15547090168593 303.6535707912753 301.9401593426285 300.0 308.32528621551774 307.6703545322532 306.8583345085281 305.87575573819515 304.71015127050185 303.3497366641759 301.7831635348529 300.0 307.4401280487657 306.88807931080225 306.1881680381345 305.3253889129137 304.28610531913097 303.0582608479607 301.63178437196166 300.0 306.643086916867 306.1750555139786 305.57030576399416 304.81266357341394 303.8874660282394 302.78223910671977 301.487706561511 300.0 305.9306761496178 305.5307193216505 305.0060797884216 304.3398785483446 303.5167152422395 302.52372535047544 301.3521089691249 300.0 305.2967573718282 304.9519739331768 304.4945762970798 303.9074926328479 303.17495823558204 302.283866359667 301.2257172024726 300.0 304.73408711310316 304.4342774636874 304.0333872082327 303.5146167592444 302.8622207858084 302.06306192292 301.1088717041723 300.0 304.2352627171542 303.97243813364844 303.6192218409866 303.1594493353371 302.57773299389277 301.861129164727 301.0016017645799 300.0 303.79322377827464 303.5611290127458 303.2483576947377 302.8396290628941 302.3201777744251 301.67745596393394 300.90369799270456 300.0 303.4014816808544 303.19519163873497 302.91694838146947 302.55250201379266 302.08789435656723 301.51113456119174 300.81477821644705 300.0 303.054196847739 302.8697979114167 302.6212204274645 302.2953126196735 301.8790360902998 301.3610716167442 300.7343440346681 300.0 302.746176462274 302.58052323328525 302.3575902269558 302.0653331832356 301.69168707053285 301.22607464622996 300.66182703619234 300.0 302.47283411446017 302.3233669318077 302.12272663543155 301.8599467219845 301.52394437589817 301.10491697539436 300.5966249494518 300.0 302.23013386012366 302.0947429739294 301.9135780706431 301.67669596627763 301.3739731146625 300.9963844175391 300.53812873527045 300.0 302.0145304455709 301.8914551124235 301.7273773313129 301.51330870167124 301.24004085022466 300.89930715466636 300.48574199121066 300.0 301.8229115365932 301.7106649075418 301.56163305533266 301.3677071343763 301.12053693493243 300.81258011305556 300.43889411917536 300.0 301.65254459243977 301.54985752446055 301.41411368691126 301.2380068595678 301.01398115888423 300.7351747014985 300.39704862430597 300.0 301.50102933086964 301.4068080457952 301.2828277272288 301.122509377676 300.9190250930706 300.66614427898475 300.3597077431179 300.0 301.3662558620801 301.2795497396494 301.1660026380461 301.01969088457383 300.8344486417957 300.6046252273727 300.3264143970659 300.0 301.2463681517413 301.16634495530536 301.06206384045953 300.92818917788094 300.75915362908296 300.54983506809054 300.2967522678604 300.0 301.13973229874193 301.0656588737209 300.96961464728406 300.84678989425674 300.6921557120519 300.5010686969036 300.27034461079774 300.0 301.0449090664329 300.9761360908422 300.8874175798935 300.7744128545239 300.6325755154534 300.4576935181573 300.2468522696886 300.0 300.9606301235264 300.89657988009174 300.8143772755533 300.71009899218114 300.5796295887952 300.4191440326289 300.2259712329743 300.0 300.8857774974686 300.82593391838606 300.7495250402505 300.6529981368082 300.5326215765588 300.384916261065 300.207429973184 300.0 300.8193658003129 300.7632662384909 300.6920050120435 300.60235778810375 300.49093384272606 300.3545622580815 300.19098673736613 300.0 300.76052684517 300.70775517174354 300.6410618493598 300.5575129279975 300.45401968712093 300.3276848786637 300.17642690046586 300.0 300.70849632554314 300.65867705850053 300.5960298331925 300.51787686264885 300.4213962205372 300.3039328938072 300.1635604529362 300.0 300.6626022783548 300.6153955227927 300.5563232624013 300.48293305274353 300.39263791890653 300.2829965061625 300.1522196647958 300.0 300.62225509378925 300.57735212890486 300.52142802119505 300.4522278720564 300.367370846924 300.2646032856207 300.14225694804105 300.0 300.58693887148553 300.5440582588856 300.49089420339305 300.42536422569333 300.34526752350996 300.24851452454124 300.1335429255539 300.0 300.55620395371255 300.51508807024015 300.46432968668745 300.4019959572921 300.326042391574 300.23452199972076 300.1259647056369 300.0 300.5296604926426 300.49007241174644 300.44139456024936 300.38182297637445 300.30944785014066 300.22244512096523 300.11942435573275 300.0 300.5069729314098 300.4686935922942 300.4217963196498 300.3645870413939 300.2952708061337 300.212128442599 300.1138375657308 300.0 300.4878552979277 300.4506809128805 300.40528575361213 300.3500681397676 300.2833297047115 300.2034395132304 300.10913248979256 300.0 300.4720672270145 300.43580688553027 300.39165345724683 300.3380814126062 300.27347200010274 300.1962670397455 300.1052487553105 300.0 300.4594106407148 300.4238840751021 300.38072691598666 300.3284745785436 300.26557203281254 300.1905193432284 300.1021366280583 300.0 300.44972702923457 300.41476251088574 300.3723681133851 300.32112581774084 300.2595292834527 300.1861230868938 300.099756323536 300.0 300.4428952859721 300.4083276247782 300.36647162428284 300.3159420836674 300.25526697805196 300.18302225890403 300.098077455771 300.0 300.43883006003074 300.4044986818305 300.3629631626367 300.31285781656806 300.25273102436034 300.18117739593686 300.09707861628124 300.0 300.4374805986122 300.4032276772644 300.3617985606303 300.31183403860865 300.25188926330776 300.18056503647574 300.0967470774634 300.0
    </DataArray>
   </PointData>
  </Piece>
 </UnstructuredGrid>
</VTKFile>
