<?xml version="1.0"?>
<VTKFile type="UnstructuredGrid" version="0.1" byte_order="LittleEndian">
 <UnstructuredGrid>
  <Piece NumberOfPoints="408" NumberOfCells="700">
   <Points>
    <DataArray type="Float32" NumberOfComponents="3" format="ascii">
0.0 2e-08 0.0
0.0 2.09760307571216e-08 0.0
0.0 2.20740653588834e-08 0.0
0.0 2.3309354285865302e-08 0.0
0.0 2.46990543287201e-08 0.0
0.0 2.6262466876931702e-08 0.0
0.0 2.80213059936697e-08 0.0
0.0 3.0000000000000004e-08 0.0
1e-09 2e-08 0.0
1e-09 2.09760307571216e-08 0.0
1e-09 2.20740653588834e-08 0.0
1e-09 2.3309354285865302e-08 0.0
1e-09 2.46990543287201e-08 0.0
1e-09 2.6262466876931702e-08 0.0
1e-09 2.80213059936697e-08 0.0
1e-09 3.0000000000000004e-08 0.0
2e-09 2e-08 0.0
2e-09 2.09760307571216e-08 0.0
2e-09 2.20740653588834e-08 0.0
2e-09 2.3309354285865302e-08 0.0
2e-09 2.46990543287201e-08 0.0
2e-09 2.6262466876931702e-08 0.0
2e-09 2.80213059936697e-08 0.0
2e-09 3.0000000000000004e-08 0.0
3.0000000000000004e-09 2e-08 0.0
3.0000000000000004e-09 2.09760307571216e-08 0.0
3.0000000000000004e-09 2.20740653588834e-08 0.0
3.0000000000000004e-09 2.3309354285865302e-08 0.0
3.0000000000000004e-09 2.46990543287201e-08 0.0
3.0000000000000004e-09 2.6262466876931702e-08 0.0
3.0000000000000004e-09 2.80213059936697e-08 0.0
3.0000000000000004e-09 3.0000000000000004e-08 0.0
4e-09 2e-08 0.0
4e-09 2.09760307571216e-08 0.0
4e-09 2.20740653588834e-08 0.0
4e-09 2.3309354285865302e-08 0.0
4e-09 2.46990543287201e-08 0.0
4e-09 2.6262466876931702e-08 0.0
4e-09 2.80213059936697e-08 0.0
4e-09 3.0000000000000004e-08 0.0
5e-09 2e-08 0.0
5e-09 2.09760307571216e-08 0.0
5e-09 2.20740653588834e-08 0.0
5e-09 2.3309354285865302e-08 0.0
5e-09 2.46990543287201e-08 0.0
5e-09 2.6262466876931702e-08 0.0
5e-09 2.80213059936697e-08 0.0
5e-09 3.0000000000000004e-08 0.0
6.000000000000001e-09 2e-08 0.0
6.000000000000001e-09 2.09760307571216e-08 0.0
6.000000000000001e-09 2.20740653588834e-08 0.0
6.000000000000001e-09 2.3309354285865302e-08 0.0
6.000000000000001e-09 2.46990543287201e-08 0.0
6.000000000000001e-09 2.6262466876931702e-08 0.0
6.000000000000001e-09 2.80213059936697e-08 0.0
6.000000000000001e-09 3.0000000000000004e-08 0.0
7.000000000000001e-09 2e-08 0.0
7.000000000000001e-09 2.09760307571216e-08 0.0
7.000000000000001e-09 2.20740653588834e-08 0.0
7.000000000000001e-09 2.3309354285865302e-08 0.0
7.000000000000001e-09 2.46990543287201e-08 0.0
7.000000000000001e-09 2.6262466876931702e-08 0.0
7.000000000000001e-09 2.80213059936697e-08 0.0
7.000000000000001e-09 3.0000000000000004e-08 0.0
8e-09 2e-08 0.0
8e-09 2.09760307571216e-08 0.0
8e-09 2.20740653588834e-08 0.0
8e-09 2.3309354285865302e-08 0.0
8e-09 2.46990543287201e-08 0.0
8e-09 2.6262466876931702e-08 0.0
8e-09 2.80213059936697e-08 0.0
8e-09 3.0000000000000004e-08 0.0
9.000000000000001e-09 2e-08 0.0
9.000000000000001e-09 2.09760307571216e-08 0.0
9.000000000000001e-09 2.20740653588834e-08 0.0
9.000000000000001e-09 2.3309354285865302e-08 0.0
9.000000000000001e-09 2.46990543287201e-08 0.0
9.000000000000001e-09 2.6262466876931702e-08 0.0
9.000000000000001e-09 2.80213059936697e-08 0.0
9.000000000000001e-09 3.0000000000000004e-08 0.0
1e-08 2e-08 0.0
1e-08 2.09760307571216e-08 0.0
1e-08 2.20740653588834e-08 0.0
1e-08 2.3309354285865302e-08 0.0
1e-08 2.46990543287201e-08 0.0
1e-08 2.6262466876931702e-08 0.0
1e-08 2.80213059936697e-08 0.0
1e-08 3.0000000000000004e-08 0.0
1.1000000000000001e-08 2e-08 0.0
1.1000000000000001e-08 2.09760307571216e-08 0.0
1.1000000000000001e-08 2.20740653588834e-08 0.0
1.1000000000000001e-08 2.3309354285865302e-08 0.0
1.1000000000000001e-08 2.46990543287201e-08 0.0
1.1000000000000001e-08 2.6262466876931702e-08 0.0
1.1000000000000001e-08 2.80213059936697e-08 0.0
1.1000000000000001e-08 3.0000000000000004e-08 0.0
1.2000000000000002e-08 2e-08 0.0
1.2000000000000002e-08 2.09760307571216e-08 0.0
1.2000000000000002e-08 2.20740653588834e-08 0.0
1.2000000000000002e-08 2.3309354285865302e-08 0.0
1.2000000000000002e-08 2.46990543287201e-08 0.0
1.2000000000000002e-08 2.6262466876931702e-08 0.0
1.2000000000000002e-08 2.80213059936697e-08 0.0
1.2000000000000002e-08 3.0000000000000004e-08 0.0
1.3e-08 2e-08 0.0
1.3e-08 2.09760307571216e-08 0.0
1.3e-08 2.20740653588834e-08 0.0
1.3e-08 2.3309354285865302e-08 0.0
1.3e-08 2.46990543287201e-08 0.0
1.3e-08 2.6262466876931702e-08 0.0
1.3e-08 2.80213059936697e-08 0.0
1.3e-08 3.0000000000000004e-08 0.0
1.4000000000000001e-08 2e-08 0.0
1.4000000000000001e-08 2.09760307571216e-08 0.0
1.4000000000000001e-08 2.20740653588834e-08 0.0
1.4000000000000001e-08 2.3309354285865302e-08 0.0
1.4000000000000001e-08 2.46990543287201e-08 0.0
1.4000000000000001e-08 2.6262466876931702e-08 0.0
1.4000000000000001e-08 2.80213059936697e-08 0.0
1.4000000000000001e-08 3.0000000000000004e-08 0.0
1.5000000000000002e-08 2e-08 0.0
1.5000000000000002e-08 2.09760307571216e-08 0.0
1.5000000000000002e-08 2.20740653588834e-08 0.0
1.5000000000000002e-08 2.3309354285865302e-08 0.0
1.5000000000000002e-08 2.46990543287201e-08 0.0
1.5000000000000002e-08 2.6262466876931702e-08 0.0
1.5000000000000002e-08 2.80213059936697e-08 0.0
1.5000000000000002e-08 3.0000000000000004e-08 0.0
1.6e-08 2e-08 0.0
1.6e-08 2.09760307571216e-08 0.0
1.6e-08 2.20740653588834e-08 0.0
1.6e-08 2.3309354285865302e-08 0.0
1.6e-08 2.46990543287201e-08 0.0
1.6e-08 2.6262466876931702e-08 0.0
1.6e-08 2.80213059936697e-08 0.0
1.6e-08 3.0000000000000004e-08 0.0
1.7e-08 2e-08 0.0
1.7e-08 2.09760307571216e-08 0.0
1.7e-08 2.20740653588834e-08 0.0
1.7e-08 2.3309354285865302e-08 0.0
1.7e-08 2.46990543287201e-08 0.0
1.7e-08 2.6262466876931702e-08 0.0
1.7e-08 2.80213059936697e-08 0.0
1.7e-08 3.0000000000000004e-08 0.0
1.8000000000000002e-08 2e-08 0.0
1.8000000000000002e-08 2.09760307571216e-08 0.0
1.8000000000000002e-08 2.20740653588834e-08 0.0
1.8000000000000002e-08 2.3309354285865302e-08 0.0
1.8000000000000002e-08 2.46990543287201e-08 0.0
1.8000000000000002e-08 2.6262466876931702e-08 0.0
1.8000000000000002e-08 2.80213059936697e-08 0.0
1.8000000000000002e-08 3.0000000000000004e-08 0.0
1.9e-08 2e-08 0.0
1.9e-08 2.09760307571216e-08 0.0
1.9e-08 2.20740653588834e-08 0.0
1.9e-08 2.3309354285865302e-08 0.0
1.9e-08 2.46990543287201e-08 0.0
1.9e-08 2.6262466876931702e-08 0.0
1.9e-08 2.80213059936697e-08 0.0
1.9e-08 3.0000000000000004e-08 0.0
2e-08 2e-08 0.0
2e-08 2.09760307571216e-08 0.0
2e-08 2.20740653588834e-08 0.0
2e-08 2.3309354285865302e-08 0.0
2e-08 2.46990543287201e-08 0.0
2e-08 2.6262466876931702e-08 0.0
2e-08 2.80213059936697e-08 0.0
2e-08 3.0000000000000004e-08 0.0
2.1000000000000003e-08 2e-08 0.0
2.1000000000000003e-08 2.09760307571216e-08 0.0
2.1000000000000003e-08 2.20740653588834e-08 0.0
2.1000000000000003e-08 2.3309354285865302e-08 0.0
2.1000000000000003e-08 2.46990543287201e-08 0.0
2.1000000000000003e-08 2.6262466876931702e-08 0.0
2.1000000000000003e-08 2.80213059936697e-08 0.0
2.1000000000000003e-08 3.0000000000000004e-08 0.0
2.2000000000000002e-08 2e-08 0.0
2.2000000000000002e-08 2.09760307571216e-08 0.0
2.2000000000000002e-08 2.20740653588834e-08 0.0
2.2000000000000002e-08 2.3309354285865302e-08 0.0
2.2000000000000002e-08 2.46990543287201e-08 0.0
2.2000000000000002e-08 2.6262466876931702e-08 0.0
2.2000000000000002e-08 2.80213059936697e-08 0.0
2.2000000000000002e-08 3.0000000000000004e-08 0.0
2.3e-08 2e-08 0.0
2.3e-08 2.09760307571216e-08 0.0
2.3e-08 2.20740653588834e-08 0.0
2.3e-08 2.3309354285865302e-08 0.0
2.3e-08 2.46990543287201e-08 0.0
2.3e-08 2.6262466876931702e-08 0.0
2.3e-08 2.80213059936697e-08 0.0
2.3e-08 3.0000000000000004e-08 0.0
2.4000000000000003e-08 2e-08 0.0
2.4000000000000003e-08 2.09760307571216e-08 0.0
2.4000000000000003e-08 2.20740653588834e-08 0.0
2.4000000000000003e-08 2.3309354285865302e-08 0.0
2.4000000000000003e-08 2.46990543287201e-08 0.0
2.4000000000000003e-08 2.6262466876931702e-08 0.0
2.4000000000000003e-08 2.80213059936697e-08 0.0
2.4000000000000003e-08 3.0000000000000004e-08 0.0
2.5000000000000002e-08 2e-08 0.0
2.5000000000000002e-08 2.09760307571216e-08 0.0
2.5000000000000002e-08 2.20740653588834e-08 0.0
2.5000000000000002e-08 2.3309354285865302e-08 0.0
2.5000000000000002e-08 2.46990543287201e-08 0.0
2.5000000000000002e-08 2.6262466876931702e-08 0.0
2.5000000000000002e-08 2.80213059936697e-08 0.0
2.5000000000000002e-08 3.0000000000000004e-08 0.0
2.6e-08 2e-08 0.0
2.6e-08 2.09760307571216e-08 0.0
2.6e-08 2.20740653588834e-08 0.0
2.6e-08 2.3309354285865302e-08 0.0
2.6e-08 2.46990543287201e-08 0.0
2.6e-08 2.6262466876931702e-08 0.0
2.6e-08 2.80213059936697e-08 0.0
2.6e-08 3.0000000000000004e-08 0.0
2.7e-08 2e-08 0.0
2.7e-08 2.09760307571216e-08 0.0
2.7e-08 2.20740653588834e-08 0.0
2.7e-08 2.3309354285865302e-08 0.0
2.7e-08 2.46990543287201e-08 0.0
2.7e-08 2.6262466876931702e-08 0.0
2.7e-08 2.80213059936697e-08 0.0
2.7e-08 3.0000000000000004e-08 0.0
2.8000000000000003e-08 2e-08 0.0
2.8000000000000003e-08 2.09760307571216e-08 0.0
2.8000000000000003e-08 2.20740653588834e-08 0.0
2.8000000000000003e-08 2.3309354285865302e-08 0.0
2.8000000000000003e-08 2.46990543287201e-08 0.0
2.8000000000000003e-08 2.6262466876931702e-08 0.0
2.8000000000000003e-08 2.80213059936697e-08 0.0
2.8000000000000003e-08 3.0000000000000004e-08 0.0
2.9e-08 2e-08 0.0
2.9e-08 2.09760307571216e-08 0.0
2.9e-08 2.20740653588834e-08 0.0
2.9e-08 2.3309354285865302e-08 0.0
2.9e-08 2.46990543287201e-08 0.0
2.9e-08 2.6262466876931702e-08 0.0
2.9e-08 2.80213059936697e-08 0.0
2.9e-08 3.0000000000000004e-08 0.0
3.0000000000000004e-08 2e-08 0.0
3.0000000000000004e-08 2.09760307571216e-08 0.0
3.0000000000000004e-08 2.20740653588834e-08 0.0
3.0000000000000004e-08 2.3309354285865302e-08 0.0
3.0000000000000004e-08 2.46990543287201e-08 0.0
3.0000000000000004e-08 2.6262466876931702e-08 0.0
3.0000000000000004e-08 2.80213059936697e-08 0.0
3.0000000000000004e-08 3.0000000000000004e-08 0.0
3.1e-08 2e-08 0.0
3.1e-08 2.09760307571216e-08 0.0
3.1e-08 2.20740653588834e-08 0.0
3.1e-08 2.3309354285865302e-08 0.0
3.1e-08 2.46990543287201e-08 0.0
3.1e-08 2.6262466876931702e-08 0.0
3.1e-08 2.80213059936697e-08 0.0
3.1e-08 3.0000000000000004e-08 0.0
3.2e-08 2e-08 0.0
3.2e-08 2.09760307571216e-08 0.0
3.2e-08 2.20740653588834e-08 0.0
3.2e-08 2.3309354285865302e-08 0.0
3.2e-08 2.46990543287201e-08 0.0
3.2e-08 2.6262466876931702e-08 0.0
3.2e-08 2.80213059936697e-08 0.0
3.2e-08 3.0000000000000004e-08 0.0
3.3000000000000004e-08 2e-08 0.0
3.3000000000000004e-08 2.09760307571216e-08 0.0
3.3000000000000004e-08 2.20740653588834e-08 0.0
3.3000000000000004e-08 2.3309354285865302e-08 0.0
3.3000000000000004e-08 2.46990543287201e-08 0.0
3.3000000000000004e-08 2.6262466876931702e-08 0.0
3.3000000000000004e-08 2.80213059936697e-08 0.0
3.3000000000000004e-08 3.0000000000000004e-08 0.0
3.4e-08 2e-08 0.0
3.4e-08 2.09760307571216e-08 0.0
3.4e-08 2.20740653588834e-08 0.0
3.4e-08 2.3309354285865302e-08 0.0
3.4e-08 2.46990543287201e-08 0.0
3.4e-08 2.6262466876931702e-08 0.0
3.4e-08 2.80213059936697e-08 0.0
3.4e-08 3.0000000000000004e-08 0.0
3.5e-08 2e-08 0.0
3.5e-08 2.09760307571216e-08 0.0
3.5e-08 2.20740653588834e-08 0.0
3.5e-08 2.3309354285865302e-08 0.0
3.5e-08 2.46990543287201e-08 0.0
3.5e-08 2.6262466876931702e-08 0.0
3.5e-08 2.80213059936697e-08 0.0
3.5e-08 3.0000000000000004e-08 0.0
3.6000000000000005e-08 2e-08 0.0
3.6000000000000005e-08 2.09760307571216e-08 0.0
3.6000000000000005e-08 2.20740653588834e-08 0.0
3.6000000000000005e-08 2.3309354285865302e-08 0.0
3.6000000000000005e-08 2.46990543287201e-08 0.0
3.6000000000000005e-08 2.6262466876931702e-08 0.0
3.6000000000000005e-08 2.80213059936697e-08 0.0
3.6000000000000005e-08 3.0000000000000004e-08 0.0
3.7e-08 2e-08 0.0
3.7e-08 2.09760307571216e-08 0.0
3.7e-08 2.20740653588834e-08 0.0
3.7e-08 2.3309354285865302e-08 0.0
3.7e-08 2.46990543287201e-08 0.0
3.7e-08 2.6262466876931702e-08 0.0
3.7e-08 2.80213059936697e-08 0.0
3.7e-08 3.0000000000000004e-08 0.0
3.8e-08 2e-08 0.0
3.8e-08 2.09760307571216e-08 0.0
3.8e-08 2.20740653588834e-08 0.0
3.8e-08 2.3309354285865302e-08 0.0
3.8e-08 2.46990543287201e-08 0.0
3.8e-08 2.6262466876931702e-08 0.0
3.8e-08 2.80213059936697e-08 0.0
3.8e-08 3.0000000000000004e-08 0.0
3.9000000000000005e-08 2e-08 0.0
3.9000000000000005e-08 2.09760307571216e-08 0.0
3.9000000000000005e-08 2.20740653588834e-08 0.0
3.9000000000000005e-08 2.3309354285865302e-08 0.0
3.9000000000000005e-08 2.46990543287201e-08 0.0
3.9000000000000005e-08 2.6262466876931702e-08 0.0
3.9000000000000005e-08 2.80213059936697e-08 0.0
3.9000000000000005e-08 3.0000000000000004e-08 0.0
4e-08 2e-08 0.0
4e-08 2.09760307571216e-08 0.0
4e-08 2.20740653588834e-08 0.0
4e-08 2.3309354285865302e-08 0.0
4e-08 2.46990543287201e-08 0.0
4e-08 2.6262466876931702e-08 0.0
4e-08 2.80213059936697e-08 0.0
4e-08 3.0000000000000004e-08 0.0
4.1e-08 2e-08 0.0
4.1e-08 2.09760307571216e-08 0.0
4.1e-08 2.20740653588834e-08 0.0
4.1e-08 2.3309354285865302e-08 0.0
4.1e-08 2.46990543287201e-08 0.0
4.1e-08 2.6262466876931702e-08 0.0
4.1e-08 2.80213059936697e-08 0.0
4.1e-08 3.0000000000000004e-08 0.0
4.2000000000000006e-08 2e-08 0.0
4.2000000000000006e-08 2.09760307571216e-08 0.0
4.2000000000000006e-08 2.20740653588834e-08 0.0
4.2000000000000006e-08 2.3309354285865302e-08 0.0
4.2000000000000006e-08 2.46990543287201e-08 0.0
4.2000000000000006e-08 2.6262466876931702e-08 0.0
4.2000000000000006e-08 2.80213059936697e-08 0.0
4.2000000000000006e-08 3.0000000000000004e-08 0.0
4.3e-08 2e-08 0.0
4.3e-08 2.09760307571216e-08 0.0
4.3e-08 2.20740653588834e-08 0.0
4.3e-08 2.3309354285865302e-08 0.0
4.3e-08 2.46990543287201e-08 0.0
4.3e-08 2.6262466876931702e-08 0.0
4.3e-08 2.80213059936697e-08 0.0
4.3e-08 3.0000000000000004e-08 0.0
4.4000000000000004e-08 2e-08 0.0
4.4000000000000004e-08 2.09760307571216e-08 0.0
4.4000000000000004e-08 2.20740653588834e-08 0.0
4.4000000000000004e-08 2.3309354285865302e-08 0.0
4.4000000000000004e-08 2.46990543287201e-08 0.0
4.4000000000000004e-08 2.6262466876931702e-08 0.0
4.4000000000000004e-08 2.80213059936697e-08 0.0
4.4000000000000004e-08 3.0000000000000004e-08 0.0
4.5000000000000006e-08 2e-08 0.0
4.5000000000000006e-08 2.09760307571216e-08 0.0
4.5000000000000006e-08 2.20740653588834e-08 0.0
4.5000000000000006e-08 2.3309354285865302e-08 0.0
4.5000000000000006e-08 2.46990543287201e-08 0.0
4.5000000000000006e-08 2.6262466876931702e-08 0.0
4.5000000000000006e-08 2.80213059936697e-08 0.0
4.5000000000000006e-08 3.0000000000000004e-08 0.0
4.6e-08 2e-08 0.0
4.6e-08 2.09760307571216e-08 0.0
4.6e-08 2.20740653588834e-08 0.0
4.6e-08 2.3309354285865302e-08 0.0
4.6e-08 2.46990543287201e-08 0.0
4.6e-08 2.6262466876931702e-08 0.0
4.6e-08 2.80213059936697e-08 0.0
4.6e-08 3.0000000000000004e-08 0.0
4.7000000000000004e-08 2e-08 0.0
4.7000000000000004e-08 2.09760307571216e-08 0.0
4.7000000000000004e-08 2.20740653588834e-08 0.0
4.7000000000000004e-08 2.3309354285865302e-08 0.0
4.7000000000000004e-08 2.46990543287201e-08 0.0
4.7000000000000004e-08 2.6262466876931702e-08 0.0
4.7000000000000004e-08 2.80213059936697e-08 0.0
4.7000000000000004e-08 3.0000000000000004e-08 0.0
4.8000000000000006e-08 2e-08 0.0
4.8000000000000006e-08 2.09760307571216e-08 0.0
4.8000000000000006e-08 2.20740653588834e-08 0.0
4.8000000000000006e-08 2.3309354285865302e-08 0.0
4.8000000000000006e-08 2.46990543287201e-08 0.0
4.8000000000000006e-08 2.6262466876931702e-08 0.0
4.8000000000000006e-08 2.80213059936697e-08 0.0
4.8000000000000006e-08 3.0000000000000004e-08 0.0
4.9e-08 2e-08 0.0
4.9e-08 2.09760307571216e-08 0.0
4.9e-08 2.20740653588834e-08 0.0
4.9e-08 2.3309354285865302e-08 0.0
4.9e-08 2.46990543287201e-08 0.0
4.9e-08 2.6262466876931702e-08 0.0
4.9e-08 2.80213059936697e-08 0.0
4.9e-08 3.0000000000000004e-08 0.0
5.0000000000000004e-08 2e-08 0.0
5.0000000000000004e-08 2.09760307571216e-08 0.0
5.0000000000000004e-08 2.20740653588834e-08 0.0
5.0000000000000004e-08 2.3309354285865302e-08 0.0
5.0000000000000004e-08 2.46990543287201e-08 0.0
5.0000000000000004e-08 2.6262466876931702e-08 0.0
5.0000000000000004e-08 2.80213059936697e-08 0.0
5.0000000000000004e-08 3.0000000000000004e-08 0.0
    </DataArray>
   </Points>
   <Cells>
    <DataArray type="Int32" Name="connectivity" format="ascii">
0 8 1
8 9 1
1 9 2
9 10 2
2 10 3
10 11 3
3 11 4
11 12 4
4 12 5
12 13 5
5 13 6
13 14 6
6 14 7
14 15 7
8 16 9
16 17 9
9 17 10
17 18 10
10 18 11
18 19 11
11 19 12
19 20 12
12 20 13
20 21 13
13 21 14
21 22 14
14 22 15
22 23 15
16 24 17
24 25 17
17 25 18
25 26 18
18 26 19
26 27 19
19 27 20
27 28 20
20 28 21
28 29 21
21 29 22
29 30 22
22 30 23
30 31 23
24 32 25
32 33 25
25 33 26
33 34 26
26 34 27
34 35 27
27 35 28
35 36 28
28 36 29
36 37 29
29 37 30
37 38 30
30 38 31
38 39 31
32 40 33
40 41 33
33 41 34
41 42 34
34 42 35
42 43 35
35 43 36
43 44 36
36 44 37
44 45 37
37 45 38
45 46 38
38 46 39
46 47 39
40 48 41
48 49 41
41 49 42
49 50 42
42 50 43
50 51 43
43 51 44
51 52 44
44 52 45
52 53 45
45 53 46
53 54 46
46 54 47
54 55 47
48 56 49
56 57 49
49 57 50
57 58 50
50 58 51
58 59 51
51 59 52
59 60 52
52 60 53
60 61 53
53 61 54
61 62 54
54 62 55
62 63 55
56 64 57
64 65 57
57 65 58
65 66 58
58 66 59
66 67 59
59 67 60
67 68 60
60 68 61
68 69 61
61 69 62
69 70 62
62 70 63
70 71 63
64 72 65
72 73 65
65 73 66
73 74 66
66 74 67
74 75 67
67 75 68
75 76 68
68 76 69
76 77 69
69 77 70
77 78 70
70 78 71
78 79 71
72 80 73
80 81 73
73 81 74
81 82 74
74 82 75
82 83 75
75 83 76
83 84 76
76 84 77
84 85 77
77 85 78
85 86 78
78 86 79
86 87 79
80 88 81
88 89 81
81 89 82
89 90 82
82 90 83
90 91 83
83 91 84
91 92 84
84 92 85
92 93 85
85 93 86
93 94 86
86 94 87
94 95 87
88 96 89
96 97 89
89 97 90
97 98 90
90 98 91
98 99 91
91 99 92
99 100 92
92 100 93
100 101 93
93 101 94
101 102 94
94 102 95
102 103 95
96 104 97
104 105 97
97 105 98
105 106 98
98 106 99
106 107 99
99 107 100
107 108 100
100 108 101
108 109 101
101 109 102
109 110 102
102 110 103
110 111 103
104 112 105
112 113 105
105 113 106
113 114 106
106 114 107
114 115 107
107 115 108
115 116 108
108 116 109
116 117 109
109 117 110
117 118 110
110 118 111
118 119 111
112 120 113
120 121 113
113 121 114
121 122 114
114 122 115
122 123 115
115 123 116
123 124 116
116 124 117
124 125 117
117 125 118
125 126 118
118 126 119
126 127 119
120 128 121
128 129 121
121 129 122
129 130 122
122 130 123
130 131 123
123 131 124
131 132 124
124 132 125
132 133 125
125 133 126
133 134 126
126 134 127
134 135 127
128 136 129
136 137 129
129 137 130
137 138 130
130 138 131
138 139 131
131 139 132
139 140 132
132 140 133
140 141 133
133 141 134
141 142 134
134 142 135
142 143 135
136 144 137
144 145 137
137 145 138
145 146 138
138 146 139
146 147 139
139 147 140
147 148 140
140 148 141
148 149 141
141 149 142
149 150 142
142 150 143
150 151 143
144 152 145
152 153 145
145 153 146
153 154 146
146 154 147
154 155 147
147 155 148
155 156 148
148 156 149
156 157 149
149 157 150
157 158 150
150 158 151
158 159 151
152 160 153
160 161 153
153 161 154
161 162 154
154 162 155
162 163 155
155 163 156
163 164 156
156 164 157
164 165 157
157 165 158
165 166 158
158 166 159
166 167 159
160 168 161
168 169 161
161 169 162
169 170 162
162 170 163
170 171 163
163 171 164
171 172 164
164 172 165
172 173 165
165 173 166
173 174 166
166 174 167
174 175 167
168 176 169
176 177 169
169 177 170
177 178 170
170 178 171
178 179 171
171 179 172
179 180 172
172 180 173
180 181 173
173 181 174
181 182 174
174 182 175
182 183 175
176 184 177
184 185 177
177 185 178
185 186 178
178 186 179
186 187 179
179 187 180
187 188 180
180 188 181
188 189 181
181 189 182
189 190 182
182 190 183
190 191 183
184 192 185
192 193 185
185 193 186
193 194 186
186 194 187
194 195 187
187 195 188
195 196 188
188 196 189
196 197 189
189 197 190
197 198 190
190 198 191
198 199 191
192 200 193
200 201 193
193 201 194
201 202 194
194 202 195
202 203 195
195 203 196
203 204 196
196 204 197
204 205 197
197 205 198
205 206 198
198 206 199
206 207 199
200 208 209
200 209 201
201 209 210
201 210 202
202 210 211
202 211 203
203 211 212
203 212 204
204 212 213
204 213 205
205 213 214
205 214 206
206 214 215
206 215 207
208 216 217
208 217 209
209 217 218
209 218 210
210 218 219
210 219 211
211 219 220
211 220 212
212 220 221
212 221 213
213 221 222
213 222 214
214 222 223
214 223 215
216 224 225
216 225 217
217 225 226
217 226 218
218 226 227
218 227 219
219 227 228
219 228 220
220 228 229
220 229 221
221 229 230
221 230 222
222 230 231
222 231 223
224 232 233
224 233 225
225 233 234
225 234 226
226 234 235
226 235 227
227 235 236
227 236 228
228 236 237
228 237 229
229 237 238
229 238 230
230 238 239
230 239 231
232 240 241
232 241 233
233 241 242
233 242 234
234 242 243
234 243 235
235 243 244
235 244 236
236 244 245
236 245 237
237 245 246
237 246 238
238 246 247
238 247 239
240 248 249
240 249 241
241 249 250
241 250 242
242 250 251
242 251 243
243 251 252
243 252 244
244 252 253
244 253 245
245 253 254
245 254 246
246 254 255
246 255 247
248 256 257
248 257 249
249 257 258
249 258 250
250 258 259
250 259 251
251 259 260
251 260 252
252 260 261
252 261 253
253 261 262
253 262 254
254 262 263
254 263 255
256 264 265
256 265 257
257 265 266
257 266 258
258 266 267
258 267 259
259 267 268
259 268 260
260 268 269
260 269 261
261 269 270
261 270 262
262 270 271
262 271 263
264 272 273
264 273 265
265 273 274
265 274 266
266 274 275
266 275 267
267 275 276
267 276 268
268 276 277
268 277 269
269 277 278
269 278 270
270 278 279
270 279 271
272 280 281
272 281 273
273 281 282
273 282 274
274 282 283
274 283 275
275 283 284
275 284 276
276 284 285
276 285 277
277 285 286
277 286 278
278 286 287
278 287 279
280 288 289
280 289 281
281 289 290
281 290 282
282 290 291
282 291 283
283 291 292
283 292 284
284 292 293
284 293 285
285 293 294
285 294 286
286 294 295
286 295 287
288 296 297
288 297 289
289 297 298
289 298 290
290 298 299
290 299 291
291 299 300
291 300 292
292 300 301
292 301 293
293 301 302
293 302 294
294 302 303
294 303 295
296 304 305
296 305 297
297 305 306
297 306 298
298 306 307
298 307 299
299 307 308
299 308 300
300 308 309
300 309 301
301 309 310
301 310 302
302 310 311
302 311 303
304 312 313
304 313 305
305 313 314
305 314 306
306 314 315
306 315 307
307 315 316
307 316 308
308 316 317
308 317 309
309 317 318
309 318 310
310 318 319
310 319 311
312 320 321
312 321 313
313 321 322
313 322 314
314 322 323
314 323 315
315 323 324
315 324 316
316 324 325
316 325 317
317 325 326
317 326 318
318 326 327
318 327 319
320 328 329
320 329 321
321 329 330
321 330 322
322 330 331
322 331 323
323 331 332
323 332 324
324 332 333
324 333 325
325 333 334
325 334 326
326 334 335
326 335 327
328 336 337
328 337 329
329 337 338
329 338 330
330 338 339
330 339 331
331 339 340
331 340 332
332 340 341
332 341 333
333 341 342
333 342 334
334 342 343
334 343 335
336 344 345
336 345 337
337 345 346
337 346 338
338 346 347
338 347 339
339 347 348
339 348 340
340 348 349
340 349 341
341 349 350
341 350 342
342 350 351
342 351 343
344 352 353
344 353 345
345 353 354
345 354 346
346 354 355
346 355 347
347 355 356
347 356 348
348 356 357
348 357 349
349 357 358
349 358 350
350 358 359
350 359 351
352 360 361
352 361 353
353 361 362
353 362 354
354 362 363
354 363 355
355 363 364
355 364 356
356 364 365
356 365 357
357 365 366
357 366 358
358 366 367
358 367 359
360 368 369
360 369 361
361 369 370
361 370 362
362 370 371
362 371 363
363 371 372
363 372 364
364 372 373
364 373 365
365 373 374
365 374 366
366 374 375
366 375 367
368 376 377
368 377 369
369 377 378
369 378 370
370 378 379
370 379 371
371 379 380
371 380 372
372 380 381
372 381 373
373 381 382
373 382 374
374 382 383
374 383 375
376 384 385
376 385 377
377 385 386
377 386 378
378 386 387
378 387 379
379 387 388
379 388 380
380 388 389
380 389 381
381 389 390
381 390 382
382 390 391
382 391 383
384 392 393
384 393 385
385 393 394
385 394 386
386 394 395
386 395 387
387 395 396
387 396 388
388 396 397
388 397 389
389 397 398
389 398 390
390 398 399
390 399 391
392 400 401
392 401 393
393 401 402
393 402 394
394 402 403
394 403 395
395 403 404
395 404 396
396 404 405
396 405 397
397 405 406
397 406 398
398 406 407
398 407 399
    </DataArray>
    <DataArray type="Int32" Name="offsets" format="ascii">
3 6 9 12 15 18 21 24 27 30 33 36 39 42 45 48 51 54 57 60 63 66 69 72 75 78 81 84 87 90 93 96 99 102 105 108 111 114 117 120 123 126 129 132 135 138 141 144 147 150 153 156 159 162 165 168 171 174 177 180 183 186 189 192 195 198 201 204 207 210 213 216 219 222 225 228 231 234 237 240 243 246 249 252 255 258 261 264 267 270 273 276 279 282 285 288 291 294 297 300 303 306 309 312 315 318 321 324 327 330 333 336 339 342 345 348 351 354 357 360 363 366 369 372 375 378 381 384 387 390 393 396 399 402 405 408 411 414 417 420 423 426 429 432 435 438 441 444 447 450 453 456 459 462 465 468 471 474 477 480 483 486 489 492 495 498 501 504 507 510 513 516 519 522 525 528 531 534 537 540 543 546 549 552 555 558 561 564 567 570 573 576 579 582 585 588 591 594 597 600 603 606 609 612 615 618 621 624 627 630 633 636 639 642 645 648 651 654 657 660 663 666 669 672 675 678 681 684 687 690 693 696 699 702 705 708 711 714 717 720 723 726 729 732 735 738 741 744 747 750 753 756 759 762 765 768 771 774 777 780 783 786 789 792 795 798 801 804 807 810 813 816 819 822 825 828 831 834 837 840 843 846 849 852 855 858 861 864 867 870 873 876 879 882 885 888 891 894 897 900 903 906 909 912 915 918 921 924 927 930 933 936 939 942 945 948 951 954 957 960 963 966 969 972 975 978 981 984 987 990 993 996 999 1002 1005 1008 1011 1014 1017 1020 1023 1026 1029 1032 1035 1038 1041 1044 1047 1050 1053 1056 1059 1062 1065 1068 1071 1074 1077 1080 1083 1086 1089 1092 1095 1098 1101 1104 1107 1110 1113 1116 1119 1122 1125 1128 1131 1134 1137 1140 1143 1146 1149 1152 1155 1158 1161 1164 1167 1170 1173 1176 1179 1182 1185 1188 1191 1194 1197 1200 1203 1206 1209 1212 1215 1218 1221 1224 1227 1230 1233 1236 1239 1242 1245 1248 1251 1254 1257 1260 1263 1266 1269 1272 1275 1278 1281 1284 1287 1290 1293 1296 1299 1302 1305 1308 1311 1314 1317 1320 1323 1326 1329 1332 1335 1338 1341 1344 1347 1350 1353 1356 1359 1362 1365 1368 1371 1374 1377 1380 1383 1386 1389 1392 1395 1398 1401 1404 1407 1410 1413 1416 1419 1422 1425 1428 1431 1434 1437 1440 1443 1446 1449 1452 1455 1458 1461 1464 1467 1470 1473 1476 1479 1482 1485 1488 1491 1494 1497 1500 1503 1506 1509 1512 1515 1518 1521 1524 1527 1530 1533 1536 1539 1542 1545 1548 1551 1554 1557 1560 1563 1566 1569 1572 1575 1578 1581 1584 1587 1590 1593 1596 1599 1602 1605 1608 1611 1614 1617 1620 1623 1626 1629 1632 1635 1638 1641 1644 1647 1650 1653 1656 1659 1662 1665 1668 1671 1674 1677 1680 1683 1686 1689 1692 1695 1698 1701 1704 1707 1710 1713 1716 1719 1722 1725 1728 1731 1734 1737 1740 1743 1746 1749 1752 1755 1758 1761 1764 1767 1770 1773 1776 1779 1782 1785 1788 1791 1794 1797 1800 1803 1806 1809 1812 1815 1818 1821 1824 1827 1830 1833 1836 1839 1842 1845 1848 1851 1854 1857 1860 1863 1866 1869 1872 1875 1878 1881 1884 1887 1890 1893 1896 1899 1902 1905 1908 1911 1914 1917 1920 1923 1926 1929 1932 1935 1938 1941 1944 1947 1950 1953 1956 1959 1962 1965 1968 1971 1974 1977 1980 1983 1986 1989 1992 1995 1998 2001 2004 2007 2010 2013 2016 2019 2022 2025 2028 2031 2034 2037 2040 2043 2046 2049 2052 2055 2058 2061 2064 2067 2070 2073 2076 2079 2082 2085 2088 2091 2094 2097 2100
    </DataArray>
    <DataArray type="UInt8" Name="types" format="ascii">
5 5 5 5 5 5 5 5 5 5 5 5 5 5 5 5 5 5 5 5 5 5 5 5 5 5 5 5 5 5 5 5 5 5 5 5 5 5 5 5 5 5 5 5 5 5 5 5 5 5 5 5 5 5 5 5 5 5 5 5 5 5 5 5 5 5 5 5 5 5 5 5 5 5 5 5 5 5 5 5 5 5 5 5 5 5 5 5 5 5 5 5 5 5 5 5 5 5 5 5 5 5 5 5 5 5 5 5 5 5 5 5 5 5 5 5 5 5 5 5 5 5 5 5 5 5 5 5 5 5 5 5 5 5 5 5 5 5 5 5 5 5 5 5 5 5 5 5 5 5 5 5 5 5 5 5 5 5 5 5 5 5 5 5 5 5 5 5 5 5 5 5 5 5 5 5 5 5 5 5 5 5 5 5 5 5 5 5 5 5 5 5 5 5 5 5 5 5 5 5 5 5 5 5 5 5 5 5 5 5 5 5 5 5 5 5 5 5 5 5 5 5 5 5 5 5 5 5 5 5 5 5 5 5 5 5 5 5 5 5 5 5 5 5 5 5 5 5 5 5 5 5 5 5 5 5 5 5 5 5 5 5 5 5 5 5 5 5 5 5 5 5 5 5 5 5 5 5 5 5 5 5 5 5 5 5 5 5 5 5 5 5 5 5 5 5 5 5 5 5 5 5 5 5 5 5 5 5 5 5 5 5 5 5 5 5 5 5 5 5 5 5 5 5 5 5 5 5 5 5 5 5 5 5 5 5 5 5 5 5 5 5 5 5 5 5 5 5 5 5 5 5 5 5 5 5 5 5 5 5 5 5 5 5 5 5 5 5 5 5 5 5 5 5 5 5 5 5 5 5 5 5 5 5 5 5 5 5 5 5 5 5 5 5 5 5 5 5 5 5 5 5 5 5 5 5 5 5 5 5 5 5 5 5 5 5 5 5 5 5 5 5 5 5 5 5 5 5 5 5 5 5 5 5 5 5 5 5 5 5 5 5 5 5 5 5 5 5 5 5 5 5 5 5 5 5 5 5 5 5 5 5 5 5 5 5 5 5 5 5 5 5 5 5 5 5 5 5 5 5 5 5 5 5 5 5 5 5 5 5 5 5 5 5 5 5 5 5 5 5 5 5 5 5 5 5 5 5 5 5 5 5 5 5 5 5 5 5 5 5 5 5 5 5 5 5 5 5 5 5 5 5 5 5 5 5 5 5 5 5 5 5 5 5 5 5 5 5 5 5 5 5 5 5 5 5 5 5 5 5 5 5 5 5 5 5 5 5 5 5 5 5 5 5 5 5 5 5 5 5 5 5 5 5 5 5 5 5 5 5 5 5 5 5 5 5 5 5 5 5 5 5 5 5 5 5 5 5 5 5 5 5 5 5 5 5 5 5 5 5 5 5 5 5 5 5 5 5 5 5 5 5 5 5 5 5 5 5 5 5 5 5 5 5 5 5 5 5 5 5 5 5 5 5 5 5 5 5 5 5 5 5 5 5 5 5 5 5 5 5 5 5 5 5 5 5 5 5 5 5 5 5 5 5 5 5 5 5 5 5 5 5 5 5 5 5 5 5 5 5
    </DataArray>
   </Cells>
   <PointData>
    <DataArray type="Float32" Name="Acceptor Doping [log10(m^-3)]" NumberOfComponents="1" format="ascii">
0.0 0.0 0.0 0.0 0.0 0.0 0.0 0.0 0.0 0.0 0.0 0.0 0.0 0.0 0.0 0.0 0.0 0.0 0.0 0.0 0.0 0.0 0.0 0.0 0.0 0.0 0.0 0.0 0.0 0.0 0.0 0.0 0.0 0.0 0.0 0.0 0.0 0.0 0.0 0.0 0.0 0.0 0.0 0.0 0.0 0.0 0.0 0.0 0.0 0.0 0.0 0.0 0.0 0.0 0.0 0.0 0.0 0.0 0.0 0.0 0.0 0.0 0.0 0.0 0.0 0.0 0.0 0.0 0.0 0.0 0.0 0.0 0.0 0.0 0.0 0.0 0.0 0.0 0.0 0.0 0.0 0.0 0.0 0.0 0.0 0.0 0.0 0.0 0.0 0.0 0.0 0.0 0.0 0.0 0.0 0.0 0.0 0.0 0.0 0.0 0.0 0.0 0.0 0.0 0.0 0.0 0.0 0.0 0.0 0.0 0.0 0.0 0.0 0.0 0.0 0.0 0.0 0.0 0.0 0.0 0.0 0.0 0.0 0.0 0.0 0.0 0.0 0.0 0.0 0.0 0.0 0.0 0.0 0.0 0.0 0.0 0.0 0.0 0.0 0.0 0.0 0.0 0.0 0.0 0.0 0.0 0.0 0.0 0.0 0.0 0.0 0.0 0.0 0.0 0.0 0.0 0.0 0.0 0.0 0.0 0.0 0.0 0.0 0.0 0.0 0.0 0.0 0.0 0.0 0.0 0.0 0.0 0.0 0.0 0.0 0.0 0.0 0.0 0.0 0.0 0.0 0.0 0.0 0.0 0.0 0.0 0.0 0.0 0.0 0.0 0.0 0.0 0.0 0.0 0.0 0.0 0.0 0.0 0.0 0.0 0.0 0.0 0.0 0.0 0.0 0.0 0.0 0.0 0.0 0.0 0.0 0.0 0.0 0.0 0.0 0.0 0.0 0.0 0.0 0.0 0.0 0.0 0.0 0.0 0.0 0.0 0.0 0.0 0.0 0.0 0.0 0.0 0.0 0.0 0.0 0.0 0.0 0.0 0.0 0.0 0.0 0.0 0.0 0.0 0.0 0.0 0.0 0.0 0.0 0.0 0.0 0.0 0.0 0.0 0.0 0.0 0.0 0.0 0.0 0.0 0.0 0.0 0.0 0.0 0.0 0.0 0.0 0.0 0.0 0.0 0.0 0.0 0.0 0.0 0.0 0.0 0.0 0.0 0.0 0.0 0.0 0.0 0.0 0.0 0.0 0.0 0.0 0.0 0.0 0.0 0.0 0.0 0.0 0.0 0.0 0.0 0.0 0.0 0.0 0.0 0.0 0.0 0.0 0.0 0.0 0.0 0.0 0.0 0.0 0.0 0.0 0.0 0.0 0.0 0.0 0.0 0.0 0.0 0.0 0.0 0.0 0.0 0.0 0.0 0.0 0.0 0.0 0.0 0.0 0.0 0.0 0.0 0.0 0.0 0.0 0.0 0.0 0.0 0.0 0.0 0.0 0.0 0.0 0.0 0.0 0.0 0.0 0.0 0.0 0.0 0.0 0.0 0.0 0.0 0.0 0.0 0.0 0.0 0.0 0.0 0.0 0.0 0.0 0.0 0.0 0.0 0.0 0.0 0.0 0.0 0.0 0.0 0.0 0.0 0.0 0.0 0.0 0.0 0.0 0.0 0.0 0.0 0.0 0.0 0.0 0.0 0.0 0.0 0.0 0.0 0.0 0.0 0.0 0.0 0.0 0.0 0.0 0.0 0.0 0.0 0.0 0.0 0.0 0.0 0.0 0.0 0.0 0.0
    </DataArray>
    <DataArray type="Float32" Name="Donor Doping [log10(m^-3)]" NumberOfComponents="1" format="ascii">
0.0 0.0 0.0 0.0 0.0 0.0 0.0 0.0 0.0 0.0 0.0 0.0 0.0 0.0 0.0 0.0 0.0 0.0 0.0 0.0 0.0 0.0 0.0 0.0 0.0 0.0 0.0 0.0 0.0 0.0 0.0 0.0 0.0 0.0 0.0 0.0 0.0 0.0 0.0 0.0 0.0 0.0 0.0 0.0 0.0 0.0 0.0 0.0 0.0 0.0 0.0 0.0 0.0 0.0 0.0 0.0 0.0 0.0 0.0 0.0 0.0 0.0 0.0 0.0 0.0 0.0 0.0 0.0 0.0 0.0 0.0 0.0 0.0 0.0 0.0 0.0 0.0 0.0 0.0 0.0 0.0 0.0 0.0 0.0 0.0 0.0 0.0 0.0 0.0 0.0 0.0 0.0 0.0 0.0 0.0 0.0 0.0 0.0 0.0 0.0 0.0 0.0 0.0 0.0 0.0 0.0 0.0 0.0 0.0 0.0 0.0 0.0 0.0 0.0 0.0 0.0 0.0 0.0 0.0 0.0 0.0 0.0 0.0 0.0 0.0 0.0 0.0 0.0 0.0 0.0 0.0 0.0 0.0 0.0 0.0 0.0 0.0 0.0 0.0 0.0 0.0 0.0 0.0 0.0 0.0 0.0 0.0 0.0 0.0 0.0 0.0 0.0 0.0 0.0 0.0 0.0 0.0 0.0 0.0 0.0 0.0 0.0 0.0 0.0 0.0 0.0 0.0 0.0 0.0 0.0 0.0 0.0 0.0 0.0 0.0 0.0 0.0 0.0 0.0 0.0 0.0 0.0 0.0 0.0 0.0 0.0 0.0 0.0 0.0 0.0 0.0 0.0 0.0 0.0 0.0 0.0 0.0 0.0 0.0 0.0 0.0 0.0 0.0 0.0 0.0 0.0 0.0 0.0 0.0 0.0 0.0 0.0 0.0 0.0 0.0 0.0 0.0 0.0 0.0 0.0 0.0 0.0 0.0 0.0 0.0 0.0 0.0 0.0 0.0 0.0 0.0 0.0 0.0 0.0 0.0 0.0 0.0 0.0 0.0 0.0 0.0 0.0 0.0 0.0 0.0 0.0 0.0 0.0 0.0 0.0 0.0 0.0 0.0 0.0 0.0 0.0 0.0 0.0 0.0 0.0 0.0 0.0 0.0 0.0 0.0 0.0 0.0 0.0 0.0 0.0 0.0 0.0 0.0 0.0 0.0 0.0 0.0 0.0 0.0 0.0 0.0 0.0 0.0 0.0 0.0 0.0 0.0 0.0 0.0 0.0 0.0 0.0 0.0 0.0 0.0 0.0 0.0 0.0 0.0 0.0 0.0 0.0 0.0 0.0 0.0 0.0 0.0 0.0 0.0 0.0 0.0 0.0 0.0 0.0 0.0 0.0 0.0 0.0 0.0 0.0 0.0 0.0 0.0 0.0 0.0 0.0 0.0 0.0 0.0 0.0 0.0 0.0 0.0 0.0 0.0 0.0 0.0 0.0 0.0 0.0 0.0 0.0 0.0 0.0 0.0 0.0 0.0 0.0 0.0 0.0 0.0 0.0 0.0 0.0 0.0 0.0 0.0 0.0 0.0 0.0 0.0 0.0 0.0 0.0 0.0 0.0 0.0 0.0 0.0 0.0 0.0 0.0 0.0 0.0 0.0 0.0 0.0 0.0 0.0 0.0 0.0 0.0 0.0 0.0 0.0 0.0 0.0 0.0 0.0 0.0 0.0 0.0 0.0 0.0 0.0 0.0 0.0 0.0 0.0 0.0 0.0 0.0 0.0 0.0 0.0 0.0 0.0 0.0
    </DataArray>
    <DataArray type="Float32" Name="Potential [V]" NumberOfComponents="1" format="ascii">
2.8825894397451775 0.1455786048121986 0.1455786048121986 0.1455786048121986 0.1455786048121986 0.1455786048121986 0.1455786048121986 0.1455786048121986 2.8825894397451775 0.1455786048121986 0.1455786048121986 0.1455786048121986 0.1455786048121986 0.1455786048121986 0.1455786048121986 0.1455786048121986 2.8825894397451775 0.1455786048121986 0.1455786048121986 0.1455786048121986 0.1455786048121986 0.1455786048121986 0.1455786048121986 0.1455786048121986 2.8825894397451775 0.1455786048121986 0.1455786048121986 0.1455786048121986 0.1455786048121986 0.1455786048121986 0.1455786048121986 0.1455786048121986 2.8825894397451775 0.1455786048121986 0.1455786048121986 0.1455786048121986 0.1455786048121986 0.1455786048121986 0.1455786048121986 0.1455786048121986 2.8825894397451775 0.1455786048121986 0.1455786048121986 0.1455786048121986 0.1455786048121986 0.1455786048121986 0.1455786048121986 0.1455786048121986 2.8825894397451775 0.1455786048121986 0.1455786048121986 0.1455786048121986 0.1455786048121986 0.1455786048121986 0.1455786048121986 0.1455786048121986 2.8825894397451775 0.1455786048121986 0.1455786048121986 0.1455786048121986 0.1455786048121986 0.1455786048121986 0.1455786048121986 0.1455786048121986 2.8825894397451775 0.1455786048121986 0.1455786048121986 0.1455786048121986 0.1455786048121986 0.1455786048121986 0.1455786048121986 0.1455786048121986 2.8825894397451775 0.1455786048121986 0.1455786048121986 0.1455786048121986 0.1455786048121986 0.1455786048121986 0.1455786048121986 0.1455786048121986 2.8825894397451775 0.1455786048121986 0.1455786048121986 0.1455786048121986 0.1455786048121986 0.1455786048121986 0.1455786048121986 0.1455786048121986 2.8825894397451775 0.1455786048121986 0.1455786048121986 0.1455786048121986 0.1455786048121986 0.1455786048121986 0.1455786048121986 0.1455786048121986 2.8825894397451775 0.1455786048121986 0.1455786048121986 0.1455786048121986 0.1455786048121986 0.1455786048121986 0.1455786048121986 0.1455786048121986 2.8825894397451775 0.1455786048121986 0.1455786048121986 0.1455786048121986 0.1455786048121986 0.1455786048121986 0.1455786048121986 0.1455786048121986 2.8825894397451775 0.1455786048121986 0.1455786048121986 0.1455786048121986 0.1455786048121986 0.1455786048121986 0.1455786048121986 0.1455786048121986 2.8825894397451775 0.1455786048121986 0.1455786048121986 0.1455786048121986 0.1455786048121986 0.1455786048121986 0.1455786048121986 0.1455786048121986 2.8825894397451775 0.1455786048121986 0.1455786048121986 0.1455786048121986 0.1455786048121986 0.1455786048121986 0.1455786048121986 0.1455786048121986 2.8825894397451775 0.1455786048121986 0.1455786048121986 0.1455786048121986 0.1455786048121986 0.1455786048121986 0.1455786048121986 0.1455786048121986 2.8825894397451775 0.1455786048121986 0.1455786048121986 0.1455786048121986 0.1455786048121986 0.1455786048121986 0.1455786048121986 0.1455786048121986 2.8825894397451775 0.1455786048121986 0.1455786048121986 0.1455786048121986 0.1455786048121986 0.1455786048121986 0.1455786048121986 0.1455786048121986 2.8825894397451775 0.1455786048121986 0.1455786048121986 0.1455786048121986 0.1455786048121986 0.1455786048121986 0.1455786048121986 0.1455786048121986 2.8825894397451775 0.1455786048121986 0.1455786048121986 0.1455786048121986 0.1455786048121986 0.1455786048121986 0.1455786048121986 0.1455786048121986 2.8825894397451775 0.1455786048121986 0.1455786048121986 0.1455786048121986 0.1455786048121986 0.1455786048121986 0.1455786048121986 0.1455786048121986 2.8825894397451775 0.1455786048121986 0.1455786048121986 0.1455786048121986 0.1455786048121986 0.1455786048121986 0.1455786048121986 0.1455786048121986 2.8825894397451775 0.1455786048121986 0.1455786048121986 0.1455786048121986 0.1455786048121986 0.1455786048121986 0.1455786048121986 0.1455786048121986 2.8825894397451775 0.1455786048121986 0.1455786048121986 0.1455786048121986 0.1455786048121986 0.1455786048121986 0.1455786048121986 0.1455786048121986 2.8825894397451775 0.1455786048121986 0.1455786048121986 0.1455786048121986 0.1455786048121986 0.1455786048121986 0.1455786048121986 0.1455786048121986 2.8825894397451775 0.1455786048121986 0.1455786048121986 0.1455786048121986 0.1455786048121986 0.1455786048121986 0.1455786048121986 0.1455786048121986 2.8825894397451775 0.1455786048121986 0.1455786048121986 0.1455786048121986 0.1455786048121986 0.1455786048121986 0.1455786048121986 0.1455786048121986 2.8825894397451775 0.1455786048121986 0.1455786048121986 0.1455786048121986 0.1455786048121986 0.1455786048121986 0.1455786048121986 0.1455786048121986 2.8825894397451775 0.1455786048121986 0.1455786048121986 0.1455786048121986 0.1455786048121986 0.1455786048121986 0.1455786048121986 0.1455786048121986 2.8825894397451775 0.1455786048121986 0.1455786048121986 0.1455786048121986 0.1455786048121986 0.1455786048121986 0.1455786048121986 0.1455786048121986 2.8825894397451775 0.1455786048121986 0.1455786048121986 0.1455786048121986 0.1455786048121986 0.1455786048121986 0.1455786048121986 0.1455786048121986 2.8825894397451775 0.1455786048121986 0.1455786048121986 0.1455786048121986 0.1455786048121986 0.1455786048121986 0.1455786048121986 0.1455786048121986 2.8825894397451775 0.1455786048121986 0.1455786048121986 0.1455786048121986 0.1455786048121986 0.1455786048121986 0.1455786048121986 0.1455786048121986 2.8825894397451775 0.1455786048121986 0.1455786048121986 0.1455786048121986 0.1455786048121986 0.1455786048121986 0.1455786048121986 0.1455786048121986 2.8825894397451775 0.1455786048121986 0.1455786048121986 0.1455786048121986 0.1455786048121986 0.1455786048121986 0.1455786048121986 0.1455786048121986 2.8825894397451775 0.1455786048121986 0.1455786048121986 0.1455786048121986 0.1455786048121986 0.1455786048121986 0.1455786048121986 0.1455786048121986 2.8825894397451775 0.1455786048121986 0.1455786048121986 0.1455786048121986 0.1455786048121986 0.1455786048121986 0.1455786048121986 0.1455786048121986 2.8825894397451775 0.1455786048121986 0.1455786048121986 0.1455786048121986 0.1455786048121986 0.1455786048121986 0.1455786048121986 0.1455786048121986 2.8825894397451775 0.1455786048121986 0.1455786048121986 0.1455786048121986 0.1455786048121986 0.1455786048121986 0.1455786048121986 0.1455786048121986 2.8825894397451775 0.1455786048121986 0.1455786048121986 0.1455786048121986 0.1455786048121986 0.1455786048121986 0.1455786048121986 0.1455786048121986 2.8825894397451775 0.1455786048121986 0.1455786048121986 0.1455786048121986 0.1455786048121986 0.1455786048121986 0.1455786048121986 0.1455786048121986 2.8825894397451775 0.1455786048121986 0.1455786048121986 0.1455786048121986 0.1455786048121986 0.1455786048121986 0.1455786048121986 0.1455786048121986 2.8825894397451775 0.1455786048121986 0.1455786048121986 0.1455786048121986 0.1455786048121986 0.1455786048121986 0.1455786048121986 0.1455786048121986 2.8825894397451775 0.1455786048121986 0.1455786048121986 0.1455786048121986 0.1455786048121986 0.1455786048121986 0.1455786048121986 0.1455786048121986 2.8825894397451775 0.1455786048121986 0.1455786048121986 0.1455786048121986 0.1455786048121986 0.1455786048121986 0.1455786048121986 0.1455786048121986 2.8825894397451775 0.1455786048121986 0.1455786048121986 0.1455786048121986 0.1455786048121986 0.1455786048121986 0.1455786048121986 0.1455786048121986 2.8825894397451775 0.1455786048121986 0.1455786048121986 0.1455786048121986 0.1455786048121986 0.1455786048121986 0.1455786048121986 0.1455786048121986 2.8825894397451775 0.1455786048121986 0.1455786048121986 0.1455786048121986 0.1455786048121986 0.1455786048121986 0.1455786048121986 0.1455786048121986 2.8825894397451775 0.1455786048121986 0.1455786048121986 0.1455786048121986 0.1455786048121986 0.1455786048121986 0.1455786048121986 0.1455786048121986
    </DataArray>
    <DataArray type="Float32" Name="Electron density [log10(m^-3)]" NumberOfComponents="1" format="ascii">
0.0 0.0 0.0 0.0 0.0 0.0 0.0 0.0 0.0 0.0 0.0 0.0 0.0 0.0 0.0 0.0 0.0 0.0 0.0 0.0 0.0 0.0 0.0 0.0 0.0 0.0 0.0 0.0 0.0 0.0 0.0 0.0 0.0 0.0 0.0 0.0 0.0 0.0 0.0 0.0 0.0 0.0 0.0 0.0 0.0 0.0 0.0 0.0 0.0 0.0 0.0 0.0 0.0 0.0 0.0 0.0 0.0 0.0 0.0 0.0 0.0 0.0 0.0 0.0 0.0 0.0 0.0 0.0 0.0 0.0 0.0 0.0 0.0 0.0 0.0 0.0 0.0 0.0 0.0 0.0 0.0 0.0 0.0 0.0 0.0 0.0 0.0 0.0 0.0 0.0 0.0 0.0 0.0 0.0 0.0 0.0 0.0 0.0 0.0 0.0 0.0 0.0 0.0 0.0 0.0 0.0 0.0 0.0 0.0 0.0 0.0 0.0 0.0 0.0 0.0 0.0 0.0 0.0 0.0 0.0 0.0 0.0 0.0 0.0 0.0 0.0 0.0 0.0 0.0 0.0 0.0 0.0 0.0 0.0 0.0 0.0 0.0 0.0 0.0 0.0 0.0 0.0 0.0 0.0 0.0 0.0 0.0 0.0 0.0 0.0 0.0 0.0 0.0 0.0 0.0 0.0 0.0 0.0 0.0 0.0 0.0 0.0 0.0 0.0 0.0 0.0 0.0 0.0 0.0 0.0 0.0 0.0 0.0 0.0 0.0 0.0 0.0 0.0 0.0 0.0 0.0 0.0 0.0 0.0 0.0 0.0 0.0 0.0 0.0 0.0 0.0 0.0 0.0 0.0 0.0 0.0 0.0 0.0 0.0 0.0 0.0 0.0 0.0 0.0 0.0 0.0 0.0 0.0 0.0 0.0 0.0 0.0 0.0 0.0 0.0 0.0 0.0 0.0 0.0 0.0 0.0 0.0 0.0 0.0 0.0 0.0 0.0 0.0 0.0 0.0 0.0 0.0 0.0 0.0 0.0 0.0 0.0 0.0 0.0 0.0 0.0 0.0 0.0 0.0 0.0 0.0 0.0 0.0 0.0 0.0 0.0 0.0 0.0 0.0 0.0 0.0 0.0 0.0 0.0 0.0 0.0 0.0 0.0 0.0 0.0 0.0 0.0 0.0 0.0 0.0 0.0 0.0 0.0 0.0 0.0 0.0 0.0 0.0 0.0 0.0 0.0 0.0 0.0 0.0 0.0 0.0 0.0 0.0 0.0 0.0 0.0 0.0 0.0 0.0 0.0 0.0 0.0 0.0 0.0 0.0 0.0 0.0 0.0 0.0 0.0 0.0 0.0 0.0 0.0 0.0 0.0 0.0 0.0 0.0 0.0 0.0 0.0 0.0 0.0 0.0 0.0 0.0 0.0 0.0 0.0 0.0 0.0 0.0 0.0 0.0 0.0 0.0 0.0 0.0 0.0 0.0 0.0 0.0 0.0 0.0 0.0 0.0 0.0 0.0 0.0 0.0 0.0 0.0 0.0 0.0 0.0 0.0 0.0 0.0 0.0 0.0 0.0 0.0 0.0 0.0 0.0 0.0 0.0 0.0 0.0 0.0 0.0 0.0 0.0 0.0 0.0 0.0 0.0 0.0 0.0 0.0 0.0 0.0 0.0 0.0 0.0 0.0 0.0 0.0 0.0 0.0 0.0 0.0 0.0 0.0 0.0 0.0 0.0 0.0 0.0 0.0 0.0 0.0 0.0 0.0 0.0 0.0 0.0 0.0 0.0 0.0 0.0 0.0
    </DataArray>
    <DataArray type="Float32" Name="Hole density [log10(m^-3)]" NumberOfComponents="1" format="ascii">
0.0 0.0 0.0 0.0 0.0 0.0 0.0 0.0 0.0 0.0 0.0 0.0 0.0 0.0 0.0 0.0 0.0 0.0 0.0 0.0 0.0 0.0 0.0 0.0 0.0 0.0 0.0 0.0 0.0 0.0 0.0 0.0 0.0 0.0 0.0 0.0 0.0 0.0 0.0 0.0 0.0 0.0 0.0 0.0 0.0 0.0 0.0 0.0 0.0 0.0 0.0 0.0 0.0 0.0 0.0 0.0 0.0 0.0 0.0 0.0 0.0 0.0 0.0 0.0 0.0 0.0 0.0 0.0 0.0 0.0 0.0 0.0 0.0 0.0 0.0 0.0 0.0 0.0 0.0 0.0 0.0 0.0 0.0 0.0 0.0 0.0 0.0 0.0 0.0 0.0 0.0 0.0 0.0 0.0 0.0 0.0 0.0 0.0 0.0 0.0 0.0 0.0 0.0 0.0 0.0 0.0 0.0 0.0 0.0 0.0 0.0 0.0 0.0 0.0 0.0 0.0 0.0 0.0 0.0 0.0 0.0 0.0 0.0 0.0 0.0 0.0 0.0 0.0 0.0 0.0 0.0 0.0 0.0 0.0 0.0 0.0 0.0 0.0 0.0 0.0 0.0 0.0 0.0 0.0 0.0 0.0 0.0 0.0 0.0 0.0 0.0 0.0 0.0 0.0 0.0 0.0 0.0 0.0 0.0 0.0 0.0 0.0 0.0 0.0 0.0 0.0 0.0 0.0 0.0 0.0 0.0 0.0 0.0 0.0 0.0 0.0 0.0 0.0 0.0 0.0 0.0 0.0 0.0 0.0 0.0 0.0 0.0 0.0 0.0 0.0 0.0 0.0 0.0 0.0 0.0 0.0 0.0 0.0 0.0 0.0 0.0 0.0 0.0 0.0 0.0 0.0 0.0 0.0 0.0 0.0 0.0 0.0 0.0 0.0 0.0 0.0 0.0 0.0 0.0 0.0 0.0 0.0 0.0 0.0 0.0 0.0 0.0 0.0 0.0 0.0 0.0 0.0 0.0 0.0 0.0 0.0 0.0 0.0 0.0 0.0 0.0 0.0 0.0 0.0 0.0 0.0 0.0 0.0 0.0 0.0 0.0 0.0 0.0 0.0 0.0 0.0 0.0 0.0 0.0 0.0 0.0 0.0 0.0 0.0 0.0 0.0 0.0 0.0 0.0 0.0 0.0 0.0 0.0 0.0 0.0 0.0 0.0 0.0 0.0 0.0 0.0 0.0 0.0 0.0 0.0 0.0 0.0 0.0 0.0 0.0 0.0 0.0 0.0 0.0 0.0 0.0 0.0 0.0 0.0 0.0 0.0 0.0 0.0 0.0 0.0 0.0 0.0 0.0 0.0 0.0 0.0 0.0 0.0 0.0 0.0 0.0 0.0 0.0 0.0 0.0 0.0 0.0 0.0 0.0 0.0 0.0 0.0 0.0 0.0 0.0 0.0 0.0 0.0 0.0 0.0 0.0 0.0 0.0 0.0 0.0 0.0 0.0 0.0 0.0 0.0 0.0 0.0 0.0 0.0 0.0 0.0 0.0 0.0 0.0 0.0 0.0 0.0 0.0 0.0 0.0 0.0 0.0 0.0 0.0 0.0 0.0 0.0 0.0 0.0 0.0 0.0 0.0 0.0 0.0 0.0 0.0 0.0 0.0 0.0 0.0 0.0 0.0 0.0 0.0 0.0 0.0 0.0 0.0 0.0 0.0 0.0 0.0 0.0 0.0 0.0 0.0 0.0 0.0 0.0 0.0 0.0 0.0 0.0 0.0 0.0 0.0 0.0 0.0
    </DataArray>
    <DataArray type="Float32" Name="Ion density [log10(m^-3)]" NumberOfComponents="1" format="ascii">
0.0 0.0 0.0 0.0 0.0 0.0 0.0 0.0 0.0 0.0 0.0 0.0 0.0 0.0 0.0 0.0 0.0 0.0 0.0 0.0 0.0 0.0 0.0 0.0 0.0 0.0 0.0 0.0 0.0 0.0 0.0 0.0 0.0 0.0 0.0 0.0 0.0 0.0 0.0 0.0 0.0 0.0 0.0 0.0 0.0 0.0 0.0 0.0 0.0 0.0 0.0 0.0 0.0 0.0 0.0 0.0 0.0 0.0 0.0 0.0 0.0 0.0 0.0 0.0 0.0 0.0 0.0 0.0 0.0 0.0 0.0 0.0 0.0 0.0 0.0 0.0 0.0 0.0 0.0 0.0 0.0 0.0 0.0 0.0 0.0 0.0 0.0 0.0 0.0 0.0 0.0 0.0 0.0 0.0 0.0 0.0 0.0 0.0 0.0 0.0 0.0 0.0 0.0 0.0 0.0 0.0 0.0 0.0 0.0 0.0 0.0 0.0 0.0 0.0 0.0 0.0 0.0 0.0 0.0 0.0 0.0 0.0 0.0 0.0 0.0 0.0 0.0 0.0 0.0 0.0 0.0 0.0 0.0 0.0 0.0 0.0 0.0 0.0 0.0 0.0 0.0 0.0 0.0 0.0 0.0 0.0 0.0 0.0 0.0 0.0 0.0 0.0 0.0 0.0 0.0 0.0 0.0 0.0 0.0 0.0 0.0 0.0 0.0 0.0 0.0 0.0 0.0 0.0 0.0 0.0 0.0 0.0 0.0 0.0 0.0 0.0 0.0 0.0 0.0 0.0 0.0 0.0 0.0 0.0 0.0 0.0 0.0 0.0 0.0 0.0 0.0 0.0 0.0 0.0 0.0 0.0 0.0 0.0 0.0 0.0 0.0 0.0 0.0 0.0 0.0 0.0 0.0 0.0 0.0 0.0 0.0 0.0 0.0 0.0 0.0 0.0 0.0 0.0 0.0 0.0 0.0 0.0 0.0 0.0 0.0 0.0 0.0 0.0 0.0 0.0 0.0 0.0 0.0 0.0 0.0 0.0 0.0 0.0 0.0 0.0 0.0 0.0 0.0 0.0 0.0 0.0 0.0 0.0 0.0 0.0 0.0 0.0 0.0 0.0 0.0 0.0 0.0 0.0 0.0 0.0 0.0 0.0 0.0 0.0 0.0 0.0 0.0 0.0 0.0 0.0 0.0 0.0 0.0 0.0 0.0 0.0 0.0 0.0 0.0 0.0 0.0 0.0 0.0 0.0 0.0 0.0 0.0 0.0 0.0 0.0 0.0 0.0 0.0 0.0 0.0 0.0 0.0 0.0 0.0 0.0 0.0 0.0 0.0 0.0 0.0 0.0 0.0 0.0 0.0 0.0 0.0 0.0 0.0 0.0 0.0 0.0 0.0 0.0 0.0 0.0 0.0 0.0 0.0 0.0 0.0 0.0 0.0 0.0 0.0 0.0 0.0 0.0 0.0 0.0 0.0 0.0 0.0 0.0 0.0 0.0 0.0 0.0 0.0 0.0 0.0 0.0 0.0 0.0 0.0 0.0 0.0 0.0 0.0 0.0 0.0 0.0 0.0 0.0 0.0 0.0 0.0 0.0 0.0 0.0 0.0 0.0 0.0 0.0 0.0 0.0 0.0 0.0 0.0 0.0 0.0 0.0 0.0 0.0 0.0 0.0 0.0 0.0 0.0 0.0 0.0 0.0 0.0 0.0 0.0 0.0 0.0 0.0 0.0 0.0 0.0 0.0 0.0 0.0 0.0 0.0 0.0 0.0 0.0 0.0 0.0 0.0 0.0 0.0
    </DataArray>
    <DataArray type="Float32" Name="Ion density residual[log10(m^-3)]" NumberOfComponents="1" format="ascii">
0.0 0.0 0.0 0.0 0.0 0.0 0.0 0.0 0.0 0.0 0.0 0.0 0.0 0.0 0.0 0.0 0.0 0.0 0.0 0.0 0.0 0.0 0.0 0.0 0.0 0.0 0.0 0.0 0.0 0.0 0.0 0.0 0.0 0.0 0.0 0.0 0.0 0.0 0.0 0.0 0.0 0.0 0.0 0.0 0.0 0.0 0.0 0.0 0.0 0.0 0.0 0.0 0.0 0.0 0.0 0.0 0.0 0.0 0.0 0.0 0.0 0.0 0.0 0.0 0.0 0.0 0.0 0.0 0.0 0.0 0.0 0.0 0.0 0.0 0.0 0.0 0.0 0.0 0.0 0.0 0.0 0.0 0.0 0.0 0.0 0.0 0.0 0.0 0.0 0.0 0.0 0.0 0.0 0.0 0.0 0.0 0.0 0.0 0.0 0.0 0.0 0.0 0.0 0.0 0.0 0.0 0.0 0.0 0.0 0.0 0.0 0.0 0.0 0.0 0.0 0.0 0.0 0.0 0.0 0.0 0.0 0.0 0.0 0.0 0.0 0.0 0.0 0.0 0.0 0.0 0.0 0.0 0.0 0.0 0.0 0.0 0.0 0.0 0.0 0.0 0.0 0.0 0.0 0.0 0.0 0.0 0.0 0.0 0.0 0.0 0.0 0.0 0.0 0.0 0.0 0.0 0.0 0.0 0.0 0.0 0.0 0.0 0.0 0.0 0.0 0.0 0.0 0.0 0.0 0.0 0.0 0.0 0.0 0.0 0.0 0.0 0.0 0.0 0.0 0.0 0.0 0.0 0.0 0.0 0.0 0.0 0.0 0.0 0.0 0.0 0.0 0.0 0.0 0.0 0.0 0.0 0.0 0.0 0.0 0.0 0.0 0.0 0.0 0.0 0.0 0.0 0.0 0.0 0.0 0.0 0.0 0.0 0.0 0.0 0.0 0.0 0.0 0.0 0.0 0.0 0.0 0.0 0.0 0.0 0.0 0.0 0.0 0.0 0.0 0.0 0.0 0.0 0.0 0.0 0.0 0.0 0.0 0.0 0.0 0.0 0.0 0.0 0.0 0.0 0.0 0.0 0.0 0.0 0.0 0.0 0.0 0.0 0.0 0.0 0.0 0.0 0.0 0.0 0.0 0.0 0.0 0.0 0.0 0.0 0.0 0.0 0.0 0.0 0.0 0.0 0.0 0.0 0.0 0.0 0.0 0.0 0.0 0.0 0.0 0.0 0.0 0.0 0.0 0.0 0.0 0.0 0.0 0.0 0.0 0.0 0.0 0.0 0.0 0.0 0.0 0.0 0.0 0.0 0.0 0.0 0.0 0.0 0.0 0.0 0.0 0.0 0.0 0.0 0.0 0.0 0.0 0.0 0.0 0.0 0.0 0.0 0.0 0.0 0.0 0.0 0.0 0.0 0.0 0.0 0.0 0.0 0.0 0.0 0.0 0.0 0.0 0.0 0.0 0.0 0.0 0.0 0.0 0.0 0.0 0.0 0.0 0.0 0.0 0.0 0.0 0.0 0.0 0.0 0.0 0.0 0.0 0.0 0.0 0.0 0.0 0.0 0.0 0.0 0.0 0.0 0.0 0.0 0.0 0.0 0.0 0.0 0.0 0.0 0.0 0.0 0.0 0.0 0.0 0.0 0.0 0.0 0.0 0.0 0.0 0.0 0.0 0.0 0.0 0.0 0.0 0.0 0.0 0.0 0.0 0.0 0.0 0.0 0.0 0.0 0.0 0.0 0.0 0.0 0.0 0.0 0.0 0.0 0.0 0.0 0.0 0.0 0.0 0.0
    </DataArray>
    <DataArray type="Float32" Name="Ion density last step [log10(m^-3)]" NumberOfComponents="1" format="ascii">
0.0 0.0 0.0 0.0 0.0 0.0 0.0 0.0 0.0 0.0 0.0 0.0 0.0 0.0 0.0 0.0 0.0 0.0 0.0 0.0 0.0 0.0 0.0 0.0 0.0 0.0 0.0 0.0 0.0 0.0 0.0 0.0 0.0 0.0 0.0 0.0 0.0 0.0 0.0 0.0 0.0 0.0 0.0 0.0 0.0 0.0 0.0 0.0 0.0 0.0 0.0 0.0 0.0 0.0 0.0 0.0 0.0 0.0 0.0 0.0 0.0 0.0 0.0 0.0 0.0 0.0 0.0 0.0 0.0 0.0 0.0 0.0 0.0 0.0 0.0 0.0 0.0 0.0 0.0 0.0 0.0 0.0 0.0 0.0 0.0 0.0 0.0 0.0 0.0 0.0 0.0 0.0 0.0 0.0 0.0 0.0 0.0 0.0 0.0 0.0 0.0 0.0 0.0 0.0 0.0 0.0 0.0 0.0 0.0 0.0 0.0 0.0 0.0 0.0 0.0 0.0 0.0 0.0 0.0 0.0 0.0 0.0 0.0 0.0 0.0 0.0 0.0 0.0 0.0 0.0 0.0 0.0 0.0 0.0 0.0 0.0 0.0 0.0 0.0 0.0 0.0 0.0 0.0 0.0 0.0 0.0 0.0 0.0 0.0 0.0 0.0 0.0 0.0 0.0 0.0 0.0 0.0 0.0 0.0 0.0 0.0 0.0 0.0 0.0 0.0 0.0 0.0 0.0 0.0 0.0 0.0 0.0 0.0 0.0 0.0 0.0 0.0 0.0 0.0 0.0 0.0 0.0 0.0 0.0 0.0 0.0 0.0 0.0 0.0 0.0 0.0 0.0 0.0 0.0 0.0 0.0 0.0 0.0 0.0 0.0 0.0 0.0 0.0 0.0 0.0 0.0 0.0 0.0 0.0 0.0 0.0 0.0 0.0 0.0 0.0 0.0 0.0 0.0 0.0 0.0 0.0 0.0 0.0 0.0 0.0 0.0 0.0 0.0 0.0 0.0 0.0 0.0 0.0 0.0 0.0 0.0 0.0 0.0 0.0 0.0 0.0 0.0 0.0 0.0 0.0 0.0 0.0 0.0 0.0 0.0 0.0 0.0 0.0 0.0 0.0 0.0 0.0 0.0 0.0 0.0 0.0 0.0 0.0 0.0 0.0 0.0 0.0 0.0 0.0 0.0 0.0 0.0 0.0 0.0 0.0 0.0 0.0 0.0 0.0 0.0 0.0 0.0 0.0 0.0 0.0 0.0 0.0 0.0 0.0 0.0 0.0 0.0 0.0 0.0 0.0 0.0 0.0 0.0 0.0 0.0 0.0 0.0 0.0 0.0 0.0 0.0 0.0 0.0 0.0 0.0 0.0 0.0 0.0 0.0 0.0 0.0 0.0 0.0 0.0 0.0 0.0 0.0 0.0 0.0 0.0 0.0 0.0 0.0 0.0 0.0 0.0 0.0 0.0 0.0 0.0 0.0 0.0 0.0 0.0 0.0 0.0 0.0 0.0 0.0 0.0 0.0 0.0 0.0 0.0 0.0 0.0 0.0 0.0 0.0 0.0 0.0 0.0 0.0 0.0 0.0 0.0 0.0 0.0 0.0 0.0 0.0 0.0 0.0 0.0 0.0 0.0 0.0 0.0 0.0 0.0 0.0 0.0 0.0 0.0 0.0 0.0 0.0 0.0 0.0 0.0 0.0 0.0 0.0 0.0 0.0 0.0 0.0 0.0 0.0 0.0 0.0 0.0 0.0 0.0 0.0 0.0 0.0 0.0 0.0 0.0 0.0 0.0 0.0
    </DataArray>
    <DataArray type="Float32" Name="Ion density max [log10(m^-3)]" NumberOfComponents="1" format="ascii">
0.0 0.0 0.0 0.0 0.0 0.0 0.0 0.0 0.0 0.0 0.0 0.0 0.0 0.0 0.0 0.0 0.0 0.0 0.0 0.0 0.0 0.0 0.0 0.0 0.0 0.0 0.0 0.0 0.0 0.0 0.0 0.0 0.0 0.0 0.0 0.0 0.0 0.0 0.0 0.0 0.0 0.0 0.0 0.0 0.0 0.0 0.0 0.0 0.0 0.0 0.0 0.0 0.0 0.0 0.0 0.0 0.0 0.0 0.0 0.0 0.0 0.0 0.0 0.0 0.0 0.0 0.0 0.0 0.0 0.0 0.0 0.0 0.0 0.0 0.0 0.0 0.0 0.0 0.0 0.0 0.0 0.0 0.0 0.0 0.0 0.0 0.0 0.0 0.0 0.0 0.0 0.0 0.0 0.0 0.0 0.0 0.0 0.0 0.0 0.0 0.0 0.0 0.0 0.0 0.0 0.0 0.0 0.0 0.0 0.0 0.0 0.0 0.0 0.0 0.0 0.0 0.0 0.0 0.0 0.0 0.0 0.0 0.0 0.0 0.0 0.0 0.0 0.0 0.0 0.0 0.0 0.0 0.0 0.0 0.0 0.0 0.0 0.0 0.0 0.0 0.0 0.0 0.0 0.0 0.0 0.0 0.0 0.0 0.0 0.0 0.0 0.0 0.0 0.0 0.0 0.0 0.0 0.0 0.0 0.0 0.0 0.0 0.0 0.0 0.0 0.0 0.0 0.0 0.0 0.0 0.0 0.0 0.0 0.0 0.0 0.0 0.0 0.0 0.0 0.0 0.0 0.0 0.0 0.0 0.0 0.0 0.0 0.0 0.0 0.0 0.0 0.0 0.0 0.0 0.0 0.0 0.0 0.0 0.0 0.0 0.0 0.0 0.0 0.0 0.0 0.0 0.0 0.0 0.0 0.0 0.0 0.0 0.0 0.0 0.0 0.0 0.0 0.0 0.0 0.0 0.0 0.0 0.0 0.0 0.0 0.0 0.0 0.0 0.0 0.0 0.0 0.0 0.0 0.0 0.0 0.0 0.0 0.0 0.0 0.0 0.0 0.0 0.0 0.0 0.0 0.0 0.0 0.0 0.0 0.0 0.0 0.0 0.0 0.0 0.0 0.0 0.0 0.0 0.0 0.0 0.0 0.0 0.0 0.0 0.0 0.0 0.0 0.0 0.0 0.0 0.0 0.0 0.0 0.0 0.0 0.0 0.0 0.0 0.0 0.0 0.0 0.0 0.0 0.0 0.0 0.0 0.0 0.0 0.0 0.0 0.0 0.0 0.0 0.0 0.0 0.0 0.0 0.0 0.0 0.0 0.0 0.0 0.0 0.0 0.0 0.0 0.0 0.0 0.0 0.0 0.0 0.0 0.0 0.0 0.0 0.0 0.0 0.0 0.0 0.0 0.0 0.0 0.0 0.0 0.0 0.0 0.0 0.0 0.0 0.0 0.0 0.0 0.0 0.0 0.0 0.0 0.0 0.0 0.0 0.0 0.0 0.0 0.0 0.0 0.0 0.0 0.0 0.0 0.0 0.0 0.0 0.0 0.0 0.0 0.0 0.0 0.0 0.0 0.0 0.0 0.0 0.0 0.0 0.0 0.0 0.0 0.0 0.0 0.0 0.0 0.0 0.0 0.0 0.0 0.0 0.0 0.0 0.0 0.0 0.0 0.0 0.0 0.0 0.0 0.0 0.0 0.0 0.0 0.0 0.0 0.0 0.0 0.0 0.0 0.0 0.0 0.0 0.0 0.0 0.0 0.0 0.0 0.0 0.0 0.0 0.0 0.0 0.0
    </DataArray>
    <DataArray type="Float32" Name="Mobility [m^2/V/s]" NumberOfComponents="1" format="ascii">
0.0 0.0 0.0 0.0 0.0 0.0 0.0 0.0 0.0 0.0 0.0 0.0 0.0 0.0 0.0 0.0 0.0 0.0 0.0 0.0 0.0 0.0 0.0 0.0 0.0 0.0 0.0 0.0 0.0 0.0 0.0 0.0 0.0 0.0 0.0 0.0 0.0 0.0 0.0 0.0 0.0 0.0 0.0 0.0 0.0 0.0 0.0 0.0 0.0 0.0 0.0 0.0 0.0 0.0 0.0 0.0 0.0 0.0 0.0 0.0 0.0 0.0 0.0 0.0 0.0 0.0 0.0 0.0 0.0 0.0 0.0 0.0 0.0 0.0 0.0 0.0 0.0 0.0 0.0 0.0 0.0 0.0 0.0 0.0 0.0 0.0 0.0 0.0 0.0 0.0 0.0 0.0 0.0 0.0 0.0 0.0 0.0 0.0 0.0 0.0 0.0 0.0 0.0 0.0 0.0 0.0 0.0 0.0 0.0 0.0 0.0 0.0 0.0 0.0 0.0 0.0 0.0 0.0 0.0 0.0 0.0 0.0 0.0 0.0 0.0 0.0 0.0 0.0 0.0 0.0 0.0 0.0 0.0 0.0 0.0 0.0 0.0 0.0 0.0 0.0 0.0 0.0 0.0 0.0 0.0 0.0 0.0 0.0 0.0 0.0 0.0 0.0 0.0 0.0 0.0 0.0 0.0 0.0 0.0 0.0 0.0 0.0 0.0 0.0 0.0 0.0 0.0 0.0 0.0 0.0 0.0 0.0 0.0 0.0 0.0 0.0 0.0 0.0 0.0 0.0 0.0 0.0 0.0 0.0 0.0 0.0 0.0 0.0 0.0 0.0 0.0 0.0 0.0 0.0 0.0 0.0 0.0 0.0 0.0 0.0 0.0 0.0 0.0 0.0 0.0 0.0 0.0 0.0 0.0 0.0 0.0 0.0 0.0 0.0 0.0 0.0 0.0 0.0 0.0 0.0 0.0 0.0 0.0 0.0 0.0 0.0 0.0 0.0 0.0 0.0 0.0 0.0 0.0 0.0 0.0 0.0 0.0 0.0 0.0 0.0 0.0 0.0 0.0 0.0 0.0 0.0 0.0 0.0 0.0 0.0 0.0 0.0 0.0 0.0 0.0 0.0 0.0 0.0 0.0 0.0 0.0 0.0 0.0 0.0 0.0 0.0 0.0 0.0 0.0 0.0 0.0 0.0 0.0 0.0 0.0 0.0 0.0 0.0 0.0 0.0 0.0 0.0 0.0 0.0 0.0 0.0 0.0 0.0 0.0 0.0 0.0 0.0 0.0 0.0 0.0 0.0 0.0 0.0 0.0 0.0 0.0 0.0 0.0 0.0 0.0 0.0 0.0 0.0 0.0 0.0 0.0 0.0 0.0 0.0 0.0 0.0 0.0 0.0 0.0 0.0 0.0 0.0 0.0 0.0 0.0 0.0 0.0 0.0 0.0 0.0 0.0 0.0 0.0 0.0 0.0 0.0 0.0 0.0 0.0 0.0 0.0 0.0 0.0 0.0 0.0 0.0 0.0 0.0 0.0 0.0 0.0 0.0 0.0 0.0 0.0 0.0 0.0 0.0 0.0 0.0 0.0 0.0 0.0 0.0 0.0 0.0 0.0 0.0 0.0 0.0 0.0 0.0 0.0 0.0 0.0 0.0 0.0 0.0 0.0 0.0 0.0 0.0 0.0 0.0 0.0 0.0 0.0 0.0 0.0 0.0 0.0 0.0 0.0 0.0 0.0 0.0 0.0 0.0 0.0 0.0 0.0 0.0 0.0 0.0 0.0 0.0 0.0 0.0
    </DataArray>
    <DataArray type="Float32" Name="Electric Field [Vm^-1]" NumberOfComponents="3" format="ascii">
0.0 0.0 0.0 0.0 0.0 0.0 0.0 0.0 0.0 0.0 0.0 0.0 0.0 0.0 0.0 0.0 0.0 0.0 0.0 0.0 0.0 0.0 0.0 0.0 0.0 0.0 0.0 0.0 0.0 0.0 0.0 0.0 0.0 0.0 0.0 0.0 0.0 0.0 0.0 0.0 0.0 0.0 0.0 0.0 0.0 0.0 0.0 0.0 0.0 0.0 0.0 0.0 0.0 0.0 0.0 0.0 0.0 0.0 0.0 0.0 0.0 0.0 0.0 0.0 0.0 0.0 0.0 0.0 0.0 0.0 0.0 0.0 0.0 0.0 0.0 0.0 0.0 0.0 0.0 0.0 0.0 0.0 0.0 0.0 0.0 0.0 0.0 0.0 0.0 0.0 0.0 0.0 0.0 0.0 0.0 0.0 0.0 0.0 0.0 0.0 0.0 0.0 0.0 0.0 0.0 0.0 0.0 0.0 0.0 0.0 0.0 0.0 0.0 0.0 0.0 0.0 0.0 0.0 0.0 0.0 0.0 0.0 0.0 0.0 0.0 0.0 0.0 0.0 0.0 0.0 0.0 0.0 0.0 0.0 0.0 0.0 0.0 0.0 0.0 0.0 0.0 0.0 0.0 0.0 0.0 0.0 0.0 0.0 0.0 0.0 0.0 0.0 0.0 0.0 0.0 0.0 0.0 0.0 0.0 0.0 0.0 0.0 0.0 0.0 0.0 0.0 0.0 0.0 0.0 0.0 0.0 0.0 0.0 0.0 0.0 0.0 0.0 0.0 0.0 0.0 0.0 0.0 0.0 0.0 0.0 0.0 0.0 0.0 0.0 0.0 0.0 0.0 0.0 0.0 0.0 0.0 0.0 0.0 0.0 0.0 0.0 0.0 0.0 0.0 0.0 0.0 0.0 0.0 0.0 0.0 0.0 0.0 0.0 0.0 0.0 0.0 0.0 0.0 0.0 0.0 0.0 0.0 0.0 0.0 0.0 0.0 0.0 0.0 0.0 0.0 0.0 0.0 0.0 0.0 0.0 0.0 0.0 0.0 0.0 0.0 0.0 0.0 0.0 0.0 0.0 0.0 0.0 0.0 0.0 0.0 0.0 0.0 0.0 0.0 0.0 0.0 0.0 0.0 0.0 0.0 0.0 0.0 0.0 0.0 0.0 0.0 0.0 0.0 0.0 0.0 0.0 0.0 0.0 0.0 0.0 0.0 0.0 0.0 0.0 0.0 0.0 0.0 0.0 0.0 0.0 0.0 0.0 0.0 0.0 0.0 0.0 0.0 0.0 0.0 0.0 0.0 0.0 0.0 0.0 0.0 0.0 0.0 0.0 0.0 0.0 0.0 0.0 0.0 0.0 0.0 0.0 0.0 0.0 0.0 0.0 0.0 0.0 0.0 0.0 0.0 0.0 0.0 0.0 0.0 0.0 0.0 0.0 0.0 0.0 0.0 0.0 0.0 0.0 0.0 0.0 0.0 0.0 0.0 0.0 0.0 0.0 0.0 0.0 0.0 0.0 0.0 0.0 0.0 0.0 0.0 0.0 0.0 0.0 0.0 0.0 0.0 0.0 0.0 0.0 0.0 0.0 0.0 0.0 0.0 0.0 0.0 0.0 0.0 0.0 0.0 0.0 0.0 0.0 0.0 0.0 0.0 0.0 0.0 0.0 0.0 0.0 0.0 0.0 0.0 0.0 0.0 0.0 0.0 0.0 0.0 0.0 0.0 0.0 0.0 0.0 0.0 0.0 0.0 0.0 0.0 0.0 0.0 0.0 0.0 0.0 0.0 0.0 0.0 0.0 0.0 0.0 0.0 0.0 0.0 0.0 0.0 0.0 0.0 0.0 0.0 0.0 0.0 0.0 0.0 0.0 0.0 0.0 0.0 0.0 0.0 0.0 0.0 0.0 0.0 0.0 0.0 0.0 0.0 0.0 0.0 0.0 0.0 0.0 0.0 0.0 0.0 0.0 0.0 0.0 0.0 0.0 0.0 0.0 0.0 0.0 0.0 0.0 0.0 0.0 0.0 0.0 0.0 0.0 0.0 0.0 0.0 0.0 0.0 0.0 0.0 0.0 0.0 0.0 0.0 0.0 0.0 0.0 0.0 0.0 0.0 0.0 0.0 0.0 0.0 0.0 0.0 0.0 0.0 0.0 0.0 0.0 0.0 0.0 0.0 0.0 0.0 0.0 0.0 0.0 0.0 0.0 0.0 0.0 0.0 0.0 0.0 0.0 0.0 0.0 0.0 0.0 0.0 0.0 0.0 0.0 0.0 0.0 0.0 0.0 0.0 0.0 0.0 0.0 0.0 0.0 0.0 0.0 0.0 0.0 0.0 0.0 0.0 0.0 0.0 0.0 0.0 0.0 0.0 0.0 0.0 0.0 0.0 0.0 0.0 0.0 0.0 0.0 0.0 0.0 0.0 0.0 0.0 0.0 0.0 0.0 0.0 0.0 0.0 0.0 0.0 0.0 0.0 0.0 0.0 0.0 0.0 0.0 0.0 0.0 0.0 0.0 0.0 0.0 0.0 0.0 0.0 0.0 0.0 0.0 0.0 0.0 0.0 0.0 0.0 0.0 0.0 0.0 0.0 0.0 0.0 0.0 0.0 0.0 0.0 0.0 0.0 0.0 0.0 0.0 0.0 0.0 0.0 0.0 0.0 0.0 0.0 0.0 0.0 0.0 0.0 0.0 0.0 0.0 0.0 0.0 0.0 0.0 0.0 0.0 0.0 0.0 0.0 0.0 0.0 0.0 0.0 0.0 0.0 0.0 0.0 0.0 0.0 0.0 0.0 0.0 0.0 0.0 0.0 0.0 0.0 0.0 0.0 0.0 0.0 0.0 0.0 0.0 0.0 0.0 0.0 0.0 0.0 0.0 0.0 0.0 0.0 0.0 0.0 0.0 0.0 0.0 0.0 0.0 0.0 0.0 0.0 0.0 0.0 0.0 0.0 0.0 0.0 0.0 0.0 0.0 0.0 0.0 0.0 0.0 0.0 0.0 0.0 0.0 0.0 0.0 0.0 0.0 0.0 0.0 0.0 0.0 0.0 0.0 0.0 0.0 0.0 0.0 0.0 0.0 0.0 0.0 0.0 0.0 0.0 0.0 0.0 0.0 0.0 0.0 0.0 0.0 0.0 0.0 0.0 0.0 0.0 0.0 0.0 0.0 0.0 0.0 0.0 0.0 0.0 0.0 0.0 0.0 0.0 0.0 0.0 0.0 0.0 0.0 0.0 0.0 0.0 0.0 0.0 0.0 0.0 0.0 0.0 0.0 0.0 0.0 0.0 0.0 0.0 0.0 0.0 0.0 0.0 0.0 0.0 0.0 0.0 0.0 0.0 0.0 0.0 0.0 0.0 0.0 0.0 0.0 0.0 0.0 0.0 0.0 0.0 0.0 0.0 0.0 0.0 0.0 0.0 0.0 0.0 0.0 0.0 0.0 0.0 0.0 0.0 0.0 0.0 0.0 0.0 0.0 0.0 0.0 0.0 0.0 0.0 0.0 0.0 0.0 0.0 0.0 0.0 0.0 0.0 0.0 0.0 0.0 0.0 0.0 0.0 0.0 0.0 0.0 0.0 0.0 0.0 0.0 0.0 0.0 0.0 0.0 0.0 0.0 0.0 0.0 0.0 0.0 0.0 0.0 0.0 0.0 0.0 0.0 0.0 0.0 0.0 0.0 0.0 0.0 0.0 0.0 0.0 0.0 0.0 0.0 0.0 0.0 0.0 0.0 0.0 0.0 0.0 0.0 0.0 0.0 0.0 0.0 0.0 0.0 0.0 0.0 0.0 0.0 0.0 0.0 0.0 0.0 0.0 0.0 0.0 0.0 0.0 0.0 0.0 0.0 0.0 0.0 0.0 0.0 0.0 0.0 0.0 0.0 0.0 0.0 0.0 0.0 0.0 0.0 0.0 0.0 0.0 0.0 0.0 0.0 0.0 0.0 0.0 0.0 0.0 0.0 0.0 0.0 0.0 0.0 0.0 0.0 0.0 0.0 0.0 0.0 0.0 0.0 0.0 0.0 0.0 0.0 0.0 0.0 0.0 0.0 0.0 0.0 0.0 0.0 0.0 0.0 0.0 0.0 0.0 0.0 0.0 0.0 0.0 0.0 0.0 0.0 0.0 0.0 0.0 0.0 0.0 0.0 0.0 0.0 0.0 0.0 0.0 0.0 0.0 0.0 0.0 0.0 0.0 0.0 0.0 0.0 0.0 0.0 0.0 0.0 0.0 0.0 0.0 0.0 0.0 0.0 0.0 0.0 0.0 0.0 0.0 0.0 0.0 0.0 0.0 0.0 0.0 0.0 0.0 0.0 0.0 0.0 0.0 0.0 0.0 0.0 0.0 0.0 0.0 0.0 0.0 0.0 0.0 0.0 0.0 0.0 0.0 0.0 0.0 0.0 0.0 0.0 0.0 0.0 0.0 0.0 0.0 0.0 0.0 0.0 0.0 0.0 0.0 0.0 0.0 0.0 0.0 0.0 0.0 0.0 0.0 0.0 0.0 0.0 0.0 0.0 0.0 0.0 0.0 0.0 0.0 0.0 0.0 0.0 0.0 0.0 0.0 0.0 0.0 0.0 0.0 0.0 0.0 0.0 0.0 0.0 0.0 0.0 0.0 0.0 0.0 0.0 0.0 0.0 0.0 0.0 0.0 0.0 0.0 0.0 0.0 0.0 0.0 0.0 0.0 0.0 0.0 0.0 0.0 0.0 0.0 0.0 0.0 0.0 0.0 0.0 0.0 0.0 0.0 0.0 0.0 0.0 0.0 0.0 0.0 0.0 0.0 0.0 0.0 0.0 0.0 0.0 0.0 0.0 0.0 0.0 0.0 0.0 0.0 0.0 0.0 0.0 0.0 0.0 0.0 0.0 0.0 0.0 0.0 0.0 0.0 0.0 0.0 0.0 0.0 0.0 0.0 0.0 0.0 0.0 0.0 0.0 0.0 0.0 0.0 0.0 0.0 0.0 0.0 0.0 0.0 0.0 0.0 0.0 0.0 0.0 0.0 0.0 0.0 0.0 0.0 0.0 0.0 0.0 0.0 0.0 0.0 0.0 0.0 0.0 0.0 0.0 0.0 0.0 0.0 0.0 0.0 0.0 0.0 0.0 0.0 0.0 0.0 0.0 0.0 0.0 0.0 0.0 0.0 0.0 0.0 0.0 0.0 0.0 0.0 0.0 0.0 0.0 0.0 0.0 0.0 0.0 0.0 0.0 0.0 0.0 0.0 0.0 0.0 0.0 0.0 0.0 0.0 0.0 0.0 0.0 0.0 0.0 0.0 0.0 0.0 0.0 0.0 0.0 0.0 0.0 0.0 0.0 0.0 0.0 0.0 0.0 0.0 0.0 0.0 0.0 0.0 0.0 0.0 0.0 0.0 0.0 0.0 0.0 0.0
    </DataArray>
    <DataArray type="Float32" Name="Electron Current Density [Am^-2]" NumberOfComponents="3" format="ascii">
0.0 0.0 0.0 0.0 0.0 0.0 0.0 0.0 0.0 0.0 0.0 0.0 0.0 0.0 0.0 0.0 0.0 0.0 0.0 0.0 0.0 0.0 0.0 0.0 0.0 0.0 0.0 0.0 0.0 0.0 0.0 0.0 0.0 0.0 0.0 0.0 0.0 0.0 0.0 0.0 0.0 0.0 0.0 0.0 0.0 0.0 0.0 0.0 0.0 0.0 0.0 0.0 0.0 0.0 0.0 0.0 0.0 0.0 0.0 0.0 0.0 0.0 0.0 0.0 0.0 0.0 0.0 0.0 0.0 0.0 0.0 0.0 0.0 0.0 0.0 0.0 0.0 0.0 0.0 0.0 0.0 0.0 0.0 0.0 0.0 0.0 0.0 0.0 0.0 0.0 0.0 0.0 0.0 0.0 0.0 0.0 0.0 0.0 0.0 0.0 0.0 0.0 0.0 0.0 0.0 0.0 0.0 0.0 0.0 0.0 0.0 0.0 0.0 0.0 0.0 0.0 0.0 0.0 0.0 0.0 0.0 0.0 0.0 0.0 0.0 0.0 0.0 0.0 0.0 0.0 0.0 0.0 0.0 0.0 0.0 0.0 0.0 0.0 0.0 0.0 0.0 0.0 0.0 0.0 0.0 0.0 0.0 0.0 0.0 0.0 0.0 0.0 0.0 0.0 0.0 0.0 0.0 0.0 0.0 0.0 0.0 0.0 0.0 0.0 0.0 0.0 0.0 0.0 0.0 0.0 0.0 0.0 0.0 0.0 0.0 0.0 0.0 0.0 0.0 0.0 0.0 0.0 0.0 0.0 0.0 0.0 0.0 0.0 0.0 0.0 0.0 0.0 0.0 0.0 0.0 0.0 0.0 0.0 0.0 0.0 0.0 0.0 0.0 0.0 0.0 0.0 0.0 0.0 0.0 0.0 0.0 0.0 0.0 0.0 0.0 0.0 0.0 0.0 0.0 0.0 0.0 0.0 0.0 0.0 0.0 0.0 0.0 0.0 0.0 0.0 0.0 0.0 0.0 0.0 0.0 0.0 0.0 0.0 0.0 0.0 0.0 0.0 0.0 0.0 0.0 0.0 0.0 0.0 0.0 0.0 0.0 0.0 0.0 0.0 0.0 0.0 0.0 0.0 0.0 0.0 0.0 0.0 0.0 0.0 0.0 0.0 0.0 0.0 0.0 0.0 0.0 0.0 0.0 0.0 0.0 0.0 0.0 0.0 0.0 0.0 0.0 0.0 0.0 0.0 0.0 0.0 0.0 0.0 0.0 0.0 0.0 0.0 0.0 0.0 0.0 0.0 0.0 0.0 0.0 0.0 0.0 0.0 0.0 0.0 0.0 0.0 0.0 0.0 0.0 0.0 0.0 0.0 0.0 0.0 0.0 0.0 0.0 0.0 0.0 0.0 0.0 0.0 0.0 0.0 0.0 0.0 0.0 0.0 0.0 0.0 0.0 0.0 0.0 0.0 0.0 0.0 0.0 0.0 0.0 0.0 0.0 0.0 0.0 0.0 0.0 0.0 0.0 0.0 0.0 0.0 0.0 0.0 0.0 0.0 0.0 0.0 0.0 0.0 0.0 0.0 0.0 0.0 0.0 0.0 0.0 0.0 0.0 0.0 0.0 0.0 0.0 0.0 0.0 0.0 0.0 0.0 0.0 0.0 0.0 0.0 0.0 0.0 0.0 0.0 0.0 0.0 0.0 0.0 0.0 0.0 0.0 0.0 0.0 0.0 0.0 0.0 0.0 0.0 0.0 0.0 0.0 0.0 0.0 0.0 0.0 0.0 0.0 0.0 0.0 0.0 0.0 0.0 0.0 0.0 0.0 0.0 0.0 0.0 0.0 0.0 0.0 0.0 0.0 0.0 0.0 0.0 0.0 0.0 0.0 0.0 0.0 0.0 0.0 0.0 0.0 0.0 0.0 0.0 0.0 0.0 0.0 0.0 0.0 0.0 0.0 0.0 0.0 0.0 0.0 0.0 0.0 0.0 0.0 0.0 0.0 0.0 0.0 0.0 0.0 0.0 0.0 0.0 0.0 0.0 0.0 0.0 0.0 0.0 0.0 0.0 0.0 0.0 0.0 0.0 0.0 0.0 0.0 0.0 0.0 0.0 0.0 0.0 0.0 0.0 0.0 0.0 0.0 0.0 0.0 0.0 0.0 0.0 0.0 0.0 0.0 0.0 0.0 0.0 0.0 0.0 0.0 0.0 0.0 0.0 0.0 0.0 0.0 0.0 0.0 0.0 0.0 0.0 0.0 0.0 0.0 0.0 0.0 0.0 0.0 0.0 0.0 0.0 0.0 0.0 0.0 0.0 0.0 0.0 0.0 0.0 0.0 0.0 0.0 0.0 0.0 0.0 0.0 0.0 0.0 0.0 0.0 0.0 0.0 0.0 0.0 0.0 0.0 0.0 0.0 0.0 0.0 0.0 0.0 0.0 0.0 0.0 0.0 0.0 0.0 0.0 0.0 0.0 0.0 0.0 0.0 0.0 0.0 0.0 0.0 0.0 0.0 0.0 0.0 0.0 0.0 0.0 0.0 0.0 0.0 0.0 0.0 0.0 0.0 0.0 0.0 0.0 0.0 0.0 0.0 0.0 0.0 0.0 0.0 0.0 0.0 0.0 0.0 0.0 0.0 0.0 0.0 0.0 0.0 0.0 0.0 0.0 0.0 0.0 0.0 0.0 0.0 0.0 0.0 0.0 0.0 0.0 0.0 0.0 0.0 0.0 0.0 0.0 0.0 0.0 0.0 0.0 0.0 0.0 0.0 0.0 0.0 0.0 0.0 0.0 0.0 0.0 0.0 0.0 0.0 0.0 0.0 0.0 0.0 0.0 0.0 0.0 0.0 0.0 0.0 0.0 0.0 0.0 0.0 0.0 0.0 0.0 0.0 0.0 0.0 0.0 0.0 0.0 0.0 0.0 0.0 0.0 0.0 0.0 0.0 0.0 0.0 0.0 0.0 0.0 0.0 0.0 0.0 0.0 0.0 0.0 0.0 0.0 0.0 0.0 0.0 0.0 0.0 0.0 0.0 0.0 0.0 0.0 0.0 0.0 0.0 0.0 0.0 0.0 0.0 0.0 0.0 0.0 0.0 0.0 0.0 0.0 0.0 0.0 0.0 0.0 0.0 0.0 0.0 0.0 0.0 0.0 0.0 0.0 0.0 0.0 0.0 0.0 0.0 0.0 0.0 0.0 0.0 0.0 0.0 0.0 0.0 0.0 0.0 0.0 0.0 0.0 0.0 0.0 0.0 0.0 0.0 0.0 0.0 0.0 0.0 0.0 0.0 0.0 0.0 0.0 0.0 0.0 0.0 0.0 0.0 0.0 0.0 0.0 0.0 0.0 0.0 0.0 0.0 0.0 0.0 0.0 0.0 0.0 0.0 0.0 0.0 0.0 0.0 0.0 0.0 0.0 0.0 0.0 0.0 0.0 0.0 0.0 0.0 0.0 0.0 0.0 0.0 0.0 0.0 0.0 0.0 0.0 0.0 0.0 0.0 0.0 0.0 0.0 0.0 0.0 0.0 0.0 0.0 0.0 0.0 0.0 0.0 0.0 0.0 0.0 0.0 0.0 0.0 0.0 0.0 0.0 0.0 0.0 0.0 0.0 0.0 0.0 0.0 0.0 0.0 0.0 0.0 0.0 0.0 0.0 0.0 0.0 0.0 0.0 0.0 0.0 0.0 0.0 0.0 0.0 0.0 0.0 0.0 0.0 0.0 0.0 0.0 0.0 0.0 0.0 0.0 0.0 0.0 0.0 0.0 0.0 0.0 0.0 0.0 0.0 0.0 0.0 0.0 0.0 0.0 0.0 0.0 0.0 0.0 0.0 0.0 0.0 0.0 0.0 0.0 0.0 0.0 0.0 0.0 0.0 0.0 0.0 0.0 0.0 0.0 0.0 0.0 0.0 0.0 0.0 0.0 0.0 0.0 0.0 0.0 0.0 0.0 0.0 0.0 0.0 0.0 0.0 0.0 0.0 0.0 0.0 0.0 0.0 0.0 0.0 0.0 0.0 0.0 0.0 0.0 0.0 0.0 0.0 0.0 0.0 0.0 0.0 0.0 0.0 0.0 0.0 0.0 0.0 0.0 0.0 0.0 0.0 0.0 0.0 0.0 0.0 0.0 0.0 0.0 0.0 0.0 0.0 0.0 0.0 0.0 0.0 0.0 0.0 0.0 0.0 0.0 0.0 0.0 0.0 0.0 0.0 0.0 0.0 0.0 0.0 0.0 0.0 0.0 0.0 0.0 0.0 0.0 0.0 0.0 0.0 0.0 0.0 0.0 0.0 0.0 0.0 0.0 0.0 0.0 0.0 0.0 0.0 0.0 0.0 0.0 0.0 0.0 0.0 0.0 0.0 0.0 0.0 0.0 0.0 0.0 0.0 0.0 0.0 0.0 0.0 0.0 0.0 0.0 0.0 0.0 0.0 0.0 0.0 0.0 0.0 0.0 0.0 0.0 0.0 0.0 0.0 0.0 0.0 0.0 0.0 0.0 0.0 0.0 0.0 0.0 0.0 0.0 0.0 0.0 0.0 0.0 0.0 0.0 0.0 0.0 0.0 0.0 0.0 0.0 0.0 0.0 0.0 0.0 0.0 0.0 0.0 0.0 0.0 0.0 0.0 0.0 0.0 0.0 0.0 0.0 0.0 0.0 0.0 0.0 0.0 0.0 0.0 0.0 0.0 0.0 0.0 0.0 0.0 0.0 0.0 0.0 0.0 0.0 0.0 0.0 0.0 0.0 0.0 0.0 0.0 0.0 0.0 0.0 0.0 0.0 0.0 0.0 0.0 0.0 0.0 0.0 0.0 0.0 0.0 0.0 0.0 0.0 0.0 0.0 0.0 0.0 0.0 0.0 0.0 0.0 0.0 0.0 0.0 0.0 0.0 0.0 0.0 0.0 0.0 0.0 0.0 0.0 0.0 0.0 0.0 0.0 0.0 0.0 0.0 0.0 0.0 0.0 0.0 0.0 0.0 0.0 0.0 0.0 0.0 0.0 0.0 0.0 0.0 0.0 0.0 0.0 0.0 0.0 0.0 0.0 0.0 0.0 0.0 0.0 0.0 0.0 0.0 0.0 0.0 0.0 0.0 0.0 0.0 0.0 0.0 0.0 0.0 0.0 0.0 0.0 0.0 0.0 0.0 0.0 0.0 0.0 0.0 0.0 0.0 0.0 0.0 0.0 0.0 0.0 0.0 0.0 0.0 0.0 0.0 0.0 0.0 0.0 0.0 0.0 0.0 0.0 0.0 0.0 0.0 0.0 0.0 0.0 0.0 0.0 0.0 0.0 0.0 0.0 0.0 0.0 0.0 0.0 0.0 0.0 0.0 0.0 0.0 0.0 0.0 0.0 0.0 0.0 0.0 0.0 0.0 0.0 0.0 0.0 0.0
    </DataArray>
    <DataArray type="Float32" Name="Hole Current Density [Am^-2]" NumberOfComponents="3" format="ascii">
0.0 0.0 0.0 0.0 0.0 0.0 0.0 0.0 0.0 0.0 0.0 0.0 0.0 0.0 0.0 0.0 0.0 0.0 0.0 0.0 0.0 0.0 0.0 0.0 0.0 0.0 0.0 0.0 0.0 0.0 0.0 0.0 0.0 0.0 0.0 0.0 0.0 0.0 0.0 0.0 0.0 0.0 0.0 0.0 0.0 0.0 0.0 0.0 0.0 0.0 0.0 0.0 0.0 0.0 0.0 0.0 0.0 0.0 0.0 0.0 0.0 0.0 0.0 0.0 0.0 0.0 0.0 0.0 0.0 0.0 0.0 0.0 0.0 0.0 0.0 0.0 0.0 0.0 0.0 0.0 0.0 0.0 0.0 0.0 0.0 0.0 0.0 0.0 0.0 0.0 0.0 0.0 0.0 0.0 0.0 0.0 0.0 0.0 0.0 0.0 0.0 0.0 0.0 0.0 0.0 0.0 0.0 0.0 0.0 0.0 0.0 0.0 0.0 0.0 0.0 0.0 0.0 0.0 0.0 0.0 0.0 0.0 0.0 0.0 0.0 0.0 0.0 0.0 0.0 0.0 0.0 0.0 0.0 0.0 0.0 0.0 0.0 0.0 0.0 0.0 0.0 0.0 0.0 0.0 0.0 0.0 0.0 0.0 0.0 0.0 0.0 0.0 0.0 0.0 0.0 0.0 0.0 0.0 0.0 0.0 0.0 0.0 0.0 0.0 0.0 0.0 0.0 0.0 0.0 0.0 0.0 0.0 0.0 0.0 0.0 0.0 0.0 0.0 0.0 0.0 0.0 0.0 0.0 0.0 0.0 0.0 0.0 0.0 0.0 0.0 0.0 0.0 0.0 0.0 0.0 0.0 0.0 0.0 0.0 0.0 0.0 0.0 0.0 0.0 0.0 0.0 0.0 0.0 0.0 0.0 0.0 0.0 0.0 0.0 0.0 0.0 0.0 0.0 0.0 0.0 0.0 0.0 0.0 0.0 0.0 0.0 0.0 0.0 0.0 0.0 0.0 0.0 0.0 0.0 0.0 0.0 0.0 0.0 0.0 0.0 0.0 0.0 0.0 0.0 0.0 0.0 0.0 0.0 0.0 0.0 0.0 0.0 0.0 0.0 0.0 0.0 0.0 0.0 0.0 0.0 0.0 0.0 0.0 0.0 0.0 0.0 0.0 0.0 0.0 0.0 0.0 0.0 0.0 0.0 0.0 0.0 0.0 0.0 0.0 0.0 0.0 0.0 0.0 0.0 0.0 0.0 0.0 0.0 0.0 0.0 0.0 0.0 0.0 0.0 0.0 0.0 0.0 0.0 0.0 0.0 0.0 0.0 0.0 0.0 0.0 0.0 0.0 0.0 0.0 0.0 0.0 0.0 0.0 0.0 0.0 0.0 0.0 0.0 0.0 0.0 0.0 0.0 0.0 0.0 0.0 0.0 0.0 0.0 0.0 0.0 0.0 0.0 0.0 0.0 0.0 0.0 0.0 0.0 0.0 0.0 0.0 0.0 0.0 0.0 0.0 0.0 0.0 0.0 0.0 0.0 0.0 0.0 0.0 0.0 0.0 0.0 0.0 0.0 0.0 0.0 0.0 0.0 0.0 0.0 0.0 0.0 0.0 0.0 0.0 0.0 0.0 0.0 0.0 0.0 0.0 0.0 0.0 0.0 0.0 0.0 0.0 0.0 0.0 0.0 0.0 0.0 0.0 0.0 0.0 0.0 0.0 0.0 0.0 0.0 0.0 0.0 0.0 0.0 0.0 0.0 0.0 0.0 0.0 0.0 0.0 0.0 0.0 0.0 0.0 0.0 0.0 0.0 0.0 0.0 0.0 0.0 0.0 0.0 0.0 0.0 0.0 0.0 0.0 0.0 0.0 0.0 0.0 0.0 0.0 0.0 0.0 0.0 0.0 0.0 0.0 0.0 0.0 0.0 0.0 0.0 0.0 0.0 0.0 0.0 0.0 0.0 0.0 0.0 0.0 0.0 0.0 0.0 0.0 0.0 0.0 0.0 0.0 0.0 0.0 0.0 0.0 0.0 0.0 0.0 0.0 0.0 0.0 0.0 0.0 0.0 0.0 0.0 0.0 0.0 0.0 0.0 0.0 0.0 0.0 0.0 0.0 0.0 0.0 0.0 0.0 0.0 0.0 0.0 0.0 0.0 0.0 0.0 0.0 0.0 0.0 0.0 0.0 0.0 0.0 0.0 0.0 0.0 0.0 0.0 0.0 0.0 0.0 0.0 0.0 0.0 0.0 0.0 0.0 0.0 0.0 0.0 0.0 0.0 0.0 0.0 0.0 0.0 0.0 0.0 0.0 0.0 0.0 0.0 0.0 0.0 0.0 0.0 0.0 0.0 0.0 0.0 0.0 0.0 0.0 0.0 0.0 0.0 0.0 0.0 0.0 0.0 0.0 0.0 0.0 0.0 0.0 0.0 0.0 0.0 0.0 0.0 0.0 0.0 0.0 0.0 0.0 0.0 0.0 0.0 0.0 0.0 0.0 0.0 0.0 0.0 0.0 0.0 0.0 0.0 0.0 0.0 0.0 0.0 0.0 0.0 0.0 0.0 0.0 0.0 0.0 0.0 0.0 0.0 0.0 0.0 0.0 0.0 0.0 0.0 0.0 0.0 0.0 0.0 0.0 0.0 0.0 0.0 0.0 0.0 0.0 0.0 0.0 0.0 0.0 0.0 0.0 0.0 0.0 0.0 0.0 0.0 0.0 0.0 0.0 0.0 0.0 0.0 0.0 0.0 0.0 0.0 0.0 0.0 0.0 0.0 0.0 0.0 0.0 0.0 0.0 0.0 0.0 0.0 0.0 0.0 0.0 0.0 0.0 0.0 0.0 0.0 0.0 0.0 0.0 0.0 0.0 0.0 0.0 0.0 0.0 0.0 0.0 0.0 0.0 0.0 0.0 0.0 0.0 0.0 0.0 0.0 0.0 0.0 0.0 0.0 0.0 0.0 0.0 0.0 0.0 0.0 0.0 0.0 0.0 0.0 0.0 0.0 0.0 0.0 0.0 0.0 0.0 0.0 0.0 0.0 0.0 0.0 0.0 0.0 0.0 0.0 0.0 0.0 0.0 0.0 0.0 0.0 0.0 0.0 0.0 0.0 0.0 0.0 0.0 0.0 0.0 0.0 0.0 0.0 0.0 0.0 0.0 0.0 0.0 0.0 0.0 0.0 0.0 0.0 0.0 0.0 0.0 0.0 0.0 0.0 0.0 0.0 0.0 0.0 0.0 0.0 0.0 0.0 0.0 0.0 0.0 0.0 0.0 0.0 0.0 0.0 0.0 0.0 0.0 0.0 0.0 0.0 0.0 0.0 0.0 0.0 0.0 0.0 0.0 0.0 0.0 0.0 0.0 0.0 0.0 0.0 0.0 0.0 0.0 0.0 0.0 0.0 0.0 0.0 0.0 0.0 0.0 0.0 0.0 0.0 0.0 0.0 0.0 0.0 0.0 0.0 0.0 0.0 0.0 0.0 0.0 0.0 0.0 0.0 0.0 0.0 0.0 0.0 0.0 0.0 0.0 0.0 0.0 0.0 0.0 0.0 0.0 0.0 0.0 0.0 0.0 0.0 0.0 0.0 0.0 0.0 0.0 0.0 0.0 0.0 0.0 0.0 0.0 0.0 0.0 0.0 0.0 0.0 0.0 0.0 0.0 0.0 0.0 0.0 0.0 0.0 0.0 0.0 0.0 0.0 0.0 0.0 0.0 0.0 0.0 0.0 0.0 0.0 0.0 0.0 0.0 0.0 0.0 0.0 0.0 0.0 0.0 0.0 0.0 0.0 0.0 0.0 0.0 0.0 0.0 0.0 0.0 0.0 0.0 0.0 0.0 0.0 0.0 0.0 0.0 0.0 0.0 0.0 0.0 0.0 0.0 0.0 0.0 0.0 0.0 0.0 0.0 0.0 0.0 0.0 0.0 0.0 0.0 0.0 0.0 0.0 0.0 0.0 0.0 0.0 0.0 0.0 0.0 0.0 0.0 0.0 0.0 0.0 0.0 0.0 0.0 0.0 0.0 0.0 0.0 0.0 0.0 0.0 0.0 0.0 0.0 0.0 0.0 0.0 0.0 0.0 0.0 0.0 0.0 0.0 0.0 0.0 0.0 0.0 0.0 0.0 0.0 0.0 0.0 0.0 0.0 0.0 0.0 0.0 0.0 0.0 0.0 0.0 0.0 0.0 0.0 0.0 0.0 0.0 0.0 0.0 0.0 0.0 0.0 0.0 0.0 0.0 0.0 0.0 0.0 0.0 0.0 0.0 0.0 0.0 0.0 0.0 0.0 0.0 0.0 0.0 0.0 0.0 0.0 0.0 0.0 0.0 0.0 0.0 0.0 0.0 0.0 0.0 0.0 0.0 0.0 0.0 0.0 0.0 0.0 0.0 0.0 0.0 0.0 0.0 0.0 0.0 0.0 0.0 0.0 0.0 0.0 0.0 0.0 0.0 0.0 0.0 0.0 0.0 0.0 0.0 0.0 0.0 0.0 0.0 0.0 0.0 0.0 0.0 0.0 0.0 0.0 0.0 0.0 0.0 0.0 0.0 0.0 0.0 0.0 0.0 0.0 0.0 0.0 0.0 0.0 0.0 0.0 0.0 0.0 0.0 0.0 0.0 0.0 0.0 0.0 0.0 0.0 0.0 0.0 0.0 0.0 0.0 0.0 0.0 0.0 0.0 0.0 0.0 0.0 0.0 0.0 0.0 0.0 0.0 0.0 0.0 0.0 0.0 0.0 0.0 0.0 0.0 0.0 0.0 0.0 0.0 0.0 0.0 0.0 0.0 0.0 0.0 0.0 0.0 0.0 0.0 0.0 0.0 0.0 0.0 0.0 0.0 0.0 0.0 0.0 0.0 0.0 0.0 0.0 0.0 0.0 0.0 0.0 0.0 0.0 0.0 0.0 0.0 0.0 0.0 0.0 0.0 0.0 0.0 0.0 0.0 0.0 0.0 0.0 0.0 0.0 0.0 0.0 0.0 0.0 0.0 0.0 0.0 0.0 0.0 0.0 0.0 0.0 0.0 0.0 0.0 0.0 0.0 0.0 0.0 0.0 0.0 0.0 0.0 0.0 0.0 0.0 0.0 0.0 0.0 0.0 0.0 0.0 0.0 0.0 0.0 0.0 0.0 0.0 0.0 0.0 0.0 0.0 0.0 0.0 0.0 0.0 0.0 0.0 0.0 0.0 0.0 0.0 0.0 0.0 0.0 0.0 0.0 0.0 0.0 0.0 0.0 0.0 0.0 0.0 0.0 0.0 0.0 0.0 0.0 0.0 0.0 0.0 0.0 0.0 0.0 0.0 0.0 0.0 0.0 0.0 0.0 0.0 0.0 0.0 0.0 0.0 0.0 0.0 0.0 0.0 0.0 0.0 0.0 0.0 0.0 0.0 0.0
    </DataArray>
    <DataArray type="Float32" Name="Ion diffusion flux Density [Am^-2]" NumberOfComponents="3" format="ascii">
0.0 0.0 0.0 0.0 0.0 0.0 0.0 0.0 0.0 0.0 0.0 0.0 0.0 0.0 0.0 0.0 0.0 0.0 0.0 0.0 0.0 0.0 0.0 0.0 0.0 0.0 0.0 0.0 0.0 0.0 0.0 0.0 0.0 0.0 0.0 0.0 0.0 0.0 0.0 0.0 0.0 0.0 0.0 0.0 0.0 0.0 0.0 0.0 0.0 0.0 0.0 0.0 0.0 0.0 0.0 0.0 0.0 0.0 0.0 0.0 0.0 0.0 0.0 0.0 0.0 0.0 0.0 0.0 0.0 0.0 0.0 0.0 0.0 0.0 0.0 0.0 0.0 0.0 0.0 0.0 0.0 0.0 0.0 0.0 0.0 0.0 0.0 0.0 0.0 0.0 0.0 0.0 0.0 0.0 0.0 0.0 0.0 0.0 0.0 0.0 0.0 0.0 0.0 0.0 0.0 0.0 0.0 0.0 0.0 0.0 0.0 0.0 0.0 0.0 0.0 0.0 0.0 0.0 0.0 0.0 0.0 0.0 0.0 0.0 0.0 0.0 0.0 0.0 0.0 0.0 0.0 0.0 0.0 0.0 0.0 0.0 0.0 0.0 0.0 0.0 0.0 0.0 0.0 0.0 0.0 0.0 0.0 0.0 0.0 0.0 0.0 0.0 0.0 0.0 0.0 0.0 0.0 0.0 0.0 0.0 0.0 0.0 0.0 0.0 0.0 0.0 0.0 0.0 0.0 0.0 0.0 0.0 0.0 0.0 0.0 0.0 0.0 0.0 0.0 0.0 0.0 0.0 0.0 0.0 0.0 0.0 0.0 0.0 0.0 0.0 0.0 0.0 0.0 0.0 0.0 0.0 0.0 0.0 0.0 0.0 0.0 0.0 0.0 0.0 0.0 0.0 0.0 0.0 0.0 0.0 0.0 0.0 0.0 0.0 0.0 0.0 0.0 0.0 0.0 0.0 0.0 0.0 0.0 0.0 0.0 0.0 0.0 0.0 0.0 0.0 0.0 0.0 0.0 0.0 0.0 0.0 0.0 0.0 0.0 0.0 0.0 0.0 0.0 0.0 0.0 0.0 0.0 0.0 0.0 0.0 0.0 0.0 0.0 0.0 0.0 0.0 0.0 0.0 0.0 0.0 0.0 0.0 0.0 0.0 0.0 0.0 0.0 0.0 0.0 0.0 0.0 0.0 0.0 0.0 0.0 0.0 0.0 0.0 0.0 0.0 0.0 0.0 0.0 0.0 0.0 0.0 0.0 0.0 0.0 0.0 0.0 0.0 0.0 0.0 0.0 0.0 0.0 0.0 0.0 0.0 0.0 0.0 0.0 0.0 0.0 0.0 0.0 0.0 0.0 0.0 0.0 0.0 0.0 0.0 0.0 0.0 0.0 0.0 0.0 0.0 0.0 0.0 0.0 0.0 0.0 0.0 0.0 0.0 0.0 0.0 0.0 0.0 0.0 0.0 0.0 0.0 0.0 0.0 0.0 0.0 0.0 0.0 0.0 0.0 0.0 0.0 0.0 0.0 0.0 0.0 0.0 0.0 0.0 0.0 0.0 0.0 0.0 0.0 0.0 0.0 0.0 0.0 0.0 0.0 0.0 0.0 0.0 0.0 0.0 0.0 0.0 0.0 0.0 0.0 0.0 0.0 0.0 0.0 0.0 0.0 0.0 0.0 0.0 0.0 0.0 0.0 0.0 0.0 0.0 0.0 0.0 0.0 0.0 0.0 0.0 0.0 0.0 0.0 0.0 0.0 0.0 0.0 0.0 0.0 0.0 0.0 0.0 0.0 0.0 0.0 0.0 0.0 0.0 0.0 0.0 0.0 0.0 0.0 0.0 0.0 0.0 0.0 0.0 0.0 0.0 0.0 0.0 0.0 0.0 0.0 0.0 0.0 0.0 0.0 0.0 0.0 0.0 0.0 0.0 0.0 0.0 0.0 0.0 0.0 0.0 0.0 0.0 0.0 0.0 0.0 0.0 0.0 0.0 0.0 0.0 0.0 0.0 0.0 0.0 0.0 0.0 0.0 0.0 0.0 0.0 0.0 0.0 0.0 0.0 0.0 0.0 0.0 0.0 0.0 0.0 0.0 0.0 0.0 0.0 0.0 0.0 0.0 0.0 0.0 0.0 0.0 0.0 0.0 0.0 0.0 0.0 0.0 0.0 0.0 0.0 0.0 0.0 0.0 0.0 0.0 0.0 0.0 0.0 0.0 0.0 0.0 0.0 0.0 0.0 0.0 0.0 0.0 0.0 0.0 0.0 0.0 0.0 0.0 0.0 0.0 0.0 0.0 0.0 0.0 0.0 0.0 0.0 0.0 0.0 0.0 0.0 0.0 0.0 0.0 0.0 0.0 0.0 0.0 0.0 0.0 0.0 0.0 0.0 0.0 0.0 0.0 0.0 0.0 0.0 0.0 0.0 0.0 0.0 0.0 0.0 0.0 0.0 0.0 0.0 0.0 0.0 0.0 0.0 0.0 0.0 0.0 0.0 0.0 0.0 0.0 0.0 0.0 0.0 0.0 0.0 0.0 0.0 0.0 0.0 0.0 0.0 0.0 0.0 0.0 0.0 0.0 0.0 0.0 0.0 0.0 0.0 0.0 0.0 0.0 0.0 0.0 0.0 0.0 0.0 0.0 0.0 0.0 0.0 0.0 0.0 0.0 0.0 0.0 0.0 0.0 0.0 0.0 0.0 0.0 0.0 0.0 0.0 0.0 0.0 0.0 0.0 0.0 0.0 0.0 0.0 0.0 0.0 0.0 0.0 0.0 0.0 0.0 0.0 0.0 0.0 0.0 0.0 0.0 0.0 0.0 0.0 0.0 0.0 0.0 0.0 0.0 0.0 0.0 0.0 0.0 0.0 0.0 0.0 0.0 0.0 0.0 0.0 0.0 0.0 0.0 0.0 0.0 0.0 0.0 0.0 0.0 0.0 0.0 0.0 0.0 0.0 0.0 0.0 0.0 0.0 0.0 0.0 0.0 0.0 0.0 0.0 0.0 0.0 0.0 0.0 0.0 0.0 0.0 0.0 0.0 0.0 0.0 0.0 0.0 0.0 0.0 0.0 0.0 0.0 0.0 0.0 0.0 0.0 0.0 0.0 0.0 0.0 0.0 0.0 0.0 0.0 0.0 0.0 0.0 0.0 0.0 0.0 0.0 0.0 0.0 0.0 0.0 0.0 0.0 0.0 0.0 0.0 0.0 0.0 0.0 0.0 0.0 0.0 0.0 0.0 0.0 0.0 0.0 0.0 0.0 0.0 0.0 0.0 0.0 0.0 0.0 0.0 0.0 0.0 0.0 0.0 0.0 0.0 0.0 0.0 0.0 0.0 0.0 0.0 0.0 0.0 0.0 0.0 0.0 0.0 0.0 0.0 0.0 0.0 0.0 0.0 0.0 0.0 0.0 0.0 0.0 0.0 0.0 0.0 0.0 0.0 0.0 0.0 0.0 0.0 0.0 0.0 0.0 0.0 0.0 0.0 0.0 0.0 0.0 0.0 0.0 0.0 0.0 0.0 0.0 0.0 0.0 0.0 0.0 0.0 0.0 0.0 0.0 0.0 0.0 0.0 0.0 0.0 0.0 0.0 0.0 0.0 0.0 0.0 0.0 0.0 0.0 0.0 0.0 0.0 0.0 0.0 0.0 0.0 0.0 0.0 0.0 0.0 0.0 0.0 0.0 0.0 0.0 0.0 0.0 0.0 0.0 0.0 0.0 0.0 0.0 0.0 0.0 0.0 0.0 0.0 0.0 0.0 0.0 0.0 0.0 0.0 0.0 0.0 0.0 0.0 0.0 0.0 0.0 0.0 0.0 0.0 0.0 0.0 0.0 0.0 0.0 0.0 0.0 0.0 0.0 0.0 0.0 0.0 0.0 0.0 0.0 0.0 0.0 0.0 0.0 0.0 0.0 0.0 0.0 0.0 0.0 0.0 0.0 0.0 0.0 0.0 0.0 0.0 0.0 0.0 0.0 0.0 0.0 0.0 0.0 0.0 0.0 0.0 0.0 0.0 0.0 0.0 0.0 0.0 0.0 0.0 0.0 0.0 0.0 0.0 0.0 0.0 0.0 0.0 0.0 0.0 0.0 0.0 0.0 0.0 0.0 0.0 0.0 0.0 0.0 0.0 0.0 0.0 0.0 0.0 0.0 0.0 0.0 0.0 0.0 0.0 0.0 0.0 0.0 0.0 0.0 0.0 0.0 0.0 0.0 0.0 0.0 0.0 0.0 0.0 0.0 0.0 0.0 0.0 0.0 0.0 0.0 0.0 0.0 0.0 0.0 0.0 0.0 0.0 0.0 0.0 0.0 0.0 0.0 0.0 0.0 0.0 0.0 0.0 0.0 0.0 0.0 0.0 0.0 0.0 0.0 0.0 0.0 0.0 0.0 0.0 0.0 0.0 0.0 0.0 0.0 0.0 0.0 0.0 0.0 0.0 0.0 0.0 0.0 0.0 0.0 0.0 0.0 0.0 0.0 0.0 0.0 0.0 0.0 0.0 0.0 0.0 0.0 0.0 0.0 0.0 0.0 0.0 0.0 0.0 0.0 0.0 0.0 0.0 0.0 0.0 0.0 0.0 0.0 0.0 0.0 0.0 0.0 0.0 0.0 0.0 0.0 0.0 0.0 0.0 0.0 0.0 0.0 0.0 0.0 0.0 0.0 0.0 0.0 0.0 0.0 0.0 0.0 0.0 0.0 0.0 0.0 0.0 0.0 0.0 0.0 0.0 0.0 0.0 0.0 0.0 0.0 0.0 0.0 0.0 0.0 0.0 0.0 0.0 0.0 0.0 0.0 0.0 0.0 0.0 0.0 0.0 0.0 0.0 0.0 0.0 0.0 0.0 0.0 0.0 0.0 0.0 0.0 0.0 0.0 0.0 0.0 0.0 0.0 0.0 0.0 0.0 0.0 0.0 0.0 0.0 0.0 0.0 0.0 0.0 0.0 0.0 0.0 0.0 0.0 0.0 0.0 0.0 0.0 0.0 0.0 0.0 0.0 0.0 0.0 0.0 0.0 0.0 0.0 0.0 0.0 0.0 0.0 0.0 0.0 0.0 0.0 0.0 0.0 0.0 0.0 0.0 0.0 0.0 0.0 0.0 0.0 0.0 0.0 0.0 0.0 0.0 0.0 0.0 0.0 0.0 0.0 0.0 0.0 0.0 0.0 0.0 0.0 0.0 0.0 0.0 0.0 0.0 0.0 0.0 0.0 0.0 0.0 0.0 0.0 0.0 0.0 0.0 0.0 0.0 0.0 0.0 0.0 0.0 0.0 0.0 0.0 0.0 0.0 0.0 0.0 0.0 0.0 0.0 0.0 0.0 0.0 0.0 0.0 0.0 0.0 0.0 0.0 0.0 0.0 0.0 0.0 0.0 0.0 0.0 0.0 0.0 0.0
    </DataArray>
    <DataArray type="Float32" Name="Ion drift flux Density [Am^-2]" NumberOfComponents="3" format="ascii">
0.0 0.0 0.0 0.0 0.0 0.0 0.0 0.0 0.0 0.0 0.0 0.0 0.0 0.0 0.0 0.0 0.0 0.0 0.0 0.0 0.0 0.0 0.0 0.0 0.0 0.0 0.0 0.0 0.0 0.0 0.0 0.0 0.0 0.0 0.0 0.0 0.0 0.0 0.0 0.0 0.0 0.0 0.0 0.0 0.0 0.0 0.0 0.0 0.0 0.0 0.0 0.0 0.0 0.0 0.0 0.0 0.0 0.0 0.0 0.0 0.0 0.0 0.0 0.0 0.0 0.0 0.0 0.0 0.0 0.0 0.0 0.0 0.0 0.0 0.0 0.0 0.0 0.0 0.0 0.0 0.0 0.0 0.0 0.0 0.0 0.0 0.0 0.0 0.0 0.0 0.0 0.0 0.0 0.0 0.0 0.0 0.0 0.0 0.0 0.0 0.0 0.0 0.0 0.0 0.0 0.0 0.0 0.0 0.0 0.0 0.0 0.0 0.0 0.0 0.0 0.0 0.0 0.0 0.0 0.0 0.0 0.0 0.0 0.0 0.0 0.0 0.0 0.0 0.0 0.0 0.0 0.0 0.0 0.0 0.0 0.0 0.0 0.0 0.0 0.0 0.0 0.0 0.0 0.0 0.0 0.0 0.0 0.0 0.0 0.0 0.0 0.0 0.0 0.0 0.0 0.0 0.0 0.0 0.0 0.0 0.0 0.0 0.0 0.0 0.0 0.0 0.0 0.0 0.0 0.0 0.0 0.0 0.0 0.0 0.0 0.0 0.0 0.0 0.0 0.0 0.0 0.0 0.0 0.0 0.0 0.0 0.0 0.0 0.0 0.0 0.0 0.0 0.0 0.0 0.0 0.0 0.0 0.0 0.0 0.0 0.0 0.0 0.0 0.0 0.0 0.0 0.0 0.0 0.0 0.0 0.0 0.0 0.0 0.0 0.0 0.0 0.0 0.0 0.0 0.0 0.0 0.0 0.0 0.0 0.0 0.0 0.0 0.0 0.0 0.0 0.0 0.0 0.0 0.0 0.0 0.0 0.0 0.0 0.0 0.0 0.0 0.0 0.0 0.0 0.0 0.0 0.0 0.0 0.0 0.0 0.0 0.0 0.0 0.0 0.0 0.0 0.0 0.0 0.0 0.0 0.0 0.0 0.0 0.0 0.0 0.0 0.0 0.0 0.0 0.0 0.0 0.0 0.0 0.0 0.0 0.0 0.0 0.0 0.0 0.0 0.0 0.0 0.0 0.0 0.0 0.0 0.0 0.0 0.0 0.0 0.0 0.0 0.0 0.0 0.0 0.0 0.0 0.0 0.0 0.0 0.0 0.0 0.0 0.0 0.0 0.0 0.0 0.0 0.0 0.0 0.0 0.0 0.0 0.0 0.0 0.0 0.0 0.0 0.0 0.0 0.0 0.0 0.0 0.0 0.0 0.0 0.0 0.0 0.0 0.0 0.0 0.0 0.0 0.0 0.0 0.0 0.0 0.0 0.0 0.0 0.0 0.0 0.0 0.0 0.0 0.0 0.0 0.0 0.0 0.0 0.0 0.0 0.0 0.0 0.0 0.0 0.0 0.0 0.0 0.0 0.0 0.0 0.0 0.0 0.0 0.0 0.0 0.0 0.0 0.0 0.0 0.0 0.0 0.0 0.0 0.0 0.0 0.0 0.0 0.0 0.0 0.0 0.0 0.0 0.0 0.0 0.0 0.0 0.0 0.0 0.0 0.0 0.0 0.0 0.0 0.0 0.0 0.0 0.0 0.0 0.0 0.0 0.0 0.0 0.0 0.0 0.0 0.0 0.0 0.0 0.0 0.0 0.0 0.0 0.0 0.0 0.0 0.0 0.0 0.0 0.0 0.0 0.0 0.0 0.0 0.0 0.0 0.0 0.0 0.0 0.0 0.0 0.0 0.0 0.0 0.0 0.0 0.0 0.0 0.0 0.0 0.0 0.0 0.0 0.0 0.0 0.0 0.0 0.0 0.0 0.0 0.0 0.0 0.0 0.0 0.0 0.0 0.0 0.0 0.0 0.0 0.0 0.0 0.0 0.0 0.0 0.0 0.0 0.0 0.0 0.0 0.0 0.0 0.0 0.0 0.0 0.0 0.0 0.0 0.0 0.0 0.0 0.0 0.0 0.0 0.0 0.0 0.0 0.0 0.0 0.0 0.0 0.0 0.0 0.0 0.0 0.0 0.0 0.0 0.0 0.0 0.0 0.0 0.0 0.0 0.0 0.0 0.0 0.0 0.0 0.0 0.0 0.0 0.0 0.0 0.0 0.0 0.0 0.0 0.0 0.0 0.0 0.0 0.0 0.0 0.0 0.0 0.0 0.0 0.0 0.0 0.0 0.0 0.0 0.0 0.0 0.0 0.0 0.0 0.0 0.0 0.0 0.0 0.0 0.0 0.0 0.0 0.0 0.0 0.0 0.0 0.0 0.0 0.0 0.0 0.0 0.0 0.0 0.0 0.0 0.0 0.0 0.0 0.0 0.0 0.0 0.0 0.0 0.0 0.0 0.0 0.0 0.0 0.0 0.0 0.0 0.0 0.0 0.0 0.0 0.0 0.0 0.0 0.0 0.0 0.0 0.0 0.0 0.0 0.0 0.0 0.0 0.0 0.0 0.0 0.0 0.0 0.0 0.0 0.0 0.0 0.0 0.0 0.0 0.0 0.0 0.0 0.0 0.0 0.0 0.0 0.0 0.0 0.0 0.0 0.0 0.0 0.0 0.0 0.0 0.0 0.0 0.0 0.0 0.0 0.0 0.0 0.0 0.0 0.0 0.0 0.0 0.0 0.0 0.0 0.0 0.0 0.0 0.0 0.0 0.0 0.0 0.0 0.0 0.0 0.0 0.0 0.0 0.0 0.0 0.0 0.0 0.0 0.0 0.0 0.0 0.0 0.0 0.0 0.0 0.0 0.0 0.0 0.0 0.0 0.0 0.0 0.0 0.0 0.0 0.0 0.0 0.0 0.0 0.0 0.0 0.0 0.0 0.0 0.0 0.0 0.0 0.0 0.0 0.0 0.0 0.0 0.0 0.0 0.0 0.0 0.0 0.0 0.0 0.0 0.0 0.0 0.0 0.0 0.0 0.0 0.0 0.0 0.0 0.0 0.0 0.0 0.0 0.0 0.0 0.0 0.0 0.0 0.0 0.0 0.0 0.0 0.0 0.0 0.0 0.0 0.0 0.0 0.0 0.0 0.0 0.0 0.0 0.0 0.0 0.0 0.0 0.0 0.0 0.0 0.0 0.0 0.0 0.0 0.0 0.0 0.0 0.0 0.0 0.0 0.0 0.0 0.0 0.0 0.0 0.0 0.0 0.0 0.0 0.0 0.0 0.0 0.0 0.0 0.0 0.0 0.0 0.0 0.0 0.0 0.0 0.0 0.0 0.0 0.0 0.0 0.0 0.0 0.0 0.0 0.0 0.0 0.0 0.0 0.0 0.0 0.0 0.0 0.0 0.0 0.0 0.0 0.0 0.0 0.0 0.0 0.0 0.0 0.0 0.0 0.0 0.0 0.0 0.0 0.0 0.0 0.0 0.0 0.0 0.0 0.0 0.0 0.0 0.0 0.0 0.0 0.0 0.0 0.0 0.0 0.0 0.0 0.0 0.0 0.0 0.0 0.0 0.0 0.0 0.0 0.0 0.0 0.0 0.0 0.0 0.0 0.0 0.0 0.0 0.0 0.0 0.0 0.0 0.0 0.0 0.0 0.0 0.0 0.0 0.0 0.0 0.0 0.0 0.0 0.0 0.0 0.0 0.0 0.0 0.0 0.0 0.0 0.0 0.0 0.0 0.0 0.0 0.0 0.0 0.0 0.0 0.0 0.0 0.0 0.0 0.0 0.0 0.0 0.0 0.0 0.0 0.0 0.0 0.0 0.0 0.0 0.0 0.0 0.0 0.0 0.0 0.0 0.0 0.0 0.0 0.0 0.0 0.0 0.0 0.0 0.0 0.0 0.0 0.0 0.0 0.0 0.0 0.0 0.0 0.0 0.0 0.0 0.0 0.0 0.0 0.0 0.0 0.0 0.0 0.0 0.0 0.0 0.0 0.0 0.0 0.0 0.0 0.0 0.0 0.0 0.0 0.0 0.0 0.0 0.0 0.0 0.0 0.0 0.0 0.0 0.0 0.0 0.0 0.0 0.0 0.0 0.0 0.0 0.0 0.0 0.0 0.0 0.0 0.0 0.0 0.0 0.0 0.0 0.0 0.0 0.0 0.0 0.0 0.0 0.0 0.0 0.0 0.0 0.0 0.0 0.0 0.0 0.0 0.0 0.0 0.0 0.0 0.0 0.0 0.0 0.0 0.0 0.0 0.0 0.0 0.0 0.0 0.0 0.0 0.0 0.0 0.0 0.0 0.0 0.0 0.0 0.0 0.0 0.0 0.0 0.0 0.0 0.0 0.0 0.0 0.0 0.0 0.0 0.0 0.0 0.0 0.0 0.0 0.0 0.0 0.0 0.0 0.0 0.0 0.0 0.0 0.0 0.0 0.0 0.0 0.0 0.0 0.0 0.0 0.0 0.0 0.0 0.0 0.0 0.0 0.0 0.0 0.0 0.0 0.0 0.0 0.0 0.0 0.0 0.0 0.0 0.0 0.0 0.0 0.0 0.0 0.0 0.0 0.0 0.0 0.0 0.0 0.0 0.0 0.0 0.0 0.0 0.0 0.0 0.0 0.0 0.0 0.0 0.0 0.0 0.0 0.0 0.0 0.0 0.0 0.0 0.0 0.0 0.0 0.0 0.0 0.0 0.0 0.0 0.0 0.0 0.0 0.0 0.0 0.0 0.0 0.0 0.0 0.0 0.0 0.0 0.0 0.0 0.0 0.0 0.0 0.0 0.0 0.0 0.0 0.0 0.0 0.0 0.0 0.0 0.0 0.0 0.0 0.0 0.0 0.0 0.0 0.0 0.0 0.0 0.0 0.0 0.0 0.0 0.0 0.0 0.0 0.0 0.0 0.0 0.0 0.0 0.0 0.0 0.0 0.0 0.0 0.0 0.0 0.0 0.0 0.0 0.0 0.0 0.0 0.0 0.0 0.0 0.0 0.0 0.0 0.0 0.0 0.0 0.0 0.0 0.0 0.0 0.0 0.0 0.0 0.0 0.0 0.0 0.0 0.0 0.0 0.0 0.0 0.0 0.0 0.0 0.0 0.0 0.0 0.0 0.0 0.0 0.0 0.0 0.0 0.0 0.0 0.0 0.0 0.0 0.0 0.0 0.0 0.0 0.0 0.0 0.0 0.0 0.0 0.0 0.0 0.0 0.0 0.0 0.0 0.0 0.0 0.0 0.0 0.0 0.0 0.0 0.0 0.0 0.0 0.0 0.0 0.0 0.0 0.0 0.0 0.0 0.0 0.0 0.0 0.0 0.0 0.0 0.0 0.0 0.0 0.0 0.0
    </DataArray>
    <DataArray type="Float32" Name="Ion soret flux Density [Am^-2]" NumberOfComponents="3" format="ascii">
0.0 0.0 0.0 0.0 0.0 0.0 0.0 0.0 0.0 0.0 0.0 0.0 0.0 0.0 0.0 0.0 0.0 0.0 0.0 0.0 0.0 0.0 0.0 0.0 0.0 0.0 0.0 0.0 0.0 0.0 0.0 0.0 0.0 0.0 0.0 0.0 0.0 0.0 0.0 0.0 0.0 0.0 0.0 0.0 0.0 0.0 0.0 0.0 0.0 0.0 0.0 0.0 0.0 0.0 0.0 0.0 0.0 0.0 0.0 0.0 0.0 0.0 0.0 0.0 0.0 0.0 0.0 0.0 0.0 0.0 0.0 0.0 0.0 0.0 0.0 0.0 0.0 0.0 0.0 0.0 0.0 0.0 0.0 0.0 0.0 0.0 0.0 0.0 0.0 0.0 0.0 0.0 0.0 0.0 0.0 0.0 0.0 0.0 0.0 0.0 0.0 0.0 0.0 0.0 0.0 0.0 0.0 0.0 0.0 0.0 0.0 0.0 0.0 0.0 0.0 0.0 0.0 0.0 0.0 0.0 0.0 0.0 0.0 0.0 0.0 0.0 0.0 0.0 0.0 0.0 0.0 0.0 0.0 0.0 0.0 0.0 0.0 0.0 0.0 0.0 0.0 0.0 0.0 0.0 0.0 0.0 0.0 0.0 0.0 0.0 0.0 0.0 0.0 0.0 0.0 0.0 0.0 0.0 0.0 0.0 0.0 0.0 0.0 0.0 0.0 0.0 0.0 0.0 0.0 0.0 0.0 0.0 0.0 0.0 0.0 0.0 0.0 0.0 0.0 0.0 0.0 0.0 0.0 0.0 0.0 0.0 0.0 0.0 0.0 0.0 0.0 0.0 0.0 0.0 0.0 0.0 0.0 0.0 0.0 0.0 0.0 0.0 0.0 0.0 0.0 0.0 0.0 0.0 0.0 0.0 0.0 0.0 0.0 0.0 0.0 0.0 0.0 0.0 0.0 0.0 0.0 0.0 0.0 0.0 0.0 0.0 0.0 0.0 0.0 0.0 0.0 0.0 0.0 0.0 0.0 0.0 0.0 0.0 0.0 0.0 0.0 0.0 0.0 0.0 0.0 0.0 0.0 0.0 0.0 0.0 0.0 0.0 0.0 0.0 0.0 0.0 0.0 0.0 0.0 0.0 0.0 0.0 0.0 0.0 0.0 0.0 0.0 0.0 0.0 0.0 0.0 0.0 0.0 0.0 0.0 0.0 0.0 0.0 0.0 0.0 0.0 0.0 0.0 0.0 0.0 0.0 0.0 0.0 0.0 0.0 0.0 0.0 0.0 0.0 0.0 0.0 0.0 0.0 0.0 0.0 0.0 0.0 0.0 0.0 0.0 0.0 0.0 0.0 0.0 0.0 0.0 0.0 0.0 0.0 0.0 0.0 0.0 0.0 0.0 0.0 0.0 0.0 0.0 0.0 0.0 0.0 0.0 0.0 0.0 0.0 0.0 0.0 0.0 0.0 0.0 0.0 0.0 0.0 0.0 0.0 0.0 0.0 0.0 0.0 0.0 0.0 0.0 0.0 0.0 0.0 0.0 0.0 0.0 0.0 0.0 0.0 0.0 0.0 0.0 0.0 0.0 0.0 0.0 0.0 0.0 0.0 0.0 0.0 0.0 0.0 0.0 0.0 0.0 0.0 0.0 0.0 0.0 0.0 0.0 0.0 0.0 0.0 0.0 0.0 0.0 0.0 0.0 0.0 0.0 0.0 0.0 0.0 0.0 0.0 0.0 0.0 0.0 0.0 0.0 0.0 0.0 0.0 0.0 0.0 0.0 0.0 0.0 0.0 0.0 0.0 0.0 0.0 0.0 0.0 0.0 0.0 0.0 0.0 0.0 0.0 0.0 0.0 0.0 0.0 0.0 0.0 0.0 0.0 0.0 0.0 0.0 0.0 0.0 0.0 0.0 0.0 0.0 0.0 0.0 0.0 0.0 0.0 0.0 0.0 0.0 0.0 0.0 0.0 0.0 0.0 0.0 0.0 0.0 0.0 0.0 0.0 0.0 0.0 0.0 0.0 0.0 0.0 0.0 0.0 0.0 0.0 0.0 0.0 0.0 0.0 0.0 0.0 0.0 0.0 0.0 0.0 0.0 0.0 0.0 0.0 0.0 0.0 0.0 0.0 0.0 0.0 0.0 0.0 0.0 0.0 0.0 0.0 0.0 0.0 0.0 0.0 0.0 0.0 0.0 0.0 0.0 0.0 0.0 0.0 0.0 0.0 0.0 0.0 0.0 0.0 0.0 0.0 0.0 0.0 0.0 0.0 0.0 0.0 0.0 0.0 0.0 0.0 0.0 0.0 0.0 0.0 0.0 0.0 0.0 0.0 0.0 0.0 0.0 0.0 0.0 0.0 0.0 0.0 0.0 0.0 0.0 0.0 0.0 0.0 0.0 0.0 0.0 0.0 0.0 0.0 0.0 0.0 0.0 0.0 0.0 0.0 0.0 0.0 0.0 0.0 0.0 0.0 0.0 0.0 0.0 0.0 0.0 0.0 0.0 0.0 0.0 0.0 0.0 0.0 0.0 0.0 0.0 0.0 0.0 0.0 0.0 0.0 0.0 0.0 0.0 0.0 0.0 0.0 0.0 0.0 0.0 0.0 0.0 0.0 0.0 0.0 0.0 0.0 0.0 0.0 0.0 0.0 0.0 0.0 0.0 0.0 0.0 0.0 0.0 0.0 0.0 0.0 0.0 0.0 0.0 0.0 0.0 0.0 0.0 0.0 0.0 0.0 0.0 0.0 0.0 0.0 0.0 0.0 0.0 0.0 0.0 0.0 0.0 0.0 0.0 0.0 0.0 0.0 0.0 0.0 0.0 0.0 0.0 0.0 0.0 0.0 0.0 0.0 0.0 0.0 0.0 0.0 0.0 0.0 0.0 0.0 0.0 0.0 0.0 0.0 0.0 0.0 0.0 0.0 0.0 0.0 0.0 0.0 0.0 0.0 0.0 0.0 0.0 0.0 0.0 0.0 0.0 0.0 0.0 0.0 0.0 0.0 0.0 0.0 0.0 0.0 0.0 0.0 0.0 0.0 0.0 0.0 0.0 0.0 0.0 0.0 0.0 0.0 0.0 0.0 0.0 0.0 0.0 0.0 0.0 0.0 0.0 0.0 0.0 0.0 0.0 0.0 0.0 0.0 0.0 0.0 0.0 0.0 0.0 0.0 0.0 0.0 0.0 0.0 0.0 0.0 0.0 0.0 0.0 0.0 0.0 0.0 0.0 0.0 0.0 0.0 0.0 0.0 0.0 0.0 0.0 0.0 0.0 0.0 0.0 0.0 0.0 0.0 0.0 0.0 0.0 0.0 0.0 0.0 0.0 0.0 0.0 0.0 0.0 0.0 0.0 0.0 0.0 0.0 0.0 0.0 0.0 0.0 0.0 0.0 0.0 0.0 0.0 0.0 0.0 0.0 0.0 0.0 0.0 0.0 0.0 0.0 0.0 0.0 0.0 0.0 0.0 0.0 0.0 0.0 0.0 0.0 0.0 0.0 0.0 0.0 0.0 0.0 0.0 0.0 0.0 0.0 0.0 0.0 0.0 0.0 0.0 0.0 0.0 0.0 0.0 0.0 0.0 0.0 0.0 0.0 0.0 0.0 0.0 0.0 0.0 0.0 0.0 0.0 0.0 0.0 0.0 0.0 0.0 0.0 0.0 0.0 0.0 0.0 0.0 0.0 0.0 0.0 0.0 0.0 0.0 0.0 0.0 0.0 0.0 0.0 0.0 0.0 0.0 0.0 0.0 0.0 0.0 0.0 0.0 0.0 0.0 0.0 0.0 0.0 0.0 0.0 0.0 0.0 0.0 0.0 0.0 0.0 0.0 0.0 0.0 0.0 0.0 0.0 0.0 0.0 0.0 0.0 0.0 0.0 0.0 0.0 0.0 0.0 0.0 0.0 0.0 0.0 0.0 0.0 0.0 0.0 0.0 0.0 0.0 0.0 0.0 0.0 0.0 0.0 0.0 0.0 0.0 0.0 0.0 0.0 0.0 0.0 0.0 0.0 0.0 0.0 0.0 0.0 0.0 0.0 0.0 0.0 0.0 0.0 0.0 0.0 0.0 0.0 0.0 0.0 0.0 0.0 0.0 0.0 0.0 0.0 0.0 0.0 0.0 0.0 0.0 0.0 0.0 0.0 0.0 0.0 0.0 0.0 0.0 0.0 0.0 0.0 0.0 0.0 0.0 0.0 0.0 0.0 0.0 0.0 0.0 0.0 0.0 0.0 0.0 0.0 0.0 0.0 0.0 0.0 0.0 0.0 0.0 0.0 0.0 0.0 0.0 0.0 0.0 0.0 0.0 0.0 0.0 0.0 0.0 0.0 0.0 0.0 0.0 0.0 0.0 0.0 0.0 0.0 0.0 0.0 0.0 0.0 0.0 0.0 0.0 0.0 0.0 0.0 0.0 0.0 0.0 0.0 0.0 0.0 0.0 0.0 0.0 0.0 0.0 0.0 0.0 0.0 0.0 0.0 0.0 0.0 0.0 0.0 0.0 0.0 0.0 0.0 0.0 0.0 0.0 0.0 0.0 0.0 0.0 0.0 0.0 0.0 0.0 0.0 0.0 0.0 0.0 0.0 0.0 0.0 0.0 0.0 0.0 0.0 0.0 0.0 0.0 0.0 0.0 0.0 0.0 0.0 0.0 0.0 0.0 0.0 0.0 0.0 0.0 0.0 0.0 0.0 0.0 0.0 0.0 0.0 0.0 0.0 0.0 0.0 0.0 0.0 0.0 0.0 0.0 0.0 0.0 0.0 0.0 0.0 0.0 0.0 0.0 0.0 0.0 0.0 0.0 0.0 0.0 0.0 0.0 0.0 0.0 0.0 0.0 0.0 0.0 0.0 0.0 0.0 0.0 0.0 0.0 0.0 0.0 0.0 0.0 0.0 0.0 0.0 0.0 0.0 0.0 0.0 0.0 0.0 0.0 0.0 0.0 0.0 0.0 0.0 0.0 0.0 0.0 0.0 0.0 0.0 0.0 0.0 0.0 0.0 0.0 0.0 0.0 0.0 0.0 0.0 0.0 0.0 0.0 0.0 0.0 0.0 0.0 0.0 0.0 0.0 0.0 0.0 0.0 0.0 0.0 0.0 0.0 0.0 0.0 0.0 0.0 0.0 0.0 0.0 0.0 0.0 0.0 0.0 0.0 0.0 0.0 0.0 0.0 0.0 0.0 0.0 0.0 0.0 0.0 0.0 0.0 0.0 0.0 0.0 0.0 0.0 0.0 0.0 0.0 0.0 0.0 0.0 0.0 0.0 0.0 0.0 0.0 0.0 0.0 0.0 0.0 0.0 0.0 0.0 0.0 0.0 0.0 0.0 0.0 0.0 0.0 0.0 0.0 0.0 0.0 0.0 0.0 0.0 0.0 0.0 0.0 0.0 0.0 0.0
    </DataArray>
    <DataArray type="Float32" Name="Power density [Wm^-3]" NumberOfComponents="1" format="ascii">
1.1938969797090522e+18 0.0 0.0 0.0 0.0 0.0 0.0 0.0 8.592886912728675e+17 0.0 0.0 0.0 0.0 0.0 0.0 0.0 7.836501240467987e+17 0.0 0.0 0.0 0.0 0.0 0.0 0.0 6.777072339881787e+17 0.0 0.0 0.0 0.0 0.0 0.0 0.0 5.5396298580459795e+17 0.0 0.0 0.0 0.0 0.0 0.0 0.0 4.258305586110269e+17 0.0 0.0 0.0 0.0 0.0 0.0 0.0 3.0572978715367846e+17 0.0 0.0 0.0 0.0 0.0 0.0 0.0 2.0281976401015587e+17 0.0 0.0 0.0 0.0 0.0 0.0 0.0 1.2495686118463643e+17 0.0 0.0 0.0 0.0 0.0 0.0 0.0 7.584489140205038e+16 0.0 0.0 0.0 0.0 0.0 0.0 0.0 4.444739216435528e+16 0.0 0.0 0.0 0.0 0.0 0.0 0.0 2.59243173447616e+16 0.0 0.0 0.0 0.0 0.0 0.0 0.0 1.52987241118941e+16 0.0 0.0 0.0 0.0 0.0 0.0 0.0 9224066813294592.0 0.0 0.0 0.0 0.0 0.0 0.0 0.0 5721626959457345.0 0.0 0.0 0.0 0.0 0.0 0.0 0.0 3672835032651593.0 0.0 0.0 0.0 0.0 0.0 0.0 0.0 2453163460092714.0 0.0 0.0 0.0 0.0 0.0 0.0 0.0 1713084471339422.0 0.0 0.0 0.0 0.0 0.0 0.0 0.0 1255088381731953.5 0.0 0.0 0.0 0.0 0.0 0.0 0.0 966027244984881.2 0.0 0.0 0.0 0.0 0.0 0.0 0.0 779998099675784.9 0.0 0.0 0.0 0.0 0.0 0.0 0.0 657910183293554.2 0.0 0.0 0.0 0.0 0.0 0.0 0.0 576148819679187.2 0.0 0.0 0.0 0.0 0.0 0.0 0.0 520204989993150.75 0.0 0.0 0.0 0.0 0.0 0.0 0.0 481031477510301.8 0.0 0.0 0.0 0.0 0.0 0.0 0.0 410072809104900.94 0.0 0.0 0.0 0.0 0.0 0.0 0.0 447065540402506.5 0.0 0.0 0.0 0.0 0.0 0.0 0.0 428052378182857.0 0.0 0.0 0.0 0.0 0.0 0.0 0.0 413538378170214.6 0.0 0.0 0.0 0.0 0.0 0.0 0.0 402183342303865.5 0.0 0.0 0.0 0.0 0.0 0.0 0.0 393098921700930.0 0.0 0.0 0.0 0.0 0.0 0.0 0.0 385687767377445.44 0.0 0.0 0.0 0.0 0.0 0.0 0.0 379541476074816.3 0.0 0.0 0.0 0.0 0.0 0.0 0.0 374375500513584.9 0.0 0.0 0.0 0.0 0.0 0.0 0.0 369987415662531.2 0.0 0.0 0.0 0.0 0.0 0.0 0.0 366229999667647.06 0.0 0.0 0.0 0.0 0.0 0.0 0.0 362993745343937.1 0.0 0.0 0.0 0.0 0.0 0.0 0.0 360195398639841.2 0.0 0.0 0.0 0.0 0.0 0.0 0.0 357770367535171.75 0.0 0.0 0.0 0.0 0.0 0.0 0.0 355667631596805.9 0.0 0.0 0.0 0.0 0.0 0.0 0.0 353846279773621.06 0.0 0.0 0.0 0.0 0.0 0.0 0.0 352273118563467.6 0.0 0.0 0.0 0.0 0.0 0.0 0.0 350920992084053.56 0.0 0.0 0.0 0.0 0.0 0.0 0.0 349767582368771.8 0.0 0.0 0.0 0.0 0.0 0.0 0.0 348794539053918.7 0.0 0.0 0.0 0.0 0.0 0.0 0.0 347986839435766.9 0.0 0.0 0.0 0.0 0.0 0.0 0.0 347332313323644.75 0.0 0.0 0.0 0.0 0.0 0.0 0.0 346821288888277.6 0.0 0.0 0.0 0.0 0.0 0.0 0.0 346446330056859.1 0.0 0.0 0.0 0.0 0.0 0.0 0.0 346202045626154.7 0.0 0.0 0.0 0.0 0.0 0.0 0.0 461446609136649.3 0.0 0.0 0.0 0.0 0.0 0.0 0.0
    </DataArray>
    <DataArray type="Float32" Name="Temperature [K]" NumberOfComponents="1" format="ascii">
330.4737978389295 326.3533163374828 322.2291142649895 318.0781282308123 313.8606143274302 309.51430103128996 304.9437745704874 300.0 330.1837054783017 326.128788094665 322.0595495327282 317.95412825223065 313.77432548137045 309.4596956439784 304.91699214128903 300.0 329.3366807824925 325.4717100482792 321.5621442604824 317.58955672173 313.52011206017886 309.29855636829 304.8378667964339 300.0 327.99984543333625 324.4295199013859 320.76937089240363 317.0058393053705 313.1114369950161 309.0386508898958 304.7099521682416 300.0 326.2746831859837 323.0742816170844 319.7308684054742 316.2359510380453 312.56915961193073 308.69208705794796 304.53881252169066 300.0 324.2825594942648 321.49331306329407 318.5074997761391 315.3207807303712 311.91942223958876 308.2741827620878 304.3315367066417 300.0 322.1494296310279 319.77878058030586 317.16456053627815 314.3048960091316 311.19115272758205 307.80211448721974 304.09615162842675 300.0 319.9920361399542 318.0179143469164 315.7651856637476 313.23233321474794 310.4135331624368 307.29352402499575 303.84100933680895 300.0 317.9068076116596 316.28501134220363 314.3647926425542 312.1429615410533 309.61375996487175 306.7652544326273 303.5742194028391 300.0 315.9666933435444 314.63614986232506 313.00713247414666 311.0698409722601 308.81535293781354 306.2323526359686 303.30318495668877 300.0 314.19816295455865 313.1033472488527 311.7220850785488 310.0378586595792 308.0371763365591 305.70742315462974 303.0342792069975 300.0 312.60967548386964 311.701917951425 310.52745518221695 309.0639515291506 307.29321533415447 305.2003505564729 302.7726731680444 300.0 311.1953681282734 310.4350595207302 309.4315184271727 308.15818934470065 306.5929138573151 304.71833381239327 302.52230003411785 300.0 309.9420194471853 309.2983444121726 308.4357405133548 307.3252244126623 305.9418420810985 304.2661396464896 302.2859252756308 300.0 308.8337865422942 308.28323267253535 307.5371664428332 306.56575380927126 305.3424917850632 303.84647813553545 302.0652856600315 300.0 307.85468486411577 307.37938234931335 306.7302461273581 305.8777879735216 304.795056413934 303.46041990214195 301.8612628168507 300.0 306.9897125188465 306.57601601429354 306.00810441702174 305.257649947164 304.2981149530078 303.1077985643858 301.6740641634672 300.0 306.2252762711367 305.8626674458697 305.3633681200414 304.7007111430516 303.84918783989497 302.78756589863826 301.5033927238263 300.0 305.54928228249287 305.2295547400217 304.7886760444563 304.2019059663146 303.4451642239277 302.498085854119 301.3485953759764 300.0 304.95107461703964 304.66773857375387 304.27697577480916 303.7560760093153 303.0826157187289 302.2373660044149 301.20878527164734 300.0 304.42131118390785 304.16916109333397 303.82168240710206 303.35818975741967 302.7580174640836 302.00323206402965 301.08293836260003 300.0 303.9518206069433 303.7266211641303 303.4167504899923 303.0034746679974 302.46789732086165 301.79345424126984 300.9699664101779 300.0 303.5354606066658 303.333718024162 303.0566929226978 302.68748933089574 302.2089314351023 301.6058348899346 300.86876999328445 300.0 303.1659869809788 302.98478150789157 302.7365685887592 302.4061557308384 301.9780010042471 301.4382662706652 300.7782753100475 300.0 302.83793649944107 302.6747989294134 302.4519525738929 302.15576570372116 301.772221756063 301.28876597904326 300.69745834889414 300.0 302.5465241932115 302.3993440284642 302.19889765053244 301.9329713159036 301.5889547829063 301.1554961841672 300.62535954093653 300.0 302.2875542103389 302.15451067930616 301.9738923796641 301.7347657738395 301.4258050591397 301.03677148356184 300.56109146090614 300.0 302.05734287535194 301.9368525193655 301.77381904560184 301.5584592780274 301.2806121777254 300.93105902258026 300.5038416124097 300.0 301.852652454622 301.7433287909827 301.59591327999874 301.40165271410183 301.1514364943314 300.8369735787575 300.45287186180775 300.0 301.67063418037293 301.57125622386195 301.4377263728736 301.26221103002325 301.03654287495016 300.7532695648904 300.40751569092197 300.0 301.5087792196385 301.41826655176214 301.29709073277047 301.13823743918783 300.93438352475255 300.6788313328595 300.36717412275783 300.0 301.3648764349868 301.2822691564739 301.17208863028264 301.02804911288507 300.84358086374965 300.61266273225345 300.33131092882354 300.0 301.2369759441653 301.16141830699576 301.06102416461323 300.9301547098866 300.7629110549213 300.5538765637218 300.2994475404955 300.0 301.1233576334637 301.054084477606 300.96239828336604 300.8432338856382 300.6912885413825 300.50168434047407 300.2711579488292 300.0 301.0225039098254 300.95882926496665 300.8748866300743 300.7661187934468 300.6277517797851 300.45538661088483 300.2460637768251 300.0 300.93307608880946 300.87438346971834 300.7973199718024 300.69777751085866 300.5714502444792 300.4143639836304 300.2238296365518 300.0 300.8538939105707 300.79962795557526 300.7286669573543 300.6372992792971 300.5216327041806 300.37806892093914 300.2041588334916 300.0 300.7839177560447 300.7335769450803 300.668018966751 300.58388142240665 300.4776367278583 300.346018315379 300.18678944632273 300.0 300.72223320261594 300.67536345413373 300.614576829289 300.53681780051954 300.43887935056966 300.317786833673 300.17149078772275 300.0 300.66803761478536 300.62422660639197 300.56763920726274 300.4954886598464 300.40484881685387 300.2930009918579 300.1580602373813 300.0 300.6206285125443 300.57950060348537 300.52659246322185 300.45935174176424 300.3750973147064 300.2713339157106 300.14632042980514 300.0 300.5793934999025 300.54060515788314 300.49090184918276 300.42793452753085 300.34923461406805 300.25250073591394 300.13611677490445 300.0 300.54380156961776 300.50703722245447 300.4601038758198 300.4008275053 300.32692252809505 300.2362545669116 300.12731528747514 300.0 300.5133956287441 300.47836387472626 300.43379973795516 300.3776783584487 300.30787012181406 300.2223830203872 300.1198007016283 300.0 300.48778611406726 300.45421623492376 300.4116496895262 300.35818698632414 300.29182960017135 300.2107052078387 300.11347484731317 300.0 300.4666455875733 300.43428431548887 300.39336827661725 300.34210128021783 300.2785928153456 300.20106919113783 300.1082552678987 300.0 300.4497042204312 300.41831271626756 300.3787203511978 300.3292135884845 300.267988341128 300.19334984483856 300.1040740600126 300.0 300.4367460900764 300.4060970942831 300.3675178010255 300.3193578151829 300.25987906996505 300.18744709905053 300.10087691929334 300.0 300.42760622929507 300.3974813502604 300.3596169429176 300.3124071064191 300.25416029578736 300.18328453675383 300.09862237826 300.0 300.42216837910115 300.3923554861255 300.3549165374221 300.3082720877796 300.25075825297523 300.1808083244194 300.0972812250757 300.0 300.4203634089875 300.3906540988139 300.35335639300985 300.30689962493636 300.24962908875216 300.1799864596636 300.096836094529 300.0
    </DataArray>
   </PointData>
  </Piece>
 </UnstructuredGrid>
</VTKFile>
