1275
  0.0 0.0
  0.0 1.97869400633029
  0.0 3.73753312306832
  0.0 5.30094567127991
  0.0 6.69064571413466
  0.0 7.92593464111665
  0.0 9.02396924287842
  0.0 10.0
  0.0 11.0
  0.0 12.0
  0.0 13.0
  0.0 14.0
  0.0 15.0
  0.0 16.0
  0.0 17.0
  0.0 18.0
  0.0 19.0
  0.0 20.0
  0.0 20.9760307571216
  0.0 22.0740653588834
  0.0 23.3093542858653
  0.0 24.6990543287201
  0.0 26.2624668769317
  0.0 28.0213059936697
  0.0 30.0
  1.0 0.0
  1.0 1.97869400633029
  1.0 3.73753312306832
  1.0 5.30094567127991
  1.0 6.69064571413466
  1.0 7.92593464111665
  1.0 9.02396924287842
  1.0 10.0
  1.0 11.0
  1.0 12.0
  1.0 13.0
  1.0 14.0
  1.0 15.0
  1.0 16.0
  1.0 17.0
  1.0 18.0
  1.0 19.0
  1.0 20.0
  1.0 20.9760307571216
  1.0 22.0740653588834
  1.0 23.3093542858653
  1.0 24.6990543287201
  1.0 26.2624668769317
  1.0 28.0213059936697
  1.0 30.0
  2.0 0.0
  2.0 1.97869400633029
  2.0 3.73753312306832
  2.0 5.30094567127991
  2.0 6.69064571413466
  2.0 7.92593464111665
  2.0 9.02396924287842
  2.0 10.0
  2.0 11.0
  2.0 12.0
  2.0 13.0
  2.0 14.0
  2.0 15.0
  2.0 16.0
  2.0 17.0
  2.0 18.0
  2.0 19.0
  2.0 20.0
  2.0 20.9760307571216
  2.0 22.0740653588834
  2.0 23.3093542858653
  2.0 24.6990543287201
  2.0 26.2624668769317
  2.0 28.0213059936697
  2.0 30.0
  3.0 0.0
  3.0 1.97869400633029
  3.0 3.73753312306832
  3.0 5.30094567127991
  3.0 6.69064571413466
  3.0 7.92593464111665
  3.0 9.02396924287842
  3.0 10.0
  3.0 11.0
  3.0 12.0
  3.0 13.0
  3.0 14.0
  3.0 15.0
  3.0 16.0
  3.0 17.0
  3.0 18.0
  3.0 19.0
  3.0 20.0
  3.0 20.9760307571216
  3.0 22.0740653588834
  3.0 23.3093542858653
  3.0 24.6990543287201
  3.0 26.2624668769317
  3.0 28.0213059936697
  3.0 30.0
  4.0 0.0
  4.0 1.97869400633029
  4.0 3.73753312306832
  4.0 5.30094567127991
  4.0 6.69064571413466
  4.0 7.92593464111665
  4.0 9.02396924287842
  4.0 10.0
  4.0 11.0
  4.0 12.0
  4.0 13.0
  4.0 14.0
  4.0 15.0
  4.0 16.0
  4.0 17.0
  4.0 18.0
  4.0 19.0
  4.0 20.0
  4.0 20.9760307571216
  4.0 22.0740653588834
  4.0 23.3093542858653
  4.0 24.6990543287201
  4.0 26.2624668769317
  4.0 28.0213059936697
  4.0 30.0
  5.0 0.0
  5.0 1.97869400633029
  5.0 3.73753312306832
  5.0 5.30094567127991
  5.0 6.69064571413466
  5.0 7.92593464111665
  5.0 9.02396924287842
  5.0 10.0
  5.0 11.0
  5.0 12.0
  5.0 13.0
  5.0 14.0
  5.0 15.0
  5.0 16.0
  5.0 17.0
  5.0 18.0
  5.0 19.0
  5.0 20.0
  5.0 20.9760307571216
  5.0 22.0740653588834
  5.0 23.3093542858653
  5.0 24.6990543287201
  5.0 26.2624668769317
  5.0 28.0213059936697
  5.0 30.0
  6.0 0.0
  6.0 1.97869400633029
  6.0 3.73753312306832
  6.0 5.30094567127991
  6.0 6.69064571413466
  6.0 7.92593464111665
  6.0 9.02396924287842
  6.0 10.0
  6.0 11.0
  6.0 12.0
  6.0 13.0
  6.0 14.0
  6.0 15.0
  6.0 16.0
  6.0 17.0
  6.0 18.0
  6.0 19.0
  6.0 20.0
  6.0 20.9760307571216
  6.0 22.0740653588834
  6.0 23.3093542858653
  6.0 24.6990543287201
  6.0 26.2624668769317
  6.0 28.0213059936697
  6.0 30.0
  7.0 0.0
  7.0 1.97869400633029
  7.0 3.73753312306832
  7.0 5.30094567127991
  7.0 6.69064571413466
  7.0 7.92593464111665
  7.0 9.02396924287842
  7.0 10.0
  7.0 11.0
  7.0 12.0
  7.0 13.0
  7.0 14.0
  7.0 15.0
  7.0 16.0
  7.0 17.0
  7.0 18.0
  7.0 19.0
  7.0 20.0
  7.0 20.9760307571216
  7.0 22.0740653588834
  7.0 23.3093542858653
  7.0 24.6990543287201
  7.0 26.2624668769317
  7.0 28.0213059936697
  7.0 30.0
  8.0 0.0
  8.0 1.97869400633029
  8.0 3.73753312306832
  8.0 5.30094567127991
  8.0 6.69064571413466
  8.0 7.92593464111665
  8.0 9.02396924287842
  8.0 10.0
  8.0 11.0
  8.0 12.0
  8.0 13.0
  8.0 14.0
  8.0 15.0
  8.0 16.0
  8.0 17.0
  8.0 18.0
  8.0 19.0
  8.0 20.0
  8.0 20.9760307571216
  8.0 22.0740653588834
  8.0 23.3093542858653
  8.0 24.6990543287201
  8.0 26.2624668769317
  8.0 28.0213059936697
  8.0 30.0
  9.0 0.0
  9.0 1.97869400633029
  9.0 3.73753312306832
  9.0 5.30094567127991
  9.0 6.69064571413466
  9.0 7.92593464111665
  9.0 9.02396924287842
  9.0 10.0
  9.0 11.0
  9.0 12.0
  9.0 13.0
  9.0 14.0
  9.0 15.0
  9.0 16.0
  9.0 17.0
  9.0 18.0
  9.0 19.0
  9.0 20.0
  9.0 20.9760307571216
  9.0 22.0740653588834
  9.0 23.3093542858653
  9.0 24.6990543287201
  9.0 26.2624668769317
  9.0 28.0213059936697
  9.0 30.0
  10.0 0.0
  10.0 1.97869400633029
  10.0 3.73753312306832
  10.0 5.30094567127991
  10.0 6.69064571413466
  10.0 7.92593464111665
  10.0 9.02396924287842
  10.0 10.0
  10.0 11.0
  10.0 12.0
  10.0 13.0
  10.0 14.0
  10.0 15.0
  10.0 16.0
  10.0 17.0
  10.0 18.0
  10.0 19.0
  10.0 20.0
  10.0 20.9760307571216
  10.0 22.0740653588834
  10.0 23.3093542858653
  10.0 24.6990543287201
  10.0 26.2624668769317
  10.0 28.0213059936697
  10.0 30.0
  11.0 0.0
  11.0 1.97869400633029
  11.0 3.73753312306832
  11.0 5.30094567127991
  11.0 6.69064571413466
  11.0 7.92593464111665
  11.0 9.02396924287842
  11.0 10.0
  11.0 11.0
  11.0 12.0
  11.0 13.0
  11.0 14.0
  11.0 15.0
  11.0 16.0
  11.0 17.0
  11.0 18.0
  11.0 19.0
  11.0 20.0
  11.0 20.9760307571216
  11.0 22.0740653588834
  11.0 23.3093542858653
  11.0 24.6990543287201
  11.0 26.2624668769317
  11.0 28.0213059936697
  11.0 30.0
  12.0 0.0
  12.0 1.97869400633029
  12.0 3.73753312306832
  12.0 5.30094567127991
  12.0 6.69064571413466
  12.0 7.92593464111665
  12.0 9.02396924287842
  12.0 10.0
  12.0 11.0
  12.0 12.0
  12.0 13.0
  12.0 14.0
  12.0 15.0
  12.0 16.0
  12.0 17.0
  12.0 18.0
  12.0 19.0
  12.0 20.0
  12.0 20.9760307571216
  12.0 22.0740653588834
  12.0 23.3093542858653
  12.0 24.6990543287201
  12.0 26.2624668769317
  12.0 28.0213059936697
  12.0 30.0
  13.0 0.0
  13.0 1.97869400633029
  13.0 3.73753312306832
  13.0 5.30094567127991
  13.0 6.69064571413466
  13.0 7.92593464111665
  13.0 9.02396924287842
  13.0 10.0
  13.0 11.0
  13.0 12.0
  13.0 13.0
  13.0 14.0
  13.0 15.0
  13.0 16.0
  13.0 17.0
  13.0 18.0
  13.0 19.0
  13.0 20.0
  13.0 20.9760307571216
  13.0 22.0740653588834
  13.0 23.3093542858653
  13.0 24.6990543287201
  13.0 26.2624668769317
  13.0 28.0213059936697
  13.0 30.0
  14.0 0.0
  14.0 1.97869400633029
  14.0 3.73753312306832
  14.0 5.30094567127991
  14.0 6.69064571413466
  14.0 7.92593464111665
  14.0 9.02396924287842
  14.0 10.0
  14.0 11.0
  14.0 12.0
  14.0 13.0
  14.0 14.0
  14.0 15.0
  14.0 16.0
  14.0 17.0
  14.0 18.0
  14.0 19.0
  14.0 20.0
  14.0 20.9760307571216
  14.0 22.0740653588834
  14.0 23.3093542858653
  14.0 24.6990543287201
  14.0 26.2624668769317
  14.0 28.0213059936697
  14.0 30.0
  15.0 0.0
  15.0 1.97869400633029
  15.0 3.73753312306832
  15.0 5.30094567127991
  15.0 6.69064571413466
  15.0 7.92593464111665
  15.0 9.02396924287842
  15.0 10.0
  15.0 11.0
  15.0 12.0
  15.0 13.0
  15.0 14.0
  15.0 15.0
  15.0 16.0
  15.0 17.0
  15.0 18.0
  15.0 19.0
  15.0 20.0
  15.0 20.9760307571216
  15.0 22.0740653588834
  15.0 23.3093542858653
  15.0 24.6990543287201
  15.0 26.2624668769317
  15.0 28.0213059936697
  15.0 30.0
  16.0 0.0
  16.0 1.97869400633029
  16.0 3.73753312306832
  16.0 5.30094567127991
  16.0 6.69064571413466
  16.0 7.92593464111665
  16.0 9.02396924287842
  16.0 10.0
  16.0 11.0
  16.0 12.0
  16.0 13.0
  16.0 14.0
  16.0 15.0
  16.0 16.0
  16.0 17.0
  16.0 18.0
  16.0 19.0
  16.0 20.0
  16.0 20.9760307571216
  16.0 22.0740653588834
  16.0 23.3093542858653
  16.0 24.6990543287201
  16.0 26.2624668769317
  16.0 28.0213059936697
  16.0 30.0
  17.0 0.0
  17.0 1.97869400633029
  17.0 3.73753312306832
  17.0 5.30094567127991
  17.0 6.69064571413466
  17.0 7.92593464111665
  17.0 9.02396924287842
  17.0 10.0
  17.0 11.0
  17.0 12.0
  17.0 13.0
  17.0 14.0
  17.0 15.0
  17.0 16.0
  17.0 17.0
  17.0 18.0
  17.0 19.0
  17.0 20.0
  17.0 20.9760307571216
  17.0 22.0740653588834
  17.0 23.3093542858653
  17.0 24.6990543287201
  17.0 26.2624668769317
  17.0 28.0213059936697
  17.0 30.0
  18.0 0.0
  18.0 1.97869400633029
  18.0 3.73753312306832
  18.0 5.30094567127991
  18.0 6.69064571413466
  18.0 7.92593464111665
  18.0 9.02396924287842
  18.0 10.0
  18.0 11.0
  18.0 12.0
  18.0 13.0
  18.0 14.0
  18.0 15.0
  18.0 16.0
  18.0 17.0
  18.0 18.0
  18.0 19.0
  18.0 20.0
  18.0 20.9760307571216
  18.0 22.0740653588834
  18.0 23.3093542858653
  18.0 24.6990543287201
  18.0 26.2624668769317
  18.0 28.0213059936697
  18.0 30.0
  19.0 0.0
  19.0 1.97869400633029
  19.0 3.73753312306832
  19.0 5.30094567127991
  19.0 6.69064571413466
  19.0 7.92593464111665
  19.0 9.02396924287842
  19.0 10.0
  19.0 11.0
  19.0 12.0
  19.0 13.0
  19.0 14.0
  19.0 15.0
  19.0 16.0
  19.0 17.0
  19.0 18.0
  19.0 19.0
  19.0 20.0
  19.0 20.9760307571216
  19.0 22.0740653588834
  19.0 23.3093542858653
  19.0 24.6990543287201
  19.0 26.2624668769317
  19.0 28.0213059936697
  19.0 30.0
  20.0 0.0
  20.0 1.97869400633029
  20.0 3.73753312306832
  20.0 5.30094567127991
  20.0 6.69064571413466
  20.0 7.92593464111665
  20.0 9.02396924287842
  20.0 10.0
  20.0 11.0
  20.0 12.0
  20.0 13.0
  20.0 14.0
  20.0 15.0
  20.0 16.0
  20.0 17.0
  20.0 18.0
  20.0 19.0
  20.0 20.0
  20.0 20.9760307571216
  20.0 22.0740653588834
  20.0 23.3093542858653
  20.0 24.6990543287201
  20.0 26.2624668769317
  20.0 28.0213059936697
  20.0 30.0
  21.0 0.0
  21.0 1.97869400633029
  21.0 3.73753312306832
  21.0 5.30094567127991
  21.0 6.69064571413466
  21.0 7.92593464111665
  21.0 9.02396924287842
  21.0 10.0
  21.0 11.0
  21.0 12.0
  21.0 13.0
  21.0 14.0
  21.0 15.0
  21.0 16.0
  21.0 17.0
  21.0 18.0
  21.0 19.0
  21.0 20.0
  21.0 20.9760307571216
  21.0 22.0740653588834
  21.0 23.3093542858653
  21.0 24.6990543287201
  21.0 26.2624668769317
  21.0 28.0213059936697
  21.0 30.0
  22.0 0.0
  22.0 1.97869400633029
  22.0 3.73753312306832
  22.0 5.30094567127991
  22.0 6.69064571413466
  22.0 7.92593464111665
  22.0 9.02396924287842
  22.0 10.0
  22.0 11.0
  22.0 12.0
  22.0 13.0
  22.0 14.0
  22.0 15.0
  22.0 16.0
  22.0 17.0
  22.0 18.0
  22.0 19.0
  22.0 20.0
  22.0 20.9760307571216
  22.0 22.0740653588834
  22.0 23.3093542858653
  22.0 24.6990543287201
  22.0 26.2624668769317
  22.0 28.0213059936697
  22.0 30.0
  23.0 0.0
  23.0 1.97869400633029
  23.0 3.73753312306832
  23.0 5.30094567127991
  23.0 6.69064571413466
  23.0 7.92593464111665
  23.0 9.02396924287842
  23.0 10.0
  23.0 11.0
  23.0 12.0
  23.0 13.0
  23.0 14.0
  23.0 15.0
  23.0 16.0
  23.0 17.0
  23.0 18.0
  23.0 19.0
  23.0 20.0
  23.0 20.9760307571216
  23.0 22.0740653588834
  23.0 23.3093542858653
  23.0 24.6990543287201
  23.0 26.2624668769317
  23.0 28.0213059936697
  23.0 30.0
  24.0 0.0
  24.0 1.97869400633029
  24.0 3.73753312306832
  24.0 5.30094567127991
  24.0 6.69064571413466
  24.0 7.92593464111665
  24.0 9.02396924287842
  24.0 10.0
  24.0 11.0
  24.0 12.0
  24.0 13.0
  24.0 14.0
  24.0 15.0
  24.0 16.0
  24.0 17.0
  24.0 18.0
  24.0 19.0
  24.0 20.0
  24.0 20.9760307571216
  24.0 22.0740653588834
  24.0 23.3093542858653
  24.0 24.6990543287201
  24.0 26.2624668769317
  24.0 28.0213059936697
  24.0 30.0
  25.0 0.0
  25.0 1.97869400633029
  25.0 3.73753312306832
  25.0 5.30094567127991
  25.0 6.69064571413466
  25.0 7.92593464111665
  25.0 9.02396924287842
  25.0 10.0
  25.0 11.0
  25.0 12.0
  25.0 13.0
  25.0 14.0
  25.0 15.0
  25.0 16.0
  25.0 17.0
  25.0 18.0
  25.0 19.0
  25.0 20.0
  25.0 20.9760307571216
  25.0 22.0740653588834
  25.0 23.3093542858653
  25.0 24.6990543287201
  25.0 26.2624668769317
  25.0 28.0213059936697
  25.0 30.0
  26.0 0.0
  26.0 1.97869400633029
  26.0 3.73753312306832
  26.0 5.30094567127991
  26.0 6.69064571413466
  26.0 7.92593464111665
  26.0 9.02396924287842
  26.0 10.0
  26.0 11.0
  26.0 12.0
  26.0 13.0
  26.0 14.0
  26.0 15.0
  26.0 16.0
  26.0 17.0
  26.0 18.0
  26.0 19.0
  26.0 20.0
  26.0 20.9760307571216
  26.0 22.0740653588834
  26.0 23.3093542858653
  26.0 24.6990543287201
  26.0 26.2624668769317
  26.0 28.0213059936697
  26.0 30.0
  27.0 0.0
  27.0 1.97869400633029
  27.0 3.73753312306832
  27.0 5.30094567127991
  27.0 6.69064571413466
  27.0 7.92593464111665
  27.0 9.02396924287842
  27.0 10.0
  27.0 11.0
  27.0 12.0
  27.0 13.0
  27.0 14.0
  27.0 15.0
  27.0 16.0
  27.0 17.0
  27.0 18.0
  27.0 19.0
  27.0 20.0
  27.0 20.9760307571216
  27.0 22.0740653588834
  27.0 23.3093542858653
  27.0 24.6990543287201
  27.0 26.2624668769317
  27.0 28.0213059936697
  27.0 30.0
  28.0 0.0
  28.0 1.97869400633029
  28.0 3.73753312306832
  28.0 5.30094567127991
  28.0 6.69064571413466
  28.0 7.92593464111665
  28.0 9.02396924287842
  28.0 10.0
  28.0 11.0
  28.0 12.0
  28.0 13.0
  28.0 14.0
  28.0 15.0
  28.0 16.0
  28.0 17.0
  28.0 18.0
  28.0 19.0
  28.0 20.0
  28.0 20.9760307571216
  28.0 22.0740653588834
  28.0 23.3093542858653
  28.0 24.6990543287201
  28.0 26.2624668769317
  28.0 28.0213059936697
  28.0 30.0
  29.0 0.0
  29.0 1.97869400633029
  29.0 3.73753312306832
  29.0 5.30094567127991
  29.0 6.69064571413466
  29.0 7.92593464111665
  29.0 9.02396924287842
  29.0 10.0
  29.0 11.0
  29.0 12.0
  29.0 13.0
  29.0 14.0
  29.0 15.0
  29.0 16.0
  29.0 17.0
  29.0 18.0
  29.0 19.0
  29.0 20.0
  29.0 20.9760307571216
  29.0 22.0740653588834
  29.0 23.3093542858653
  29.0 24.6990543287201
  29.0 26.2624668769317
  29.0 28.0213059936697
  29.0 30.0
  30.0 0.0
  30.0 1.97869400633029
  30.0 3.73753312306832
  30.0 5.30094567127991
  30.0 6.69064571413466
  30.0 7.92593464111665
  30.0 9.02396924287842
  30.0 10.0
  30.0 11.0
  30.0 12.0
  30.0 13.0
  30.0 14.0
  30.0 15.0
  30.0 16.0
  30.0 17.0
  30.0 18.0
  30.0 19.0
  30.0 20.0
  30.0 20.9760307571216
  30.0 22.0740653588834
  30.0 23.3093542858653
  30.0 24.6990543287201
  30.0 26.2624668769317
  30.0 28.0213059936697
  30.0 30.0
  31.0 0.0
  31.0 1.97869400633029
  31.0 3.73753312306832
  31.0 5.30094567127991
  31.0 6.69064571413466
  31.0 7.92593464111665
  31.0 9.02396924287842
  31.0 10.0
  31.0 11.0
  31.0 12.0
  31.0 13.0
  31.0 14.0
  31.0 15.0
  31.0 16.0
  31.0 17.0
  31.0 18.0
  31.0 19.0
  31.0 20.0
  31.0 20.9760307571216
  31.0 22.0740653588834
  31.0 23.3093542858653
  31.0 24.6990543287201
  31.0 26.2624668769317
  31.0 28.0213059936697
  31.0 30.0
  32.0 0.0
  32.0 1.97869400633029
  32.0 3.73753312306832
  32.0 5.30094567127991
  32.0 6.69064571413466
  32.0 7.92593464111665
  32.0 9.02396924287842
  32.0 10.0
  32.0 11.0
  32.0 12.0
  32.0 13.0
  32.0 14.0
  32.0 15.0
  32.0 16.0
  32.0 17.0
  32.0 18.0
  32.0 19.0
  32.0 20.0
  32.0 20.9760307571216
  32.0 22.0740653588834
  32.0 23.3093542858653
  32.0 24.6990543287201
  32.0 26.2624668769317
  32.0 28.0213059936697
  32.0 30.0
  33.0 0.0
  33.0 1.97869400633029
  33.0 3.73753312306832
  33.0 5.30094567127991
  33.0 6.69064571413466
  33.0 7.92593464111665
  33.0 9.02396924287842
  33.0 10.0
  33.0 11.0
  33.0 12.0
  33.0 13.0
  33.0 14.0
  33.0 15.0
  33.0 16.0
  33.0 17.0
  33.0 18.0
  33.0 19.0
  33.0 20.0
  33.0 20.9760307571216
  33.0 22.0740653588834
  33.0 23.3093542858653
  33.0 24.6990543287201
  33.0 26.2624668769317
  33.0 28.0213059936697
  33.0 30.0
  34.0 0.0
  34.0 1.97869400633029
  34.0 3.73753312306832
  34.0 5.30094567127991
  34.0 6.69064571413466
  34.0 7.92593464111665
  34.0 9.02396924287842
  34.0 10.0
  34.0 11.0
  34.0 12.0
  34.0 13.0
  34.0 14.0
  34.0 15.0
  34.0 16.0
  34.0 17.0
  34.0 18.0
  34.0 19.0
  34.0 20.0
  34.0 20.9760307571216
  34.0 22.0740653588834
  34.0 23.3093542858653
  34.0 24.6990543287201
  34.0 26.2624668769317
  34.0 28.0213059936697
  34.0 30.0
  35.0 0.0
  35.0 1.97869400633029
  35.0 3.73753312306832
  35.0 5.30094567127991
  35.0 6.69064571413466
  35.0 7.92593464111665
  35.0 9.02396924287842
  35.0 10.0
  35.0 11.0
  35.0 12.0
  35.0 13.0
  35.0 14.0
  35.0 15.0
  35.0 16.0
  35.0 17.0
  35.0 18.0
  35.0 19.0
  35.0 20.0
  35.0 20.9760307571216
  35.0 22.0740653588834
  35.0 23.3093542858653
  35.0 24.6990543287201
  35.0 26.2624668769317
  35.0 28.0213059936697
  35.0 30.0
  36.0 0.0
  36.0 1.97869400633029
  36.0 3.73753312306832
  36.0 5.30094567127991
  36.0 6.69064571413466
  36.0 7.92593464111665
  36.0 9.02396924287842
  36.0 10.0
  36.0 11.0
  36.0 12.0
  36.0 13.0
  36.0 14.0
  36.0 15.0
  36.0 16.0
  36.0 17.0
  36.0 18.0
  36.0 19.0
  36.0 20.0
  36.0 20.9760307571216
  36.0 22.0740653588834
  36.0 23.3093542858653
  36.0 24.6990543287201
  36.0 26.2624668769317
  36.0 28.0213059936697
  36.0 30.0
  37.0 0.0
  37.0 1.97869400633029
  37.0 3.73753312306832
  37.0 5.30094567127991
  37.0 6.69064571413466
  37.0 7.92593464111665
  37.0 9.02396924287842
  37.0 10.0
  37.0 11.0
  37.0 12.0
  37.0 13.0
  37.0 14.0
  37.0 15.0
  37.0 16.0
  37.0 17.0
  37.0 18.0
  37.0 19.0
  37.0 20.0
  37.0 20.9760307571216
  37.0 22.0740653588834
  37.0 23.3093542858653
  37.0 24.6990543287201
  37.0 26.2624668769317
  37.0 28.0213059936697
  37.0 30.0
  38.0 0.0
  38.0 1.97869400633029
  38.0 3.73753312306832
  38.0 5.30094567127991
  38.0 6.69064571413466
  38.0 7.92593464111665
  38.0 9.02396924287842
  38.0 10.0
  38.0 11.0
  38.0 12.0
  38.0 13.0
  38.0 14.0
  38.0 15.0
  38.0 16.0
  38.0 17.0
  38.0 18.0
  38.0 19.0
  38.0 20.0
  38.0 20.9760307571216
  38.0 22.0740653588834
  38.0 23.3093542858653
  38.0 24.6990543287201
  38.0 26.2624668769317
  38.0 28.0213059936697
  38.0 30.0
  39.0 0.0
  39.0 1.97869400633029
  39.0 3.73753312306832
  39.0 5.30094567127991
  39.0 6.69064571413466
  39.0 7.92593464111665
  39.0 9.02396924287842
  39.0 10.0
  39.0 11.0
  39.0 12.0
  39.0 13.0
  39.0 14.0
  39.0 15.0
  39.0 16.0
  39.0 17.0
  39.0 18.0
  39.0 19.0
  39.0 20.0
  39.0 20.9760307571216
  39.0 22.0740653588834
  39.0 23.3093542858653
  39.0 24.6990543287201
  39.0 26.2624668769317
  39.0 28.0213059936697
  39.0 30.0
  40.0 0.0
  40.0 1.97869400633029
  40.0 3.73753312306832
  40.0 5.30094567127991
  40.0 6.69064571413466
  40.0 7.92593464111665
  40.0 9.02396924287842
  40.0 10.0
  40.0 11.0
  40.0 12.0
  40.0 13.0
  40.0 14.0
  40.0 15.0
  40.0 16.0
  40.0 17.0
  40.0 18.0
  40.0 19.0
  40.0 20.0
  40.0 20.9760307571216
  40.0 22.0740653588834
  40.0 23.3093542858653
  40.0 24.6990543287201
  40.0 26.2624668769317
  40.0 28.0213059936697
  40.0 30.0
  41.0 0.0
  41.0 1.97869400633029
  41.0 3.73753312306832
  41.0 5.30094567127991
  41.0 6.69064571413466
  41.0 7.92593464111665
  41.0 9.02396924287842
  41.0 10.0
  41.0 11.0
  41.0 12.0
  41.0 13.0
  41.0 14.0
  41.0 15.0
  41.0 16.0
  41.0 17.0
  41.0 18.0
  41.0 19.0
  41.0 20.0
  41.0 20.9760307571216
  41.0 22.0740653588834
  41.0 23.3093542858653
  41.0 24.6990543287201
  41.0 26.2624668769317
  41.0 28.0213059936697
  41.0 30.0
  42.0 0.0
  42.0 1.97869400633029
  42.0 3.73753312306832
  42.0 5.30094567127991
  42.0 6.69064571413466
  42.0 7.92593464111665
  42.0 9.02396924287842
  42.0 10.0
  42.0 11.0
  42.0 12.0
  42.0 13.0
  42.0 14.0
  42.0 15.0
  42.0 16.0
  42.0 17.0
  42.0 18.0
  42.0 19.0
  42.0 20.0
  42.0 20.9760307571216
  42.0 22.0740653588834
  42.0 23.3093542858653
  42.0 24.6990543287201
  42.0 26.2624668769317
  42.0 28.0213059936697
  42.0 30.0
  43.0 0.0
  43.0 1.97869400633029
  43.0 3.73753312306832
  43.0 5.30094567127991
  43.0 6.69064571413466
  43.0 7.92593464111665
  43.0 9.02396924287842
  43.0 10.0
  43.0 11.0
  43.0 12.0
  43.0 13.0
  43.0 14.0
  43.0 15.0
  43.0 16.0
  43.0 17.0
  43.0 18.0
  43.0 19.0
  43.0 20.0
  43.0 20.9760307571216
  43.0 22.0740653588834
  43.0 23.3093542858653
  43.0 24.6990543287201
  43.0 26.2624668769317
  43.0 28.0213059936697
  43.0 30.0
  44.0 0.0
  44.0 1.97869400633029
  44.0 3.73753312306832
  44.0 5.30094567127991
  44.0 6.69064571413466
  44.0 7.92593464111665
  44.0 9.02396924287842
  44.0 10.0
  44.0 11.0
  44.0 12.0
  44.0 13.0
  44.0 14.0
  44.0 15.0
  44.0 16.0
  44.0 17.0
  44.0 18.0
  44.0 19.0
  44.0 20.0
  44.0 20.9760307571216
  44.0 22.0740653588834
  44.0 23.3093542858653
  44.0 24.6990543287201
  44.0 26.2624668769317
  44.0 28.0213059936697
  44.0 30.0
  45.0 0.0
  45.0 1.97869400633029
  45.0 3.73753312306832
  45.0 5.30094567127991
  45.0 6.69064571413466
  45.0 7.92593464111665
  45.0 9.02396924287842
  45.0 10.0
  45.0 11.0
  45.0 12.0
  45.0 13.0
  45.0 14.0
  45.0 15.0
  45.0 16.0
  45.0 17.0
  45.0 18.0
  45.0 19.0
  45.0 20.0
  45.0 20.9760307571216
  45.0 22.0740653588834
  45.0 23.3093542858653
  45.0 24.6990543287201
  45.0 26.2624668769317
  45.0 28.0213059936697
  45.0 30.0
  46.0 0.0
  46.0 1.97869400633029
  46.0 3.73753312306832
  46.0 5.30094567127991
  46.0 6.69064571413466
  46.0 7.92593464111665
  46.0 9.02396924287842
  46.0 10.0
  46.0 11.0
  46.0 12.0
  46.0 13.0
  46.0 14.0
  46.0 15.0
  46.0 16.0
  46.0 17.0
  46.0 18.0
  46.0 19.0
  46.0 20.0
  46.0 20.9760307571216
  46.0 22.0740653588834
  46.0 23.3093542858653
  46.0 24.6990543287201
  46.0 26.2624668769317
  46.0 28.0213059936697
  46.0 30.0
  47.0 0.0
  47.0 1.97869400633029
  47.0 3.73753312306832
  47.0 5.30094567127991
  47.0 6.69064571413466
  47.0 7.92593464111665
  47.0 9.02396924287842
  47.0 10.0
  47.0 11.0
  47.0 12.0
  47.0 13.0
  47.0 14.0
  47.0 15.0
  47.0 16.0
  47.0 17.0
  47.0 18.0
  47.0 19.0
  47.0 20.0
  47.0 20.9760307571216
  47.0 22.0740653588834
  47.0 23.3093542858653
  47.0 24.6990543287201
  47.0 26.2624668769317
  47.0 28.0213059936697
  47.0 30.0
  48.0 0.0
  48.0 1.97869400633029
  48.0 3.73753312306832
  48.0 5.30094567127991
  48.0 6.69064571413466
  48.0 7.92593464111665
  48.0 9.02396924287842
  48.0 10.0
  48.0 11.0
  48.0 12.0
  48.0 13.0
  48.0 14.0
  48.0 15.0
  48.0 16.0
  48.0 17.0
  48.0 18.0
  48.0 19.0
  48.0 20.0
  48.0 20.9760307571216
  48.0 22.0740653588834
  48.0 23.3093542858653
  48.0 24.6990543287201
  48.0 26.2624668769317
  48.0 28.0213059936697
  48.0 30.0
  49.0 0.0
  49.0 1.97869400633029
  49.0 3.73753312306832
  49.0 5.30094567127991
  49.0 6.69064571413466
  49.0 7.92593464111665
  49.0 9.02396924287842
  49.0 10.0
  49.0 11.0
  49.0 12.0
  49.0 13.0
  49.0 14.0
  49.0 15.0
  49.0 16.0
  49.0 17.0
  49.0 18.0
  49.0 19.0
  49.0 20.0
  49.0 20.9760307571216
  49.0 22.0740653588834
  49.0 23.3093542858653
  49.0 24.6990543287201
  49.0 26.2624668769317
  49.0 28.0213059936697
  49.0 30.0
  50.0 0.0
  50.0 1.97869400633029
  50.0 3.73753312306832
  50.0 5.30094567127991
  50.0 6.69064571413466
  50.0 7.92593464111665
  50.0 9.02396924287842
  50.0 10.0
  50.0 11.0
  50.0 12.0
  50.0 13.0
  50.0 14.0
  50.0 15.0
  50.0 16.0
  50.0 17.0
  50.0 18.0
  50.0 19.0
  50.0 20.0
  50.0 20.9760307571216
  50.0 22.0740653588834
  50.0 23.3093542858653
  50.0 24.6990543287201
  50.0 26.2624668769317
  50.0 28.0213059936697
  50.0 30.0
2400
  2 1 26 2
  2 26 27 2
  2 2 27 3
  2 27 28 3
  2 3 28 4
  2 28 29 4
  2 4 29 5
  2 29 30 5
  2 5 30 6
  2 30 31 6
  2 6 31 7
  2 31 32 7
  2 7 32 8
  2 32 33 8
  1 8 33 9
  1 33 34 9
  1 9 34 10
  1 34 35 10
  1 10 35 11
  1 35 36 11
  1 11 36 12
  1 36 37 12
  1 12 37 13
  1 37 38 13
  1 13 38 14
  1 38 39 14
  1 14 39 15
  1 39 40 15
  1 15 40 16
  1 40 41 16
  1 16 41 17
  1 41 42 17
  1 17 42 18
  1 42 43 18
  3 18 43 19
  3 43 44 19
  3 19 44 20
  3 44 45 20
  3 20 45 21
  3 45 46 21
  3 21 46 22
  3 46 47 22
  3 22 47 23
  3 47 48 23
  3 23 48 24
  3 48 49 24
  3 24 49 25
  3 49 50 25
  2 26 51 27
  2 51 52 27
  2 27 52 28
  2 52 53 28
  2 28 53 29
  2 53 54 29
  2 29 54 30
  2 54 55 30
  2 30 55 31
  2 55 56 31
  2 31 56 32
  2 56 57 32
  2 32 57 33
  2 57 58 33
  1 33 58 34
  1 58 59 34
  1 34 59 35
  1 59 60 35
  1 35 60 36
  1 60 61 36
  1 36 61 37
  1 61 62 37
  1 37 62 38
  1 62 63 38
  1 38 63 39
  1 63 64 39
  1 39 64 40
  1 64 65 40
  1 40 65 41
  1 65 66 41
  1 41 66 42
  1 66 67 42
  1 42 67 43
  1 67 68 43
  3 43 68 44
  3 68 69 44
  3 44 69 45
  3 69 70 45
  3 45 70 46
  3 70 71 46
  3 46 71 47
  3 71 72 47
  3 47 72 48
  3 72 73 48
  3 48 73 49
  3 73 74 49
  3 49 74 50
  3 74 75 50
  2 51 76 52
  2 76 77 52
  2 52 77 53
  2 77 78 53
  2 53 78 54
  2 78 79 54
  2 54 79 55
  2 79 80 55
  2 55 80 56
  2 80 81 56
  2 56 81 57
  2 81 82 57
  2 57 82 58
  2 82 83 58
  1 58 83 59
  1 83 84 59
  1 59 84 60
  1 84 85 60
  1 60 85 61
  1 85 86 61
  1 61 86 62
  1 86 87 62
  1 62 87 63
  1 87 88 63
  1 63 88 64
  1 88 89 64
  1 64 89 65
  1 89 90 65
  1 65 90 66
  1 90 91 66
  1 66 91 67
  1 91 92 67
  1 67 92 68
  1 92 93 68
  3 68 93 69
  3 93 94 69
  3 69 94 70
  3 94 95 70
  3 70 95 71
  3 95 96 71
  3 71 96 72
  3 96 97 72
  3 72 97 73
  3 97 98 73
  3 73 98 74
  3 98 99 74
  3 74 99 75
  3 99 100 75
  2 76 101 77
  2 101 102 77
  2 77 102 78
  2 102 103 78
  2 78 103 79
  2 103 104 79
  2 79 104 80
  2 104 105 80
  2 80 105 81
  2 105 106 81
  2 81 106 82
  2 106 107 82
  2 82 107 83
  2 107 108 83
  1 83 108 84
  1 108 109 84
  1 84 109 85
  1 109 110 85
  1 85 110 86
  1 110 111 86
  1 86 111 87
  1 111 112 87
  1 87 112 88
  1 112 113 88
  1 88 113 89
  1 113 114 89
  1 89 114 90
  1 114 115 90
  1 90 115 91
  1 115 116 91
  1 91 116 92
  1 116 117 92
  1 92 117 93
  1 117 118 93
  3 93 118 94
  3 118 119 94
  3 94 119 95
  3 119 120 95
  3 95 120 96
  3 120 121 96
  3 96 121 97
  3 121 122 97
  3 97 122 98
  3 122 123 98
  3 98 123 99
  3 123 124 99
  3 99 124 100
  3 124 125 100
  2 101 126 102
  2 126 127 102
  2 102 127 103
  2 127 128 103
  2 103 128 104
  2 128 129 104
  2 104 129 105
  2 129 130 105
  2 105 130 106
  2 130 131 106
  2 106 131 107
  2 131 132 107
  2 107 132 108
  2 132 133 108
  1 108 133 109
  1 133 134 109
  1 109 134 110
  1 134 135 110
  1 110 135 111
  1 135 136 111
  1 111 136 112
  1 136 137 112
  1 112 137 113
  1 137 138 113
  1 113 138 114
  1 138 139 114
  1 114 139 115
  1 139 140 115
  1 115 140 116
  1 140 141 116
  1 116 141 117
  1 141 142 117
  1 117 142 118
  1 142 143 118
  3 118 143 119
  3 143 144 119
  3 119 144 120
  3 144 145 120
  3 120 145 121
  3 145 146 121
  3 121 146 122
  3 146 147 122
  3 122 147 123
  3 147 148 123
  3 123 148 124
  3 148 149 124
  3 124 149 125
  3 149 150 125
  2 126 151 127
  2 151 152 127
  2 127 152 128
  2 152 153 128
  2 128 153 129
  2 153 154 129
  2 129 154 130
  2 154 155 130
  2 130 155 131
  2 155 156 131
  2 131 156 132
  2 156 157 132
  2 132 157 133
  2 157 158 133
  1 133 158 134
  1 158 159 134
  1 134 159 135
  1 159 160 135
  1 135 160 136
  1 160 161 136
  1 136 161 137
  1 161 162 137
  1 137 162 138
  1 162 163 138
  1 138 163 139
  1 163 164 139
  1 139 164 140
  1 164 165 140
  1 140 165 141
  1 165 166 141
  1 141 166 142
  1 166 167 142
  1 142 167 143
  1 167 168 143
  3 143 168 144
  3 168 169 144
  3 144 169 145
  3 169 170 145
  3 145 170 146
  3 170 171 146
  3 146 171 147
  3 171 172 147
  3 147 172 148
  3 172 173 148
  3 148 173 149
  3 173 174 149
  3 149 174 150
  3 174 175 150
  2 151 176 152
  2 176 177 152
  2 152 177 153
  2 177 178 153
  2 153 178 154
  2 178 179 154
  2 154 179 155
  2 179 180 155
  2 155 180 156
  2 180 181 156
  2 156 181 157
  2 181 182 157
  2 157 182 158
  2 182 183 158
  1 158 183 159
  1 183 184 159
  1 159 184 160
  1 184 185 160
  1 160 185 161
  1 185 186 161
  1 161 186 162
  1 186 187 162
  1 162 187 163
  1 187 188 163
  1 163 188 164
  1 188 189 164
  1 164 189 165
  1 189 190 165
  1 165 190 166
  1 190 191 166
  1 166 191 167
  1 191 192 167
  1 167 192 168
  1 192 193 168
  3 168 193 169
  3 193 194 169
  3 169 194 170
  3 194 195 170
  3 170 195 171
  3 195 196 171
  3 171 196 172
  3 196 197 172
  3 172 197 173
  3 197 198 173
  3 173 198 174
  3 198 199 174
  3 174 199 175
  3 199 200 175
  2 176 201 177
  2 201 202 177
  2 177 202 178
  2 202 203 178
  2 178 203 179
  2 203 204 179
  2 179 204 180
  2 204 205 180
  2 180 205 181
  2 205 206 181
  2 181 206 182
  2 206 207 182
  2 182 207 183
  2 207 208 183
  1 183 208 184
  1 208 209 184
  1 184 209 185
  1 209 210 185
  1 185 210 186
  1 210 211 186
  1 186 211 187
  1 211 212 187
  1 187 212 188
  1 212 213 188
  1 188 213 189
  1 213 214 189
  1 189 214 190
  1 214 215 190
  1 190 215 191
  1 215 216 191
  1 191 216 192
  1 216 217 192
  1 192 217 193
  1 217 218 193
  3 193 218 194
  3 218 219 194
  3 194 219 195
  3 219 220 195
  3 195 220 196
  3 220 221 196
  3 196 221 197
  3 221 222 197
  3 197 222 198
  3 222 223 198
  3 198 223 199
  3 223 224 199
  3 199 224 200
  3 224 225 200
  2 201 226 202
  2 226 227 202
  2 202 227 203
  2 227 228 203
  2 203 228 204
  2 228 229 204
  2 204 229 205
  2 229 230 205
  2 205 230 206
  2 230 231 206
  2 206 231 207
  2 231 232 207
  2 207 232 208
  2 232 233 208
  1 208 233 209
  1 233 234 209
  1 209 234 210
  1 234 235 210
  1 210 235 211
  1 235 236 211
  1 211 236 212
  1 236 237 212
  1 212 237 213
  1 237 238 213
  1 213 238 214
  1 238 239 214
  1 214 239 215
  1 239 240 215
  1 215 240 216
  1 240 241 216
  1 216 241 217
  1 241 242 217
  1 217 242 218
  1 242 243 218
  3 218 243 219
  3 243 244 219
  3 219 244 220
  3 244 245 220
  3 220 245 221
  3 245 246 221
  3 221 246 222
  3 246 247 222
  3 222 247 223
  3 247 248 223
  3 223 248 224
  3 248 249 224
  3 224 249 225
  3 249 250 225
  2 226 251 227
  2 251 252 227
  2 227 252 228
  2 252 253 228
  2 228 253 229
  2 253 254 229
  2 229 254 230
  2 254 255 230
  2 230 255 231
  2 255 256 231
  2 231 256 232
  2 256 257 232
  2 232 257 233
  2 257 258 233
  1 233 258 234
  1 258 259 234
  1 234 259 235
  1 259 260 235
  1 235 260 236
  1 260 261 236
  1 236 261 237
  1 261 262 237
  1 237 262 238
  1 262 263 238
  1 238 263 239
  1 263 264 239
  1 239 264 240
  1 264 265 240
  1 240 265 241
  1 265 266 241
  1 241 266 242
  1 266 267 242
  1 242 267 243
  1 267 268 243
  3 243 268 244
  3 268 269 244
  3 244 269 245
  3 269 270 245
  3 245 270 246
  3 270 271 246
  3 246 271 247
  3 271 272 247
  3 247 272 248
  3 272 273 248
  3 248 273 249
  3 273 274 249
  3 249 274 250
  3 274 275 250
  2 251 276 252
  2 276 277 252
  2 252 277 253
  2 277 278 253
  2 253 278 254
  2 278 279 254
  2 254 279 255
  2 279 280 255
  2 255 280 256
  2 280 281 256
  2 256 281 257
  2 281 282 257
  2 257 282 258
  2 282 283 258
  1 258 283 259
  1 283 284 259
  1 259 284 260
  1 284 285 260
  1 260 285 261
  1 285 286 261
  1 261 286 262
  1 286 287 262
  1 262 287 263
  1 287 288 263
  1 263 288 264
  1 288 289 264
  1 264 289 265
  1 289 290 265
  1 265 290 266
  1 290 291 266
  1 266 291 267
  1 291 292 267
  1 267 292 268
  1 292 293 268
  3 268 293 269
  3 293 294 269
  3 269 294 270
  3 294 295 270
  3 270 295 271
  3 295 296 271
  3 271 296 272
  3 296 297 272
  3 272 297 273
  3 297 298 273
  3 273 298 274
  3 298 299 274
  3 274 299 275
  3 299 300 275
  2 276 301 277
  2 301 302 277
  2 277 302 278
  2 302 303 278
  2 278 303 279
  2 303 304 279
  2 279 304 280
  2 304 305 280
  2 280 305 281
  2 305 306 281
  2 281 306 282
  2 306 307 282
  2 282 307 283
  2 307 308 283
  1 283 308 284
  1 308 309 284
  1 284 309 285
  1 309 310 285
  1 285 310 286
  1 310 311 286
  1 286 311 287
  1 311 312 287
  1 287 312 288
  1 312 313 288
  1 288 313 289
  1 313 314 289
  1 289 314 290
  1 314 315 290
  1 290 315 291
  1 315 316 291
  1 291 316 292
  1 316 317 292
  1 292 317 293
  1 317 318 293
  3 293 318 294
  3 318 319 294
  3 294 319 295
  3 319 320 295
  3 295 320 296
  3 320 321 296
  3 296 321 297
  3 321 322 297
  3 297 322 298
  3 322 323 298
  3 298 323 299
  3 323 324 299
  3 299 324 300
  3 324 325 300
  2 301 326 302
  2 326 327 302
  2 302 327 303
  2 327 328 303
  2 303 328 304
  2 328 329 304
  2 304 329 305
  2 329 330 305
  2 305 330 306
  2 330 331 306
  2 306 331 307
  2 331 332 307
  2 307 332 308
  2 332 333 308
  1 308 333 309
  1 333 334 309
  1 309 334 310
  1 334 335 310
  1 310 335 311
  1 335 336 311
  1 311 336 312
  1 336 337 312
  1 312 337 313
  1 337 338 313
  1 313 338 314
  1 338 339 314
  1 314 339 315
  1 339 340 315
  1 315 340 316
  1 340 341 316
  1 316 341 317
  1 341 342 317
  1 317 342 318
  1 342 343 318
  3 318 343 319
  3 343 344 319
  3 319 344 320
  3 344 345 320
  3 320 345 321
  3 345 346 321
  3 321 346 322
  3 346 347 322
  3 322 347 323
  3 347 348 323
  3 323 348 324
  3 348 349 324
  3 324 349 325
  3 349 350 325
  2 326 351 327
  2 351 352 327
  2 327 352 328
  2 352 353 328
  2 328 353 329
  2 353 354 329
  2 329 354 330
  2 354 355 330
  2 330 355 331
  2 355 356 331
  2 331 356 332
  2 356 357 332
  2 332 357 333
  2 357 358 333
  1 333 358 334
  1 358 359 334
  1 334 359 335
  1 359 360 335
  1 335 360 336
  1 360 361 336
  1 336 361 337
  1 361 362 337
  1 337 362 338
  1 362 363 338
  1 338 363 339
  1 363 364 339
  1 339 364 340
  1 364 365 340
  1 340 365 341
  1 365 366 341
  1 341 366 342
  1 366 367 342
  1 342 367 343
  1 367 368 343
  3 343 368 344
  3 368 369 344
  3 344 369 345
  3 369 370 345
  3 345 370 346
  3 370 371 346
  3 346 371 347
  3 371 372 347
  3 347 372 348
  3 372 373 348
  3 348 373 349
  3 373 374 349
  3 349 374 350
  3 374 375 350
  2 351 376 352
  2 376 377 352
  2 352 377 353
  2 377 378 353
  2 353 378 354
  2 378 379 354
  2 354 379 355
  2 379 380 355
  2 355 380 356
  2 380 381 356
  2 356 381 357
  2 381 382 357
  2 357 382 358
  2 382 383 358
  1 358 383 359
  1 383 384 359
  1 359 384 360
  1 384 385 360
  1 360 385 361
  1 385 386 361
  1 361 386 362
  1 386 387 362
  1 362 387 363
  1 387 388 363
  1 363 388 364
  1 388 389 364
  1 364 389 365
  1 389 390 365
  1 365 390 366
  1 390 391 366
  1 366 391 367
  1 391 392 367
  1 367 392 368
  1 392 393 368
  3 368 393 369
  3 393 394 369
  3 369 394 370
  3 394 395 370
  3 370 395 371
  3 395 396 371
  3 371 396 372
  3 396 397 372
  3 372 397 373
  3 397 398 373
  3 373 398 374
  3 398 399 374
  3 374 399 375
  3 399 400 375
  2 376 401 377
  2 401 402 377
  2 377 402 378
  2 402 403 378
  2 378 403 379
  2 403 404 379
  2 379 404 380
  2 404 405 380
  2 380 405 381
  2 405 406 381
  2 381 406 382
  2 406 407 382
  2 382 407 383
  2 407 408 383
  1 383 408 384
  1 408 409 384
  1 384 409 385
  1 409 410 385
  1 385 410 386
  1 410 411 386
  1 386 411 387
  1 411 412 387
  1 387 412 388
  1 412 413 388
  1 388 413 389
  1 413 414 389
  1 389 414 390
  1 414 415 390
  1 390 415 391
  1 415 416 391
  1 391 416 392
  1 416 417 392
  1 392 417 393
  1 417 418 393
  3 393 418 394
  3 418 419 394
  3 394 419 395
  3 419 420 395
  3 395 420 396
  3 420 421 396
  3 396 421 397
  3 421 422 397
  3 397 422 398
  3 422 423 398
  3 398 423 399
  3 423 424 399
  3 399 424 400
  3 424 425 400
  2 401 426 402
  2 426 427 402
  2 402 427 403
  2 427 428 403
  2 403 428 404
  2 428 429 404
  2 404 429 405
  2 429 430 405
  2 405 430 406
  2 430 431 406
  2 406 431 407
  2 431 432 407
  2 407 432 408
  2 432 433 408
  1 408 433 409
  1 433 434 409
  1 409 434 410
  1 434 435 410
  1 410 435 411
  1 435 436 411
  1 411 436 412
  1 436 437 412
  1 412 437 413
  1 437 438 413
  1 413 438 414
  1 438 439 414
  1 414 439 415
  1 439 440 415
  1 415 440 416
  1 440 441 416
  1 416 441 417
  1 441 442 417
  1 417 442 418
  1 442 443 418
  3 418 443 419
  3 443 444 419
  3 419 444 420
  3 444 445 420
  3 420 445 421
  3 445 446 421
  3 421 446 422
  3 446 447 422
  3 422 447 423
  3 447 448 423
  3 423 448 424
  3 448 449 424
  3 424 449 425
  3 449 450 425
  2 426 451 427
  2 451 452 427
  2 427 452 428
  2 452 453 428
  2 428 453 429
  2 453 454 429
  2 429 454 430
  2 454 455 430
  2 430 455 431
  2 455 456 431
  2 431 456 432
  2 456 457 432
  2 432 457 433
  2 457 458 433
  1 433 458 434
  1 458 459 434
  1 434 459 435
  1 459 460 435
  1 435 460 436
  1 460 461 436
  1 436 461 437
  1 461 462 437
  1 437 462 438
  1 462 463 438
  1 438 463 439
  1 463 464 439
  1 439 464 440
  1 464 465 440
  1 440 465 441
  1 465 466 441
  1 441 466 442
  1 466 467 442
  1 442 467 443
  1 467 468 443
  3 443 468 444
  3 468 469 444
  3 444 469 445
  3 469 470 445
  3 445 470 446
  3 470 471 446
  3 446 471 447
  3 471 472 447
  3 447 472 448
  3 472 473 448
  3 448 473 449
  3 473 474 449
  3 449 474 450
  3 474 475 450
  2 451 476 452
  2 476 477 452
  2 452 477 453
  2 477 478 453
  2 453 478 454
  2 478 479 454
  2 454 479 455
  2 479 480 455
  2 455 480 456
  2 480 481 456
  2 456 481 457
  2 481 482 457
  2 457 482 458
  2 482 483 458
  1 458 483 459
  1 483 484 459
  1 459 484 460
  1 484 485 460
  1 460 485 461
  1 485 486 461
  1 461 486 462
  1 486 487 462
  1 462 487 463
  1 487 488 463
  1 463 488 464
  1 488 489 464
  1 464 489 465
  1 489 490 465
  1 465 490 466
  1 490 491 466
  1 466 491 467
  1 491 492 467
  1 467 492 468
  1 492 493 468
  3 468 493 469
  3 493 494 469
  3 469 494 470
  3 494 495 470
  3 470 495 471
  3 495 496 471
  3 471 496 472
  3 496 497 472
  3 472 497 473
  3 497 498 473
  3 473 498 474
  3 498 499 474
  3 474 499 475
  3 499 500 475
  2 476 501 477
  2 501 502 477
  2 477 502 478
  2 502 503 478
  2 478 503 479
  2 503 504 479
  2 479 504 480
  2 504 505 480
  2 480 505 481
  2 505 506 481
  2 481 506 482
  2 506 507 482
  2 482 507 483
  2 507 508 483
  1 483 508 484
  1 508 509 484
  1 484 509 485
  1 509 510 485
  1 485 510 486
  1 510 511 486
  1 486 511 487
  1 511 512 487
  1 487 512 488
  1 512 513 488
  1 488 513 489
  1 513 514 489
  1 489 514 490
  1 514 515 490
  1 490 515 491
  1 515 516 491
  1 491 516 492
  1 516 517 492
  1 492 517 493
  1 517 518 493
  3 493 518 494
  3 518 519 494
  3 494 519 495
  3 519 520 495
  3 495 520 496
  3 520 521 496
  3 496 521 497
  3 521 522 497
  3 497 522 498
  3 522 523 498
  3 498 523 499
  3 523 524 499
  3 499 524 500
  3 524 525 500
  2 501 526 502
  2 526 527 502
  2 502 527 503
  2 527 528 503
  2 503 528 504
  2 528 529 504
  2 504 529 505
  2 529 530 505
  2 505 530 506
  2 530 531 506
  2 506 531 507
  2 531 532 507
  2 507 532 508
  2 532 533 508
  1 508 533 509
  1 533 534 509
  1 509 534 510
  1 534 535 510
  1 510 535 511
  1 535 536 511
  1 511 536 512
  1 536 537 512
  1 512 537 513
  1 537 538 513
  1 513 538 514
  1 538 539 514
  1 514 539 515
  1 539 540 515
  1 515 540 516
  1 540 541 516
  1 516 541 517
  1 541 542 517
  1 517 542 518
  1 542 543 518
  3 518 543 519
  3 543 544 519
  3 519 544 520
  3 544 545 520
  3 520 545 521
  3 545 546 521
  3 521 546 522
  3 546 547 522
  3 522 547 523
  3 547 548 523
  3 523 548 524
  3 548 549 524
  3 524 549 525
  3 549 550 525
  2 526 551 527
  2 551 552 527
  2 527 552 528
  2 552 553 528
  2 528 553 529
  2 553 554 529
  2 529 554 530
  2 554 555 530
  2 530 555 531
  2 555 556 531
  2 531 556 532
  2 556 557 532
  2 532 557 533
  2 557 558 533
  1 533 558 534
  1 558 559 534
  1 534 559 535
  1 559 560 535
  1 535 560 536
  1 560 561 536
  1 536 561 537
  1 561 562 537
  1 537 562 538
  1 562 563 538
  1 538 563 539
  1 563 564 539
  1 539 564 540
  1 564 565 540
  1 540 565 541
  1 565 566 541
  1 541 566 542
  1 566 567 542
  1 542 567 543
  1 567 568 543
  3 543 568 544
  3 568 569 544
  3 544 569 545
  3 569 570 545
  3 545 570 546
  3 570 571 546
  3 546 571 547
  3 571 572 547
  3 547 572 548
  3 572 573 548
  3 548 573 549
  3 573 574 549
  3 549 574 550
  3 574 575 550
  2 551 576 552
  2 576 577 552
  2 552 577 553
  2 577 578 553
  2 553 578 554
  2 578 579 554
  2 554 579 555
  2 579 580 555
  2 555 580 556
  2 580 581 556
  2 556 581 557
  2 581 582 557
  2 557 582 558
  2 582 583 558
  1 558 583 559
  1 583 584 559
  1 559 584 560
  1 584 585 560
  1 560 585 561
  1 585 586 561
  1 561 586 562
  1 586 587 562
  1 562 587 563
  1 587 588 563
  1 563 588 564
  1 588 589 564
  1 564 589 565
  1 589 590 565
  1 565 590 566
  1 590 591 566
  1 566 591 567
  1 591 592 567
  1 567 592 568
  1 592 593 568
  3 568 593 569
  3 593 594 569
  3 569 594 570
  3 594 595 570
  3 570 595 571
  3 595 596 571
  3 571 596 572
  3 596 597 572
  3 572 597 573
  3 597 598 573
  3 573 598 574
  3 598 599 574
  3 574 599 575
  3 599 600 575
  2 576 601 577
  2 601 602 577
  2 577 602 578
  2 602 603 578
  2 578 603 579
  2 603 604 579
  2 579 604 580
  2 604 605 580
  2 580 605 581
  2 605 606 581
  2 581 606 582
  2 606 607 582
  2 582 607 583
  2 607 608 583
  1 583 608 584
  1 608 609 584
  1 584 609 585
  1 609 610 585
  1 585 610 586
  1 610 611 586
  1 586 611 587
  1 611 612 587
  1 587 612 588
  1 612 613 588
  1 588 613 589
  1 613 614 589
  1 589 614 590
  1 614 615 590
  1 590 615 591
  1 615 616 591
  1 591 616 592
  1 616 617 592
  1 592 617 593
  1 617 618 593
  3 593 618 594
  3 618 619 594
  3 594 619 595
  3 619 620 595
  3 595 620 596
  3 620 621 596
  3 596 621 597
  3 621 622 597
  3 597 622 598
  3 622 623 598
  3 598 623 599
  3 623 624 599
  3 599 624 600
  3 624 625 600
  2 601 626 602
  2 626 627 602
  2 602 627 603
  2 627 628 603
  2 603 628 604
  2 628 629 604
  2 604 629 605
  2 629 630 605
  2 605 630 606
  2 630 631 606
  2 606 631 607
  2 631 632 607
  2 607 632 608
  2 632 633 608
  1 608 633 609
  1 633 634 609
  1 609 634 610
  1 634 635 610
  1 610 635 611
  1 635 636 611
  1 611 636 612
  1 636 637 612
  1 612 637 613
  1 637 638 613
  1 613 638 614
  1 638 639 614
  1 614 639 615
  1 639 640 615
  1 615 640 616
  1 640 641 616
  1 616 641 617
  1 641 642 617
  1 617 642 618
  1 642 643 618
  3 618 643 619
  3 643 644 619
  3 619 644 620
  3 644 645 620
  3 620 645 621
  3 645 646 621
  3 621 646 622
  3 646 647 622
  3 622 647 623
  3 647 648 623
  3 623 648 624
  3 648 649 624
  3 624 649 625
  3 649 650 625
  2 626 651 652
  2 626 652 627
  2 627 652 653
  2 627 653 628
  2 628 653 654
  2 628 654 629
  2 629 654 655
  2 629 655 630
  2 630 655 656
  2 630 656 631
  2 631 656 657
  2 631 657 632
  2 632 657 658
  2 632 658 633
  1 633 658 659
  1 633 659 634
  1 634 659 660
  1 634 660 635
  1 635 660 661
  1 635 661 636
  1 636 661 662
  1 636 662 637
  1 637 662 663
  1 637 663 638
  1 638 663 664
  1 638 664 639
  1 639 664 665
  1 639 665 640
  1 640 665 666
  1 640 666 641
  1 641 666 667
  1 641 667 642
  1 642 667 668
  1 642 668 643
  3 643 668 669
  3 643 669 644
  3 644 669 670
  3 644 670 645
  3 645 670 671
  3 645 671 646
  3 646 671 672
  3 646 672 647
  3 647 672 673
  3 647 673 648
  3 648 673 674
  3 648 674 649
  3 649 674 675
  3 649 675 650
  2 651 676 677
  2 651 677 652
  2 652 677 678
  2 652 678 653
  2 653 678 679
  2 653 679 654
  2 654 679 680
  2 654 680 655
  2 655 680 681
  2 655 681 656
  2 656 681 682
  2 656 682 657
  2 657 682 683
  2 657 683 658
  1 658 683 684
  1 658 684 659
  1 659 684 685
  1 659 685 660
  1 660 685 686
  1 660 686 661
  1 661 686 687
  1 661 687 662
  1 662 687 688
  1 662 688 663
  1 663 688 689
  1 663 689 664
  1 664 689 690
  1 664 690 665
  1 665 690 691
  1 665 691 666
  1 666 691 692
  1 666 692 667
  1 667 692 693
  1 667 693 668
  3 668 693 694
  3 668 694 669
  3 669 694 695
  3 669 695 670
  3 670 695 696
  3 670 696 671
  3 671 696 697
  3 671 697 672
  3 672 697 698
  3 672 698 673
  3 673 698 699
  3 673 699 674
  3 674 699 700
  3 674 700 675
  2 676 701 702
  2 676 702 677
  2 677 702 703
  2 677 703 678
  2 678 703 704
  2 678 704 679
  2 679 704 705
  2 679 705 680
  2 680 705 706
  2 680 706 681
  2 681 706 707
  2 681 707 682
  2 682 707 708
  2 682 708 683
  1 683 708 709
  1 683 709 684
  1 684 709 710
  1 684 710 685
  1 685 710 711
  1 685 711 686
  1 686 711 712
  1 686 712 687
  1 687 712 713
  1 687 713 688
  1 688 713 714
  1 688 714 689
  1 689 714 715
  1 689 715 690
  1 690 715 716
  1 690 716 691
  1 691 716 717
  1 691 717 692
  1 692 717 718
  1 692 718 693
  3 693 718 719
  3 693 719 694
  3 694 719 720
  3 694 720 695
  3 695 720 721
  3 695 721 696
  3 696 721 722
  3 696 722 697
  3 697 722 723
  3 697 723 698
  3 698 723 724
  3 698 724 699
  3 699 724 725
  3 699 725 700
  2 701 726 727
  2 701 727 702
  2 702 727 728
  2 702 728 703
  2 703 728 729
  2 703 729 704
  2 704 729 730
  2 704 730 705
  2 705 730 731
  2 705 731 706
  2 706 731 732
  2 706 732 707
  2 707 732 733
  2 707 733 708
  1 708 733 734
  1 708 734 709
  1 709 734 735
  1 709 735 710
  1 710 735 736
  1 710 736 711
  1 711 736 737
  1 711 737 712
  1 712 737 738
  1 712 738 713
  1 713 738 739
  1 713 739 714
  1 714 739 740
  1 714 740 715
  1 715 740 741
  1 715 741 716
  1 716 741 742
  1 716 742 717
  1 717 742 743
  1 717 743 718
  3 718 743 744
  3 718 744 719
  3 719 744 745
  3 719 745 720
  3 720 745 746
  3 720 746 721
  3 721 746 747
  3 721 747 722
  3 722 747 748
  3 722 748 723
  3 723 748 749
  3 723 749 724
  3 724 749 750
  3 724 750 725
  2 726 751 752
  2 726 752 727
  2 727 752 753
  2 727 753 728
  2 728 753 754
  2 728 754 729
  2 729 754 755
  2 729 755 730
  2 730 755 756
  2 730 756 731
  2 731 756 757
  2 731 757 732
  2 732 757 758
  2 732 758 733
  1 733 758 759
  1 733 759 734
  1 734 759 760
  1 734 760 735
  1 735 760 761
  1 735 761 736
  1 736 761 762
  1 736 762 737
  1 737 762 763
  1 737 763 738
  1 738 763 764
  1 738 764 739
  1 739 764 765
  1 739 765 740
  1 740 765 766
  1 740 766 741
  1 741 766 767
  1 741 767 742
  1 742 767 768
  1 742 768 743
  3 743 768 769
  3 743 769 744
  3 744 769 770
  3 744 770 745
  3 745 770 771
  3 745 771 746
  3 746 771 772
  3 746 772 747
  3 747 772 773
  3 747 773 748
  3 748 773 774
  3 748 774 749
  3 749 774 775
  3 749 775 750
  2 751 776 777
  2 751 777 752
  2 752 777 778
  2 752 778 753
  2 753 778 779
  2 753 779 754
  2 754 779 780
  2 754 780 755
  2 755 780 781
  2 755 781 756
  2 756 781 782
  2 756 782 757
  2 757 782 783
  2 757 783 758
  1 758 783 784
  1 758 784 759
  1 759 784 785
  1 759 785 760
  1 760 785 786
  1 760 786 761
  1 761 786 787
  1 761 787 762
  1 762 787 788
  1 762 788 763
  1 763 788 789
  1 763 789 764
  1 764 789 790
  1 764 790 765
  1 765 790 791
  1 765 791 766
  1 766 791 792
  1 766 792 767
  1 767 792 793
  1 767 793 768
  3 768 793 794
  3 768 794 769
  3 769 794 795
  3 769 795 770
  3 770 795 796
  3 770 796 771
  3 771 796 797
  3 771 797 772
  3 772 797 798
  3 772 798 773
  3 773 798 799
  3 773 799 774
  3 774 799 800
  3 774 800 775
  2 776 801 802
  2 776 802 777
  2 777 802 803
  2 777 803 778
  2 778 803 804
  2 778 804 779
  2 779 804 805
  2 779 805 780
  2 780 805 806
  2 780 806 781
  2 781 806 807
  2 781 807 782
  2 782 807 808
  2 782 808 783
  1 783 808 809
  1 783 809 784
  1 784 809 810
  1 784 810 785
  1 785 810 811
  1 785 811 786
  1 786 811 812
  1 786 812 787
  1 787 812 813
  1 787 813 788
  1 788 813 814
  1 788 814 789
  1 789 814 815
  1 789 815 790
  1 790 815 816
  1 790 816 791
  1 791 816 817
  1 791 817 792
  1 792 817 818
  1 792 818 793
  3 793 818 819
  3 793 819 794
  3 794 819 820
  3 794 820 795
  3 795 820 821
  3 795 821 796
  3 796 821 822
  3 796 822 797
  3 797 822 823
  3 797 823 798
  3 798 823 824
  3 798 824 799
  3 799 824 825
  3 799 825 800
  2 801 826 827
  2 801 827 802
  2 802 827 828
  2 802 828 803
  2 803 828 829
  2 803 829 804
  2 804 829 830
  2 804 830 805
  2 805 830 831
  2 805 831 806
  2 806 831 832
  2 806 832 807
  2 807 832 833
  2 807 833 808
  1 808 833 834
  1 808 834 809
  1 809 834 835
  1 809 835 810
  1 810 835 836
  1 810 836 811
  1 811 836 837
  1 811 837 812
  1 812 837 838
  1 812 838 813
  1 813 838 839
  1 813 839 814
  1 814 839 840
  1 814 840 815
  1 815 840 841
  1 815 841 816
  1 816 841 842
  1 816 842 817
  1 817 842 843
  1 817 843 818
  3 818 843 844
  3 818 844 819
  3 819 844 845
  3 819 845 820
  3 820 845 846
  3 820 846 821
  3 821 846 847
  3 821 847 822
  3 822 847 848
  3 822 848 823
  3 823 848 849
  3 823 849 824
  3 824 849 850
  3 824 850 825
  2 826 851 852
  2 826 852 827
  2 827 852 853
  2 827 853 828
  2 828 853 854
  2 828 854 829
  2 829 854 855
  2 829 855 830
  2 830 855 856
  2 830 856 831
  2 831 856 857
  2 831 857 832
  2 832 857 858
  2 832 858 833
  1 833 858 859
  1 833 859 834
  1 834 859 860
  1 834 860 835
  1 835 860 861
  1 835 861 836
  1 836 861 862
  1 836 862 837
  1 837 862 863
  1 837 863 838
  1 838 863 864
  1 838 864 839
  1 839 864 865
  1 839 865 840
  1 840 865 866
  1 840 866 841
  1 841 866 867
  1 841 867 842
  1 842 867 868
  1 842 868 843
  3 843 868 869
  3 843 869 844
  3 844 869 870
  3 844 870 845
  3 845 870 871
  3 845 871 846
  3 846 871 872
  3 846 872 847
  3 847 872 873
  3 847 873 848
  3 848 873 874
  3 848 874 849
  3 849 874 875
  3 849 875 850
  2 851 876 877
  2 851 877 852
  2 852 877 878
  2 852 878 853
  2 853 878 879
  2 853 879 854
  2 854 879 880
  2 854 880 855
  2 855 880 881
  2 855 881 856
  2 856 881 882
  2 856 882 857
  2 857 882 883
  2 857 883 858
  1 858 883 884
  1 858 884 859
  1 859 884 885
  1 859 885 860
  1 860 885 886
  1 860 886 861
  1 861 886 887
  1 861 887 862
  1 862 887 888
  1 862 888 863
  1 863 888 889
  1 863 889 864
  1 864 889 890
  1 864 890 865
  1 865 890 891
  1 865 891 866
  1 866 891 892
  1 866 892 867
  1 867 892 893
  1 867 893 868
  3 868 893 894
  3 868 894 869
  3 869 894 895
  3 869 895 870
  3 870 895 896
  3 870 896 871
  3 871 896 897
  3 871 897 872
  3 872 897 898
  3 872 898 873
  3 873 898 899
  3 873 899 874
  3 874 899 900
  3 874 900 875
  2 876 901 902
  2 876 902 877
  2 877 902 903
  2 877 903 878
  2 878 903 904
  2 878 904 879
  2 879 904 905
  2 879 905 880
  2 880 905 906
  2 880 906 881
  2 881 906 907
  2 881 907 882
  2 882 907 908
  2 882 908 883
  1 883 908 909
  1 883 909 884
  1 884 909 910
  1 884 910 885
  1 885 910 911
  1 885 911 886
  1 886 911 912
  1 886 912 887
  1 887 912 913
  1 887 913 888
  1 888 913 914
  1 888 914 889
  1 889 914 915
  1 889 915 890
  1 890 915 916
  1 890 916 891
  1 891 916 917
  1 891 917 892
  1 892 917 918
  1 892 918 893
  3 893 918 919
  3 893 919 894
  3 894 919 920
  3 894 920 895
  3 895 920 921
  3 895 921 896
  3 896 921 922
  3 896 922 897
  3 897 922 923
  3 897 923 898
  3 898 923 924
  3 898 924 899
  3 899 924 925
  3 899 925 900
  2 901 926 927
  2 901 927 902
  2 902 927 928
  2 902 928 903
  2 903 928 929
  2 903 929 904
  2 904 929 930
  2 904 930 905
  2 905 930 931
  2 905 931 906
  2 906 931 932
  2 906 932 907
  2 907 932 933
  2 907 933 908
  1 908 933 934
  1 908 934 909
  1 909 934 935
  1 909 935 910
  1 910 935 936
  1 910 936 911
  1 911 936 937
  1 911 937 912
  1 912 937 938
  1 912 938 913
  1 913 938 939
  1 913 939 914
  1 914 939 940
  1 914 940 915
  1 915 940 941
  1 915 941 916
  1 916 941 942
  1 916 942 917
  1 917 942 943
  1 917 943 918
  3 918 943 944
  3 918 944 919
  3 919 944 945
  3 919 945 920
  3 920 945 946
  3 920 946 921
  3 921 946 947
  3 921 947 922
  3 922 947 948
  3 922 948 923
  3 923 948 949
  3 923 949 924
  3 924 949 950
  3 924 950 925
  2 926 951 952
  2 926 952 927
  2 927 952 953
  2 927 953 928
  2 928 953 954
  2 928 954 929
  2 929 954 955
  2 929 955 930
  2 930 955 956
  2 930 956 931
  2 931 956 957
  2 931 957 932
  2 932 957 958
  2 932 958 933
  1 933 958 959
  1 933 959 934
  1 934 959 960
  1 934 960 935
  1 935 960 961
  1 935 961 936
  1 936 961 962
  1 936 962 937
  1 937 962 963
  1 937 963 938
  1 938 963 964
  1 938 964 939
  1 939 964 965
  1 939 965 940
  1 940 965 966
  1 940 966 941
  1 941 966 967
  1 941 967 942
  1 942 967 968
  1 942 968 943
  3 943 968 969
  3 943 969 944
  3 944 969 970
  3 944 970 945
  3 945 970 971
  3 945 971 946
  3 946 971 972
  3 946 972 947
  3 947 972 973
  3 947 973 948
  3 948 973 974
  3 948 974 949
  3 949 974 975
  3 949 975 950
  2 951 976 977
  2 951 977 952
  2 952 977 978
  2 952 978 953
  2 953 978 979
  2 953 979 954
  2 954 979 980
  2 954 980 955
  2 955 980 981
  2 955 981 956
  2 956 981 982
  2 956 982 957
  2 957 982 983
  2 957 983 958
  1 958 983 984
  1 958 984 959
  1 959 984 985
  1 959 985 960
  1 960 985 986
  1 960 986 961
  1 961 986 987
  1 961 987 962
  1 962 987 988
  1 962 988 963
  1 963 988 989
  1 963 989 964
  1 964 989 990
  1 964 990 965
  1 965 990 991
  1 965 991 966
  1 966 991 992
  1 966 992 967
  1 967 992 993
  1 967 993 968
  3 968 993 994
  3 968 994 969
  3 969 994 995
  3 969 995 970
  3 970 995 996
  3 970 996 971
  3 971 996 997
  3 971 997 972
  3 972 997 998
  3 972 998 973
  3 973 998 999
  3 973 999 974
  3 974 999 1000
  3 974 1000 975
  2 976 1001 1002
  2 976 1002 977
  2 977 1002 1003
  2 977 1003 978
  2 978 1003 1004
  2 978 1004 979
  2 979 1004 1005
  2 979 1005 980
  2 980 1005 1006
  2 980 1006 981
  2 981 1006 1007
  2 981 1007 982
  2 982 1007 1008
  2 982 1008 983
  1 983 1008 1009
  1 983 1009 984
  1 984 1009 1010
  1 984 1010 985
  1 985 1010 1011
  1 985 1011 986
  1 986 1011 1012
  1 986 1012 987
  1 987 1012 1013
  1 987 1013 988
  1 988 1013 1014
  1 988 1014 989
  1 989 1014 1015
  1 989 1015 990
  1 990 1015 1016
  1 990 1016 991
  1 991 1016 1017
  1 991 1017 992
  1 992 1017 1018
  1 992 1018 993
  3 993 1018 1019
  3 993 1019 994
  3 994 1019 1020
  3 994 1020 995
  3 995 1020 1021
  3 995 1021 996
  3 996 1021 1022
  3 996 1022 997
  3 997 1022 1023
  3 997 1023 998
  3 998 1023 1024
  3 998 1024 999
  3 999 1024 1025
  3 999 1025 1000
  2 1001 1026 1027
  2 1001 1027 1002
  2 1002 1027 1028
  2 1002 1028 1003
  2 1003 1028 1029
  2 1003 1029 1004
  2 1004 1029 1030
  2 1004 1030 1005
  2 1005 1030 1031
  2 1005 1031 1006
  2 1006 1031 1032
  2 1006 1032 1007
  2 1007 1032 1033
  2 1007 1033 1008
  1 1008 1033 1034
  1 1008 1034 1009
  1 1009 1034 1035
  1 1009 1035 1010
  1 1010 1035 1036
  1 1010 1036 1011
  1 1011 1036 1037
  1 1011 1037 1012
  1 1012 1037 1038
  1 1012 1038 1013
  1 1013 1038 1039
  1 1013 1039 1014
  1 1014 1039 1040
  1 1014 1040 1015
  1 1015 1040 1041
  1 1015 1041 1016
  1 1016 1041 1042
  1 1016 1042 1017
  1 1017 1042 1043
  1 1017 1043 1018
  3 1018 1043 1044
  3 1018 1044 1019
  3 1019 1044 1045
  3 1019 1045 1020
  3 1020 1045 1046
  3 1020 1046 1021
  3 1021 1046 1047
  3 1021 1047 1022
  3 1022 1047 1048
  3 1022 1048 1023
  3 1023 1048 1049
  3 1023 1049 1024
  3 1024 1049 1050
  3 1024 1050 1025
  2 1026 1051 1052
  2 1026 1052 1027
  2 1027 1052 1053
  2 1027 1053 1028
  2 1028 1053 1054
  2 1028 1054 1029
  2 1029 1054 1055
  2 1029 1055 1030
  2 1030 1055 1056
  2 1030 1056 1031
  2 1031 1056 1057
  2 1031 1057 1032
  2 1032 1057 1058
  2 1032 1058 1033
  1 1033 1058 1059
  1 1033 1059 1034
  1 1034 1059 1060
  1 1034 1060 1035
  1 1035 1060 1061
  1 1035 1061 1036
  1 1036 1061 1062
  1 1036 1062 1037
  1 1037 1062 1063
  1 1037 1063 1038
  1 1038 1063 1064
  1 1038 1064 1039
  1 1039 1064 1065
  1 1039 1065 1040
  1 1040 1065 1066
  1 1040 1066 1041
  1 1041 1066 1067
  1 1041 1067 1042
  1 1042 1067 1068
  1 1042 1068 1043
  3 1043 1068 1069
  3 1043 1069 1044
  3 1044 1069 1070
  3 1044 1070 1045
  3 1045 1070 1071
  3 1045 1071 1046
  3 1046 1071 1072
  3 1046 1072 1047
  3 1047 1072 1073
  3 1047 1073 1048
  3 1048 1073 1074
  3 1048 1074 1049
  3 1049 1074 1075
  3 1049 1075 1050
  2 1051 1076 1077
  2 1051 1077 1052
  2 1052 1077 1078
  2 1052 1078 1053
  2 1053 1078 1079
  2 1053 1079 1054
  2 1054 1079 1080
  2 1054 1080 1055
  2 1055 1080 1081
  2 1055 1081 1056
  2 1056 1081 1082
  2 1056 1082 1057
  2 1057 1082 1083
  2 1057 1083 1058
  1 1058 1083 1084
  1 1058 1084 1059
  1 1059 1084 1085
  1 1059 1085 1060
  1 1060 1085 1086
  1 1060 1086 1061
  1 1061 1086 1087
  1 1061 1087 1062
  1 1062 1087 1088
  1 1062 1088 1063
  1 1063 1088 1089
  1 1063 1089 1064
  1 1064 1089 1090
  1 1064 1090 1065
  1 1065 1090 1091
  1 1065 1091 1066
  1 1066 1091 1092
  1 1066 1092 1067
  1 1067 1092 1093
  1 1067 1093 1068
  3 1068 1093 1094
  3 1068 1094 1069
  3 1069 1094 1095
  3 1069 1095 1070
  3 1070 1095 1096
  3 1070 1096 1071
  3 1071 1096 1097
  3 1071 1097 1072
  3 1072 1097 1098
  3 1072 1098 1073
  3 1073 1098 1099
  3 1073 1099 1074
  3 1074 1099 1100
  3 1074 1100 1075
  2 1076 1101 1102
  2 1076 1102 1077
  2 1077 1102 1103
  2 1077 1103 1078
  2 1078 1103 1104
  2 1078 1104 1079
  2 1079 1104 1105
  2 1079 1105 1080
  2 1080 1105 1106
  2 1080 1106 1081
  2 1081 1106 1107
  2 1081 1107 1082
  2 1082 1107 1108
  2 1082 1108 1083
  1 1083 1108 1109
  1 1083 1109 1084
  1 1084 1109 1110
  1 1084 1110 1085
  1 1085 1110 1111
  1 1085 1111 1086
  1 1086 1111 1112
  1 1086 1112 1087
  1 1087 1112 1113
  1 1087 1113 1088
  1 1088 1113 1114
  1 1088 1114 1089
  1 1089 1114 1115
  1 1089 1115 1090
  1 1090 1115 1116
  1 1090 1116 1091
  1 1091 1116 1117
  1 1091 1117 1092
  1 1092 1117 1118
  1 1092 1118 1093
  3 1093 1118 1119
  3 1093 1119 1094
  3 1094 1119 1120
  3 1094 1120 1095
  3 1095 1120 1121
  3 1095 1121 1096
  3 1096 1121 1122
  3 1096 1122 1097
  3 1097 1122 1123
  3 1097 1123 1098
  3 1098 1123 1124
  3 1098 1124 1099
  3 1099 1124 1125
  3 1099 1125 1100
  2 1101 1126 1127
  2 1101 1127 1102
  2 1102 1127 1128
  2 1102 1128 1103
  2 1103 1128 1129
  2 1103 1129 1104
  2 1104 1129 1130
  2 1104 1130 1105
  2 1105 1130 1131
  2 1105 1131 1106
  2 1106 1131 1132
  2 1106 1132 1107
  2 1107 1132 1133
  2 1107 1133 1108
  1 1108 1133 1134
  1 1108 1134 1109
  1 1109 1134 1135
  1 1109 1135 1110
  1 1110 1135 1136
  1 1110 1136 1111
  1 1111 1136 1137
  1 1111 1137 1112
  1 1112 1137 1138
  1 1112 1138 1113
  1 1113 1138 1139
  1 1113 1139 1114
  1 1114 1139 1140
  1 1114 1140 1115
  1 1115 1140 1141
  1 1115 1141 1116
  1 1116 1141 1142
  1 1116 1142 1117
  1 1117 1142 1143
  1 1117 1143 1118
  3 1118 1143 1144
  3 1118 1144 1119
  3 1119 1144 1145
  3 1119 1145 1120
  3 1120 1145 1146
  3 1120 1146 1121
  3 1121 1146 1147
  3 1121 1147 1122
  3 1122 1147 1148
  3 1122 1148 1123
  3 1123 1148 1149
  3 1123 1149 1124
  3 1124 1149 1150
  3 1124 1150 1125
  2 1126 1151 1152
  2 1126 1152 1127
  2 1127 1152 1153
  2 1127 1153 1128
  2 1128 1153 1154
  2 1128 1154 1129
  2 1129 1154 1155
  2 1129 1155 1130
  2 1130 1155 1156
  2 1130 1156 1131
  2 1131 1156 1157
  2 1131 1157 1132
  2 1132 1157 1158
  2 1132 1158 1133
  1 1133 1158 1159
  1 1133 1159 1134
  1 1134 1159 1160
  1 1134 1160 1135
  1 1135 1160 1161
  1 1135 1161 1136
  1 1136 1161 1162
  1 1136 1162 1137
  1 1137 1162 1163
  1 1137 1163 1138
  1 1138 1163 1164
  1 1138 1164 1139
  1 1139 1164 1165
  1 1139 1165 1140
  1 1140 1165 1166
  1 1140 1166 1141
  1 1141 1166 1167
  1 1141 1167 1142
  1 1142 1167 1168
  1 1142 1168 1143
  3 1143 1168 1169
  3 1143 1169 1144
  3 1144 1169 1170
  3 1144 1170 1145
  3 1145 1170 1171
  3 1145 1171 1146
  3 1146 1171 1172
  3 1146 1172 1147
  3 1147 1172 1173
  3 1147 1173 1148
  3 1148 1173 1174
  3 1148 1174 1149
  3 1149 1174 1175
  3 1149 1175 1150
  2 1151 1176 1177
  2 1151 1177 1152
  2 1152 1177 1178
  2 1152 1178 1153
  2 1153 1178 1179
  2 1153 1179 1154
  2 1154 1179 1180
  2 1154 1180 1155
  2 1155 1180 1181
  2 1155 1181 1156
  2 1156 1181 1182
  2 1156 1182 1157
  2 1157 1182 1183
  2 1157 1183 1158
  1 1158 1183 1184
  1 1158 1184 1159
  1 1159 1184 1185
  1 1159 1185 1160
  1 1160 1185 1186
  1 1160 1186 1161
  1 1161 1186 1187
  1 1161 1187 1162
  1 1162 1187 1188
  1 1162 1188 1163
  1 1163 1188 1189
  1 1163 1189 1164
  1 1164 1189 1190
  1 1164 1190 1165
  1 1165 1190 1191
  1 1165 1191 1166
  1 1166 1191 1192
  1 1166 1192 1167
  1 1167 1192 1193
  1 1167 1193 1168
  3 1168 1193 1194
  3 1168 1194 1169
  3 1169 1194 1195
  3 1169 1195 1170
  3 1170 1195 1196
  3 1170 1196 1171
  3 1171 1196 1197
  3 1171 1197 1172
  3 1172 1197 1198
  3 1172 1198 1173
  3 1173 1198 1199
  3 1173 1199 1174
  3 1174 1199 1200
  3 1174 1200 1175
  2 1176 1201 1202
  2 1176 1202 1177
  2 1177 1202 1203
  2 1177 1203 1178
  2 1178 1203 1204
  2 1178 1204 1179
  2 1179 1204 1205
  2 1179 1205 1180
  2 1180 1205 1206
  2 1180 1206 1181
  2 1181 1206 1207
  2 1181 1207 1182
  2 1182 1207 1208
  2 1182 1208 1183
  1 1183 1208 1209
  1 1183 1209 1184
  1 1184 1209 1210
  1 1184 1210 1185
  1 1185 1210 1211
  1 1185 1211 1186
  1 1186 1211 1212
  1 1186 1212 1187
  1 1187 1212 1213
  1 1187 1213 1188
  1 1188 1213 1214
  1 1188 1214 1189
  1 1189 1214 1215
  1 1189 1215 1190
  1 1190 1215 1216
  1 1190 1216 1191
  1 1191 1216 1217
  1 1191 1217 1192
  1 1192 1217 1218
  1 1192 1218 1193
  3 1193 1218 1219
  3 1193 1219 1194
  3 1194 1219 1220
  3 1194 1220 1195
  3 1195 1220 1221
  3 1195 1221 1196
  3 1196 1221 1222
  3 1196 1222 1197
  3 1197 1222 1223
  3 1197 1223 1198
  3 1198 1223 1224
  3 1198 1224 1199
  3 1199 1224 1225
  3 1199 1225 1200
  2 1201 1226 1227
  2 1201 1227 1202
  2 1202 1227 1228
  2 1202 1228 1203
  2 1203 1228 1229
  2 1203 1229 1204
  2 1204 1229 1230
  2 1204 1230 1205
  2 1205 1230 1231
  2 1205 1231 1206
  2 1206 1231 1232
  2 1206 1232 1207
  2 1207 1232 1233
  2 1207 1233 1208
  1 1208 1233 1234
  1 1208 1234 1209
  1 1209 1234 1235
  1 1209 1235 1210
  1 1210 1235 1236
  1 1210 1236 1211
  1 1211 1236 1237
  1 1211 1237 1212
  1 1212 1237 1238
  1 1212 1238 1213
  1 1213 1238 1239
  1 1213 1239 1214
  1 1214 1239 1240
  1 1214 1240 1215
  1 1215 1240 1241
  1 1215 1241 1216
  1 1216 1241 1242
  1 1216 1242 1217
  1 1217 1242 1243
  1 1217 1243 1218
  3 1218 1243 1244
  3 1218 1244 1219
  3 1219 1244 1245
  3 1219 1245 1220
  3 1220 1245 1246
  3 1220 1246 1221
  3 1221 1246 1247
  3 1221 1247 1222
  3 1222 1247 1248
  3 1222 1248 1223
  3 1223 1248 1249
  3 1223 1249 1224
  3 1224 1249 1250
  3 1224 1250 1225
  2 1226 1251 1252
  2 1226 1252 1227
  2 1227 1252 1253
  2 1227 1253 1228
  2 1228 1253 1254
  2 1228 1254 1229
  2 1229 1254 1255
  2 1229 1255 1230
  2 1230 1255 1256
  2 1230 1256 1231
  2 1231 1256 1257
  2 1231 1257 1232
  2 1232 1257 1258
  2 1232 1258 1233
  1 1233 1258 1259
  1 1233 1259 1234
  1 1234 1259 1260
  1 1234 1260 1235
  1 1235 1260 1261
  1 1235 1261 1236
  1 1236 1261 1262
  1 1236 1262 1237
  1 1237 1262 1263
  1 1237 1263 1238
  1 1238 1263 1264
  1 1238 1264 1239
  1 1239 1264 1265
  1 1239 1265 1240
  1 1240 1265 1266
  1 1240 1266 1241
  1 1241 1266 1267
  1 1241 1267 1242
  1 1242 1267 1268
  1 1242 1268 1243
  3 1243 1268 1269
  3 1243 1269 1244
  3 1244 1269 1270
  3 1244 1270 1245
  3 1245 1270 1271
  3 1245 1271 1246
  3 1246 1271 1272
  3 1246 1272 1247
  3 1247 1272 1273
  3 1247 1273 1248
  3 1248 1273 1274
  3 1248 1274 1249
  3 1249 1274 1275
  3 1249 1275 1250
